G04 DipTrace 4.1.0.0*
G04 2 - Bottom.gbr*
%MOIN*%
G04 #@! TF.FileFunction,Copper,L2,Bot*
G04 #@! TF.Part,Single*
G04 #@! TA.AperFunction,CopperBalancing*
%ADD16C,0.01*%
%ADD17C,0.012*%
G04 #@! TA.AperFunction,Conductor*
%ADD18C,0.009*%
G04 #@! TA.AperFunction,ViaPad*
%ADD19C,0.04*%
G04 #@! TA.AperFunction,CopperBalancing*
%ADD24C,0.012008*%
G04 #@! TA.AperFunction,ComponentPad*
%ADD29R,0.059055X0.059055*%
%ADD30C,0.059055*%
%ADD31R,0.068898X0.068898*%
%ADD32C,0.068898*%
%ADD33O,0.11811X0.07874*%
%ADD34O,0.07874X0.11811*%
%ADD37C,0.2*%
G04 #@! TA.AperFunction,ViaPad*
%ADD51C,0.023622*%
%FSLAX26Y26*%
G04*
G70*
G90*
G75*
G01*
G04 Bottom*
%LPD*%
X2256516Y2116016D2*
D17*
X2253765Y2113265D1*
X2117765D1*
D16*
X2099016Y2094516D1*
X1857516D1*
X1855516Y1460016D2*
X2317266D1*
X1231516Y1499016D2*
X1816516D1*
X1855516Y1460016D1*
X1231516Y1843516D2*
X917266D1*
X2617016Y498016D2*
X2643016Y524016D1*
Y1054337D1*
X2585126Y1112227D1*
X1158745Y896245D2*
D17*
X1156516Y894016D1*
X2395016Y1485016D2*
D16*
X1896765D1*
X1844765Y1537016D1*
X1796016D1*
X1743016Y1590016D1*
X1087765D1*
Y1050265D2*
X1081516Y1044016D1*
X819016D1*
X2451937Y1447017D2*
D18*
X2403186Y1398266D1*
X975766D1*
X921516Y1344016D1*
X819016D1*
X1306516Y1637766D2*
D17*
X1637765D1*
X2270312Y1617210D2*
D18*
X2269118Y1616016D1*
X1806516D1*
Y1044016D2*
X1719016D1*
X1798016Y1726516D2*
X1901016D1*
Y1522016D2*
X2275600D1*
X1901016Y2122016D2*
X2090016D1*
X2114404Y2146404D1*
X2276378D1*
X1380206Y1343516D2*
D17*
X1719016D1*
Y1344016D1*
X1200266Y1444016D2*
X1719016D1*
X2263192Y2207761D2*
D18*
X2261946Y2206516D1*
X1803016D1*
X1831516Y744016D2*
X1719016D1*
X1115438Y1546948D2*
D17*
X1118370Y1544016D1*
X1719016D1*
X2388766Y2074265D2*
D18*
X2310765Y1996265D1*
X1525265D1*
Y1144016D2*
X819016D1*
X2451745Y2033745D2*
X2310265Y1892265D1*
X621516D1*
X1598740Y1726791D2*
D17*
X1594016Y1731516D1*
X1094016D1*
X1556516Y2061585D2*
X1425260D1*
X2453016Y2389516D2*
D18*
X1832016D1*
X1856516Y1801016D2*
X2457016D1*
X1856516D2*
D16*
X1843266D1*
X1837016Y1794765D1*
X1062765D1*
X917266Y845766D2*
X915516Y844016D1*
X819016D1*
D51*
X2256516Y2116016D3*
X1857516Y2094516D3*
X1855516Y1460016D3*
X2317266D3*
X1231516Y1499016D3*
X1855516Y1460016D3*
X1231516Y1843516D3*
X917266D3*
X2617016Y498016D3*
X1158745Y896245D3*
X1087765Y1590016D3*
Y1050265D3*
X2451937Y1447017D3*
X1306516Y1637766D3*
X1637765D3*
X2270312Y1617210D3*
X1806516Y1616016D3*
Y1044016D3*
X1798016Y1726516D3*
X1901016D3*
Y1522016D3*
X2275600D3*
X1901016Y2122016D3*
X2276378Y2146404D3*
X1901016Y1726516D3*
X1380206Y1343516D3*
X1200266Y1444016D3*
X2263192Y2207761D3*
X1803016Y2206516D3*
X1831516Y744016D3*
X1115438Y1546948D3*
X2388766Y2074265D3*
X1525265Y1996265D3*
Y1144016D3*
X2451745Y2033745D3*
X621516Y1892265D3*
X1598740Y1726791D3*
X1094016Y1731516D3*
D19*
X1556516Y2061585D3*
X1425260D3*
D51*
X2453016Y2389516D3*
X1832016D3*
X1856516Y1801016D3*
X2457016D3*
X1062765Y1794765D3*
X917266Y845766D3*
X1856516Y1801016D3*
X2485269Y1482171D3*
X2780177Y1827715D3*
X2395016Y1485016D3*
X2484016Y1447516D3*
X2747854Y1408550D3*
X2779350D3*
X2747854Y1373117D3*
X2779350D3*
X2485681Y1785715D3*
Y1752715D3*
X2509181Y1785715D3*
X2509681Y1752715D3*
X2748681Y1863148D3*
X2780177D3*
X2748681Y1827715D3*
D19*
X2585126Y1112227D3*
X2795694Y512059D3*
X2540068Y935605D3*
X2540251Y897500D3*
X2539484Y860476D3*
X2539885Y825319D3*
X2420451Y935814D3*
X2420634Y897709D3*
X2419867Y860685D3*
X2420268Y825528D3*
X2600946Y632399D3*
X2556919Y633986D3*
X2556031Y591203D3*
X2599337Y592434D3*
X2599068Y555420D3*
X2556253Y554627D3*
D51*
X2649976Y1826852D3*
X2652681Y1411715D3*
X2298681Y1746715D3*
D19*
X1947681Y1666715D3*
X1983681Y1665715D3*
X2021681D3*
D51*
X2300266Y2337766D3*
D19*
X2346093Y1165524D3*
X2346388Y1117136D3*
X2349339Y1074354D3*
X2756516Y469016D3*
X2272043Y600997D3*
X2273751Y566615D3*
X2275457Y527602D3*
X1947681Y1565715D3*
X1985681Y1564715D3*
X2023681Y1565715D3*
X1945713Y2257266D3*
X1981713Y2256266D3*
X2019713D3*
X1945713Y2156266D3*
X1983713Y2155266D3*
X2021713Y2156266D3*
X2831516Y1281516D3*
D51*
X2747854Y1999101D3*
X2779350D3*
X2747854Y1963668D3*
X2779350D3*
X2748681Y2453699D3*
X2780177D3*
X2748681Y2418266D3*
X2780177D3*
D19*
X1300265Y2150266D3*
X1337766Y2262765D3*
X981516Y594016D3*
Y875265D3*
X1569016D3*
X1594016Y594016D3*
X894016Y1094016D3*
D51*
X1637766Y1031516D3*
X2487224Y2073117D3*
X2509272Y2040833D3*
X2510059Y2072329D3*
X2486437Y2040833D3*
X2486181Y2376266D3*
X2487507Y2343266D3*
X2510681Y2376266D3*
X2510507Y2343266D3*
X1619016Y1150265D3*
D19*
X1269016Y1294016D3*
X519016Y1287766D3*
X575265Y1212766D3*
D51*
X869016Y2312766D3*
X1037766D3*
X1131516Y2212766D3*
X1075265Y2112766D3*
X1131516Y2012766D3*
D19*
X519016Y669016D3*
D51*
X2509016Y1482016D3*
X2508016Y1447516D3*
X2419469Y1457272D3*
X2289215Y1589613D3*
X2298592Y1646938D3*
X2436016Y1771516D3*
X2649429Y2001070D3*
Y2424298D3*
X2417010Y2059720D3*
X2288643Y2179654D3*
X2282785Y2232617D3*
X2436395Y2360517D3*
X2362028Y2148707D3*
Y2176266D3*
Y2203825D3*
Y2235322D3*
Y2262881D3*
X2421083Y2148707D3*
Y2176266D3*
Y2203825D3*
Y2235322D3*
Y2266818D3*
X2480138Y2148707D3*
Y2180203D3*
Y2239259D3*
Y2266818D3*
X2372041Y1568169D3*
Y1618281D3*
Y1662316D3*
X2421083Y1568169D3*
Y1618281D3*
Y1666253D3*
X2470125Y1568169D3*
X2457713Y1617211D3*
X2470125Y1666253D3*
X2479470Y1489106D2*
D17*
X2984749D1*
X2479470Y1477238D2*
X2984749D1*
X2479470Y1465369D2*
X2984749D1*
X2482482Y1453500D2*
X2984749D1*
X2478262Y1461196D2*
X2479517Y1458951D1*
X2481354Y1453155D1*
X2481988Y1447017D1*
X2481496Y1442110D1*
X2985949Y1442109D1*
Y1500978D1*
X2478264Y1500975D1*
X2478262Y1461196D1*
X2483407Y1784382D2*
X2984749D1*
X2483407Y1772513D2*
X2984749D1*
X2483407Y1760644D2*
X2984749D1*
X2483407Y1748776D2*
X2984749D1*
X2483407Y1736907D2*
X2984749D1*
X2899413Y1796251D2*
X2897694Y1795081D1*
X2892320Y1792499D1*
X2886622Y1790745D1*
X2880724Y1789861D1*
X2874762Y1789866D1*
X2868867Y1790760D1*
X2863171Y1792521D1*
X2857801Y1795113D1*
X2856133Y1796252D1*
X2486692Y1796251D1*
X2486470Y1795055D1*
X2484667Y1789248D1*
X2482199Y1784770D1*
X2482201Y1733445D1*
X2985946Y1733448D1*
X2985949Y1796253D1*
X2899602Y1796251D1*
X2479474Y2079646D2*
D24*
X2984745D1*
X2479474Y2067769D2*
X2984745D1*
X2479474Y2055892D2*
X2984745D1*
X2481198Y2044016D2*
X2984745D1*
X2478268Y2047596D2*
X2479337Y2045682D1*
X2481175Y2039885D1*
X2481808Y2033745D1*
X2481701Y2032668D1*
X2610256Y2032664D1*
X2985942D1*
X2985945Y2091520D1*
X2478270Y2091522D1*
X2478268Y2047596D1*
X2483411Y2374921D2*
X2984743D1*
X2483411Y2363045D2*
X2984743D1*
X2483411Y2351168D2*
X2984743D1*
X2483411Y2339291D2*
X2984743D1*
X2483411Y2327415D2*
X2984743D1*
X2902076Y2386795D2*
X2897699Y2383816D1*
X2892323Y2381234D1*
X2886622Y2379480D1*
X2880723Y2378596D1*
X2874760Y2378601D1*
X2868862Y2379495D1*
X2863165Y2381257D1*
X2857794Y2383850D1*
X2853479Y2386797D1*
X2482951Y2386798D1*
X2482482Y2383551D1*
X2482205Y2382661D1*
Y2324001D1*
X2985948Y2324003D1*
X2985945Y2386799D1*
X2902148Y2386798D1*
X497521Y1306647D2*
D16*
X689965D1*
X748067D2*
X789965D1*
X848067D2*
X1689965D1*
X1748067D2*
X2263010D1*
X497521Y1296778D2*
X2263010D1*
X497521Y1286909D2*
X699475D1*
X738556D2*
X799475D1*
X838556D2*
X1699475D1*
X1738556D2*
X2263010D1*
X497521Y1277041D2*
X684954D1*
X753077D2*
X784954D1*
X853077D2*
X1684954D1*
X1753077D2*
X2263010D1*
X497521Y1267172D2*
X677425D1*
X760606D2*
X777425D1*
X860606D2*
X1677425D1*
X1760606D2*
X2263010D1*
X497521Y1257303D2*
X673217D1*
X764815D2*
X773217D1*
X864815D2*
X1673217D1*
X1764815D2*
X2263010D1*
X497521Y1247434D2*
X671409D1*
X866622D2*
X1671409D1*
X1766622D2*
X2263010D1*
X497521Y1237566D2*
X671731D1*
X766301D2*
X771731D1*
X866301D2*
X1671731D1*
X1766301D2*
X2263010D1*
X497521Y1227697D2*
X674231D1*
X763801D2*
X774231D1*
X863801D2*
X1674231D1*
X1763801D2*
X1850042D1*
X497521Y1217828D2*
X679319D1*
X758713D2*
X779319D1*
X858713D2*
X1679319D1*
X1758713D2*
X1842054D1*
X497521Y1207959D2*
X688294D1*
X749738D2*
X788294D1*
X849738D2*
X1688294D1*
X1749738D2*
X1834066D1*
X497521Y1198091D2*
X709398D1*
X728634D2*
X809398D1*
X828634D2*
X1709398D1*
X1728634D2*
X1826067D1*
X497521Y1188222D2*
X702874D1*
X735157D2*
X802874D1*
X835157D2*
X1702874D1*
X1735157D2*
X1818079D1*
X788156Y1179016D2*
X790178Y1180783D1*
X794251Y1183640D1*
X798602Y1186049D1*
X803186Y1187980D1*
X807949Y1189413D1*
X812837Y1190333D1*
X817795Y1190727D1*
X822768Y1190592D1*
X827697Y1189929D1*
X832529Y1188747D1*
X837206Y1187058D1*
X841678Y1184879D1*
X845894Y1182239D1*
X849804Y1179165D1*
X849961Y1179013D1*
X1081525Y1179016D1*
X1615134D1*
X1618953Y1179276D1*
X1622008Y1179016D1*
X1688054D1*
X1690178Y1180783D1*
X1694251Y1183640D1*
X1698602Y1186049D1*
X1703186Y1187980D1*
X1707949Y1189413D1*
X1712837Y1190333D1*
X1717795Y1190727D1*
X1722768Y1190592D1*
X1727697Y1189929D1*
X1732529Y1188747D1*
X1737206Y1187058D1*
X1741678Y1184879D1*
X1745894Y1182239D1*
X1749804Y1179165D1*
X1749961Y1179013D1*
X1811630Y1179016D1*
X1852630Y1229661D1*
X1854698Y1231173D1*
X1861442Y1231501D1*
X2264013Y1230281D1*
X2264016Y1307787D1*
X2218999Y1308013D1*
X1751382Y1310314D1*
X1749769Y1308835D1*
X1745854Y1305765D1*
X1741636Y1303129D1*
X1737163Y1300955D1*
X1732483Y1299270D1*
X1727651Y1298093D1*
X1722720Y1297436D1*
X1717748Y1297306D1*
X1712790Y1297705D1*
X1707903Y1298629D1*
X1703142Y1300067D1*
X1698560Y1302004D1*
X1694210Y1304416D1*
X1690142Y1307277D1*
X1686400Y1310554D1*
X1686324Y1310636D1*
X855427Y1314724D1*
X853333Y1312302D1*
X849769Y1308835D1*
X845854Y1305765D1*
X841636Y1303129D1*
X837163Y1300955D1*
X832483Y1299270D1*
X827651Y1298093D1*
X822720Y1297436D1*
X817748Y1297306D1*
X812790Y1297705D1*
X807903Y1298629D1*
X803142Y1300067D1*
X798560Y1302004D1*
X794210Y1304416D1*
X790142Y1307277D1*
X786400Y1310554D1*
X783028Y1314210D1*
X782383Y1315080D1*
X755808Y1315215D1*
X753333Y1312302D1*
X749769Y1308835D1*
X745854Y1305765D1*
X741636Y1303129D1*
X737163Y1300955D1*
X732483Y1299270D1*
X727651Y1298093D1*
X722720Y1297436D1*
X717748Y1297306D1*
X712790Y1297705D1*
X707903Y1298629D1*
X703142Y1300067D1*
X698560Y1302004D1*
X694210Y1304416D1*
X690142Y1307277D1*
X686400Y1310554D1*
X683028Y1314210D1*
X682012Y1315580D1*
X496514Y1316491D1*
X496516Y1179016D1*
X688054D1*
X690178Y1180783D1*
X694251Y1183640D1*
X698602Y1186049D1*
X703186Y1187980D1*
X707949Y1189413D1*
X712837Y1190333D1*
X717795Y1190727D1*
X722768Y1190592D1*
X727697Y1189929D1*
X732529Y1188747D1*
X737206Y1187058D1*
X741678Y1184879D1*
X745894Y1182239D1*
X749804Y1179165D1*
X749961Y1179013D1*
X788054Y1179016D1*
X865476Y1239025D2*
X864682Y1234115D1*
X863371Y1229318D1*
X861558Y1224686D1*
X859262Y1220273D1*
X856510Y1216130D1*
X853333Y1212302D1*
X849769Y1208835D1*
X845854Y1205765D1*
X841636Y1203129D1*
X837163Y1200955D1*
X832483Y1199270D1*
X827651Y1198093D1*
X822720Y1197436D1*
X817748Y1197306D1*
X812790Y1197705D1*
X807903Y1198629D1*
X803142Y1200067D1*
X798560Y1202004D1*
X794210Y1204416D1*
X790142Y1207277D1*
X786400Y1210554D1*
X783028Y1214210D1*
X780064Y1218205D1*
X777541Y1222491D1*
X775488Y1227021D1*
X773928Y1231744D1*
X772879Y1236606D1*
X772353Y1241552D1*
X772356Y1246526D1*
X772887Y1251472D1*
X773941Y1256333D1*
X775505Y1261054D1*
X777563Y1265583D1*
X780091Y1269866D1*
X783059Y1273858D1*
X786434Y1277510D1*
X790178Y1280783D1*
X794251Y1283640D1*
X798602Y1286049D1*
X803186Y1287980D1*
X807949Y1289413D1*
X812837Y1290333D1*
X817795Y1290727D1*
X822768Y1290592D1*
X827697Y1289929D1*
X832529Y1288747D1*
X837206Y1287058D1*
X841678Y1284879D1*
X845894Y1282239D1*
X849804Y1279165D1*
X853366Y1275694D1*
X856538Y1271864D1*
X859286Y1267718D1*
X861577Y1263303D1*
X863386Y1258669D1*
X864693Y1253870D1*
X865482Y1248959D1*
X865743Y1244016D1*
X865476Y1239025D1*
X765476D2*
X764682Y1234115D1*
X763371Y1229318D1*
X761558Y1224686D1*
X759262Y1220273D1*
X756510Y1216130D1*
X753333Y1212302D1*
X749769Y1208835D1*
X745854Y1205765D1*
X741636Y1203129D1*
X737163Y1200955D1*
X732483Y1199270D1*
X727651Y1198093D1*
X722720Y1197436D1*
X717748Y1197306D1*
X712790Y1197705D1*
X707903Y1198629D1*
X703142Y1200067D1*
X698560Y1202004D1*
X694210Y1204416D1*
X690142Y1207277D1*
X686400Y1210554D1*
X683028Y1214210D1*
X680064Y1218205D1*
X677541Y1222491D1*
X675488Y1227021D1*
X673928Y1231744D1*
X672879Y1236606D1*
X672353Y1241552D1*
X672356Y1246526D1*
X672887Y1251472D1*
X673941Y1256333D1*
X675505Y1261054D1*
X677563Y1265583D1*
X680091Y1269866D1*
X683059Y1273858D1*
X686434Y1277510D1*
X690178Y1280783D1*
X694251Y1283640D1*
X698602Y1286049D1*
X703186Y1287980D1*
X707949Y1289413D1*
X712837Y1290333D1*
X717795Y1290727D1*
X722768Y1290592D1*
X727697Y1289929D1*
X732529Y1288747D1*
X737206Y1287058D1*
X741678Y1284879D1*
X745894Y1282239D1*
X749804Y1279165D1*
X753366Y1275694D1*
X756538Y1271864D1*
X759286Y1267718D1*
X761577Y1263303D1*
X763386Y1258669D1*
X764693Y1253870D1*
X765482Y1248959D1*
X765743Y1244016D1*
X765476Y1239025D1*
X1765476D2*
X1764682Y1234115D1*
X1763371Y1229318D1*
X1761558Y1224686D1*
X1759262Y1220273D1*
X1756510Y1216130D1*
X1753333Y1212302D1*
X1749769Y1208835D1*
X1745854Y1205765D1*
X1741636Y1203129D1*
X1737163Y1200955D1*
X1732483Y1199270D1*
X1727651Y1198093D1*
X1722720Y1197436D1*
X1717748Y1197306D1*
X1712790Y1197705D1*
X1707903Y1198629D1*
X1703142Y1200067D1*
X1698560Y1202004D1*
X1694210Y1204416D1*
X1690142Y1207277D1*
X1686400Y1210554D1*
X1683028Y1214210D1*
X1680064Y1218205D1*
X1677541Y1222491D1*
X1675488Y1227021D1*
X1673928Y1231744D1*
X1672879Y1236606D1*
X1672353Y1241552D1*
X1672356Y1246526D1*
X1672887Y1251472D1*
X1673941Y1256333D1*
X1675505Y1261054D1*
X1677563Y1265583D1*
X1680091Y1269866D1*
X1683059Y1273858D1*
X1686434Y1277510D1*
X1690178Y1280783D1*
X1694251Y1283640D1*
X1698602Y1286049D1*
X1703186Y1287980D1*
X1707949Y1289413D1*
X1712837Y1290333D1*
X1717795Y1290727D1*
X1722768Y1290592D1*
X1727697Y1289929D1*
X1732529Y1288747D1*
X1737206Y1287058D1*
X1741678Y1284879D1*
X1745894Y1282239D1*
X1749804Y1279165D1*
X1753366Y1275694D1*
X1756538Y1271864D1*
X1759286Y1267718D1*
X1761577Y1263303D1*
X1763386Y1258669D1*
X1764693Y1253870D1*
X1765482Y1248959D1*
X1765743Y1244016D1*
X1765476Y1239025D1*
X431522Y2708824D2*
D17*
X3113197D1*
X431522Y2696955D2*
X3113197D1*
X431510Y2685087D2*
X3113197D1*
X431510Y2673218D2*
X834825D1*
X901633D2*
X1159822D1*
X1226629D2*
X1417493D1*
X1525269D2*
X1634829D1*
X1701636D2*
X3113197D1*
X431510Y2661349D2*
X823600D1*
X912858D2*
X1148596D1*
X1237854D2*
X1417493D1*
X1525269D2*
X1623604D1*
X1712862D2*
X3113197D1*
X431499Y2649480D2*
X817493D1*
X918965D2*
X1142501D1*
X1243961D2*
X1417493D1*
X1525269D2*
X1617497D1*
X1718957D2*
X2073005D1*
X2115026D2*
X2173001D1*
X2215034D2*
X3113197D1*
X431499Y2637612D2*
X814693D1*
X921765D2*
X1139689D1*
X1246761D2*
X1417493D1*
X1525269D2*
X1614697D1*
X1721769D2*
X2056986D1*
X2131046D2*
X2156993D1*
X2231042D2*
X3113197D1*
X431499Y2625743D2*
X814657D1*
X921801D2*
X1139654D1*
X1246797D2*
X1417493D1*
X1525269D2*
X1614661D1*
X1721804D2*
X2049310D1*
X2138722D2*
X2149306D1*
X2238718D2*
X3113197D1*
X431487Y2613874D2*
X817377D1*
X919081D2*
X1142385D1*
X1244077D2*
X1417493D1*
X1525269D2*
X1617381D1*
X1719073D2*
X2045701D1*
X2242327D2*
X3113197D1*
X431487Y2602005D2*
X823377D1*
X913081D2*
X1148385D1*
X1238077D2*
X1417493D1*
X1525269D2*
X1623381D1*
X1713073D2*
X2045220D1*
X2242819D2*
X3113197D1*
X431487Y2590136D2*
X691622D1*
X721995D2*
X834416D1*
X902042D2*
X1016618D1*
X1047003D2*
X1159412D1*
X1227050D2*
X1393201D1*
X1525269D2*
X1634408D1*
X1702046D2*
X2047764D1*
X2140269D2*
X2147760D1*
X2240265D2*
X3113197D1*
X431476Y2578268D2*
X674924D1*
X738694D2*
X999920D1*
X1063702D2*
X1376501D1*
X1440273D2*
X2053940D1*
X2134093D2*
X2153936D1*
X2234101D2*
X3113197D1*
X431476Y2566399D2*
X668114D1*
X745503D2*
X993110D1*
X1070510D2*
X1369693D1*
X1447081D2*
X2066126D1*
X2121906D2*
X2166122D1*
X2221902D2*
X3113197D1*
X431476Y2554530D2*
X665760D1*
X747870D2*
X990756D1*
X1072866D2*
X1367325D1*
X1449437D2*
X3113197D1*
X431465Y2542661D2*
X667025D1*
X746605D2*
X992021D1*
X1071601D2*
X1368592D1*
X1448171D2*
X3113197D1*
X431465Y2530793D2*
X672322D1*
X741297D2*
X997318D1*
X1066304D2*
X1373900D1*
X1442874D2*
X3113197D1*
X431465Y2518924D2*
X684497D1*
X729121D2*
X1009505D1*
X1054117D2*
X1386076D1*
X1430698D2*
X3113197D1*
X431453Y2507055D2*
X3113197D1*
X431453Y2495186D2*
X3113197D1*
X431453Y2483318D2*
X3113197D1*
X431441Y2471449D2*
X3113197D1*
X431441Y2459580D2*
X3113197D1*
X431441Y2447711D2*
X2849525D1*
X2906030D2*
X3113197D1*
X431429Y2435843D2*
X2840701D1*
X2914854D2*
X3113197D1*
X431429Y2423974D2*
X2837080D1*
X2918476D2*
X3113197D1*
X431429Y2412105D2*
X1810997D1*
X2474030D2*
X2837185D1*
X2918370D2*
X3113197D1*
X431417Y2400236D2*
X1802748D1*
X3010409D2*
X3113197D1*
X431417Y2388367D2*
X1800790D1*
X3011394D2*
X3113197D1*
X431406Y2376499D2*
X1803732D1*
X3011394D2*
X3113197D1*
X431406Y2364630D2*
X1813974D1*
X1850066D2*
X2434974D1*
X3011394D2*
X3113197D1*
X431406Y2352761D2*
X2456760D1*
X3011394D2*
X3113197D1*
X431394Y2340892D2*
X2456349D1*
X3011394D2*
X3113197D1*
X431394Y2329024D2*
X2456760D1*
X3011394D2*
X3113197D1*
X431394Y2317155D2*
X2456782D1*
X3011370D2*
X3113197D1*
X431382Y2305286D2*
X2461916D1*
X3010409D2*
X3113197D1*
X431382Y2293417D2*
X2917260D1*
X2995773D2*
X3113197D1*
X431382Y2281549D2*
X688272D1*
X749757D2*
X788268D1*
X849765D2*
X2908705D1*
X3004327D2*
X3113197D1*
X431370Y2269680D2*
X677525D1*
X760503D2*
X777533D1*
X860499D2*
X2904181D1*
X3008850D2*
X3113197D1*
X431370Y2257811D2*
X672088D1*
X765953D2*
X772084D1*
X865949D2*
X2902634D1*
X3010398D2*
X3113197D1*
X431370Y2245942D2*
X670084D1*
X867941D2*
X2903794D1*
X3009238D2*
X3113197D1*
X431358Y2234073D2*
X671092D1*
X866933D2*
X1789833D1*
X1816198D2*
X2247474D1*
X2278913D2*
X2907861D1*
X3005171D2*
X3113197D1*
X431358Y2222205D2*
X675322D1*
X762718D2*
X775318D1*
X862714D2*
X1776181D1*
X2290749D2*
X2915724D1*
X2997308D2*
X3113197D1*
X431358Y2210336D2*
X683946D1*
X754093D2*
X783944D1*
X854089D2*
X1772009D1*
X2294335D2*
X2930806D1*
X2982226D2*
X3113197D1*
X431346Y2198467D2*
X703424D1*
X734605D2*
X803432D1*
X834601D2*
X1772865D1*
X2292965D2*
X2920928D1*
X2992105D2*
X3113197D1*
X431346Y2186598D2*
X696169D1*
X741858D2*
X796177D1*
X841854D2*
X1696177D1*
X1741854D2*
X1779310D1*
X2285722D2*
X2910709D1*
X3002323D2*
X3113197D1*
X431346Y2174730D2*
X681228D1*
X756801D2*
X781236D1*
X856797D2*
X1681236D1*
X1756797D2*
X2265146D1*
X2287621D2*
X2905177D1*
X3007854D2*
X3113197D1*
X431335Y2162861D2*
X673928D1*
X764113D2*
X773924D1*
X864109D2*
X1673924D1*
X1764109D2*
X2097509D1*
X2302726D2*
X2902798D1*
X3010234D2*
X3113197D1*
X431335Y2150992D2*
X670564D1*
X867472D2*
X1670560D1*
X1767472D2*
X1891857D1*
X1910182D2*
X2085638D1*
X2307273D2*
X2903173D1*
X3009858D2*
X3113197D1*
X431335Y2139123D2*
X670294D1*
X867730D2*
X1670302D1*
X1767730D2*
X1875110D1*
X2306734D2*
X2906337D1*
X3006694D2*
X3113197D1*
X431323Y2127255D2*
X673084D1*
X764945D2*
X773080D1*
X864941D2*
X1673080D1*
X1764941D2*
X1870224D1*
X2300734D2*
X2912924D1*
X3000109D2*
X3113197D1*
X431323Y2115386D2*
X679576D1*
X758453D2*
X779584D1*
X858449D2*
X1679584D1*
X1758449D2*
X1834693D1*
X2287761D2*
X2467353D1*
X2996850D2*
X3113197D1*
X431323Y2103517D2*
X692490D1*
X745550D2*
X792486D1*
X845546D2*
X1692486D1*
X1745546D2*
X1827650D1*
X2285042D2*
X2380681D1*
X2396850D2*
X2453841D1*
X3010374D2*
X3113197D1*
X431311Y2091648D2*
X714228D1*
X723801D2*
X814224D1*
X823808D2*
X1400432D1*
X1450093D2*
X1531681D1*
X1581343D2*
X1714224D1*
X1723808D2*
X1826396D1*
X2275304D2*
X2363056D1*
X2414476D2*
X2452822D1*
X3011394D2*
X3113197D1*
X431311Y2079780D2*
X686150D1*
X751878D2*
X786146D1*
X851886D2*
X1390424D1*
X1591350D2*
X1686146D1*
X1751886D2*
X1830122D1*
X2118343D2*
X2358029D1*
X2419503D2*
X2452822D1*
X3011394D2*
X3113197D1*
X431301Y2067911D2*
X676458D1*
X761581D2*
X776454D1*
X861577D2*
X1386345D1*
X1595429D2*
X1676454D1*
X1761577D2*
X1842345D1*
X1872682D2*
X2349052D1*
X2419339D2*
X2452822D1*
X3011394D2*
X3113197D1*
X431301Y2056042D2*
X671584D1*
X866441D2*
X1386228D1*
X1595546D2*
X1671592D1*
X1766441D2*
X2337181D1*
X2413866D2*
X2430392D1*
X3011394D2*
X3113197D1*
X431301Y2044173D2*
X670049D1*
X867987D2*
X1390013D1*
X1591761D2*
X1670045D1*
X1767987D2*
X2325310D1*
X2392034D2*
X2422365D1*
X3011394D2*
X3113197D1*
X431289Y2032304D2*
X671501D1*
X866522D2*
X1399470D1*
X1451054D2*
X1530720D1*
X1582315D2*
X1671509D1*
X1766522D2*
X2313450D1*
X2380163D2*
X2416950D1*
X3011394D2*
X3113197D1*
X431289Y2020436D2*
X676272D1*
X761757D2*
X776278D1*
X861753D2*
X1506205D1*
X1544323D2*
X1676278D1*
X1761753D2*
X2301580D1*
X2368293D2*
X2405080D1*
X3010293D2*
X3113197D1*
X431289Y2008567D2*
X685798D1*
X752230D2*
X785794D1*
X852238D2*
X1496642D1*
X2356421D2*
X2393209D1*
X2995457D2*
X3113197D1*
X431277Y1996698D2*
X711276D1*
X726753D2*
X811272D1*
X826761D2*
X1494017D1*
X2344562D2*
X2381337D1*
X2448062D2*
X3113197D1*
X431277Y1984829D2*
X692993D1*
X745034D2*
X793001D1*
X845030D2*
X1496278D1*
X2332690D2*
X2369466D1*
X2436190D2*
X3113197D1*
X431277Y1972961D2*
X679822D1*
X758218D2*
X779818D1*
X858214D2*
X1505092D1*
X1545437D2*
X1679818D1*
X1758214D2*
X2357608D1*
X2424319D2*
X3113197D1*
X431265Y1961092D2*
X673201D1*
X764827D2*
X773209D1*
X864823D2*
X1673209D1*
X1764823D2*
X2345736D1*
X2412449D2*
X3113197D1*
X431265Y1949223D2*
X670329D1*
X867694D2*
X1670337D1*
X1767694D2*
X2333865D1*
X2400577D2*
X3113197D1*
X431265Y1937354D2*
X670517D1*
X867518D2*
X1670513D1*
X1767518D2*
X2321993D1*
X2388718D2*
X3113197D1*
X431253Y1925486D2*
X673786D1*
X764241D2*
X773794D1*
X864238D2*
X1673794D1*
X1764238D2*
X2310122D1*
X2376846D2*
X3113197D1*
X431253Y1913617D2*
X599173D1*
X2364976D2*
X3113197D1*
X431253Y1901748D2*
X591802D1*
X2353105D2*
X3113197D1*
X431241Y1889879D2*
X590361D1*
X2341234D2*
X3113197D1*
X431241Y1878010D2*
X593865D1*
X2329374D2*
X3113197D1*
X431241Y1866142D2*
X605466D1*
X637573D2*
X675486D1*
X762554D2*
X775482D1*
X862550D2*
X896290D1*
X1762550D2*
X2860470D1*
X2895085D2*
X3113197D1*
X431230Y1854273D2*
X671161D1*
X866874D2*
X888005D1*
X1766874D2*
X2845189D1*
X2910354D2*
X3113197D1*
X431230Y1842404D2*
X670072D1*
X867953D2*
X886037D1*
X1767953D2*
X2838778D1*
X2916777D2*
X3113197D1*
X431230Y1830535D2*
X671993D1*
X866042D2*
X888966D1*
X1766042D2*
X1849693D1*
X1863343D2*
X2450185D1*
X2463846D2*
X2836693D1*
X2918862D2*
X3113197D1*
X431218Y1818667D2*
X677325D1*
X760702D2*
X777333D1*
X860698D2*
X899161D1*
X935370D2*
X1043349D1*
X1760698D2*
X1826946D1*
X3010409D2*
X3113197D1*
X431218Y1806798D2*
X687873D1*
X750155D2*
X787869D1*
X850163D2*
X1034033D1*
X3010808D2*
X3113197D1*
X431218Y1794929D2*
X1031513D1*
X3011394D2*
X3113197D1*
X431206Y1783060D2*
X690298D1*
X747730D2*
X790294D1*
X847738D2*
X1033892D1*
X3011394D2*
X3113197D1*
X431206Y1771192D2*
X678533D1*
X759495D2*
X778529D1*
X859503D2*
X1042928D1*
X1082605D2*
X1678529D1*
X1759503D2*
X1851626D1*
X1861398D2*
X2452130D1*
X3011394D2*
X3113197D1*
X431194Y1759323D2*
X672568D1*
X765461D2*
X772564D1*
X865469D2*
X1081424D1*
X1106605D2*
X1672564D1*
X1765469D2*
X2455165D1*
X3011394D2*
X3113197D1*
X431194Y1747454D2*
X670177D1*
X867858D2*
X1067337D1*
X1621761D2*
X1670173D1*
X1767858D2*
X1775256D1*
X1923777D2*
X2454896D1*
X3011394D2*
X3113197D1*
X431194Y1735585D2*
X670798D1*
X867238D2*
X1063037D1*
X1628675D2*
X1670794D1*
X1930866D2*
X2456760D1*
X3011394D2*
X3113197D1*
X431182Y1723717D2*
X674572D1*
X763457D2*
X774580D1*
X863453D2*
X1063798D1*
X1629835D2*
X1674580D1*
X1932133D2*
X2457146D1*
X3011007D2*
X3113197D1*
X431182Y1711848D2*
X682505D1*
X755522D2*
X782501D1*
X855530D2*
X1070092D1*
X1626014D2*
X1682501D1*
X1755530D2*
X1770592D1*
X1928441D2*
X2465549D1*
X3002605D2*
X3113197D1*
X431182Y1699979D2*
X699310D1*
X738718D2*
X799306D1*
X838726D2*
X1583970D1*
X1613510D2*
X1699306D1*
X1738726D2*
X1782709D1*
X1813315D2*
X1885717D1*
X1916323D2*
X2913264D1*
X2999769D2*
X3113197D1*
X431171Y1688110D2*
X699450D1*
X738589D2*
X799446D1*
X838585D2*
X2906525D1*
X3006507D2*
X3113197D1*
X431171Y1676241D2*
X682552D1*
X755476D2*
X782560D1*
X855472D2*
X2903244D1*
X3009789D2*
X3113197D1*
X431171Y1664373D2*
X674608D1*
X763433D2*
X774604D1*
X863429D2*
X1291341D1*
X1321690D2*
X1622596D1*
X1652933D2*
X2902764D1*
X3010269D2*
X3113197D1*
X431159Y1652504D2*
X670810D1*
X867226D2*
X1279130D1*
X1665155D2*
X2905025D1*
X3008007D2*
X3113197D1*
X431159Y1640635D2*
X670165D1*
X867858D2*
X1275404D1*
X1668882D2*
X1788088D1*
X1824953D2*
X2250286D1*
X2290339D2*
X2910428D1*
X3002605D2*
X3113197D1*
X431159Y1628766D2*
X672545D1*
X765483D2*
X772552D1*
X865479D2*
X1276646D1*
X1667640D2*
X1778104D1*
X2299257D2*
X2920400D1*
X2992633D2*
X3113197D1*
X431147Y1616898D2*
X678497D1*
X759542D2*
X778493D1*
X859538D2*
X1073138D1*
X1102398D2*
X1283689D1*
X1660585D2*
X1775278D1*
X2301566D2*
X2931685D1*
X2981346D2*
X3113197D1*
X431147Y1605029D2*
X690217D1*
X747811D2*
X790213D1*
X847819D2*
X1060529D1*
X1762070D2*
X1777341D1*
X2298987D2*
X2916134D1*
X2996898D2*
X3113197D1*
X431147Y1593160D2*
X1056673D1*
X1773941D2*
X1785802D1*
X1827226D2*
X2251096D1*
X2289530D2*
X2908084D1*
X3004949D2*
X3113197D1*
X431136Y1581291D2*
X687944D1*
X750085D2*
X787940D1*
X850081D2*
X1057810D1*
X1785811D2*
X2903900D1*
X3009133D2*
X3113197D1*
X431136Y1569423D2*
X677361D1*
X760667D2*
X777369D1*
X860663D2*
X1064677D1*
X1797671D2*
X2902622D1*
X3010398D2*
X3113197D1*
X431136Y1557554D2*
X672005D1*
X866030D2*
X1086122D1*
X1856839D2*
X2904076D1*
X3008957D2*
X3113197D1*
X431125Y1545685D2*
X670072D1*
X867953D2*
X1084213D1*
X1870163D2*
X1881298D1*
X1920730D2*
X2255888D1*
X2295319D2*
X2908470D1*
X3004562D2*
X3113197D1*
X431125Y1533816D2*
X671150D1*
X866886D2*
X1087213D1*
X2304437D2*
X2916825D1*
X2996194D2*
X3113197D1*
X431125Y1521948D2*
X675450D1*
X762577D2*
X775446D1*
X862585D2*
X1097560D1*
X2306850D2*
X2460650D1*
X3003566D2*
X3113197D1*
X431113Y1510079D2*
X684205D1*
X753835D2*
X784201D1*
X853831D2*
X1202373D1*
X2304378D2*
X2377236D1*
X2412801D2*
X2453092D1*
X3011125D2*
X3113197D1*
X431113Y1498210D2*
X704268D1*
X733761D2*
X804264D1*
X833769D2*
X1200276D1*
X2423218D2*
X2452822D1*
X3011394D2*
X3113197D1*
X431113Y1486341D2*
X695677D1*
X742362D2*
X795673D1*
X842358D2*
X1203064D1*
X2426241D2*
X2452822D1*
X3011394D2*
X3113197D1*
X431101Y1474472D2*
X681017D1*
X757010D2*
X781013D1*
X857018D2*
X1212978D1*
X1250054D2*
X1681013D1*
X1757018D2*
X1806990D1*
X2424354D2*
X2438525D1*
X3011394D2*
X3113197D1*
X431101Y1462604D2*
X673810D1*
X764218D2*
X773818D1*
X864214D2*
X1175454D1*
X1764214D2*
X1818861D1*
X2416234D2*
X2425049D1*
X3011394D2*
X3113197D1*
X431089Y1450735D2*
X670529D1*
X867507D2*
X1169772D1*
X1767507D2*
X1825728D1*
X2347046D2*
X2420912D1*
X3011394D2*
X3113197D1*
X431089Y1438866D2*
X670329D1*
X867706D2*
X1169454D1*
X1767706D2*
X1832970D1*
X2339815D2*
X2410424D1*
X3011394D2*
X3113197D1*
X431089Y1426997D2*
X673177D1*
X764850D2*
X773185D1*
X864846D2*
X1174294D1*
X1764846D2*
X2398552D1*
X3008945D2*
X3113197D1*
X431077Y1415129D2*
X679776D1*
X758253D2*
X779772D1*
X858261D2*
X959314D1*
X2453406D2*
X3113197D1*
X431077Y1403260D2*
X692900D1*
X745129D2*
X792908D1*
X845125D2*
X947396D1*
X2441534D2*
X3113197D1*
X431077Y1391391D2*
X711709D1*
X726319D2*
X811705D1*
X826327D2*
X935537D1*
X2429675D2*
X3113197D1*
X431066Y1379522D2*
X685857D1*
X752171D2*
X785865D1*
X852167D2*
X923665D1*
X2417265D2*
X3113197D1*
X431066Y1367654D2*
X676306D1*
X761722D2*
X776302D1*
X861730D2*
X911794D1*
X1761730D2*
X3113197D1*
X431066Y1355785D2*
X671525D1*
X1766510D2*
X3113197D1*
X431054Y1343916D2*
X670049D1*
X1767987D2*
X3113197D1*
X431054Y1332047D2*
X475424D1*
X2058823D2*
X3113197D1*
X431054Y1320178D2*
X472072D1*
X2286882D2*
X3113197D1*
X431042Y1308310D2*
X472072D1*
X2288453D2*
X3113197D1*
X431042Y1296441D2*
X472072D1*
X2288453D2*
X3113197D1*
X431042Y1284572D2*
X472072D1*
X2290374D2*
X3113197D1*
X431030Y1272703D2*
X472072D1*
X2292835D2*
X3113197D1*
X431030Y1260835D2*
X472072D1*
X2292273D2*
X3113197D1*
X431030Y1248966D2*
X472072D1*
X2288570D2*
X3113197D1*
X431018Y1237097D2*
X472072D1*
X2288453D2*
X3113197D1*
X431018Y1225228D2*
X472072D1*
X2288453D2*
X3113197D1*
X431018Y1213360D2*
X472072D1*
X2284034D2*
X3113197D1*
X431007Y1201491D2*
X472072D1*
X1860929D2*
X3113197D1*
X431007Y1189622D2*
X472072D1*
X1851319D2*
X3113197D1*
X431007Y1177753D2*
X472072D1*
X1841710D2*
X3113197D1*
X430995Y1165885D2*
X473993D1*
X1832101D2*
X3113197D1*
X430995Y1154016D2*
X671104D1*
X1554801D2*
X1671110D1*
X1766921D2*
X3113197D1*
X430983Y1142147D2*
X670084D1*
X1556453D2*
X1670080D1*
X1767953D2*
X2560108D1*
X2610143D2*
X3113197D1*
X430983Y1130278D2*
X672064D1*
X765965D2*
X772072D1*
X1553194D2*
X1672072D1*
X1765961D2*
X2550217D1*
X2620034D2*
X3113197D1*
X430983Y1118409D2*
X677490D1*
X760538D2*
X777486D1*
X860534D2*
X1508337D1*
X1542190D2*
X1677486D1*
X1760534D2*
X2546185D1*
X2624066D2*
X3113197D1*
X430972Y1106541D2*
X688201D1*
X749839D2*
X788197D1*
X849835D2*
X1688197D1*
X1749835D2*
X2195045D1*
X2292987D2*
X2546114D1*
X2624874D2*
X3113197D1*
X430972Y1094672D2*
X2195045D1*
X2292987D2*
X2549958D1*
X2636745D2*
X3113197D1*
X430972Y1082803D2*
X689936D1*
X748093D2*
X789932D1*
X848101D2*
X1689932D1*
X1748101D2*
X2195045D1*
X2292987D2*
X2559497D1*
X2648617D2*
X3113197D1*
X430961Y1070934D2*
X678357D1*
X759671D2*
X778353D1*
X859678D2*
X1064748D1*
X1110777D2*
X1678353D1*
X1759678D2*
X1791954D1*
X1821073D2*
X2195045D1*
X2292987D2*
X2592357D1*
X2660487D2*
X3113197D1*
X430961Y1059066D2*
X672486D1*
X765554D2*
X772482D1*
X1117702D2*
X1672482D1*
X1833730D2*
X2195045D1*
X2292987D2*
X2604217D1*
X2666969D2*
X3113197D1*
X430961Y1047197D2*
X670154D1*
X1118862D2*
X1670150D1*
X1837597D2*
X2195045D1*
X2292987D2*
X2616088D1*
X2667461D2*
X3113197D1*
X430949Y1035328D2*
X670845D1*
X1115042D2*
X1670841D1*
X1836483D2*
X2195045D1*
X2292987D2*
X2618572D1*
X2667461D2*
X3113197D1*
X430949Y1023459D2*
X674701D1*
X763339D2*
X774697D1*
X1102550D2*
X1674697D1*
X1829640D2*
X2195045D1*
X2292987D2*
X2618572D1*
X2667461D2*
X3113197D1*
X430949Y1011591D2*
X682740D1*
X755289D2*
X782736D1*
X855297D2*
X1682736D1*
X1755297D2*
X1985924D1*
X2086761D2*
X2618572D1*
X2667461D2*
X3113197D1*
X430937Y999722D2*
X699932D1*
X738097D2*
X799940D1*
X838093D2*
X1699940D1*
X1738093D2*
X1971802D1*
X2100870D2*
X2618572D1*
X2667461D2*
X3113197D1*
X430937Y987853D2*
X1698837D1*
X1739194D2*
X1963904D1*
X2108769D2*
X2618572D1*
X2667461D2*
X3113197D1*
X430937Y975984D2*
X1682325D1*
X1755706D2*
X1959533D1*
X2113140D2*
X2618572D1*
X2667461D2*
X3113197D1*
X430925Y964115D2*
X1674486D1*
X1763546D2*
X1957881D1*
X2114804D2*
X2618572D1*
X2667461D2*
X3113197D1*
X430925Y952247D2*
X1670760D1*
X1767273D2*
X1958701D1*
X2113983D2*
X2618572D1*
X2667461D2*
X3113197D1*
X430925Y940378D2*
X1670185D1*
X1767846D2*
X1962110D1*
X2110573D2*
X2618572D1*
X2667461D2*
X3113197D1*
X430913Y928509D2*
X1672634D1*
X1765398D2*
X1968673D1*
X2104010D2*
X2618572D1*
X2667461D2*
X3113197D1*
X430913Y916640D2*
X1678669D1*
X1759362D2*
X1980100D1*
X2092573D2*
X2197458D1*
X2245304D2*
X2618572D1*
X2667461D2*
X3113197D1*
X430913Y904772D2*
X1690588D1*
X1747445D2*
X2010029D1*
X2062643D2*
X2179776D1*
X2262976D2*
X2618572D1*
X2667461D2*
X3113197D1*
X430902Y892903D2*
X2170517D1*
X2272234D2*
X2618572D1*
X2667461D2*
X3113197D1*
X430902Y881034D2*
X687626D1*
X750402D2*
X787622D1*
X850409D2*
X1687622D1*
X1750409D2*
X2165232D1*
X2277518D2*
X2618572D1*
X2667461D2*
X3113197D1*
X430902Y869165D2*
X677209D1*
X760831D2*
X777205D1*
X860827D2*
X897205D1*
X937327D2*
X1677205D1*
X1760827D2*
X2162829D1*
X2279933D2*
X2618572D1*
X2667461D2*
X3113197D1*
X430890Y857297D2*
X671936D1*
X946222D2*
X1671932D1*
X1766101D2*
X2162572D1*
X2280190D2*
X2618572D1*
X2667461D2*
X3113197D1*
X430890Y845428D2*
X670072D1*
X948518D2*
X1670068D1*
X1767965D2*
X2162572D1*
X2280190D2*
X2618572D1*
X2667461D2*
X3113197D1*
X430878Y833559D2*
X671209D1*
X945929D2*
X1671205D1*
X1766827D2*
X2162572D1*
X2280190D2*
X2618572D1*
X2667461D2*
X3113197D1*
X430878Y821690D2*
X675592D1*
X762449D2*
X775588D1*
X936449D2*
X1675588D1*
X1762445D2*
X2162630D1*
X2280133D2*
X2618572D1*
X2667461D2*
X3113197D1*
X430878Y809822D2*
X684462D1*
X753566D2*
X784458D1*
X853573D2*
X1684458D1*
X1753573D2*
X2164424D1*
X2278327D2*
X2618572D1*
X2667461D2*
X3113197D1*
X430866Y797953D2*
X705169D1*
X732858D2*
X805165D1*
X832866D2*
X1705165D1*
X1732866D2*
X2168958D1*
X2273793D2*
X2618572D1*
X2667461D2*
X3113197D1*
X430866Y786084D2*
X695185D1*
X742843D2*
X795193D1*
X842839D2*
X1695193D1*
X1742839D2*
X2177092D1*
X2265659D2*
X2618572D1*
X2667461D2*
X3113197D1*
X430866Y774215D2*
X680806D1*
X757222D2*
X780802D1*
X857230D2*
X1680802D1*
X1757230D2*
X2191764D1*
X2250987D2*
X2618572D1*
X2667461D2*
X3113197D1*
X430854Y762346D2*
X673705D1*
X764323D2*
X773701D1*
X864331D2*
X1673701D1*
X1856534D2*
X2618572D1*
X2667461D2*
X3113197D1*
X430854Y750478D2*
X670482D1*
X867542D2*
X1670490D1*
X1862066D2*
X2618572D1*
X2667461D2*
X3113197D1*
X430854Y738609D2*
X670353D1*
X867671D2*
X1670361D1*
X1862277D2*
X2618572D1*
X2667461D2*
X3113197D1*
X430843Y726740D2*
X673282D1*
X764745D2*
X773278D1*
X864753D2*
X1673278D1*
X1857308D2*
X2618572D1*
X2667461D2*
X3113197D1*
X430843Y714871D2*
X679974D1*
X758066D2*
X779970D1*
X858062D2*
X1679970D1*
X1758062D2*
X1822986D1*
X1840046D2*
X2618572D1*
X2667461D2*
X3113197D1*
X430843Y703003D2*
X693333D1*
X744706D2*
X793329D1*
X844702D2*
X1693329D1*
X1744702D2*
X2618572D1*
X2667461D2*
X3113197D1*
X430831Y691134D2*
X709962D1*
X728066D2*
X809970D1*
X828062D2*
X1709970D1*
X1728062D2*
X2618572D1*
X2667461D2*
X3113197D1*
X430831Y679265D2*
X685576D1*
X752453D2*
X785584D1*
X852449D2*
X1685584D1*
X1752449D2*
X2618572D1*
X2667461D2*
X3113197D1*
X430831Y667396D2*
X676165D1*
X761874D2*
X776161D1*
X861870D2*
X1676161D1*
X1761870D2*
X2618572D1*
X2667461D2*
X3113197D1*
X430819Y655528D2*
X671454D1*
X866581D2*
X1671450D1*
X1766581D2*
X2618572D1*
X2667461D2*
X3113197D1*
X430819Y643659D2*
X670049D1*
X867987D2*
X1670045D1*
X1767987D2*
X2618572D1*
X2667461D2*
X3113197D1*
X430819Y631790D2*
X671642D1*
X866394D2*
X1671638D1*
X1766394D2*
X2618572D1*
X2667461D2*
X3113197D1*
X430808Y619921D2*
X676576D1*
X761465D2*
X776572D1*
X861461D2*
X1676572D1*
X1761461D2*
X2618572D1*
X2667461D2*
X3113197D1*
X430808Y608052D2*
X686373D1*
X751655D2*
X786381D1*
X851651D2*
X1686381D1*
X1751651D2*
X2618572D1*
X2667461D2*
X3113197D1*
X430808Y596184D2*
X2618572D1*
X2667461D2*
X3113197D1*
X430797Y584315D2*
X692173D1*
X745866D2*
X792169D1*
X845862D2*
X1692169D1*
X1745862D2*
X2618572D1*
X2667461D2*
X3113197D1*
X430797Y572446D2*
X679436D1*
X758605D2*
X779432D1*
X858601D2*
X1679432D1*
X1758601D2*
X2618572D1*
X2667461D2*
X3113197D1*
X430797Y560577D2*
X673013D1*
X765014D2*
X773009D1*
X865022D2*
X1074193D1*
X1118113D2*
X1389146D1*
X1433089D2*
X1673009D1*
X1765022D2*
X2618572D1*
X2667461D2*
X3113197D1*
X430785Y548709D2*
X670282D1*
X867753D2*
X1059486D1*
X1132831D2*
X1374440D1*
X1447797D2*
X1670278D1*
X1767753D2*
X2618572D1*
X2667461D2*
X3113197D1*
X430785Y536840D2*
X670588D1*
X867437D2*
X1052478D1*
X1139827D2*
X1367444D1*
X1454793D2*
X1670596D1*
X1767437D2*
X2618572D1*
X2667461D2*
X3113197D1*
X430773Y524971D2*
X674009D1*
X764018D2*
X774005D1*
X864026D2*
X1049490D1*
X1142827D2*
X1364444D1*
X1457781D2*
X1674005D1*
X1764026D2*
X2602529D1*
X2667461D2*
X3113197D1*
X430773Y513102D2*
X681404D1*
X756636D2*
X781400D1*
X856633D2*
X1049677D1*
X1142629D2*
X1364642D1*
X1457581D2*
X1681400D1*
X1756633D2*
X2589825D1*
X2664730D2*
X3113197D1*
X430773Y501234D2*
X696568D1*
X741461D2*
X796564D1*
X841469D2*
X1053122D1*
X1139182D2*
X1368088D1*
X1454147D2*
X1696564D1*
X1741469D2*
X2585936D1*
X2654301D2*
X3113197D1*
X430761Y489365D2*
X670049D1*
X867987D2*
X1060776D1*
X1131542D2*
X1375740D1*
X1446495D2*
X1670045D1*
X1767987D2*
X2587037D1*
X2646999D2*
X3113197D1*
X430761Y477496D2*
X670049D1*
X867987D2*
X1077486D1*
X1114831D2*
X1392462D1*
X1429773D2*
X1670045D1*
X1767987D2*
X2593857D1*
X2640167D2*
X3113197D1*
X430761Y465627D2*
X670049D1*
X867987D2*
X1670045D1*
X1767987D2*
X3113197D1*
X430749Y453759D2*
X670049D1*
X867987D2*
X1670045D1*
X1767987D2*
X3113197D1*
X430749Y441890D2*
X670049D1*
X867987D2*
X1670045D1*
X1767987D2*
X3113197D1*
X430749Y430021D2*
X670049D1*
X867987D2*
X1670045D1*
X1767987D2*
X3113197D1*
X777248Y491783D2*
X866783D1*
Y429539D1*
X933537Y429543D1*
X1671249D1*
X1671248Y491783D1*
X1766783D1*
Y429539D1*
X1827537Y429543D1*
X3114390D1*
X3114394Y633541D1*
Y2720692D1*
X430335Y2720693D1*
X430302Y2642693D1*
X429546Y429543D1*
X671253D1*
X671248Y491783D1*
X766783D1*
Y429539D1*
X771247Y429543D1*
X771248Y491783D1*
X777248D1*
X866407Y538031D2*
X865283Y532139D1*
X863430Y526434D1*
X860877Y521005D1*
X857661Y515941D1*
X853839Y511319D1*
X849466Y507211D1*
X844613Y503685D1*
X839357Y500795D1*
X833780Y498587D1*
X827969Y497094D1*
X822018Y496343D1*
X816020D1*
X810068Y497093D1*
X804257Y498585D1*
X798680Y500793D1*
X793423Y503682D1*
X788570Y507209D1*
X784197Y511315D1*
X780373Y515937D1*
X777157Y521001D1*
X774604Y526429D1*
X772749Y532134D1*
X771625Y538026D1*
X771248Y544013D1*
X771625Y550000D1*
X772748Y555892D1*
X774601Y561597D1*
X777155Y567026D1*
X780370Y572091D1*
X784193Y576713D1*
X788566Y580820D1*
X793419Y584346D1*
X798675Y587236D1*
X804252Y589445D1*
X810063Y590937D1*
X816013Y591689D1*
X822012D1*
X827963Y590938D1*
X833774Y589446D1*
X839352Y587239D1*
X844609Y584349D1*
X849462Y580823D1*
X853835Y576717D1*
X857659Y572094D1*
X860874Y567030D1*
X863428Y561602D1*
X865282Y555898D1*
X866407Y550005D1*
X866783Y544016D1*
X866407Y538031D1*
Y638031D2*
X865283Y632139D1*
X863430Y626434D1*
X860877Y621005D1*
X857661Y615941D1*
X853839Y611319D1*
X849466Y607211D1*
X844613Y603685D1*
X839357Y600795D1*
X833780Y598587D1*
X827969Y597094D1*
X822018Y596343D1*
X816020D1*
X810068Y597093D1*
X804257Y598585D1*
X798680Y600793D1*
X793423Y603682D1*
X788570Y607209D1*
X784197Y611315D1*
X780373Y615937D1*
X777157Y621001D1*
X774604Y626429D1*
X772749Y632134D1*
X771625Y638026D1*
X771248Y644013D1*
X771625Y650000D1*
X772748Y655892D1*
X774601Y661597D1*
X777155Y667026D1*
X780370Y672091D1*
X784193Y676713D1*
X788566Y680820D1*
X793419Y684346D1*
X798675Y687236D1*
X804252Y689445D1*
X810063Y690937D1*
X816013Y691689D1*
X822012D1*
X827963Y690938D1*
X833774Y689446D1*
X839352Y687239D1*
X844609Y684349D1*
X849462Y680823D1*
X853835Y676717D1*
X857659Y672094D1*
X860874Y667030D1*
X863428Y661602D1*
X865282Y655898D1*
X866407Y650005D1*
X866783Y644016D1*
X866407Y638031D1*
Y738031D2*
X865283Y732139D1*
X863430Y726434D1*
X860877Y721005D1*
X857661Y715941D1*
X853839Y711319D1*
X849466Y707211D1*
X844613Y703685D1*
X839357Y700795D1*
X833780Y698587D1*
X827969Y697094D1*
X822018Y696343D1*
X816020D1*
X810068Y697093D1*
X804257Y698585D1*
X798680Y700793D1*
X793423Y703682D1*
X788570Y707209D1*
X784197Y711315D1*
X780373Y715937D1*
X777157Y721001D1*
X774604Y726429D1*
X772749Y732134D1*
X771625Y738026D1*
X771248Y744013D1*
X771625Y750000D1*
X772748Y755892D1*
X774601Y761597D1*
X777155Y767026D1*
X780370Y772091D1*
X784193Y776713D1*
X788566Y780820D1*
X793419Y784346D1*
X798675Y787236D1*
X804252Y789445D1*
X810063Y790937D1*
X816013Y791689D1*
X822012D1*
X827963Y790938D1*
X833774Y789446D1*
X839352Y787239D1*
X844609Y784349D1*
X849462Y780823D1*
X853835Y776717D1*
X857659Y772094D1*
X860874Y767030D1*
X863428Y761602D1*
X865282Y755898D1*
X866407Y750005D1*
X866783Y744016D1*
X866407Y738031D1*
X860728Y820773D2*
X857661Y815941D1*
X853839Y811319D1*
X849466Y807211D1*
X844613Y803685D1*
X839357Y800795D1*
X833780Y798587D1*
X827969Y797094D1*
X822018Y796343D1*
X816020D1*
X810068Y797093D1*
X804257Y798585D1*
X798680Y800793D1*
X793423Y803682D1*
X788570Y807209D1*
X784197Y811315D1*
X780373Y815937D1*
X777157Y821001D1*
X774604Y826429D1*
X772749Y832134D1*
X771625Y838026D1*
X771248Y844013D1*
X771625Y850000D1*
X772748Y855892D1*
X774601Y861597D1*
X777155Y867026D1*
X780370Y872091D1*
X784193Y876713D1*
X788566Y880820D1*
X793419Y884346D1*
X798675Y887236D1*
X804252Y889445D1*
X810063Y890937D1*
X816013Y891689D1*
X822012D1*
X827963Y890938D1*
X833774Y889446D1*
X839352Y887239D1*
X844609Y884349D1*
X849462Y880823D1*
X853835Y876717D1*
X857659Y872094D1*
X860732Y867253D1*
X896256Y867256D1*
X898801Y869474D1*
X903950Y872706D1*
X909646Y874835D1*
X915654Y875774D1*
X921727Y875484D1*
X927618Y873978D1*
X933085Y871318D1*
X937904Y867610D1*
X941879Y863008D1*
X944846Y857701D1*
X946684Y851904D1*
X947318Y845766D1*
X946720Y839806D1*
X944917Y833999D1*
X941983Y828673D1*
X938037Y824049D1*
X933239Y820312D1*
X927789Y817618D1*
X921907Y816076D1*
X915835Y815749D1*
X909822Y816652D1*
X904114Y818747D1*
X900837Y820776D1*
X860752D1*
X1082640Y1020803D2*
X1086333Y1020248D1*
X1092406Y1020575D1*
X1098287Y1022117D1*
X1103738Y1024811D1*
X1108535Y1028547D1*
X1112482Y1033172D1*
X1115416Y1038497D1*
X1117219Y1044304D1*
X1117816Y1050356D1*
X1117182Y1056403D1*
X1115345Y1062199D1*
X1112378Y1067507D1*
X1108403Y1072109D1*
X1103584Y1075816D1*
X1098117Y1078476D1*
X1092226Y1079983D1*
X1086152Y1080273D1*
X1080144Y1079333D1*
X1074449Y1077205D1*
X1069299Y1073972D1*
X1064904Y1069770D1*
X1062984Y1067256D1*
X860732Y1067253D1*
X857659Y1072094D1*
X853835Y1076717D1*
X849462Y1080823D1*
X844609Y1084349D1*
X839352Y1087239D1*
X833774Y1089446D1*
X827963Y1090938D1*
X822012Y1091689D1*
X816013D1*
X810063Y1090937D1*
X804252Y1089445D1*
X798675Y1087236D1*
X793419Y1084346D1*
X788566Y1080820D1*
X784193Y1076713D1*
X780370Y1072091D1*
X777155Y1067026D1*
X774601Y1061597D1*
X772748Y1055892D1*
X771625Y1050000D1*
X771248Y1044013D1*
X771625Y1038026D1*
X772749Y1032134D1*
X774604Y1026429D1*
X777157Y1021001D1*
X780373Y1015937D1*
X784197Y1011315D1*
X788570Y1007209D1*
X793423Y1003682D1*
X798680Y1000793D1*
X804257Y998585D1*
X810068Y997093D1*
X816020Y996343D1*
X822018D1*
X827969Y997094D1*
X833780Y998587D1*
X839357Y1000795D1*
X844613Y1003685D1*
X849466Y1007211D1*
X853839Y1011319D1*
X857661Y1015941D1*
X860728Y1020773D1*
X1075550Y1020776D1*
X1082640Y1020803D1*
X1875991Y1823753D2*
X1872335Y1826567D1*
X1866867Y1829227D1*
X1860976Y1830734D1*
X1854903Y1831024D1*
X1848895Y1830084D1*
X1843199Y1827955D1*
X1838050Y1824723D1*
X1836509Y1823251D1*
X1838050Y1824723D1*
X1843199Y1827955D1*
X1848895Y1830084D1*
X1854903Y1831024D1*
X1860976Y1830734D1*
X1866867Y1829227D1*
X1872335Y1826567D1*
X1875991Y1823753D1*
X2144521Y1823756D1*
X2437366D1*
X2438550Y1824723D1*
X2443699Y1827955D1*
X2449395Y1830084D1*
X2455403Y1831024D1*
X2461476Y1830734D1*
X2467367Y1829227D1*
X2472835Y1826567D1*
X2477654Y1822860D1*
X2479699Y1820491D1*
X2839060Y1820490D1*
X2838323Y1823731D1*
X2837882Y1829677D1*
X2838332Y1835623D1*
X2839664Y1841434D1*
X2841846Y1846984D1*
X2844832Y1852144D1*
X2848554Y1856803D1*
X2852928Y1860856D1*
X2857857Y1864210D1*
X2863231Y1866793D1*
X2868929Y1868546D1*
X2874827Y1869430D1*
X2880789Y1869425D1*
X2886684Y1868531D1*
X2892381Y1866770D1*
X2897751Y1864178D1*
X2902673Y1860816D1*
X2907042Y1856757D1*
X2910755Y1852092D1*
X2913732Y1846927D1*
X2915907Y1841374D1*
X2917228Y1835560D1*
X2917669Y1829646D1*
X2917219Y1823668D1*
X2916492Y1820496D1*
X2991949Y1820491D1*
X2997282Y1819693D1*
X2998322Y1819343D1*
X3009205D1*
Y1808156D1*
X3010117Y1803858D1*
X3010189Y1796017D1*
Y1727475D1*
X3009794Y1723678D1*
X3009205Y1721531D1*
Y1713965D1*
X3004230D1*
X3000268Y1711215D1*
X2995163Y1709493D1*
X2991949Y1709207D1*
X2989635D1*
X2993223Y1706026D1*
X2997293Y1701596D1*
X3000829Y1696730D1*
X3003790Y1691493D1*
X3006134Y1685953D1*
X3007831Y1680181D1*
X3008860Y1674253D1*
X3009205Y1668228D1*
X3008864Y1662241D1*
X3007840Y1656314D1*
X3006147Y1650541D1*
X3003807Y1644999D1*
X3000850Y1639759D1*
X2997316Y1634891D1*
X2993251Y1630457D1*
X2988705Y1626516D1*
X2983740Y1623118D1*
X2978421Y1620308D1*
X2975219Y1619060D1*
X2978386Y1617739D1*
X2983707Y1614933D1*
X2988675Y1611539D1*
X2993223Y1607601D1*
X2997293Y1603171D1*
X3000829Y1598304D1*
X3003790Y1593068D1*
X3006134Y1587528D1*
X3007831Y1581756D1*
X3008860Y1575828D1*
X3009205Y1569803D1*
X3008864Y1563816D1*
X3007840Y1557888D1*
X3006147Y1552115D1*
X3003807Y1546573D1*
X3000850Y1541333D1*
X2997316Y1536466D1*
X2993251Y1532031D1*
X2988705Y1528091D1*
X2984501Y1525214D1*
X2991949Y1525215D1*
X2997277Y1524420D1*
X3002140Y1522102D1*
X3006115Y1518465D1*
X3008853Y1513825D1*
X3010117Y1508583D1*
X3010189Y1501070D1*
Y1436133D1*
X3009797Y1432345D1*
X3007919Y1427295D1*
X3004647Y1423014D1*
X3000268Y1419877D1*
X2995163Y1418155D1*
X2991949Y1417869D1*
X2512823D1*
X2512656Y1417825D1*
X2506584Y1417499D1*
X2504123Y1417869D1*
X2488823D1*
X2488656Y1417825D1*
X2482584Y1417499D1*
X2480123Y1417869D1*
X2472264D1*
X2466930Y1418667D1*
X2462459Y1418869D1*
X2456577Y1417327D1*
X2454282Y1417203D1*
X2418966Y1381892D1*
X2414150Y1378344D1*
X2408575Y1376175D1*
X2403186Y1375526D1*
X1754818Y1375530D1*
X1757659Y1372094D1*
X1760874Y1367030D1*
X1763428Y1361602D1*
X1765282Y1355898D1*
X1766407Y1350005D1*
X1766783Y1344016D1*
X1766407Y1338031D1*
X1765539Y1333480D1*
X1835594Y1333140D1*
X2269089Y1331007D1*
X2272780Y1330614D1*
X2277829Y1328736D1*
X2282110Y1325465D1*
X2285248Y1321085D1*
X2286970Y1315980D1*
X2287256Y1312766D1*
X2287257Y1289077D1*
X2288423Y1286602D1*
X2290276Y1280898D1*
X2291400Y1275005D1*
X2291777Y1269016D1*
X2291402Y1263031D1*
X2290277Y1257139D1*
X2288424Y1251434D1*
X2287255Y1248948D1*
X2287256Y1225277D1*
X2286852Y1221446D1*
X2284958Y1216403D1*
X2281675Y1212133D1*
X2277286Y1209008D1*
X2272176Y1207301D1*
X2268961Y1207025D1*
X1865201Y1208249D1*
X1828203Y1162552D1*
X1826714Y1160921D1*
X1822335Y1157783D1*
X1817230Y1156062D1*
X1814016Y1155776D1*
X1765304Y1155777D1*
X1766407Y1150005D1*
X1766783Y1144016D1*
X1766407Y1138031D1*
X1765283Y1132139D1*
X1763430Y1126434D1*
X1760877Y1121005D1*
X1757661Y1115941D1*
X1753839Y1111319D1*
X1749466Y1107211D1*
X1744613Y1103685D1*
X1739357Y1100795D1*
X1733780Y1098587D1*
X1727969Y1097094D1*
X1722018Y1096343D1*
X1716020D1*
X1710068Y1097093D1*
X1704257Y1098585D1*
X1698680Y1100793D1*
X1693423Y1103682D1*
X1688570Y1107209D1*
X1684197Y1111315D1*
X1680373Y1115937D1*
X1677157Y1121001D1*
X1674604Y1126429D1*
X1672749Y1132134D1*
X1671625Y1138026D1*
X1671248Y1144013D1*
X1671625Y1150000D1*
X1672726Y1155772D1*
X1562004Y1155776D1*
X1552916D1*
X1554682Y1150154D1*
X1555316Y1144016D1*
X1554719Y1138055D1*
X1552916Y1132248D1*
X1549982Y1126923D1*
X1546035Y1122298D1*
X1541238Y1118562D1*
X1535787Y1115867D1*
X1529906Y1114325D1*
X1523833Y1113999D1*
X1517820Y1114902D1*
X1512113Y1116996D1*
X1506942Y1120197D1*
X1505799Y1121277D1*
X861003Y1121276D1*
X860877Y1121005D1*
X857661Y1115941D1*
X853839Y1111319D1*
X849466Y1107211D1*
X844613Y1103685D1*
X839357Y1100795D1*
X833780Y1098587D1*
X827969Y1097094D1*
X822018Y1096343D1*
X816020D1*
X810068Y1097093D1*
X804257Y1098585D1*
X798680Y1100793D1*
X793423Y1103682D1*
X788570Y1107209D1*
X784197Y1111315D1*
X780373Y1115937D1*
X777157Y1121001D1*
X774604Y1126429D1*
X772749Y1132134D1*
X771625Y1138026D1*
X771248Y1144013D1*
X771625Y1150000D1*
X772726Y1155772D1*
X765311Y1155776D1*
X766407Y1150005D1*
X766783Y1144016D1*
X766407Y1138031D1*
X765283Y1132139D1*
X763430Y1126434D1*
X760877Y1121005D1*
X757661Y1115941D1*
X753839Y1111319D1*
X749466Y1107211D1*
X744613Y1103685D1*
X739357Y1100795D1*
X733780Y1098587D1*
X727969Y1097094D1*
X722018Y1096343D1*
X716020D1*
X710068Y1097093D1*
X704257Y1098585D1*
X698680Y1100793D1*
X693423Y1103682D1*
X688570Y1107209D1*
X684197Y1111315D1*
X680373Y1115937D1*
X677157Y1121001D1*
X674604Y1126429D1*
X672749Y1132134D1*
X671625Y1138026D1*
X671248Y1144013D1*
X671625Y1150000D1*
X672726Y1155772D1*
X518004Y1155776D1*
X491516D1*
X486188Y1156571D1*
X481324Y1158888D1*
X477349Y1162526D1*
X474612Y1167165D1*
X473348Y1172408D1*
X473276Y1179689D1*
Y1321497D1*
X473688Y1325367D1*
X475591Y1330408D1*
X478882Y1334672D1*
X483277Y1337789D1*
X488390Y1339486D1*
X491605Y1339756D1*
X671572Y1338874D1*
X671248Y1344013D1*
X671625Y1350000D1*
X672748Y1355892D1*
X674601Y1361597D1*
X677155Y1367026D1*
X680370Y1372091D1*
X684193Y1376713D1*
X688566Y1380820D1*
X693419Y1384346D1*
X698675Y1387236D1*
X704252Y1389445D1*
X710063Y1390937D1*
X716013Y1391689D1*
X722012D1*
X727963Y1390938D1*
X733774Y1389446D1*
X739352Y1387239D1*
X744609Y1384349D1*
X749462Y1380823D1*
X753835Y1376717D1*
X757659Y1372094D1*
X760874Y1367030D1*
X763428Y1361602D1*
X765282Y1355898D1*
X766407Y1350005D1*
X766783Y1344016D1*
X766430Y1338400D1*
X771602Y1338383D1*
X771248Y1344013D1*
X771625Y1350000D1*
X772748Y1355892D1*
X774601Y1361597D1*
X777155Y1367026D1*
X780370Y1372091D1*
X784193Y1376713D1*
X788566Y1380820D1*
X793419Y1384346D1*
X798675Y1387236D1*
X804252Y1389445D1*
X810063Y1390937D1*
X816013Y1391689D1*
X822012D1*
X827963Y1390938D1*
X833774Y1389446D1*
X839352Y1387239D1*
X844609Y1384349D1*
X849462Y1380823D1*
X853835Y1376717D1*
X857659Y1372094D1*
X860874Y1367030D1*
X861001Y1366760D1*
X912091Y1366756D1*
X959686Y1414346D1*
X964437Y1417983D1*
X969976Y1420256D1*
X975783Y1421007D1*
X1180942D1*
X1177524Y1424373D1*
X1174035Y1429353D1*
X1171621Y1434933D1*
X1170379Y1440886D1*
X1170361Y1446966D1*
X1171567Y1452925D1*
X1173948Y1458520D1*
X1177406Y1463521D1*
X1181801Y1467723D1*
X1186950Y1470955D1*
X1192646Y1473084D1*
X1198654Y1474024D1*
X1204727Y1473734D1*
X1210618Y1472227D1*
X1216085Y1469567D1*
X1217785Y1468260D1*
X1326298Y1468256D1*
X1677937Y1468257D1*
X1680370Y1472091D1*
X1683420Y1475778D1*
X1250572Y1475776D1*
X1247488Y1473562D1*
X1242038Y1470867D1*
X1236156Y1469325D1*
X1230084Y1468999D1*
X1224071Y1469902D1*
X1218364Y1471996D1*
X1213193Y1475197D1*
X1208773Y1479373D1*
X1205285Y1484353D1*
X1202870Y1489933D1*
X1201629Y1495886D1*
X1201610Y1501966D1*
X1202816Y1507925D1*
X1205197Y1513520D1*
X1208655Y1518521D1*
X1209965Y1519773D1*
X1128273Y1519776D1*
X1125961Y1518799D1*
X1120079Y1517257D1*
X1114007Y1516930D1*
X1107993Y1517833D1*
X1102286Y1519928D1*
X1097115Y1523129D1*
X1092696Y1527304D1*
X1089207Y1532285D1*
X1086793Y1537865D1*
X1085551Y1543818D1*
X1085533Y1549898D1*
X1086739Y1555857D1*
X1088490Y1559971D1*
X1086333Y1559999D1*
X1080320Y1560902D1*
X1074613Y1562996D1*
X1069442Y1566197D1*
X1065022Y1570373D1*
X1061534Y1575353D1*
X1059119Y1580933D1*
X1057878Y1586886D1*
X1057860Y1592966D1*
X1059066Y1598925D1*
X1061446Y1604520D1*
X1064904Y1609521D1*
X1069299Y1613723D1*
X1074449Y1616955D1*
X1080144Y1619084D1*
X1086152Y1620024D1*
X1092226Y1619734D1*
X1098117Y1618227D1*
X1103584Y1615567D1*
X1106592Y1613253D1*
X1289126Y1613256D1*
X1288193Y1613948D1*
X1283773Y1618123D1*
X1280285Y1623104D1*
X1277870Y1628684D1*
X1276629Y1634636D1*
X1276610Y1640717D1*
X1277816Y1646676D1*
X1280197Y1652270D1*
X1283655Y1657272D1*
X1288050Y1661474D1*
X1293199Y1664706D1*
X1298895Y1666835D1*
X1304903Y1667774D1*
X1310976Y1667484D1*
X1316867Y1665978D1*
X1322335Y1663318D1*
X1324034Y1662010D1*
X1432430Y1662007D1*
X1620007D1*
X1624449Y1664706D1*
X1630144Y1666835D1*
X1636152Y1667774D1*
X1642226Y1667484D1*
X1648117Y1665978D1*
X1653584Y1663318D1*
X1658403Y1659610D1*
X1662378Y1655008D1*
X1665345Y1649701D1*
X1667182Y1643904D1*
X1667816Y1637766D1*
X1667219Y1631806D1*
X1665416Y1625999D1*
X1662482Y1620673D1*
X1658535Y1616049D1*
X1654951Y1613257D1*
X1743016Y1613256D1*
X1748949Y1612486D1*
X1754490Y1610226D1*
X1759273Y1606622D1*
X1805642Y1560256D1*
X1844765D1*
X1850698Y1559486D1*
X1856239Y1557226D1*
X1861022Y1553622D1*
X1875993Y1538654D1*
X1878155Y1541521D1*
X1882550Y1545723D1*
X1887699Y1548955D1*
X1893395Y1551084D1*
X1899403Y1552024D1*
X1905476Y1551734D1*
X1911367Y1550227D1*
X1916835Y1547567D1*
X1920491Y1544753D1*
X2255954Y1544756D1*
X2257134Y1545723D1*
X2262283Y1548955D1*
X2267979Y1551084D1*
X2273987Y1552024D1*
X2280060Y1551734D1*
X2285951Y1550227D1*
X2291419Y1547567D1*
X2296238Y1543860D1*
X2300213Y1539257D1*
X2303180Y1533950D1*
X2305017Y1528154D1*
X2305651Y1522016D1*
X2305054Y1516055D1*
X2303251Y1510248D1*
X2302154Y1508257D1*
X2375965Y1508256D1*
X2376550Y1508723D1*
X2381699Y1511955D1*
X2387395Y1514084D1*
X2393403Y1515024D1*
X2399476Y1514734D1*
X2405367Y1513227D1*
X2410835Y1510567D1*
X2415654Y1506860D1*
X2419629Y1502257D1*
X2422596Y1496950D1*
X2424433Y1491154D1*
X2425067Y1485016D1*
X2424470Y1479055D1*
X2422667Y1473248D1*
X2419732Y1467923D1*
X2415786Y1463298D1*
X2410988Y1459562D1*
X2405538Y1456867D1*
X2399656Y1455325D1*
X2393584Y1454999D1*
X2387571Y1455902D1*
X2381864Y1457996D1*
X2376693Y1461197D1*
X2376076Y1461780D1*
X2347266Y1461776D1*
X2347318Y1460016D1*
X2346720Y1454055D1*
X2344917Y1448248D1*
X2341983Y1442923D1*
X2338037Y1438298D1*
X2333239Y1434562D1*
X2327789Y1431867D1*
X2321907Y1430325D1*
X2315835Y1429999D1*
X2309822Y1430902D1*
X2304114Y1432996D1*
X2298944Y1436197D1*
X2298336Y1436772D1*
X2137346Y1436776D1*
X1874571D1*
X1871488Y1434562D1*
X1866038Y1431867D1*
X1860156Y1430325D1*
X1854084Y1429999D1*
X1848071Y1430902D1*
X1842364Y1432996D1*
X1837193Y1436197D1*
X1832773Y1440373D1*
X1829285Y1445353D1*
X1826870Y1450933D1*
X1825629Y1456886D1*
X1825627Y1457034D1*
X1806888Y1475777D1*
X1754701Y1475776D1*
X1757659Y1472094D1*
X1760874Y1467030D1*
X1763428Y1461602D1*
X1765282Y1455898D1*
X1766407Y1450005D1*
X1766783Y1444016D1*
X1766407Y1438031D1*
X1765283Y1432139D1*
X1763430Y1426434D1*
X1760879Y1421007D1*
X2393766D1*
X2421966Y1449205D1*
X2422031Y1449967D1*
X2423238Y1455927D1*
X2425618Y1461521D1*
X2429076Y1466522D1*
X2433471Y1470724D1*
X2438621Y1473957D1*
X2444316Y1476085D1*
X2450324Y1477025D1*
X2454020Y1476849D1*
X2454024Y1502014D1*
Y1506975D1*
X2454819Y1512303D1*
X2457136Y1517167D1*
X2460774Y1521142D1*
X2465413Y1523879D1*
X2470656Y1525143D1*
X2472281Y1525215D1*
X2928588Y1525217D1*
X2926791Y1526299D1*
X2922026Y1529971D1*
X2917711Y1534163D1*
X2913900Y1538818D1*
X2910647Y1543878D1*
X2907991Y1549276D1*
X2905967Y1554941D1*
X2904602Y1560799D1*
X2903913Y1566776D1*
X2903912Y1572791D1*
X2904596Y1578769D1*
X2905955Y1584629D1*
X2907975Y1590295D1*
X2910627Y1595696D1*
X2913878Y1600757D1*
X2917685Y1605416D1*
X2921997Y1609610D1*
X2926760Y1613286D1*
X2931911Y1616394D1*
X2937382Y1618895D1*
X2937723Y1619005D1*
X2937714Y1619026D1*
X2937417Y1619122D1*
X2931945Y1621619D1*
X2926791Y1624724D1*
X2922026Y1628396D1*
X2917711Y1632588D1*
X2913900Y1637243D1*
X2910647Y1642303D1*
X2907991Y1647701D1*
X2905967Y1653366D1*
X2904602Y1659224D1*
X2903913Y1665201D1*
X2903912Y1671217D1*
X2904596Y1677194D1*
X2905955Y1683054D1*
X2907975Y1688720D1*
X2910627Y1694121D1*
X2913878Y1699182D1*
X2917685Y1703841D1*
X2921997Y1708035D1*
X2923518Y1709209D1*
X2476201Y1709207D1*
X2470873Y1710003D1*
X2466009Y1712320D1*
X2462034Y1715958D1*
X2459297Y1720597D1*
X2458033Y1725840D1*
X2457961Y1733681D1*
Y1741117D1*
X2457035Y1743633D1*
X2455794Y1749585D1*
X2455776Y1755665D1*
X2456982Y1761625D1*
X2457961Y1763925D1*
Y1770976D1*
X2455584Y1770999D1*
X2449571Y1771902D1*
X2443864Y1773996D1*
X2438693Y1777197D1*
X2437550Y1778277D1*
X1876165Y1778276D1*
X1872488Y1775562D1*
X1867038Y1772867D1*
X1861156Y1771325D1*
X1855084Y1770999D1*
X1849071Y1771902D1*
X1845610Y1773172D1*
X1843920Y1772575D1*
X1838026Y1771547D1*
X1837016Y1771525D1*
X1758020Y1771526D1*
X1760874Y1767030D1*
X1763428Y1761602D1*
X1765282Y1755898D1*
X1766407Y1750005D1*
X1766783Y1744016D1*
X1766407Y1738031D1*
X1765283Y1732139D1*
X1763430Y1726434D1*
X1760877Y1721005D1*
X1757661Y1715941D1*
X1753839Y1711319D1*
X1749466Y1707211D1*
X1744613Y1703685D1*
X1739357Y1700795D1*
X1733780Y1698587D1*
X1727969Y1697094D1*
X1722018Y1696343D1*
X1716020D1*
X1710068Y1697093D1*
X1704257Y1698585D1*
X1698680Y1700793D1*
X1693423Y1703682D1*
X1688570Y1707209D1*
X1684197Y1711315D1*
X1680373Y1715937D1*
X1677157Y1721001D1*
X1674604Y1726429D1*
X1672749Y1732134D1*
X1671625Y1738026D1*
X1671248Y1744013D1*
X1671625Y1750000D1*
X1672748Y1755892D1*
X1674601Y1761597D1*
X1677155Y1767026D1*
X1680008Y1771522D1*
X1357060Y1771525D1*
X1081816D1*
X1078738Y1769311D1*
X1073287Y1766617D1*
X1067406Y1765075D1*
X1061333Y1764748D1*
X1055320Y1765651D1*
X1049613Y1767745D1*
X1044442Y1770946D1*
X1040022Y1775122D1*
X1036534Y1780102D1*
X1034119Y1785682D1*
X1032878Y1791635D1*
X1032860Y1797715D1*
X1034066Y1803675D1*
X1036446Y1809269D1*
X1039904Y1814270D1*
X1044299Y1818472D1*
X1047171Y1820276D1*
X936318D1*
X933239Y1818062D1*
X927789Y1815367D1*
X921907Y1813825D1*
X915835Y1813499D1*
X909822Y1814402D1*
X904114Y1816496D1*
X898944Y1819697D1*
X894524Y1823873D1*
X891035Y1828853D1*
X888621Y1834433D1*
X887379Y1840386D1*
X887361Y1846466D1*
X888567Y1852425D1*
X890948Y1858020D1*
X894406Y1863021D1*
X898801Y1867223D1*
X902467Y1869525D1*
X859289Y1869528D1*
X860874Y1867030D1*
X863428Y1861602D1*
X865282Y1855898D1*
X866407Y1850005D1*
X866783Y1844016D1*
X866407Y1838031D1*
X865283Y1832139D1*
X863430Y1826434D1*
X860877Y1821005D1*
X857661Y1815941D1*
X853839Y1811319D1*
X849466Y1807211D1*
X844613Y1803685D1*
X839357Y1800795D1*
X833780Y1798587D1*
X827969Y1797094D1*
X822018Y1796343D1*
X816020D1*
X810068Y1797093D1*
X804257Y1798585D1*
X798680Y1800793D1*
X793423Y1803682D1*
X788570Y1807209D1*
X784197Y1811315D1*
X780373Y1815937D1*
X777157Y1821001D1*
X774604Y1826429D1*
X772749Y1832134D1*
X771625Y1838026D1*
X771248Y1844013D1*
X771625Y1850000D1*
X772748Y1855892D1*
X774601Y1861597D1*
X777155Y1867026D1*
X778740Y1869524D1*
X759400Y1869525D1*
X760874Y1867030D1*
X763428Y1861602D1*
X765282Y1855898D1*
X766407Y1850005D1*
X766783Y1844016D1*
X766407Y1838031D1*
X765283Y1832139D1*
X763430Y1826434D1*
X760877Y1821005D1*
X757661Y1815941D1*
X753839Y1811319D1*
X749466Y1807211D1*
X744613Y1803685D1*
X739357Y1800795D1*
X733780Y1798587D1*
X727969Y1797094D1*
X722018Y1796343D1*
X716020D1*
X710068Y1797093D1*
X704257Y1798585D1*
X698680Y1800793D1*
X693423Y1803682D1*
X688570Y1807209D1*
X684197Y1811315D1*
X680373Y1815937D1*
X677157Y1821001D1*
X674604Y1826429D1*
X672749Y1832134D1*
X671625Y1838026D1*
X671248Y1844013D1*
X671625Y1850000D1*
X672748Y1855892D1*
X674601Y1861597D1*
X677155Y1867026D1*
X678740Y1869524D1*
X641157Y1869525D1*
X637488Y1866811D1*
X632038Y1864117D1*
X626156Y1862575D1*
X620084Y1862248D1*
X614071Y1863151D1*
X608364Y1865245D1*
X603193Y1868446D1*
X598773Y1872622D1*
X595285Y1877602D1*
X592870Y1883182D1*
X591629Y1889135D1*
X591610Y1895215D1*
X592816Y1901175D1*
X595197Y1906769D1*
X598655Y1911770D1*
X603050Y1915972D1*
X608199Y1919205D1*
X613895Y1921333D1*
X619903Y1922273D1*
X625976Y1921983D1*
X631867Y1920476D1*
X637335Y1917816D1*
X640991Y1915003D1*
X681064Y1915005D1*
X680373Y1915937D1*
X677157Y1921001D1*
X674604Y1926429D1*
X672749Y1932134D1*
X671625Y1938026D1*
X671248Y1944013D1*
X671625Y1950000D1*
X672748Y1955892D1*
X674601Y1961597D1*
X677155Y1967026D1*
X680370Y1972091D1*
X684193Y1976713D1*
X688566Y1980820D1*
X693419Y1984346D1*
X698675Y1987236D1*
X704252Y1989445D1*
X710063Y1990937D1*
X716013Y1991689D1*
X722012D1*
X727963Y1990938D1*
X733774Y1989446D1*
X739352Y1987239D1*
X744609Y1984349D1*
X749462Y1980823D1*
X753835Y1976717D1*
X757659Y1972094D1*
X760874Y1967030D1*
X763428Y1961602D1*
X765282Y1955898D1*
X766407Y1950005D1*
X766783Y1944016D1*
X766407Y1938031D1*
X765283Y1932139D1*
X763430Y1926434D1*
X760877Y1921005D1*
X757661Y1915941D1*
X756890Y1915007D1*
X781072Y1915005D1*
X780373Y1915937D1*
X777157Y1921001D1*
X774604Y1926429D1*
X772749Y1932134D1*
X771625Y1938026D1*
X771248Y1944013D1*
X771625Y1950000D1*
X772748Y1955892D1*
X774601Y1961597D1*
X777155Y1967026D1*
X780370Y1972091D1*
X784193Y1976713D1*
X788566Y1980820D1*
X793419Y1984346D1*
X798675Y1987236D1*
X804252Y1989445D1*
X810063Y1990937D1*
X816013Y1991689D1*
X822012D1*
X827963Y1990938D1*
X833774Y1989446D1*
X839352Y1987239D1*
X844609Y1984349D1*
X849462Y1980823D1*
X853835Y1976717D1*
X857659Y1972094D1*
X860874Y1967030D1*
X863428Y1961602D1*
X865282Y1955898D1*
X866407Y1950005D1*
X866783Y1944016D1*
X866407Y1938031D1*
X865283Y1932139D1*
X863430Y1926434D1*
X860877Y1921005D1*
X857661Y1915941D1*
X856890Y1915007D1*
X1681072Y1915005D1*
X1680373Y1915937D1*
X1677157Y1921001D1*
X1674604Y1926429D1*
X1672749Y1932134D1*
X1671625Y1938026D1*
X1671248Y1944013D1*
X1671625Y1950000D1*
X1672748Y1955892D1*
X1674601Y1961597D1*
X1677155Y1967026D1*
X1680370Y1972091D1*
X1681552Y1973521D1*
X1548815Y1973525D1*
X1544906D1*
X1541238Y1970811D1*
X1535787Y1968117D1*
X1529906Y1966575D1*
X1523833Y1966248D1*
X1517820Y1967151D1*
X1512113Y1969245D1*
X1506942Y1972446D1*
X1502522Y1976622D1*
X1499034Y1981602D1*
X1496619Y1987182D1*
X1495378Y1993135D1*
X1495360Y1999215D1*
X1496566Y2005175D1*
X1498946Y2010769D1*
X1502404Y2015770D1*
X1506799Y2019972D1*
X1511949Y2023205D1*
X1517644Y2025333D1*
X1523652Y2026273D1*
X1529726Y2025983D1*
X1535617Y2024476D1*
X1541084Y2021816D1*
X1544740Y2019003D1*
X1678315Y2019005D1*
X1677157Y2021001D1*
X1674604Y2026429D1*
X1672749Y2032134D1*
X1671625Y2038026D1*
X1671248Y2044013D1*
X1671625Y2050000D1*
X1672748Y2055892D1*
X1674601Y2061597D1*
X1677155Y2067026D1*
X1680370Y2072091D1*
X1684193Y2076713D1*
X1688566Y2080820D1*
X1693419Y2084346D1*
X1698675Y2087236D1*
X1704252Y2089445D1*
X1710063Y2090937D1*
X1716013Y2091689D1*
X1722012D1*
X1727963Y2090938D1*
X1733774Y2089446D1*
X1739352Y2087239D1*
X1744609Y2084349D1*
X1749462Y2080823D1*
X1753835Y2076717D1*
X1757659Y2072094D1*
X1760874Y2067030D1*
X1763428Y2061602D1*
X1765282Y2055898D1*
X1766407Y2050005D1*
X1766783Y2044016D1*
X1766407Y2038031D1*
X1765283Y2032139D1*
X1763430Y2026434D1*
X1760877Y2021005D1*
X1759605Y2019003D1*
X2301343Y2019005D1*
X2358794Y2076451D1*
X2358861Y2077215D1*
X2360067Y2083175D1*
X2362448Y2088769D1*
X2365906Y2093770D1*
X2370301Y2097972D1*
X2375450Y2101205D1*
X2381146Y2103333D1*
X2387154Y2104273D1*
X2393227Y2103983D1*
X2399118Y2102476D1*
X2404585Y2099816D1*
X2409404Y2096109D1*
X2413379Y2091507D1*
X2416346Y2086199D1*
X2418184Y2080403D1*
X2418818Y2074265D1*
X2418220Y2068304D1*
X2416417Y2062497D1*
X2413483Y2057172D1*
X2409537Y2052547D1*
X2404739Y2048811D1*
X2399289Y2046117D1*
X2393407Y2044575D1*
X2391112Y2044451D1*
X2326545Y1979891D1*
X2321728Y1976343D1*
X2316154Y1974173D1*
X2310765Y1973525D1*
X1756475Y1973526D1*
X1757659Y1972094D1*
X1760874Y1967030D1*
X1763428Y1961602D1*
X1765282Y1955898D1*
X1766407Y1950005D1*
X1766783Y1944016D1*
X1766407Y1938031D1*
X1765283Y1932139D1*
X1763430Y1926434D1*
X1760877Y1921005D1*
X1757661Y1915941D1*
X1756890Y1915007D1*
X2300843Y1915005D1*
X2421777Y2035936D1*
X2421840Y2036696D1*
X2423046Y2042655D1*
X2425427Y2048249D1*
X2428885Y2053251D1*
X2433280Y2057453D1*
X2438429Y2060685D1*
X2444125Y2062814D1*
X2450133Y2063753D1*
X2454029Y2063567D1*
X2454024Y2097526D1*
X2454819Y2102854D1*
X2457136Y2107718D1*
X2460774Y2111693D1*
X2465413Y2114430D1*
X2470656Y2115694D1*
X2478169Y2115766D1*
X2925761D1*
X2924903Y2116399D1*
X2920304Y2120277D1*
X2916177Y2124654D1*
X2912576Y2129474D1*
X2909549Y2134672D1*
X2907133Y2140181D1*
X2905361Y2145930D1*
X2904256Y2151844D1*
X2903832Y2157845D1*
X2904094Y2163854D1*
X2905041Y2169795D1*
X2906659Y2175591D1*
X2908927Y2181163D1*
X2911814Y2186440D1*
X2915285Y2191353D1*
X2919293Y2195840D1*
X2923786Y2199840D1*
X2928706Y2203302D1*
X2933988Y2206180D1*
X2937795Y2207720D1*
X2937417Y2207869D1*
X2931945Y2210366D1*
X2926791Y2213471D1*
X2922026Y2217143D1*
X2917711Y2221335D1*
X2913900Y2225990D1*
X2910647Y2231050D1*
X2907991Y2236448D1*
X2905967Y2242113D1*
X2904602Y2247971D1*
X2903913Y2253948D1*
X2903912Y2259963D1*
X2904596Y2265941D1*
X2905955Y2271801D1*
X2907975Y2277467D1*
X2910627Y2282867D1*
X2913878Y2287929D1*
X2917685Y2292588D1*
X2921997Y2296782D1*
X2925853Y2299757D1*
X2476201Y2299759D1*
X2470873Y2300554D1*
X2466009Y2302871D1*
X2462034Y2306509D1*
X2459297Y2311148D1*
X2458033Y2316391D1*
X2457961Y2324232D1*
Y2337785D1*
X2457619Y2340136D1*
X2457601Y2346217D1*
X2457959Y2347991D1*
X2457961Y2359875D1*
X2457656Y2359825D1*
X2451584Y2359499D1*
X2445571Y2360402D1*
X2439864Y2362496D1*
X2434693Y2365697D1*
X2433550Y2366777D1*
X1851656Y2366776D1*
X1847988Y2364062D1*
X1842538Y2361367D1*
X1836656Y2359825D1*
X1830584Y2359499D1*
X1824571Y2360402D1*
X1818864Y2362496D1*
X1813693Y2365697D1*
X1809273Y2369873D1*
X1805785Y2374853D1*
X1803370Y2380433D1*
X1802129Y2386386D1*
X1802110Y2392466D1*
X1803316Y2398425D1*
X1805697Y2404020D1*
X1809155Y2409021D1*
X1813550Y2413223D1*
X1818699Y2416455D1*
X1824395Y2418584D1*
X1830403Y2419524D1*
X1836476Y2419234D1*
X1842367Y2417727D1*
X1847835Y2415067D1*
X1851491Y2412253D1*
X2433375Y2412256D1*
X2434550Y2413223D1*
X2439699Y2416455D1*
X2445395Y2418584D1*
X2451403Y2419524D1*
X2457476Y2419234D1*
X2463367Y2417727D1*
X2468835Y2415067D1*
X2473654Y2411360D1*
X2474038Y2410915D1*
X2474593Y2410970D1*
X2482198Y2411042D1*
X2838571D1*
X2838323Y2412478D1*
X2837882Y2418424D1*
X2838332Y2424370D1*
X2839664Y2430181D1*
X2841846Y2435731D1*
X2844832Y2440891D1*
X2848554Y2445550D1*
X2852928Y2449602D1*
X2857857Y2452957D1*
X2863231Y2455539D1*
X2868929Y2457293D1*
X2874827Y2458177D1*
X2880789Y2458172D1*
X2886684Y2457278D1*
X2892381Y2455517D1*
X2897751Y2452925D1*
X2902673Y2449563D1*
X2907042Y2445504D1*
X2910755Y2440839D1*
X2913732Y2435673D1*
X2915907Y2430121D1*
X2917228Y2424307D1*
X2917669Y2418392D1*
X2917219Y2412415D1*
X2916906Y2411047D1*
X2974198Y2411042D1*
X2991949D1*
X2997282Y2410244D1*
X3001895Y2408089D1*
X3009205D1*
Y2398709D1*
X3010117Y2394409D1*
X3010189Y2386568D1*
Y2318026D1*
X3009794Y2314230D1*
X3009205Y2312083D1*
Y2302711D1*
X3001898D1*
X3000268Y2301766D1*
X2995163Y2300045D1*
X2991949Y2299759D1*
X2987269D1*
X2988630Y2298747D1*
X2989572Y2298004D1*
X2990499Y2297240D1*
X2991407Y2296457D1*
X2992297Y2295651D1*
X2993168Y2294827D1*
X2994020Y2293982D1*
X2997995Y2289466D1*
X3001428Y2284526D1*
X3004276Y2279227D1*
X3006500Y2273638D1*
X3008073Y2267831D1*
X3008975Y2261883D1*
X3009205Y2256975D1*
X3008864Y2250988D1*
X3007840Y2245060D1*
X3006147Y2239287D1*
X3003807Y2233745D1*
X3000850Y2228505D1*
X2997316Y2223638D1*
X2993251Y2219203D1*
X2988705Y2215262D1*
X2983740Y2211865D1*
X2978421Y2209055D1*
X2975219Y2207807D1*
X2980478Y2205475D1*
X2985671Y2202437D1*
X2990483Y2198828D1*
X2994853Y2194693D1*
X2998723Y2190088D1*
X3002043Y2185071D1*
X3004770Y2179707D1*
X3006867Y2174070D1*
X3008308Y2168228D1*
X3009073Y2162261D1*
X3009205Y2158550D1*
X3008864Y2152563D1*
X3007840Y2146635D1*
X3006147Y2140862D1*
X3003807Y2135320D1*
X3000850Y2130080D1*
X2997316Y2125213D1*
X2993251Y2120778D1*
X2992381Y2119951D1*
X2991492Y2119144D1*
X2990585Y2118358D1*
X2989661Y2117593D1*
X2988720Y2116849D1*
X2987261Y2115765D1*
X2991871Y2115766D1*
X2995713Y2115374D1*
X3000762Y2113496D1*
X3005043Y2110224D1*
X3008181Y2105845D1*
X3009903Y2100740D1*
X3010189Y2097526D1*
Y2026660D1*
X3009394Y2021332D1*
X3007076Y2016469D1*
X3003438Y2012493D1*
X2998799Y2009756D1*
X2993556Y2008492D1*
X2986043Y2008420D1*
X2966516D1*
X2961043Y2007631D1*
X2955030Y2007457D1*
X2949037Y2007970D1*
X2946808Y2008420D1*
X2472259Y2008421D1*
X2468416Y2008835D1*
X2467718Y2008291D1*
X2462268Y2005597D1*
X2456386Y2004055D1*
X2454091Y2003932D1*
X2326045Y1875891D1*
X2321228Y1872343D1*
X2315654Y1870173D1*
X2310265Y1869525D1*
X1759289Y1869528D1*
X1760874Y1867030D1*
X1763428Y1861602D1*
X1765282Y1855898D1*
X1766407Y1850005D1*
X1766783Y1844016D1*
X1766407Y1838031D1*
X1765283Y1832139D1*
X1763430Y1826434D1*
X1760877Y1821005D1*
X1758971Y1818004D1*
X1827411Y1818005D1*
X1830929Y1820710D1*
X866407Y1438031D2*
X865283Y1432139D1*
X863430Y1426434D1*
X860877Y1421005D1*
X857661Y1415941D1*
X853839Y1411319D1*
X849466Y1407211D1*
X844613Y1403685D1*
X839357Y1400795D1*
X833780Y1398587D1*
X827969Y1397094D1*
X822018Y1396343D1*
X816020D1*
X810068Y1397093D1*
X804257Y1398585D1*
X798680Y1400793D1*
X793423Y1403682D1*
X788570Y1407209D1*
X784197Y1411315D1*
X780373Y1415937D1*
X777157Y1421001D1*
X774604Y1426429D1*
X772749Y1432134D1*
X771625Y1438026D1*
X771248Y1444013D1*
X771625Y1450000D1*
X772748Y1455892D1*
X774601Y1461597D1*
X777155Y1467026D1*
X780370Y1472091D1*
X784193Y1476713D1*
X788566Y1480820D1*
X793419Y1484346D1*
X798675Y1487236D1*
X804252Y1489445D1*
X810063Y1490937D1*
X816013Y1491689D1*
X822012D1*
X827963Y1490938D1*
X833774Y1489446D1*
X839352Y1487239D1*
X844609Y1484349D1*
X849462Y1480823D1*
X853835Y1476717D1*
X857659Y1472094D1*
X860874Y1467030D1*
X863428Y1461602D1*
X865282Y1455898D1*
X866407Y1450005D1*
X866783Y1444016D1*
X866407Y1438031D1*
Y1538031D2*
X865283Y1532139D1*
X863430Y1526434D1*
X860877Y1521005D1*
X857661Y1515941D1*
X853839Y1511319D1*
X849466Y1507211D1*
X844613Y1503685D1*
X839357Y1500795D1*
X833780Y1498587D1*
X827969Y1497094D1*
X822018Y1496343D1*
X816020D1*
X810068Y1497093D1*
X804257Y1498585D1*
X798680Y1500793D1*
X793423Y1503682D1*
X788570Y1507209D1*
X784197Y1511315D1*
X780373Y1515937D1*
X777157Y1521001D1*
X774604Y1526429D1*
X772749Y1532134D1*
X771625Y1538026D1*
X771248Y1544013D1*
X771625Y1550000D1*
X772748Y1555892D1*
X774601Y1561597D1*
X777155Y1567026D1*
X780370Y1572091D1*
X784193Y1576713D1*
X788566Y1580820D1*
X793419Y1584346D1*
X798675Y1587236D1*
X804252Y1589445D1*
X810063Y1590937D1*
X816013Y1591689D1*
X822012D1*
X827963Y1590938D1*
X833774Y1589446D1*
X839352Y1587239D1*
X844609Y1584349D1*
X849462Y1580823D1*
X853835Y1576717D1*
X857659Y1572094D1*
X860874Y1567030D1*
X863428Y1561602D1*
X865282Y1555898D1*
X866407Y1550005D1*
X866783Y1544016D1*
X866407Y1538031D1*
Y1638031D2*
X865283Y1632139D1*
X863430Y1626434D1*
X860877Y1621005D1*
X857661Y1615941D1*
X853839Y1611319D1*
X849466Y1607211D1*
X844613Y1603685D1*
X839357Y1600795D1*
X833780Y1598587D1*
X827969Y1597094D1*
X822018Y1596343D1*
X816020D1*
X810068Y1597093D1*
X804257Y1598585D1*
X798680Y1600793D1*
X793423Y1603682D1*
X788570Y1607209D1*
X784197Y1611315D1*
X780373Y1615937D1*
X777157Y1621001D1*
X774604Y1626429D1*
X772749Y1632134D1*
X771625Y1638026D1*
X771248Y1644013D1*
X771625Y1650000D1*
X772748Y1655892D1*
X774601Y1661597D1*
X777155Y1667026D1*
X780370Y1672091D1*
X784193Y1676713D1*
X788566Y1680820D1*
X793419Y1684346D1*
X798675Y1687236D1*
X804252Y1689445D1*
X810063Y1690937D1*
X816013Y1691689D1*
X822012D1*
X827963Y1690938D1*
X833774Y1689446D1*
X839352Y1687239D1*
X844609Y1684349D1*
X849462Y1680823D1*
X853835Y1676717D1*
X857659Y1672094D1*
X860874Y1667030D1*
X863428Y1661602D1*
X865282Y1655898D1*
X866407Y1650005D1*
X866783Y1644016D1*
X866407Y1638031D1*
Y1738031D2*
X865283Y1732139D1*
X863430Y1726434D1*
X860877Y1721005D1*
X857661Y1715941D1*
X853839Y1711319D1*
X849466Y1707211D1*
X844613Y1703685D1*
X839357Y1700795D1*
X833780Y1698587D1*
X827969Y1697094D1*
X822018Y1696343D1*
X816020D1*
X810068Y1697093D1*
X804257Y1698585D1*
X798680Y1700793D1*
X793423Y1703682D1*
X788570Y1707209D1*
X784197Y1711315D1*
X780373Y1715937D1*
X777157Y1721001D1*
X774604Y1726429D1*
X772749Y1732134D1*
X771625Y1738026D1*
X771248Y1744013D1*
X771625Y1750000D1*
X772748Y1755892D1*
X774601Y1761597D1*
X777155Y1767026D1*
X780370Y1772091D1*
X784193Y1776713D1*
X788566Y1780820D1*
X793419Y1784346D1*
X798675Y1787236D1*
X804252Y1789445D1*
X810063Y1790937D1*
X816013Y1791689D1*
X822012D1*
X827963Y1790938D1*
X833774Y1789446D1*
X839352Y1787239D1*
X844609Y1784349D1*
X849462Y1780823D1*
X853835Y1776717D1*
X857659Y1772094D1*
X860874Y1767030D1*
X863428Y1761602D1*
X865282Y1755898D1*
X866407Y1750005D1*
X866783Y1744016D1*
X866407Y1738031D1*
Y2038031D2*
X865283Y2032139D1*
X863430Y2026434D1*
X860877Y2021005D1*
X857661Y2015941D1*
X853839Y2011319D1*
X849466Y2007211D1*
X844613Y2003685D1*
X839357Y2000795D1*
X833780Y1998587D1*
X827969Y1997094D1*
X822018Y1996343D1*
X816020D1*
X810068Y1997093D1*
X804257Y1998585D1*
X798680Y2000793D1*
X793423Y2003682D1*
X788570Y2007209D1*
X784197Y2011315D1*
X780373Y2015937D1*
X777157Y2021001D1*
X774604Y2026429D1*
X772749Y2032134D1*
X771625Y2038026D1*
X771248Y2044013D1*
X771625Y2050000D1*
X772748Y2055892D1*
X774601Y2061597D1*
X777155Y2067026D1*
X780370Y2072091D1*
X784193Y2076713D1*
X788566Y2080820D1*
X793419Y2084346D1*
X798675Y2087236D1*
X804252Y2089445D1*
X810063Y2090937D1*
X816013Y2091689D1*
X822012D1*
X827963Y2090938D1*
X833774Y2089446D1*
X839352Y2087239D1*
X844609Y2084349D1*
X849462Y2080823D1*
X853835Y2076717D1*
X857659Y2072094D1*
X860874Y2067030D1*
X863428Y2061602D1*
X865282Y2055898D1*
X866407Y2050005D1*
X866783Y2044016D1*
X866407Y2038031D1*
Y2138031D2*
X865283Y2132139D1*
X863430Y2126434D1*
X860877Y2121005D1*
X857661Y2115941D1*
X853839Y2111319D1*
X849466Y2107211D1*
X844613Y2103685D1*
X839357Y2100795D1*
X833780Y2098587D1*
X827969Y2097094D1*
X822018Y2096343D1*
X816020D1*
X810068Y2097093D1*
X804257Y2098585D1*
X798680Y2100793D1*
X793423Y2103682D1*
X788570Y2107209D1*
X784197Y2111315D1*
X780373Y2115937D1*
X777157Y2121001D1*
X774604Y2126429D1*
X772749Y2132134D1*
X771625Y2138026D1*
X771248Y2144013D1*
X771625Y2150000D1*
X772748Y2155892D1*
X774601Y2161597D1*
X777155Y2167026D1*
X780370Y2172091D1*
X784193Y2176713D1*
X788566Y2180820D1*
X793419Y2184346D1*
X798675Y2187236D1*
X804252Y2189445D1*
X810063Y2190937D1*
X816013Y2191689D1*
X822012D1*
X827963Y2190938D1*
X833774Y2189446D1*
X839352Y2187239D1*
X844609Y2184349D1*
X849462Y2180823D1*
X853835Y2176717D1*
X857659Y2172094D1*
X860874Y2167030D1*
X863428Y2161602D1*
X865282Y2155898D1*
X866407Y2150005D1*
X866783Y2144016D1*
X866407Y2138031D1*
Y2238031D2*
X865283Y2232139D1*
X863430Y2226434D1*
X860877Y2221005D1*
X857661Y2215941D1*
X853839Y2211319D1*
X849466Y2207211D1*
X844613Y2203685D1*
X839357Y2200795D1*
X833780Y2198587D1*
X827969Y2197094D1*
X822018Y2196343D1*
X816020D1*
X810068Y2197093D1*
X804257Y2198585D1*
X798680Y2200793D1*
X793423Y2203682D1*
X788570Y2207209D1*
X784197Y2211315D1*
X780373Y2215937D1*
X777157Y2221001D1*
X774604Y2226429D1*
X772749Y2232134D1*
X771625Y2238026D1*
X771248Y2244013D1*
X771625Y2250000D1*
X772748Y2255892D1*
X774601Y2261597D1*
X777155Y2267026D1*
X780370Y2272091D1*
X784193Y2276713D1*
X788566Y2280820D1*
X793419Y2284346D1*
X798675Y2287236D1*
X804252Y2289445D1*
X810063Y2290937D1*
X816013Y2291689D1*
X822012D1*
X827963Y2290938D1*
X833774Y2289446D1*
X839352Y2287239D1*
X844609Y2284349D1*
X849462Y2280823D1*
X853835Y2276717D1*
X857659Y2272094D1*
X860874Y2267030D1*
X863428Y2261602D1*
X865282Y2255898D1*
X866407Y2250005D1*
X866783Y2244016D1*
X866407Y2238031D1*
X766407Y538031D2*
X765283Y532139D1*
X763430Y526434D1*
X760877Y521005D1*
X757661Y515941D1*
X753839Y511319D1*
X749466Y507211D1*
X744613Y503685D1*
X739357Y500795D1*
X733780Y498587D1*
X727969Y497094D1*
X722018Y496343D1*
X716020D1*
X710068Y497093D1*
X704257Y498585D1*
X698680Y500793D1*
X693423Y503682D1*
X688570Y507209D1*
X684197Y511315D1*
X680373Y515937D1*
X677157Y521001D1*
X674604Y526429D1*
X672749Y532134D1*
X671625Y538026D1*
X671248Y544013D1*
X671625Y550000D1*
X672748Y555892D1*
X674601Y561597D1*
X677155Y567026D1*
X680370Y572091D1*
X684193Y576713D1*
X688566Y580820D1*
X693419Y584346D1*
X698675Y587236D1*
X704252Y589445D1*
X710063Y590937D1*
X716013Y591689D1*
X722012D1*
X727963Y590938D1*
X733774Y589446D1*
X739352Y587239D1*
X744609Y584349D1*
X749462Y580823D1*
X753835Y576717D1*
X757659Y572094D1*
X760874Y567030D1*
X763428Y561602D1*
X765282Y555898D1*
X766407Y550005D1*
X766783Y544016D1*
X766407Y538031D1*
Y638031D2*
X765283Y632139D1*
X763430Y626434D1*
X760877Y621005D1*
X757661Y615941D1*
X753839Y611319D1*
X749466Y607211D1*
X744613Y603685D1*
X739357Y600795D1*
X733780Y598587D1*
X727969Y597094D1*
X722018Y596343D1*
X716020D1*
X710068Y597093D1*
X704257Y598585D1*
X698680Y600793D1*
X693423Y603682D1*
X688570Y607209D1*
X684197Y611315D1*
X680373Y615937D1*
X677157Y621001D1*
X674604Y626429D1*
X672749Y632134D1*
X671625Y638026D1*
X671248Y644013D1*
X671625Y650000D1*
X672748Y655892D1*
X674601Y661597D1*
X677155Y667026D1*
X680370Y672091D1*
X684193Y676713D1*
X688566Y680820D1*
X693419Y684346D1*
X698675Y687236D1*
X704252Y689445D1*
X710063Y690937D1*
X716013Y691689D1*
X722012D1*
X727963Y690938D1*
X733774Y689446D1*
X739352Y687239D1*
X744609Y684349D1*
X749462Y680823D1*
X753835Y676717D1*
X757659Y672094D1*
X760874Y667030D1*
X763428Y661602D1*
X765282Y655898D1*
X766407Y650005D1*
X766783Y644016D1*
X766407Y638031D1*
Y738031D2*
X765283Y732139D1*
X763430Y726434D1*
X760877Y721005D1*
X757661Y715941D1*
X753839Y711319D1*
X749466Y707211D1*
X744613Y703685D1*
X739357Y700795D1*
X733780Y698587D1*
X727969Y697094D1*
X722018Y696343D1*
X716020D1*
X710068Y697093D1*
X704257Y698585D1*
X698680Y700793D1*
X693423Y703682D1*
X688570Y707209D1*
X684197Y711315D1*
X680373Y715937D1*
X677157Y721001D1*
X674604Y726429D1*
X672749Y732134D1*
X671625Y738026D1*
X671248Y744013D1*
X671625Y750000D1*
X672748Y755892D1*
X674601Y761597D1*
X677155Y767026D1*
X680370Y772091D1*
X684193Y776713D1*
X688566Y780820D1*
X693419Y784346D1*
X698675Y787236D1*
X704252Y789445D1*
X710063Y790937D1*
X716013Y791689D1*
X722012D1*
X727963Y790938D1*
X733774Y789446D1*
X739352Y787239D1*
X744609Y784349D1*
X749462Y780823D1*
X753835Y776717D1*
X757659Y772094D1*
X760874Y767030D1*
X763428Y761602D1*
X765282Y755898D1*
X766407Y750005D1*
X766783Y744016D1*
X766407Y738031D1*
Y838031D2*
X765283Y832139D1*
X763430Y826434D1*
X760877Y821005D1*
X757661Y815941D1*
X753839Y811319D1*
X749466Y807211D1*
X744613Y803685D1*
X739357Y800795D1*
X733780Y798587D1*
X727969Y797094D1*
X722018Y796343D1*
X716020D1*
X710068Y797093D1*
X704257Y798585D1*
X698680Y800793D1*
X693423Y803682D1*
X688570Y807209D1*
X684197Y811315D1*
X680373Y815937D1*
X677157Y821001D1*
X674604Y826429D1*
X672749Y832134D1*
X671625Y838026D1*
X671248Y844013D1*
X671625Y850000D1*
X672748Y855892D1*
X674601Y861597D1*
X677155Y867026D1*
X680370Y872091D1*
X684193Y876713D1*
X688566Y880820D1*
X693419Y884346D1*
X698675Y887236D1*
X704252Y889445D1*
X710063Y890937D1*
X716013Y891689D1*
X722012D1*
X727963Y890938D1*
X733774Y889446D1*
X739352Y887239D1*
X744609Y884349D1*
X749462Y880823D1*
X753835Y876717D1*
X757659Y872094D1*
X760874Y867030D1*
X763428Y861602D1*
X765282Y855898D1*
X766407Y850005D1*
X766783Y844016D1*
X766407Y838031D1*
Y1038031D2*
X765283Y1032139D1*
X763430Y1026434D1*
X760877Y1021005D1*
X757661Y1015941D1*
X753839Y1011319D1*
X749466Y1007211D1*
X744613Y1003685D1*
X739357Y1000795D1*
X733780Y998587D1*
X727969Y997094D1*
X722018Y996343D1*
X716020D1*
X710068Y997093D1*
X704257Y998585D1*
X698680Y1000793D1*
X693423Y1003682D1*
X688570Y1007209D1*
X684197Y1011315D1*
X680373Y1015937D1*
X677157Y1021001D1*
X674604Y1026429D1*
X672749Y1032134D1*
X671625Y1038026D1*
X671248Y1044013D1*
X671625Y1050000D1*
X672748Y1055892D1*
X674601Y1061597D1*
X677155Y1067026D1*
X680370Y1072091D1*
X684193Y1076713D1*
X688566Y1080820D1*
X693419Y1084346D1*
X698675Y1087236D1*
X704252Y1089445D1*
X710063Y1090937D1*
X716013Y1091689D1*
X722012D1*
X727963Y1090938D1*
X733774Y1089446D1*
X739352Y1087239D1*
X744609Y1084349D1*
X749462Y1080823D1*
X753835Y1076717D1*
X757659Y1072094D1*
X760874Y1067030D1*
X763428Y1061602D1*
X765282Y1055898D1*
X766407Y1050005D1*
X766783Y1044016D1*
X766407Y1038031D1*
Y1438031D2*
X765283Y1432139D1*
X763430Y1426434D1*
X760877Y1421005D1*
X757661Y1415941D1*
X753839Y1411319D1*
X749466Y1407211D1*
X744613Y1403685D1*
X739357Y1400795D1*
X733780Y1398587D1*
X727969Y1397094D1*
X722018Y1396343D1*
X716020D1*
X710068Y1397093D1*
X704257Y1398585D1*
X698680Y1400793D1*
X693423Y1403682D1*
X688570Y1407209D1*
X684197Y1411315D1*
X680373Y1415937D1*
X677157Y1421001D1*
X674604Y1426429D1*
X672749Y1432134D1*
X671625Y1438026D1*
X671248Y1444013D1*
X671625Y1450000D1*
X672748Y1455892D1*
X674601Y1461597D1*
X677155Y1467026D1*
X680370Y1472091D1*
X684193Y1476713D1*
X688566Y1480820D1*
X693419Y1484346D1*
X698675Y1487236D1*
X704252Y1489445D1*
X710063Y1490937D1*
X716013Y1491689D1*
X722012D1*
X727963Y1490938D1*
X733774Y1489446D1*
X739352Y1487239D1*
X744609Y1484349D1*
X749462Y1480823D1*
X753835Y1476717D1*
X757659Y1472094D1*
X760874Y1467030D1*
X763428Y1461602D1*
X765282Y1455898D1*
X766407Y1450005D1*
X766783Y1444016D1*
X766407Y1438031D1*
Y1538031D2*
X765283Y1532139D1*
X763430Y1526434D1*
X760877Y1521005D1*
X757661Y1515941D1*
X753839Y1511319D1*
X749466Y1507211D1*
X744613Y1503685D1*
X739357Y1500795D1*
X733780Y1498587D1*
X727969Y1497094D1*
X722018Y1496343D1*
X716020D1*
X710068Y1497093D1*
X704257Y1498585D1*
X698680Y1500793D1*
X693423Y1503682D1*
X688570Y1507209D1*
X684197Y1511315D1*
X680373Y1515937D1*
X677157Y1521001D1*
X674604Y1526429D1*
X672749Y1532134D1*
X671625Y1538026D1*
X671248Y1544013D1*
X671625Y1550000D1*
X672748Y1555892D1*
X674601Y1561597D1*
X677155Y1567026D1*
X680370Y1572091D1*
X684193Y1576713D1*
X688566Y1580820D1*
X693419Y1584346D1*
X698675Y1587236D1*
X704252Y1589445D1*
X710063Y1590937D1*
X716013Y1591689D1*
X722012D1*
X727963Y1590938D1*
X733774Y1589446D1*
X739352Y1587239D1*
X744609Y1584349D1*
X749462Y1580823D1*
X753835Y1576717D1*
X757659Y1572094D1*
X760874Y1567030D1*
X763428Y1561602D1*
X765282Y1555898D1*
X766407Y1550005D1*
X766783Y1544016D1*
X766407Y1538031D1*
Y1638031D2*
X765283Y1632139D1*
X763430Y1626434D1*
X760877Y1621005D1*
X757661Y1615941D1*
X753839Y1611319D1*
X749466Y1607211D1*
X744613Y1603685D1*
X739357Y1600795D1*
X733780Y1598587D1*
X727969Y1597094D1*
X722018Y1596343D1*
X716020D1*
X710068Y1597093D1*
X704257Y1598585D1*
X698680Y1600793D1*
X693423Y1603682D1*
X688570Y1607209D1*
X684197Y1611315D1*
X680373Y1615937D1*
X677157Y1621001D1*
X674604Y1626429D1*
X672749Y1632134D1*
X671625Y1638026D1*
X671248Y1644013D1*
X671625Y1650000D1*
X672748Y1655892D1*
X674601Y1661597D1*
X677155Y1667026D1*
X680370Y1672091D1*
X684193Y1676713D1*
X688566Y1680820D1*
X693419Y1684346D1*
X698675Y1687236D1*
X704252Y1689445D1*
X710063Y1690937D1*
X716013Y1691689D1*
X722012D1*
X727963Y1690938D1*
X733774Y1689446D1*
X739352Y1687239D1*
X744609Y1684349D1*
X749462Y1680823D1*
X753835Y1676717D1*
X757659Y1672094D1*
X760874Y1667030D1*
X763428Y1661602D1*
X765282Y1655898D1*
X766407Y1650005D1*
X766783Y1644016D1*
X766407Y1638031D1*
Y1738031D2*
X765283Y1732139D1*
X763430Y1726434D1*
X760877Y1721005D1*
X757661Y1715941D1*
X753839Y1711319D1*
X749466Y1707211D1*
X744613Y1703685D1*
X739357Y1700795D1*
X733780Y1698587D1*
X727969Y1697094D1*
X722018Y1696343D1*
X716020D1*
X710068Y1697093D1*
X704257Y1698585D1*
X698680Y1700793D1*
X693423Y1703682D1*
X688570Y1707209D1*
X684197Y1711315D1*
X680373Y1715937D1*
X677157Y1721001D1*
X674604Y1726429D1*
X672749Y1732134D1*
X671625Y1738026D1*
X671248Y1744013D1*
X671625Y1750000D1*
X672748Y1755892D1*
X674601Y1761597D1*
X677155Y1767026D1*
X680370Y1772091D1*
X684193Y1776713D1*
X688566Y1780820D1*
X693419Y1784346D1*
X698675Y1787236D1*
X704252Y1789445D1*
X710063Y1790937D1*
X716013Y1791689D1*
X722012D1*
X727963Y1790938D1*
X733774Y1789446D1*
X739352Y1787239D1*
X744609Y1784349D1*
X749462Y1780823D1*
X753835Y1776717D1*
X757659Y1772094D1*
X760874Y1767030D1*
X763428Y1761602D1*
X765282Y1755898D1*
X766407Y1750005D1*
X766783Y1744016D1*
X766407Y1738031D1*
Y2038031D2*
X765283Y2032139D1*
X763430Y2026434D1*
X760877Y2021005D1*
X757661Y2015941D1*
X753839Y2011319D1*
X749466Y2007211D1*
X744613Y2003685D1*
X739357Y2000795D1*
X733780Y1998587D1*
X727969Y1997094D1*
X722018Y1996343D1*
X716020D1*
X710068Y1997093D1*
X704257Y1998585D1*
X698680Y2000793D1*
X693423Y2003682D1*
X688570Y2007209D1*
X684197Y2011315D1*
X680373Y2015937D1*
X677157Y2021001D1*
X674604Y2026429D1*
X672749Y2032134D1*
X671625Y2038026D1*
X671248Y2044013D1*
X671625Y2050000D1*
X672748Y2055892D1*
X674601Y2061597D1*
X677155Y2067026D1*
X680370Y2072091D1*
X684193Y2076713D1*
X688566Y2080820D1*
X693419Y2084346D1*
X698675Y2087236D1*
X704252Y2089445D1*
X710063Y2090937D1*
X716013Y2091689D1*
X722012D1*
X727963Y2090938D1*
X733774Y2089446D1*
X739352Y2087239D1*
X744609Y2084349D1*
X749462Y2080823D1*
X753835Y2076717D1*
X757659Y2072094D1*
X760874Y2067030D1*
X763428Y2061602D1*
X765282Y2055898D1*
X766407Y2050005D1*
X766783Y2044016D1*
X766407Y2038031D1*
Y2138031D2*
X765283Y2132139D1*
X763430Y2126434D1*
X760877Y2121005D1*
X757661Y2115941D1*
X753839Y2111319D1*
X749466Y2107211D1*
X744613Y2103685D1*
X739357Y2100795D1*
X733780Y2098587D1*
X727969Y2097094D1*
X722018Y2096343D1*
X716020D1*
X710068Y2097093D1*
X704257Y2098585D1*
X698680Y2100793D1*
X693423Y2103682D1*
X688570Y2107209D1*
X684197Y2111315D1*
X680373Y2115937D1*
X677157Y2121001D1*
X674604Y2126429D1*
X672749Y2132134D1*
X671625Y2138026D1*
X671248Y2144013D1*
X671625Y2150000D1*
X672748Y2155892D1*
X674601Y2161597D1*
X677155Y2167026D1*
X680370Y2172091D1*
X684193Y2176713D1*
X688566Y2180820D1*
X693419Y2184346D1*
X698675Y2187236D1*
X704252Y2189445D1*
X710063Y2190937D1*
X716013Y2191689D1*
X722012D1*
X727963Y2190938D1*
X733774Y2189446D1*
X739352Y2187239D1*
X744609Y2184349D1*
X749462Y2180823D1*
X753835Y2176717D1*
X757659Y2172094D1*
X760874Y2167030D1*
X763428Y2161602D1*
X765282Y2155898D1*
X766407Y2150005D1*
X766783Y2144016D1*
X766407Y2138031D1*
Y2238031D2*
X765283Y2232139D1*
X763430Y2226434D1*
X760877Y2221005D1*
X757661Y2215941D1*
X753839Y2211319D1*
X749466Y2207211D1*
X744613Y2203685D1*
X739357Y2200795D1*
X733780Y2198587D1*
X727969Y2197094D1*
X722018Y2196343D1*
X716020D1*
X710068Y2197093D1*
X704257Y2198585D1*
X698680Y2200793D1*
X693423Y2203682D1*
X688570Y2207209D1*
X684197Y2211315D1*
X680373Y2215937D1*
X677157Y2221001D1*
X674604Y2226429D1*
X672749Y2232134D1*
X671625Y2238026D1*
X671248Y2244013D1*
X671625Y2250000D1*
X672748Y2255892D1*
X674601Y2261597D1*
X677155Y2267026D1*
X680370Y2272091D1*
X684193Y2276713D1*
X688566Y2280820D1*
X693419Y2284346D1*
X698675Y2287236D1*
X704252Y2289445D1*
X710063Y2290937D1*
X716013Y2291689D1*
X722012D1*
X727963Y2290938D1*
X733774Y2289446D1*
X739352Y2287239D1*
X744609Y2284349D1*
X749462Y2280823D1*
X753835Y2276717D1*
X757659Y2272094D1*
X760874Y2267030D1*
X763428Y2261602D1*
X765282Y2255898D1*
X766407Y2250005D1*
X766783Y2244016D1*
X766407Y2238031D1*
X1766407Y538031D2*
X1765283Y532139D1*
X1763430Y526434D1*
X1760877Y521005D1*
X1757661Y515941D1*
X1753839Y511319D1*
X1749466Y507211D1*
X1744613Y503685D1*
X1739357Y500795D1*
X1733780Y498587D1*
X1727969Y497094D1*
X1722018Y496343D1*
X1716020D1*
X1710068Y497093D1*
X1704257Y498585D1*
X1698680Y500793D1*
X1693423Y503682D1*
X1688570Y507209D1*
X1684197Y511315D1*
X1680373Y515937D1*
X1677157Y521001D1*
X1674604Y526429D1*
X1672749Y532134D1*
X1671625Y538026D1*
X1671248Y544013D1*
X1671625Y550000D1*
X1672748Y555892D1*
X1674601Y561597D1*
X1677155Y567026D1*
X1680370Y572091D1*
X1684193Y576713D1*
X1688566Y580820D1*
X1693419Y584346D1*
X1698675Y587236D1*
X1704252Y589445D1*
X1710063Y590937D1*
X1716013Y591689D1*
X1722012D1*
X1727963Y590938D1*
X1733774Y589446D1*
X1739352Y587239D1*
X1744609Y584349D1*
X1749462Y580823D1*
X1753835Y576717D1*
X1757659Y572094D1*
X1760874Y567030D1*
X1763428Y561602D1*
X1765282Y555898D1*
X1766407Y550005D1*
X1766783Y544016D1*
X1766407Y538031D1*
Y638031D2*
X1765283Y632139D1*
X1763430Y626434D1*
X1760877Y621005D1*
X1757661Y615941D1*
X1753839Y611319D1*
X1749466Y607211D1*
X1744613Y603685D1*
X1739357Y600795D1*
X1733780Y598587D1*
X1727969Y597094D1*
X1722018Y596343D1*
X1716020D1*
X1710068Y597093D1*
X1704257Y598585D1*
X1698680Y600793D1*
X1693423Y603682D1*
X1688570Y607209D1*
X1684197Y611315D1*
X1680373Y615937D1*
X1677157Y621001D1*
X1674604Y626429D1*
X1672749Y632134D1*
X1671625Y638026D1*
X1671248Y644013D1*
X1671625Y650000D1*
X1672748Y655892D1*
X1674601Y661597D1*
X1677155Y667026D1*
X1680370Y672091D1*
X1684193Y676713D1*
X1688566Y680820D1*
X1693419Y684346D1*
X1698675Y687236D1*
X1704252Y689445D1*
X1710063Y690937D1*
X1716013Y691689D1*
X1722012D1*
X1727963Y690938D1*
X1733774Y689446D1*
X1739352Y687239D1*
X1744609Y684349D1*
X1749462Y680823D1*
X1753835Y676717D1*
X1757659Y672094D1*
X1760874Y667030D1*
X1763428Y661602D1*
X1765282Y655898D1*
X1766407Y650005D1*
X1766783Y644016D1*
X1766407Y638031D1*
X1761003Y721276D2*
X1760877Y721005D1*
X1757661Y715941D1*
X1753839Y711319D1*
X1749466Y707211D1*
X1744613Y703685D1*
X1739357Y700795D1*
X1733780Y698587D1*
X1727969Y697094D1*
X1722018Y696343D1*
X1716020D1*
X1710068Y697093D1*
X1704257Y698585D1*
X1698680Y700793D1*
X1693423Y703682D1*
X1688570Y707209D1*
X1684197Y711315D1*
X1680373Y715937D1*
X1677157Y721001D1*
X1674604Y726429D1*
X1672749Y732134D1*
X1671625Y738026D1*
X1671248Y744013D1*
X1671625Y750000D1*
X1672748Y755892D1*
X1674601Y761597D1*
X1677155Y767026D1*
X1680370Y772091D1*
X1684193Y776713D1*
X1688566Y780820D1*
X1693419Y784346D1*
X1698675Y787236D1*
X1704252Y789445D1*
X1710063Y790937D1*
X1716013Y791689D1*
X1722012D1*
X1727963Y790938D1*
X1733774Y789446D1*
X1739352Y787239D1*
X1744609Y784349D1*
X1749462Y780823D1*
X1753835Y776717D1*
X1757659Y772094D1*
X1760874Y767030D1*
X1761001Y766760D1*
X1811869Y766756D1*
X1813050Y767723D1*
X1818199Y770955D1*
X1823895Y773084D1*
X1829903Y774024D1*
X1835976Y773734D1*
X1841867Y772227D1*
X1847335Y769567D1*
X1852154Y765860D1*
X1856129Y761257D1*
X1859096Y755950D1*
X1860933Y750154D1*
X1861567Y744016D1*
X1860970Y738055D1*
X1859167Y732248D1*
X1856232Y726923D1*
X1852286Y722298D1*
X1847488Y718562D1*
X1842038Y715867D1*
X1836156Y714325D1*
X1830084Y713999D1*
X1824071Y714902D1*
X1818364Y716996D1*
X1813193Y720197D1*
X1812050Y721277D1*
X1761021Y721276D1*
X1766407Y838031D2*
X1765283Y832139D1*
X1763430Y826434D1*
X1760877Y821005D1*
X1757661Y815941D1*
X1753839Y811319D1*
X1749466Y807211D1*
X1744613Y803685D1*
X1739357Y800795D1*
X1733780Y798587D1*
X1727969Y797094D1*
X1722018Y796343D1*
X1716020D1*
X1710068Y797093D1*
X1704257Y798585D1*
X1698680Y800793D1*
X1693423Y803682D1*
X1688570Y807209D1*
X1684197Y811315D1*
X1680373Y815937D1*
X1677157Y821001D1*
X1674604Y826429D1*
X1672749Y832134D1*
X1671625Y838026D1*
X1671248Y844013D1*
X1671625Y850000D1*
X1672748Y855892D1*
X1674601Y861597D1*
X1677155Y867026D1*
X1680370Y872091D1*
X1684193Y876713D1*
X1688566Y880820D1*
X1693419Y884346D1*
X1698675Y887236D1*
X1704252Y889445D1*
X1710063Y890937D1*
X1716013Y891689D1*
X1722012D1*
X1727963Y890938D1*
X1733774Y889446D1*
X1739352Y887239D1*
X1744609Y884349D1*
X1749462Y880823D1*
X1753835Y876717D1*
X1757659Y872094D1*
X1760874Y867030D1*
X1763428Y861602D1*
X1765282Y855898D1*
X1766407Y850005D1*
X1766783Y844016D1*
X1766407Y838031D1*
Y938031D2*
X1765283Y932139D1*
X1763430Y926434D1*
X1760877Y921005D1*
X1757661Y915941D1*
X1753839Y911319D1*
X1749466Y907211D1*
X1744613Y903685D1*
X1739357Y900795D1*
X1733780Y898587D1*
X1727969Y897094D1*
X1722018Y896343D1*
X1716020D1*
X1710068Y897093D1*
X1704257Y898585D1*
X1698680Y900793D1*
X1693423Y903682D1*
X1688570Y907209D1*
X1684197Y911315D1*
X1680373Y915937D1*
X1677157Y921001D1*
X1674604Y926429D1*
X1672749Y932134D1*
X1671625Y938026D1*
X1671248Y944013D1*
X1671625Y950000D1*
X1672748Y955892D1*
X1674601Y961597D1*
X1677155Y967026D1*
X1680370Y972091D1*
X1684193Y976713D1*
X1688566Y980820D1*
X1693419Y984346D1*
X1698675Y987236D1*
X1704252Y989445D1*
X1710063Y990937D1*
X1716013Y991689D1*
X1722012D1*
X1727963Y990938D1*
X1733774Y989446D1*
X1739352Y987239D1*
X1744609Y984349D1*
X1749462Y980823D1*
X1753835Y976717D1*
X1757659Y972094D1*
X1760874Y967030D1*
X1763428Y961602D1*
X1765282Y955898D1*
X1766407Y950005D1*
X1766783Y944016D1*
X1766407Y938031D1*
X1761003Y1021276D2*
X1760877Y1021005D1*
X1757661Y1015941D1*
X1753839Y1011319D1*
X1749466Y1007211D1*
X1744613Y1003685D1*
X1739357Y1000795D1*
X1733780Y998587D1*
X1727969Y997094D1*
X1722018Y996343D1*
X1716020D1*
X1710068Y997093D1*
X1704257Y998585D1*
X1698680Y1000793D1*
X1693423Y1003682D1*
X1688570Y1007209D1*
X1684197Y1011315D1*
X1680373Y1015937D1*
X1677157Y1021001D1*
X1674604Y1026429D1*
X1672749Y1032134D1*
X1671625Y1038026D1*
X1671248Y1044013D1*
X1671625Y1050000D1*
X1672748Y1055892D1*
X1674601Y1061597D1*
X1677155Y1067026D1*
X1680370Y1072091D1*
X1684193Y1076713D1*
X1688566Y1080820D1*
X1693419Y1084346D1*
X1698675Y1087236D1*
X1704252Y1089445D1*
X1710063Y1090937D1*
X1716013Y1091689D1*
X1722012D1*
X1727963Y1090938D1*
X1733774Y1089446D1*
X1739352Y1087239D1*
X1744609Y1084349D1*
X1749462Y1080823D1*
X1753835Y1076717D1*
X1757659Y1072094D1*
X1760874Y1067030D1*
X1761001Y1066760D1*
X1786869Y1066756D1*
X1788050Y1067723D1*
X1793199Y1070955D1*
X1798895Y1073084D1*
X1804903Y1074024D1*
X1810976Y1073734D1*
X1816867Y1072227D1*
X1822335Y1069567D1*
X1827154Y1065860D1*
X1831129Y1061257D1*
X1834096Y1055950D1*
X1835933Y1050154D1*
X1836567Y1044016D1*
X1835970Y1038055D1*
X1834167Y1032248D1*
X1831232Y1026923D1*
X1827286Y1022298D1*
X1822488Y1018562D1*
X1817038Y1015867D1*
X1811156Y1014325D1*
X1805084Y1013999D1*
X1799071Y1014902D1*
X1793364Y1016996D1*
X1788193Y1020197D1*
X1787050Y1021277D1*
X1761021Y1021276D1*
X1766407Y2138031D2*
X1765283Y2132139D1*
X1763430Y2126434D1*
X1760877Y2121005D1*
X1757661Y2115941D1*
X1753839Y2111319D1*
X1749466Y2107211D1*
X1744613Y2103685D1*
X1739357Y2100795D1*
X1733780Y2098587D1*
X1727969Y2097094D1*
X1722018Y2096343D1*
X1716020D1*
X1710068Y2097093D1*
X1704257Y2098585D1*
X1698680Y2100793D1*
X1693423Y2103682D1*
X1688570Y2107209D1*
X1684197Y2111315D1*
X1680373Y2115937D1*
X1677157Y2121001D1*
X1674604Y2126429D1*
X1672749Y2132134D1*
X1671625Y2138026D1*
X1671248Y2144013D1*
X1671625Y2150000D1*
X1672748Y2155892D1*
X1674601Y2161597D1*
X1677155Y2167026D1*
X1680370Y2172091D1*
X1684193Y2176713D1*
X1688566Y2180820D1*
X1693419Y2184346D1*
X1698675Y2187236D1*
X1704252Y2189445D1*
X1710063Y2190937D1*
X1716013Y2191689D1*
X1722012D1*
X1727963Y2190938D1*
X1733774Y2189446D1*
X1739352Y2187239D1*
X1744609Y2184349D1*
X1749462Y2180823D1*
X1753835Y2176717D1*
X1757659Y2172094D1*
X1760874Y2167030D1*
X1763428Y2161602D1*
X1765282Y2155898D1*
X1766407Y2150005D1*
X1766783Y2144016D1*
X1766407Y2138031D1*
X1245576Y2625529D2*
X1244552Y2619601D1*
X1242860Y2613828D1*
X1240520Y2608286D1*
X1237563Y2603046D1*
X1234029Y2598178D1*
X1229963Y2593744D1*
X1225417Y2589803D1*
X1220453Y2586406D1*
X1215134Y2583596D1*
X1209529Y2581412D1*
X1203710Y2579881D1*
X1197756Y2579022D1*
X1191743Y2578848D1*
X1185749Y2579361D1*
X1179853Y2580552D1*
X1174130Y2582409D1*
X1168657Y2584907D1*
X1163504Y2588012D1*
X1158739Y2591684D1*
X1154424Y2595875D1*
X1150613Y2600530D1*
X1147360Y2605591D1*
X1144703Y2610988D1*
X1142680Y2616654D1*
X1141315Y2622512D1*
X1140626Y2628488D1*
X1140625Y2634504D1*
X1141308Y2640482D1*
X1142668Y2646341D1*
X1144688Y2652008D1*
X1147340Y2657408D1*
X1150591Y2662470D1*
X1154398Y2667129D1*
X1158710Y2671323D1*
X1163472Y2674999D1*
X1168623Y2678106D1*
X1174094Y2680608D1*
X1179815Y2682469D1*
X1185711Y2683665D1*
X1191705Y2684182D1*
X1197718Y2684013D1*
X1203673Y2683159D1*
X1209492Y2681631D1*
X1215098Y2679451D1*
X1220420Y2676646D1*
X1225387Y2673252D1*
X1229936Y2669314D1*
X1234005Y2664883D1*
X1237542Y2660017D1*
X1240503Y2654781D1*
X1242846Y2649240D1*
X1244543Y2643469D1*
X1245572Y2637541D1*
X1245917Y2631516D1*
X1245576Y2625529D1*
X1071255Y2546798D2*
X1069923Y2540987D1*
X1067740Y2535437D1*
X1064755Y2530277D1*
X1061033Y2525618D1*
X1056659Y2521566D1*
X1051730Y2518211D1*
X1046356Y2515629D1*
X1040657Y2513875D1*
X1034760Y2512991D1*
X1028798Y2512996D1*
X1022903Y2513890D1*
X1017206Y2515651D1*
X1011836Y2518243D1*
X1006913Y2521605D1*
X1002545Y2525664D1*
X998832Y2530329D1*
X995854Y2535495D1*
X993680Y2541047D1*
X992358Y2546861D1*
X991917Y2552807D1*
X992367Y2558753D1*
X993699Y2564564D1*
X995882Y2570114D1*
X998867Y2575274D1*
X1002589Y2579933D1*
X1006963Y2583986D1*
X1011892Y2587340D1*
X1017266Y2589923D1*
X1022965Y2591676D1*
X1028862Y2592560D1*
X1034824Y2592555D1*
X1040719Y2591661D1*
X1046416Y2589900D1*
X1051786Y2587308D1*
X1056709Y2583946D1*
X1061077Y2579887D1*
X1064790Y2575222D1*
X1067768Y2570056D1*
X1069942Y2564504D1*
X1071264Y2558690D1*
X1071705Y2552776D1*
X1071255Y2546798D1*
X920576Y2625529D2*
X919552Y2619601D1*
X917860Y2613828D1*
X915520Y2608286D1*
X912563Y2603046D1*
X909029Y2598178D1*
X904963Y2593744D1*
X900417Y2589803D1*
X895453Y2586406D1*
X890134Y2583596D1*
X884529Y2581412D1*
X878710Y2579881D1*
X872756Y2579022D1*
X866743Y2578848D1*
X860749Y2579361D1*
X854853Y2580552D1*
X849130Y2582409D1*
X843657Y2584907D1*
X838504Y2588012D1*
X833739Y2591684D1*
X829424Y2595875D1*
X825613Y2600530D1*
X822360Y2605591D1*
X819703Y2610988D1*
X817680Y2616654D1*
X816315Y2622512D1*
X815626Y2628488D1*
X815625Y2634504D1*
X816308Y2640482D1*
X817668Y2646341D1*
X819688Y2652008D1*
X822340Y2657408D1*
X825591Y2662470D1*
X829398Y2667129D1*
X833710Y2671323D1*
X838472Y2674999D1*
X843623Y2678106D1*
X849094Y2680608D1*
X854815Y2682469D1*
X860711Y2683665D1*
X866705Y2684182D1*
X872718Y2684013D1*
X878673Y2683159D1*
X884492Y2681631D1*
X890098Y2679451D1*
X895420Y2676646D1*
X900387Y2673252D1*
X904936Y2669314D1*
X909005Y2664883D1*
X912542Y2660017D1*
X915503Y2654781D1*
X917846Y2649240D1*
X919543Y2643469D1*
X920572Y2637541D1*
X920917Y2631516D1*
X920576Y2625529D1*
X746255Y2546798D2*
X744923Y2540987D1*
X742740Y2535437D1*
X739755Y2530277D1*
X736033Y2525618D1*
X731659Y2521566D1*
X726730Y2518211D1*
X721356Y2515629D1*
X715657Y2513875D1*
X709760Y2512991D1*
X703798Y2512996D1*
X697903Y2513890D1*
X692206Y2515651D1*
X686836Y2518243D1*
X681913Y2521605D1*
X677545Y2525664D1*
X673832Y2530329D1*
X670854Y2535495D1*
X668680Y2541047D1*
X667358Y2546861D1*
X666917Y2552807D1*
X667367Y2558753D1*
X668699Y2564564D1*
X670882Y2570114D1*
X673867Y2575274D1*
X677589Y2579933D1*
X681963Y2583986D1*
X686892Y2587340D1*
X692266Y2589923D1*
X697965Y2591676D1*
X703862Y2592560D1*
X709824Y2592555D1*
X715719Y2591661D1*
X721416Y2589900D1*
X726786Y2587308D1*
X731709Y2583946D1*
X736077Y2579887D1*
X739790Y2575222D1*
X742768Y2570056D1*
X744942Y2564504D1*
X746264Y2558690D1*
X746705Y2552776D1*
X746255Y2546798D1*
X2021575Y1019736D2*
X2056024D1*
X2062013Y1019424D1*
X2067937Y1018491D1*
X2073732Y1016948D1*
X2079336Y1014808D1*
X2084686Y1012100D1*
X2089726Y1008849D1*
X2094400Y1005092D1*
X2098660Y1000870D1*
X2102457Y996227D1*
X2105751Y991215D1*
X2108505Y985888D1*
X2110690Y980303D1*
X2112285Y974522D1*
X2113268Y968606D1*
X2113631Y962619D1*
X2113371Y956629D1*
X2112488Y950696D1*
X2110995Y944888D1*
X2108904Y939266D1*
X2106241Y933892D1*
X2103034Y928825D1*
X2099318Y924118D1*
X2095131Y919824D1*
X2090522Y915987D1*
X2085538Y912651D1*
X2080235Y909850D1*
X2074669Y907617D1*
X2068902Y905974D1*
X2062993Y904940D1*
X2057010Y904525D1*
X2045102Y904516D1*
X2016654D1*
X2010664Y904828D1*
X2004740Y905761D1*
X1998945Y907304D1*
X1993341Y909444D1*
X1987991Y912152D1*
X1982951Y915403D1*
X1978277Y919160D1*
X1974017Y923382D1*
X1970220Y928025D1*
X1966927Y933037D1*
X1964172Y938364D1*
X1961987Y943949D1*
X1960392Y949730D1*
X1959409Y955646D1*
X1959046Y961633D1*
X1959306Y967623D1*
X1960189Y973556D1*
X1961682Y979364D1*
X1963773Y984986D1*
X1966436Y990360D1*
X1969643Y995427D1*
X1973360Y1000134D1*
X1977546Y1004428D1*
X1982155Y1008265D1*
X1987139Y1011601D1*
X1992442Y1014402D1*
X1998008Y1016635D1*
X2003776Y1018278D1*
X2009684Y1019312D1*
X2015667Y1019727D1*
X2021575Y1019736D1*
X2163768Y829252D2*
Y863701D1*
X2164080Y869690D1*
X2165013Y875614D1*
X2166556Y881409D1*
X2168696Y887013D1*
X2171404Y892364D1*
X2174655Y897403D1*
X2178412Y902077D1*
X2182634Y906337D1*
X2187277Y910134D1*
X2192289Y913428D1*
X2197615Y916182D1*
X2203201Y918367D1*
X2208982Y919962D1*
X2214898Y920945D1*
X2220885Y921308D1*
X2226875Y921049D1*
X2232808Y920165D1*
X2238615Y918672D1*
X2244238Y916581D1*
X2249612Y913919D1*
X2254678Y910711D1*
X2259386Y906995D1*
X2263680Y902808D1*
X2267517Y898199D1*
X2270853Y893215D1*
X2273654Y887912D1*
X2275887Y882346D1*
X2277530Y876579D1*
X2278564Y870671D1*
X2278979Y864688D1*
X2278988Y852780D1*
Y824331D1*
X2278676Y818341D1*
X2277743Y812417D1*
X2276199Y806622D1*
X2274060Y801018D1*
X2271352Y795668D1*
X2268101Y790629D1*
X2264344Y785954D1*
X2260122Y781694D1*
X2255479Y777898D1*
X2250467Y774604D1*
X2245140Y771849D1*
X2239555Y769664D1*
X2233774Y768070D1*
X2227858Y767087D1*
X2221871Y766723D1*
X2215881Y766983D1*
X2209948Y767866D1*
X2204140Y769360D1*
X2198518Y771450D1*
X2193144Y774113D1*
X2188077Y777320D1*
X2183370Y781037D1*
X2179076Y785223D1*
X2175239Y789832D1*
X2171903Y794816D1*
X2169102Y800119D1*
X2166869Y805685D1*
X2165226Y811453D1*
X2164192Y817361D1*
X2163777Y823344D1*
X2163768Y829252D1*
X2202249Y1116783D2*
X2291785D1*
Y1021248D1*
X2196249D1*
Y1116783D1*
X2202249D1*
X1424689Y2684205D2*
X1524067D1*
Y2578827D1*
X1438596D1*
X1441365Y2575222D1*
X1444343Y2570056D1*
X1446517Y2564504D1*
X1447839Y2558690D1*
X1448280Y2552776D1*
X1447829Y2546798D1*
X1446497Y2540987D1*
X1444315Y2535437D1*
X1441329Y2530277D1*
X1437608Y2525618D1*
X1433234Y2521566D1*
X1428304Y2518211D1*
X1422930Y2515629D1*
X1417232Y2513875D1*
X1411335Y2512991D1*
X1405373Y2512996D1*
X1399478Y2513890D1*
X1393781Y2515651D1*
X1388411Y2518243D1*
X1383488Y2521605D1*
X1379119Y2525664D1*
X1375407Y2530329D1*
X1372429Y2535495D1*
X1370255Y2541047D1*
X1368933Y2546861D1*
X1368492Y2552807D1*
X1368942Y2558753D1*
X1370274Y2564564D1*
X1372457Y2570114D1*
X1375442Y2575274D1*
X1379164Y2579933D1*
X1383538Y2583986D1*
X1388467Y2587340D1*
X1393841Y2589923D1*
X1399539Y2591676D1*
X1405437Y2592560D1*
X1411399Y2592555D1*
X1417294Y2591661D1*
X1418690Y2591230D1*
X1418689Y2684205D1*
X1424689D1*
X1720576Y2625529D2*
X1719552Y2619601D1*
X1717860Y2613828D1*
X1715520Y2608286D1*
X1712563Y2603046D1*
X1709029Y2598178D1*
X1704963Y2593744D1*
X1700417Y2589803D1*
X1695453Y2586406D1*
X1690134Y2583596D1*
X1684529Y2581412D1*
X1678710Y2579881D1*
X1672756Y2579022D1*
X1666743Y2578848D1*
X1660749Y2579361D1*
X1654853Y2580552D1*
X1649130Y2582409D1*
X1643657Y2584907D1*
X1638504Y2588012D1*
X1633739Y2591684D1*
X1629424Y2595875D1*
X1625613Y2600530D1*
X1622360Y2605591D1*
X1619703Y2610988D1*
X1617680Y2616654D1*
X1616315Y2622512D1*
X1615626Y2628488D1*
X1615625Y2634504D1*
X1616308Y2640482D1*
X1617668Y2646341D1*
X1619688Y2652008D1*
X1622340Y2657408D1*
X1625591Y2662470D1*
X1629398Y2667129D1*
X1633710Y2671323D1*
X1638472Y2674999D1*
X1643623Y2678106D1*
X1649094Y2680608D1*
X1654815Y2682469D1*
X1660711Y2683665D1*
X1666705Y2684182D1*
X1672718Y2684013D1*
X1678673Y2683159D1*
X1684492Y2681631D1*
X1690098Y2679451D1*
X1695420Y2676646D1*
X1700387Y2673252D1*
X1704936Y2669314D1*
X1709005Y2664883D1*
X1712542Y2660017D1*
X1715503Y2654781D1*
X1717846Y2649240D1*
X1719543Y2643469D1*
X1720572Y2637541D1*
X1720917Y2631516D1*
X1720576Y2625529D1*
X2141407Y2600031D2*
X2140283Y2594139D1*
X2138430Y2588434D1*
X2135877Y2583005D1*
X2132661Y2577941D1*
X2128839Y2573319D1*
X2124466Y2569211D1*
X2119613Y2565685D1*
X2114357Y2562795D1*
X2108780Y2560587D1*
X2102969Y2559094D1*
X2097018Y2558343D1*
X2091020D1*
X2085068Y2559093D1*
X2079257Y2560585D1*
X2073680Y2562793D1*
X2068423Y2565682D1*
X2063570Y2569209D1*
X2059197Y2573315D1*
X2055373Y2577937D1*
X2052157Y2583001D1*
X2049604Y2588429D1*
X2047749Y2594134D1*
X2046625Y2600026D1*
X2046248Y2606013D1*
X2046625Y2612000D1*
X2047748Y2617892D1*
X2049601Y2623597D1*
X2052155Y2629026D1*
X2055370Y2634091D1*
X2059193Y2638713D1*
X2063566Y2642820D1*
X2068419Y2646346D1*
X2073675Y2649236D1*
X2079252Y2651445D1*
X2085063Y2652937D1*
X2091013Y2653689D1*
X2097012D1*
X2102963Y2652938D1*
X2108774Y2651446D1*
X2114352Y2649239D1*
X2119609Y2646349D1*
X2124462Y2642823D1*
X2128835Y2638717D1*
X2132659Y2634094D1*
X2135874Y2629030D1*
X2138428Y2623602D1*
X2140282Y2617898D1*
X2141407Y2612005D1*
X2141783Y2606016D1*
X2141407Y2600031D1*
X2241407D2*
X2240283Y2594139D1*
X2238430Y2588434D1*
X2235877Y2583005D1*
X2232661Y2577941D1*
X2228839Y2573319D1*
X2224466Y2569211D1*
X2219613Y2565685D1*
X2214357Y2562795D1*
X2208780Y2560587D1*
X2202969Y2559094D1*
X2197018Y2558343D1*
X2191020D1*
X2185068Y2559093D1*
X2179257Y2560585D1*
X2173680Y2562793D1*
X2168423Y2565682D1*
X2163570Y2569209D1*
X2159197Y2573315D1*
X2155373Y2577937D1*
X2152157Y2583001D1*
X2149604Y2588429D1*
X2147749Y2594134D1*
X2146625Y2600026D1*
X2146248Y2606013D1*
X2146625Y2612000D1*
X2147748Y2617892D1*
X2149601Y2623597D1*
X2152155Y2629026D1*
X2155370Y2634091D1*
X2159193Y2638713D1*
X2163566Y2642820D1*
X2168419Y2646346D1*
X2173675Y2649236D1*
X2179252Y2651445D1*
X2185063Y2652937D1*
X2191013Y2653689D1*
X2197012D1*
X2202963Y2652938D1*
X2208774Y2651446D1*
X2214352Y2649239D1*
X2219609Y2646349D1*
X2224462Y2642823D1*
X2228835Y2638717D1*
X2232659Y2634094D1*
X2235874Y2629030D1*
X2238428Y2623602D1*
X2240282Y2617898D1*
X2241407Y2612005D1*
X2241783Y2606016D1*
X2241407Y2600031D1*
X1141525Y513811D2*
X1140356Y507940D1*
X1138430Y502272D1*
X1135782Y496903D1*
X1132455Y491927D1*
X1128508Y487427D1*
X1124007Y483480D1*
X1119028Y480156D1*
X1113659Y477509D1*
X1107990Y475587D1*
X1102118Y474420D1*
X1096144Y474029D1*
X1090172Y474423D1*
X1084301Y475592D1*
X1078633Y477517D1*
X1073264Y480165D1*
X1068287Y483492D1*
X1063787Y487440D1*
X1059841Y491941D1*
X1056517Y496920D1*
X1053870Y502289D1*
X1051948Y507958D1*
X1050781Y513829D1*
X1050391Y519803D1*
X1050783Y525776D1*
X1051953Y531647D1*
X1053878Y537315D1*
X1056526Y542684D1*
X1059853Y547660D1*
X1063801Y552160D1*
X1068303Y556106D1*
X1073281Y559430D1*
X1078650Y562077D1*
X1084319Y564000D1*
X1090190Y565167D1*
X1096164Y565556D1*
X1102136Y565164D1*
X1108008Y563995D1*
X1113676Y562070D1*
X1119045Y559421D1*
X1124021Y556094D1*
X1128521Y552147D1*
X1132467Y547644D1*
X1135791Y542667D1*
X1138438Y537298D1*
X1140361Y531629D1*
X1141528Y525757D1*
X1141919Y519793D1*
X1141525Y513811D1*
X1456486Y513816D2*
X1455316Y507945D1*
X1453391Y502277D1*
X1450743Y496909D1*
X1447416Y491932D1*
X1443469Y487433D1*
X1438967Y483487D1*
X1433988Y480161D1*
X1428619Y477516D1*
X1422950Y475592D1*
X1417079Y474425D1*
X1411105Y474035D1*
X1405133Y474428D1*
X1399261Y475597D1*
X1393593Y477522D1*
X1388224Y480171D1*
X1383248Y483497D1*
X1378748Y487446D1*
X1374802Y491948D1*
X1371478Y496925D1*
X1368831Y502295D1*
X1366908Y507963D1*
X1365741Y513835D1*
X1365352Y519808D1*
X1365744Y525782D1*
X1366913Y531652D1*
X1368839Y537322D1*
X1371487Y542689D1*
X1374814Y547665D1*
X1378761Y552165D1*
X1383264Y556112D1*
X1388241Y559437D1*
X1393610Y562083D1*
X1399280Y564007D1*
X1405151Y565172D1*
X1411125Y565563D1*
X1417097Y565171D1*
X1422969Y564001D1*
X1428636Y562076D1*
X1434005Y559427D1*
X1438982Y556100D1*
X1443482Y552152D1*
X1447428Y547651D1*
X1450752Y542673D1*
X1453399Y537303D1*
X1455322Y531634D1*
X1456488Y525762D1*
X1456879Y519799D1*
X1456486Y513816D1*
X2590104Y1074379D2*
X2585133Y1073987D1*
X2579151Y1074457D1*
X2573315Y1075857D1*
X2567772Y1078152D1*
X2562655Y1081286D1*
X2558091Y1085182D1*
X2554193Y1089744D1*
X2551056Y1094861D1*
X2548760Y1100404D1*
X2547358Y1106239D1*
X2546886Y1112220D1*
X2547356Y1118202D1*
X2548756Y1124038D1*
X2551051Y1129581D1*
X2554185Y1134698D1*
X2558081Y1139262D1*
X2562643Y1143160D1*
X2567760Y1146297D1*
X2573303Y1148593D1*
X2579138Y1149995D1*
X2585119Y1150467D1*
X2591101Y1149997D1*
X2596937Y1148597D1*
X2602480Y1146302D1*
X2607597Y1143168D1*
X2612161Y1139272D1*
X2616059Y1134710D1*
X2619196Y1129593D1*
X2621492Y1124050D1*
X2622894Y1118215D1*
X2623366Y1112227D1*
X2622975Y1107249D1*
X2659449Y1070770D1*
X2663100Y1066030D1*
X2665420Y1060514D1*
X2666253Y1054584D1*
X2666256Y524016D1*
X2665486Y518083D1*
X2663226Y512542D1*
X2659622Y507759D1*
X2646924Y495058D1*
X2646470Y492055D1*
X2644667Y486248D1*
X2641732Y480923D1*
X2637786Y476298D1*
X2632988Y472562D1*
X2627538Y469867D1*
X2621656Y468325D1*
X2615584Y467999D1*
X2609571Y468902D1*
X2603864Y470996D1*
X2598693Y474197D1*
X2594273Y478373D1*
X2590785Y483353D1*
X2588370Y488933D1*
X2587129Y494886D1*
X2587110Y500966D1*
X2588316Y506925D1*
X2590697Y512520D1*
X2594155Y517521D1*
X2598550Y521723D1*
X2603699Y524955D1*
X2609395Y527084D1*
X2613930Y527794D1*
X2619778Y533644D1*
X2619776Y1044713D1*
X2590168Y1074319D1*
X2115461Y2078094D2*
X2126394Y2089025D1*
X2243318Y2089024D1*
X2249071Y2086902D1*
X2255084Y2085999D1*
X2261156Y2086325D1*
X2267038Y2087867D1*
X2272488Y2090562D1*
X2277286Y2094298D1*
X2281232Y2098923D1*
X2284167Y2104248D1*
X2285970Y2110055D1*
X2286567Y2116106D1*
X2286362Y2118062D1*
X2286492Y2118148D1*
X2286900Y2118256D1*
X2292350Y2120950D1*
X2297148Y2124686D1*
X2301094Y2129311D1*
X2304029Y2134636D1*
X2305832Y2140444D1*
X2306429Y2146495D1*
X2305795Y2152542D1*
X2303958Y2158339D1*
X2300991Y2163646D1*
X2297016Y2168248D1*
X2292197Y2171955D1*
X2286730Y2174615D1*
X2280839Y2176122D1*
X2274765Y2176412D1*
X2268757Y2175472D1*
X2263062Y2173344D1*
X2257912Y2170112D1*
X2256730Y2169144D1*
X2114404D1*
X2109016Y2168496D1*
X2103441Y2166327D1*
X2098621Y2162773D1*
X2080600Y2144756D1*
X1920491Y2144753D1*
X1916835Y2147567D1*
X1911367Y2150227D1*
X1905476Y2151734D1*
X1899403Y2152024D1*
X1893395Y2151084D1*
X1887699Y2148955D1*
X1882550Y2145723D1*
X1878155Y2141521D1*
X1874697Y2136520D1*
X1872316Y2130925D1*
X1871110Y2124966D1*
X1870980Y2121213D1*
X1867867Y2122727D1*
X1861976Y2124234D1*
X1855903Y2124524D1*
X1849895Y2123584D1*
X1844199Y2121455D1*
X1839050Y2118223D1*
X1834655Y2114021D1*
X1831197Y2109020D1*
X1828816Y2103425D1*
X1827610Y2097466D1*
X1827629Y2091386D1*
X1828870Y2085433D1*
X1831285Y2079853D1*
X1834773Y2074873D1*
X1839193Y2070697D1*
X1844364Y2067496D1*
X1850071Y2065402D1*
X1856084Y2064499D1*
X1862156Y2064825D1*
X1868038Y2066367D1*
X1873488Y2069062D1*
X1876562Y2071276D1*
X2099016D1*
X2100026Y2071298D1*
X2105921Y2072325D1*
X2111362Y2074827D1*
X2115461Y2078094D1*
X1874332Y1436776D2*
X1871488Y1434562D1*
X1866038Y1431867D1*
X1860156Y1430325D1*
X1854084Y1429999D1*
X1848071Y1430902D1*
X1842364Y1432996D1*
X1837193Y1436197D1*
X1832773Y1440373D1*
X1829285Y1445353D1*
X1826870Y1450933D1*
X1825629Y1456886D1*
X1825627Y1457034D1*
X2252143Y1593276D2*
X1826165D1*
X1822488Y1590562D1*
X1817038Y1587867D1*
X1811156Y1586325D1*
X1805084Y1585999D1*
X1799071Y1586902D1*
X1793364Y1588996D1*
X1788193Y1592197D1*
X1783773Y1596373D1*
X1780285Y1601353D1*
X1777870Y1606933D1*
X1776629Y1612886D1*
X1776610Y1618966D1*
X1777816Y1624925D1*
X1780197Y1630520D1*
X1783655Y1635521D1*
X1788050Y1639723D1*
X1793199Y1642955D1*
X1798895Y1645084D1*
X1804903Y1646024D1*
X1810976Y1645734D1*
X1816867Y1644227D1*
X1822335Y1641567D1*
X1825991Y1638753D1*
X2249362Y1638756D1*
X2251846Y1640917D1*
X2256996Y1644150D1*
X2262692Y1646278D1*
X2268699Y1647218D1*
X2274773Y1646928D1*
X2280664Y1645421D1*
X2286131Y1642761D1*
X2290950Y1639054D1*
X2294925Y1634451D1*
X2297892Y1629144D1*
X2299730Y1623348D1*
X2300364Y1617210D1*
X2299766Y1611249D1*
X2297963Y1605442D1*
X2295029Y1600117D1*
X2291083Y1595492D1*
X2286285Y1591756D1*
X2280835Y1589062D1*
X2274953Y1587520D1*
X2268881Y1587193D1*
X2262867Y1588096D1*
X2257160Y1590190D1*
X2252177Y1593276D1*
X1817665Y1749256D2*
X1881369D1*
X1882550Y1750223D1*
X1887699Y1753455D1*
X1893395Y1755584D1*
X1899403Y1756524D1*
X1905476Y1756234D1*
X1911367Y1754727D1*
X1916835Y1752067D1*
X1921654Y1748360D1*
X1925629Y1743757D1*
X1928596Y1738450D1*
X1930433Y1732654D1*
X1931067Y1726516D1*
X1930470Y1720555D1*
X1928667Y1714748D1*
X1925732Y1709423D1*
X1921786Y1704798D1*
X1916988Y1701062D1*
X1911538Y1698367D1*
X1905656Y1696825D1*
X1899584Y1696499D1*
X1893571Y1697402D1*
X1887864Y1699496D1*
X1882693Y1702697D1*
X1881550Y1703777D1*
X1817663Y1703776D1*
X1813988Y1701062D1*
X1808538Y1698367D1*
X1802656Y1696825D1*
X1796584Y1696499D1*
X1790571Y1697402D1*
X1784864Y1699496D1*
X1779693Y1702697D1*
X1775273Y1706873D1*
X1771785Y1711853D1*
X1769370Y1717433D1*
X1768129Y1723386D1*
X1768110Y1729466D1*
X1769316Y1735425D1*
X1771697Y1741020D1*
X1775155Y1746021D1*
X1779550Y1750223D1*
X1784699Y1753455D1*
X1790395Y1755584D1*
X1796403Y1756524D1*
X1802476Y1756234D1*
X1808367Y1754727D1*
X1813835Y1752067D1*
X1817491Y1749253D1*
X1881550Y1703777D2*
X1882693Y1702697D1*
X1887864Y1699496D1*
X1893571Y1697402D1*
X1899584Y1696499D1*
X1905656Y1696825D1*
X1911538Y1698367D1*
X1916988Y1701062D1*
X1921786Y1704798D1*
X1925732Y1709423D1*
X1928667Y1714748D1*
X1930470Y1720555D1*
X1931067Y1726606D1*
X1930433Y1732654D1*
X1928596Y1738450D1*
X1925629Y1743757D1*
X1921654Y1748360D1*
X1916835Y1752067D1*
X1911367Y1754727D1*
X1905476Y1756234D1*
X1899403Y1756524D1*
X1893395Y1755584D1*
X1887699Y1753455D1*
X1882550Y1750223D1*
X1881541Y1749260D1*
X2245085Y2183776D2*
X1822660D1*
X1818988Y2181062D1*
X1813538Y2178367D1*
X1807656Y2176825D1*
X1801584Y2176499D1*
X1795571Y2177402D1*
X1789864Y2179496D1*
X1784693Y2182697D1*
X1780273Y2186873D1*
X1776785Y2191853D1*
X1774370Y2197433D1*
X1773129Y2203386D1*
X1773110Y2209466D1*
X1774316Y2215425D1*
X1776697Y2221020D1*
X1780155Y2226021D1*
X1784550Y2230223D1*
X1789699Y2233455D1*
X1795395Y2235584D1*
X1801403Y2236524D1*
X1807476Y2236234D1*
X1813367Y2234727D1*
X1818835Y2232067D1*
X1822491Y2229253D1*
X2242185Y2229256D1*
X2244726Y2231469D1*
X2249875Y2234701D1*
X2255571Y2236829D1*
X2261579Y2237769D1*
X2267652Y2237479D1*
X2273543Y2235972D1*
X2279010Y2233312D1*
X2283829Y2229605D1*
X2287804Y2225003D1*
X2290772Y2219696D1*
X2292609Y2213899D1*
X2293243Y2207761D1*
X2292646Y2201801D1*
X2290843Y2195993D1*
X2287908Y2190668D1*
X2283962Y2186043D1*
X2279164Y2182307D1*
X2273714Y2179613D1*
X2267832Y2178071D1*
X2261760Y2177744D1*
X2255747Y2178647D1*
X2250039Y2180741D1*
X2245136Y2183777D1*
X1575894Y1707276D2*
X1111773D1*
X1109988Y1706062D1*
X1104538Y1703367D1*
X1098656Y1701825D1*
X1092584Y1701499D1*
X1086571Y1702402D1*
X1080864Y1704496D1*
X1075693Y1707697D1*
X1071273Y1711873D1*
X1067785Y1716853D1*
X1065370Y1722433D1*
X1064129Y1728386D1*
X1064110Y1734466D1*
X1065316Y1740425D1*
X1067697Y1746020D1*
X1071155Y1751021D1*
X1075550Y1755223D1*
X1080699Y1758455D1*
X1086395Y1760584D1*
X1092403Y1761524D1*
X1098476Y1761234D1*
X1104367Y1759727D1*
X1109835Y1757067D1*
X1111534Y1755760D1*
X1225969Y1755756D1*
X1590732D1*
X1591119Y1755860D1*
X1597127Y1756799D1*
X1603201Y1756509D1*
X1609092Y1755003D1*
X1614559Y1752343D1*
X1619378Y1748635D1*
X1623353Y1744033D1*
X1626320Y1738726D1*
X1628157Y1732929D1*
X1628791Y1726791D1*
X1628194Y1720831D1*
X1626391Y1715024D1*
X1623457Y1709698D1*
X1619510Y1705073D1*
X1614713Y1701337D1*
X1609262Y1698643D1*
X1603381Y1697101D1*
X1597308Y1696774D1*
X1591295Y1697677D1*
X1585588Y1699772D1*
X1580417Y1702972D1*
X1575997Y1707148D1*
X1575906Y1707280D1*
X1526942Y2037345D2*
X1454837D1*
X1452304Y2034550D1*
X1447743Y2030652D1*
X1442626Y2027516D1*
X1437083Y2025219D1*
X1431248Y2023818D1*
X1425266Y2023345D1*
X1419285Y2023815D1*
X1413449Y2025215D1*
X1407906Y2027510D1*
X1402789Y2030644D1*
X1398224Y2034541D1*
X1394327Y2039102D1*
X1391190Y2044219D1*
X1388894Y2049762D1*
X1387492Y2055597D1*
X1387020Y2061579D1*
X1387490Y2067560D1*
X1388890Y2073396D1*
X1391185Y2078940D1*
X1394319Y2084056D1*
X1398215Y2088621D1*
X1402777Y2092518D1*
X1407894Y2095655D1*
X1413437Y2097951D1*
X1419272Y2099353D1*
X1425253Y2099825D1*
X1431235Y2099356D1*
X1437071Y2097955D1*
X1442614Y2095660D1*
X1447731Y2092526D1*
X1452295Y2088630D1*
X1454689Y2085828D1*
X1526938Y2085825D1*
X1529471Y2088621D1*
X1534033Y2092518D1*
X1539150Y2095655D1*
X1544693Y2097951D1*
X1550528Y2099353D1*
X1556509Y2099825D1*
X1562491Y2099356D1*
X1568327Y2097955D1*
X1573870Y2095660D1*
X1578987Y2092526D1*
X1583551Y2088630D1*
X1587449Y2084068D1*
X1590585Y2078951D1*
X1592882Y2073408D1*
X1594283Y2067573D1*
X1594756Y2061585D1*
X1594286Y2055610D1*
X1592886Y2049774D1*
X1590591Y2044231D1*
X1587457Y2039114D1*
X1583560Y2034550D1*
X1578999Y2030652D1*
X1573882Y2027516D1*
X1568339Y2025219D1*
X1562504Y2023818D1*
X1556522Y2023345D1*
X1550541Y2023815D1*
X1544705Y2025215D1*
X1539161Y2027510D1*
X1534045Y2030644D1*
X1529480Y2034541D1*
X1527087Y2037343D1*
X1875970Y1778273D2*
X1872488Y1775562D1*
X1867038Y1772867D1*
X1861156Y1771325D1*
X1855084Y1770999D1*
X1849071Y1771902D1*
X1845610Y1773172D1*
D29*
X819016Y444016D3*
D30*
Y544016D3*
Y644016D3*
Y744016D3*
Y844016D3*
Y944016D3*
Y1044016D3*
Y1144016D3*
Y1244016D3*
Y1344016D3*
Y1444016D3*
Y1544016D3*
Y1644016D3*
Y1744016D3*
Y1844016D3*
Y1944016D3*
Y2044016D3*
Y2144016D3*
Y2244016D3*
D29*
X719016Y444016D3*
D30*
Y544016D3*
Y644016D3*
Y744016D3*
Y844016D3*
Y944016D3*
Y1044016D3*
Y1144016D3*
Y1244016D3*
Y1344016D3*
Y1444016D3*
Y1544016D3*
Y1644016D3*
Y1744016D3*
Y1844016D3*
Y1944016D3*
Y2044016D3*
Y2144016D3*
Y2244016D3*
D29*
X1719016Y444016D3*
D30*
Y544016D3*
Y644016D3*
Y744016D3*
Y844016D3*
Y944016D3*
Y1044016D3*
Y1144016D3*
Y1244016D3*
Y1344016D3*
Y1444016D3*
Y1544016D3*
Y1644016D3*
Y1744016D3*
Y1844016D3*
Y1944016D3*
Y2044016D3*
Y2144016D3*
Y2244016D3*
D31*
X2956516Y1766654D3*
D32*
Y1668228D3*
Y1569803D3*
Y1471378D3*
D31*
X1094803Y2631516D3*
D32*
X1193228D3*
D31*
X769803D3*
D32*
X868228D3*
D33*
X2036339Y962126D3*
Y725906D3*
D34*
X2221378Y844016D3*
D31*
X2956516Y2355400D3*
D32*
Y2256975D3*
Y2158550D3*
Y2060125D3*
D29*
X2244016Y1069016D3*
D30*
X2244013Y1169016D3*
X2244010Y1269016D3*
D31*
X1471378Y2631516D3*
D32*
X1569803D3*
X1668228D3*
X1766654D3*
D29*
X1994016Y2606016D3*
D30*
X2094016D3*
X2194016D3*
D37*
X531811Y531811D3*
Y2618425D3*
X3012126D3*
Y531811D3*
M02*
