G04 DipTrace 4.1.0.0*
G04 BottomMask.gbr*
%MOIN*%
G04 #@! TF.FileFunction,Soldermask,Bot*
G04 #@! TF.Part,Single*
%ADD54C,0.043307*%
%ADD55C,0.03937*%
%ADD83C,0.203937*%
%ADD89O,0.082677X0.122047*%
%ADD91O,0.122047X0.082677*%
%ADD93C,0.072835*%
%ADD95R,0.072835X0.072835*%
%ADD97C,0.062992*%
%ADD99R,0.062992X0.062992*%
%FSLAX26Y26*%
G04*
G70*
G90*
G75*
G01*
G04 BotMask*
%LPD*%
D99*
X819016Y444016D3*
D97*
Y544016D3*
Y644016D3*
Y744016D3*
Y844016D3*
Y944016D3*
Y1044016D3*
Y1144016D3*
Y1244016D3*
Y1344016D3*
Y1444016D3*
Y1544016D3*
Y1644016D3*
Y1744016D3*
Y1844016D3*
Y1944016D3*
Y2044016D3*
Y2144016D3*
Y2244016D3*
D99*
X719016Y444016D3*
D97*
Y544016D3*
Y644016D3*
Y744016D3*
Y844016D3*
Y944016D3*
Y1044016D3*
Y1144016D3*
Y1244016D3*
Y1344016D3*
Y1444016D3*
Y1544016D3*
Y1644016D3*
Y1744016D3*
Y1844016D3*
Y1944016D3*
Y2044016D3*
Y2144016D3*
Y2244016D3*
D99*
X1719016Y444016D3*
D97*
Y544016D3*
Y644016D3*
Y744016D3*
Y844016D3*
Y944016D3*
Y1044016D3*
Y1144016D3*
Y1244016D3*
Y1344016D3*
Y1444016D3*
Y1544016D3*
Y1644016D3*
Y1744016D3*
Y1844016D3*
Y1944016D3*
Y2044016D3*
Y2144016D3*
Y2244016D3*
D95*
X2956516Y1766654D3*
D93*
Y1668228D3*
Y1569803D3*
Y1471378D3*
D54*
X2877776Y1829646D3*
D95*
X1094803Y2631516D3*
D93*
X1193228D3*
D54*
X1031811Y2552776D3*
D95*
X769803Y2631516D3*
D93*
X868228D3*
D54*
X706811Y2552776D3*
D91*
X2036339Y962126D3*
Y725906D3*
D89*
X2221378Y844016D3*
D95*
X2956516Y2355400D3*
D93*
Y2256975D3*
Y2158550D3*
Y2060125D3*
D54*
X2877776Y2418392D3*
D99*
X2244016Y1069016D3*
D97*
X2244013Y1169016D3*
X2244010Y1269016D3*
D95*
X1471378Y2631516D3*
D93*
X1569803D3*
X1668228D3*
X1766654D3*
D54*
X1408386Y2552776D3*
D99*
X1994016Y2606016D3*
D97*
X2094016D3*
X2194016D3*
D83*
X531811Y531811D3*
Y2618425D3*
X3012126D3*
Y531811D3*
D55*
X1096154Y519793D3*
X1411115Y519799D3*
M02*
