G04 DipTrace 4.1.0.0*
G04 BottomSilk.gbr*
%MOIN*%
G04 #@! TF.FileFunction,Legend,Bot*
G04 #@! TF.Part,Single*
%FSLAX26Y26*%
G04*
G70*
G90*
G75*
G01*
G04 BotSilk*
%LPD*%
G36*
X3113797Y1775317D2*
X3112485Y1774661D1*
X3108548Y1772036D1*
X3105267Y1770068D1*
X3101330Y1767443D1*
X3098049Y1765474D1*
X3094112Y1762850D1*
X3090831Y1760881D1*
X3088863Y1759569D1*
X3088063Y1758884D1*
X3087550Y1758913D1*
X3086238Y1760225D1*
X3079676Y1764162D1*
X3077708Y1765474D1*
X3067865Y1771380D1*
X3065897Y1772692D1*
X3062616Y1774661D1*
X3061960D1*
Y1767443D1*
X3062616Y1766787D1*
X3079020Y1756944D1*
X3080989Y1755632D1*
X3082301Y1754976D1*
X3080989Y1753663D1*
X3078364Y1752351D1*
X3076396Y1751039D1*
X3069834Y1747102D1*
X3067865Y1745789D1*
X3064585Y1743821D1*
X3062616Y1742509D1*
X3061960Y1741852D1*
Y1735291D1*
X3062616D1*
X3065897Y1737259D1*
X3069834Y1739884D1*
X3073115Y1741852D1*
X3075083Y1743165D1*
X3078364Y1745133D1*
X3082301Y1747758D1*
X3085582Y1749726D1*
X3086238Y1750383D1*
X3087113Y1751039D1*
X3087988D1*
X3088863Y1750383D1*
X3090831Y1749070D1*
X3094112Y1747102D1*
X3096081Y1745789D1*
X3102642Y1741852D1*
X3104611Y1740540D1*
X3111173Y1736603D1*
X3113141Y1735291D1*
X3114453D1*
Y1741852D1*
X3113141Y1743165D1*
X3103298Y1749070D1*
X3101330Y1750383D1*
X3094768Y1754320D1*
X3093456Y1754976D1*
Y1755632D1*
X3094768Y1756288D1*
X3098049Y1758257D1*
X3100018Y1759569D1*
X3103298Y1761537D1*
X3105267Y1762850D1*
X3111829Y1766787D1*
X3113797Y1768099D1*
X3114453Y1768755D1*
Y1775317D1*
X3113797D1*
G37*
G36*
X3088863Y1730697D2*
Y1711669D1*
X3094768D1*
Y1730697D1*
X3088863D1*
G37*
G36*
X3061960Y1702482D2*
Y1693296D1*
X3062616Y1692640D1*
X3063928Y1691984D1*
X3087550Y1681485D1*
X3089519Y1680829D1*
X3090831Y1680173D1*
Y1679516D1*
X3089519Y1678860D1*
X3087550Y1678204D1*
X3064585Y1668362D1*
X3061960Y1667049D1*
Y1657863D1*
X3114453D1*
Y1663768D1*
X3069178Y1664425D1*
X3069834Y1665081D1*
X3071802Y1665737D1*
X3077708Y1668362D1*
X3082301Y1670330D1*
X3094112Y1675579D1*
X3098705Y1677548D1*
X3100018Y1678860D1*
Y1682141D1*
X3096081Y1684110D1*
X3091487Y1686078D1*
X3085582Y1688703D1*
X3080989Y1690671D1*
X3075083Y1693296D1*
X3073115Y1693952D1*
X3069178Y1695921D1*
X3114453Y1696577D1*
Y1702482D1*
X3061960D1*
G37*
G36*
X3065897Y1641459D2*
Y1640802D1*
X3063928Y1638834D1*
X3061304Y1633585D1*
X3060648Y1630960D1*
Y1621117D1*
X3061304Y1618493D1*
X3061960Y1616524D1*
X3063272Y1613900D1*
X3064585Y1611931D1*
X3068522Y1607994D1*
X3070490Y1606682D1*
X3074427Y1604713D1*
X3076396Y1604057D1*
X3079020Y1603401D1*
X3082957Y1602745D1*
X3092800D1*
X3096737Y1603401D1*
X3099361Y1604057D1*
X3101330Y1604713D1*
X3106579Y1607338D1*
X3111829Y1612587D1*
X3113141Y1614556D1*
X3113797Y1615868D1*
X3115110Y1619805D1*
X3115766Y1624398D1*
Y1627679D1*
X3115110Y1631616D1*
X3114453Y1634241D1*
X3112485Y1638178D1*
X3111173Y1640146D1*
X3107892Y1643427D1*
X3105923Y1644739D1*
X3101986Y1646708D1*
X3098049Y1648020D1*
X3094768Y1648676D1*
X3080989D1*
X3077708Y1648020D1*
X3073771Y1646708D1*
X3071146Y1645396D1*
X3069178Y1644083D1*
X3066553Y1642115D1*
X3065897Y1641459D1*
X3080989D1*
X3085582Y1642115D1*
X3090175D1*
X3094768Y1641459D1*
X3098049Y1640802D1*
X3100018Y1640146D1*
X3103955Y1638178D1*
X3108548Y1633585D1*
Y1632928D1*
X3109204Y1631616D1*
X3109860Y1628335D1*
X3110516Y1627679D1*
Y1623742D1*
X3109860Y1623086D1*
X3109204Y1620461D1*
X3107892Y1617837D1*
Y1617180D1*
X3104611Y1613900D1*
X3099361Y1611275D1*
X3096737Y1610619D1*
X3092800Y1609963D1*
X3089519Y1609306D1*
X3086238D1*
X3082957Y1609963D1*
X3079020Y1610619D1*
X3075083Y1611931D1*
X3072459Y1613243D1*
X3071802Y1613900D1*
X3070490Y1614556D1*
X3067865Y1617180D1*
Y1617837D1*
X3067209Y1619149D1*
X3066553Y1621117D1*
X3065897Y1621774D1*
Y1630304D1*
X3066553Y1630960D1*
X3067865Y1633585D1*
Y1634241D1*
X3071802Y1638178D1*
X3075739Y1640146D1*
X3077708Y1640802D1*
X3080989Y1641459D1*
X3065897D1*
G37*
G36*
X3061960Y1599464D2*
Y1557469D1*
X3067865D1*
Y1574530D1*
X3114453Y1575186D1*
Y1581747D1*
X3067865Y1582404D1*
Y1599464D1*
X3061960D1*
G37*
G36*
X3065897Y1546970D2*
Y1546314D1*
X3063928Y1544346D1*
X3061304Y1539096D1*
X3060648Y1536472D1*
Y1526629D1*
X3061304Y1524005D1*
X3061960Y1522036D1*
X3063272Y1519411D1*
X3064585Y1517443D1*
X3068522Y1513506D1*
X3070490Y1512194D1*
X3074427Y1510225D1*
X3076396Y1509569D1*
X3079020Y1508913D1*
X3082957Y1508257D1*
X3092800D1*
X3096737Y1508913D1*
X3099361Y1509569D1*
X3101330Y1510225D1*
X3106579Y1512850D1*
X3111829Y1518099D1*
X3113141Y1520068D1*
X3113797Y1521380D1*
X3115110Y1525317D1*
X3115766Y1529910D1*
Y1533191D1*
X3115110Y1537128D1*
X3114453Y1539753D1*
X3112485Y1543690D1*
X3111173Y1545658D1*
X3107892Y1548939D1*
X3105923Y1550251D1*
X3101986Y1552220D1*
X3098049Y1553532D1*
X3094768Y1554188D1*
X3080989D1*
X3077708Y1553532D1*
X3073771Y1552220D1*
X3071146Y1550907D1*
X3069178Y1549595D1*
X3066553Y1547627D1*
X3065897Y1546970D1*
X3080989D1*
X3085582Y1547627D1*
X3090175D1*
X3094768Y1546970D1*
X3098049Y1546314D1*
X3100018Y1545658D1*
X3103955Y1543690D1*
X3108548Y1539096D1*
Y1538440D1*
X3109204Y1537128D1*
X3109860Y1533847D1*
X3110516Y1533191D1*
Y1529254D1*
X3109860Y1528598D1*
X3109204Y1525973D1*
X3107892Y1523348D1*
Y1522692D1*
X3104611Y1519411D1*
X3099361Y1516787D1*
X3096737Y1516131D1*
X3092800Y1515474D1*
X3089519Y1514818D1*
X3086238D1*
X3082957Y1515474D1*
X3079020Y1516131D1*
X3075083Y1517443D1*
X3072459Y1518755D1*
X3071802Y1519411D1*
X3070490Y1520068D1*
X3067865Y1522692D1*
Y1523348D1*
X3067209Y1524661D1*
X3066553Y1526629D1*
X3065897Y1527285D1*
Y1535816D1*
X3066553Y1536472D1*
X3067865Y1539096D1*
Y1539753D1*
X3071802Y1543690D1*
X3075739Y1545658D1*
X3077708Y1546314D1*
X3080989Y1546970D1*
X3065897D1*
G37*
G36*
X3061960Y1492509D2*
Y1478729D1*
X3063272Y1474792D1*
X3063928Y1473480D1*
X3065897Y1470855D1*
X3066553Y1470199D1*
X3068522Y1468886D1*
X3071146Y1467574D1*
X3074427Y1466918D1*
X3077708D1*
X3080989Y1467574D1*
X3082957Y1468230D1*
X3084270Y1468886D1*
X3086238Y1470199D1*
X3088207Y1472167D1*
X3089519Y1474136D1*
X3090831Y1476760D1*
X3090938Y1477268D1*
X3091341Y1477806D1*
X3091664Y1477790D1*
X3092144Y1477417D1*
X3096081Y1474136D1*
X3099361Y1471511D1*
X3103298Y1468230D1*
X3106579Y1465606D1*
X3110516Y1462325D1*
X3113797Y1459700D1*
X3114453D1*
Y1467574D1*
X3111829Y1470199D1*
X3109204Y1472167D1*
X3096081Y1482666D1*
X3094768Y1483322D1*
X3093456Y1484634D1*
Y1492509D1*
X3114453Y1493165D1*
Y1499726D1*
X3061960D1*
Y1492509D1*
X3067209D1*
X3074208Y1493165D1*
X3081208D1*
X3088207Y1492509D1*
Y1483978D1*
X3087550Y1483322D1*
X3086894Y1480041D1*
X3086238Y1478729D1*
Y1478073D1*
X3084270Y1476104D1*
X3081645Y1474792D1*
X3078583Y1474136D1*
X3075521D1*
X3072459Y1474792D1*
X3069834Y1476104D1*
X3068522Y1477417D1*
Y1478073D1*
X3067865Y1480041D1*
X3067209Y1492509D1*
X3061960D1*
G37*
G36*
Y2396052D2*
Y2388834D1*
X3063928Y2387522D1*
X3068522Y2384897D1*
X3071802Y2382928D1*
X3076396Y2380304D1*
X3079676Y2378335D1*
X3083613Y2376367D1*
X3084926Y2375054D1*
X3083613Y2374398D1*
X3079020Y2371774D1*
X3069178Y2365868D1*
X3064585Y2363243D1*
X3062616Y2361931D1*
X3061960Y2361275D1*
Y2354713D1*
X3062616D1*
X3065897Y2356682D1*
X3067865Y2357994D1*
X3087550Y2369805D1*
X3088207Y2370461D1*
X3090831Y2371774D1*
X3114453Y2372430D1*
Y2378335D1*
X3091487Y2378991D1*
X3087550Y2380960D1*
X3086894Y2381616D1*
X3080333Y2385553D1*
X3075739Y2388178D1*
X3069178Y2392115D1*
X3064585Y2394739D1*
X3061960Y2396052D1*
G37*
G36*
X3088863Y2350776D2*
Y2331747D1*
X3094768D1*
Y2350776D1*
X3088863D1*
G37*
G36*
X3061960Y2322561D2*
Y2313375D1*
X3062616Y2312718D1*
X3063928Y2312062D1*
X3087550Y2301564D1*
X3089519Y2300907D1*
X3090831Y2300251D1*
Y2299595D1*
X3089519Y2298939D1*
X3087550Y2298283D1*
X3064585Y2288440D1*
X3061960Y2287128D1*
Y2277942D1*
X3114453D1*
Y2283847D1*
X3069178Y2284503D1*
X3069834Y2285159D1*
X3071802Y2285816D1*
X3077708Y2288440D1*
X3082301Y2290409D1*
X3094112Y2295658D1*
X3098705Y2297627D1*
X3100018Y2298939D1*
Y2302220D1*
X3096081Y2304188D1*
X3091487Y2306157D1*
X3085582Y2308781D1*
X3080989Y2310750D1*
X3075083Y2313375D1*
X3073115Y2314031D1*
X3069178Y2315999D1*
X3114453Y2316655D1*
Y2322561D1*
X3061960D1*
G37*
G36*
X3065897Y2261537D2*
Y2260881D1*
X3063928Y2258913D1*
X3061304Y2253663D1*
X3060648Y2251039D1*
Y2241196D1*
X3061304Y2238571D1*
X3061960Y2236603D1*
X3063272Y2233978D1*
X3064585Y2232010D1*
X3068522Y2228073D1*
X3070490Y2226760D1*
X3074427Y2224792D1*
X3076396Y2224136D1*
X3079020Y2223480D1*
X3082957Y2222823D1*
X3092800D1*
X3096737Y2223480D1*
X3099361Y2224136D1*
X3101330Y2224792D1*
X3106579Y2227417D1*
X3111829Y2232666D1*
X3113141Y2234634D1*
X3113797Y2235947D1*
X3115110Y2239884D1*
X3115766Y2244477D1*
Y2247758D1*
X3115110Y2251695D1*
X3114453Y2254320D1*
X3112485Y2258257D1*
X3111173Y2260225D1*
X3107892Y2263506D1*
X3105923Y2264818D1*
X3101986Y2266787D1*
X3098049Y2268099D1*
X3094768Y2268755D1*
X3080989D1*
X3077708Y2268099D1*
X3073771Y2266787D1*
X3071146Y2265474D1*
X3069178Y2264162D1*
X3066553Y2262194D1*
X3065897Y2261537D1*
X3080989D1*
X3085582Y2262194D1*
X3090175D1*
X3094768Y2261537D1*
X3098049Y2260881D1*
X3100018Y2260225D1*
X3103955Y2258257D1*
X3108548Y2253663D1*
Y2253007D1*
X3109204Y2251695D1*
X3109860Y2248414D1*
X3110516Y2247758D1*
Y2243821D1*
X3109860Y2243165D1*
X3109204Y2240540D1*
X3107892Y2237915D1*
Y2237259D1*
X3104611Y2233978D1*
X3099361Y2231354D1*
X3096737Y2230697D1*
X3092800Y2230041D1*
X3089519Y2229385D1*
X3086238D1*
X3082957Y2230041D1*
X3079020Y2230697D1*
X3075083Y2232010D1*
X3072459Y2233322D1*
X3071802Y2233978D1*
X3070490Y2234634D1*
X3067865Y2237259D1*
Y2237915D1*
X3067209Y2239228D1*
X3066553Y2241196D1*
X3065897Y2241852D1*
Y2250383D1*
X3066553Y2251039D1*
X3067865Y2253663D1*
Y2254320D1*
X3071802Y2258257D1*
X3075739Y2260225D1*
X3077708Y2260881D1*
X3080989Y2261537D1*
X3065897D1*
G37*
G36*
X3061960Y2219543D2*
Y2177548D1*
X3067865D1*
Y2194608D1*
X3114453Y2195264D1*
Y2201826D1*
X3067865Y2202482D1*
Y2219543D1*
X3061960D1*
G37*
G36*
X3065897Y2167049D2*
Y2166393D1*
X3063928Y2164425D1*
X3061304Y2159175D1*
X3060648Y2156551D1*
Y2146708D1*
X3061304Y2144083D1*
X3061960Y2142115D1*
X3063272Y2139490D1*
X3064585Y2137522D1*
X3068522Y2133585D1*
X3070490Y2132272D1*
X3074427Y2130304D1*
X3076396Y2129648D1*
X3079020Y2128991D1*
X3082957Y2128335D1*
X3092800D1*
X3096737Y2128991D1*
X3099361Y2129648D1*
X3101330Y2130304D1*
X3106579Y2132928D1*
X3111829Y2138178D1*
X3113141Y2140146D1*
X3113797Y2141459D1*
X3115110Y2145396D1*
X3115766Y2149989D1*
Y2153270D1*
X3115110Y2157207D1*
X3114453Y2159831D1*
X3112485Y2163768D1*
X3111173Y2165737D1*
X3107892Y2169018D1*
X3105923Y2170330D1*
X3101986Y2172299D1*
X3098049Y2173611D1*
X3094768Y2174267D1*
X3080989D1*
X3077708Y2173611D1*
X3073771Y2172299D1*
X3071146Y2170986D1*
X3069178Y2169674D1*
X3066553Y2167705D1*
X3065897Y2167049D1*
X3080989D1*
X3085582Y2167705D1*
X3090175D1*
X3094768Y2167049D1*
X3098049Y2166393D1*
X3100018Y2165737D1*
X3103955Y2163768D1*
X3108548Y2159175D1*
Y2158519D1*
X3109204Y2157207D1*
X3109860Y2153926D1*
X3110516Y2153270D1*
Y2149333D1*
X3109860Y2148676D1*
X3109204Y2146052D1*
X3107892Y2143427D1*
Y2142771D1*
X3104611Y2139490D1*
X3099361Y2136865D1*
X3096737Y2136209D1*
X3092800Y2135553D1*
X3089519Y2134897D1*
X3086238D1*
X3082957Y2135553D1*
X3079020Y2136209D1*
X3075083Y2137522D1*
X3072459Y2138834D1*
X3071802Y2139490D1*
X3070490Y2140146D1*
X3067865Y2142771D1*
Y2143427D1*
X3067209Y2144739D1*
X3066553Y2146708D1*
X3065897Y2147364D1*
Y2155894D1*
X3066553Y2156551D1*
X3067865Y2159175D1*
Y2159831D1*
X3071802Y2163768D1*
X3075739Y2165737D1*
X3077708Y2166393D1*
X3080989Y2167049D1*
X3065897D1*
G37*
G36*
X3061960Y2112587D2*
Y2098808D1*
X3063272Y2094871D1*
X3063928Y2093558D1*
X3065897Y2090934D1*
X3066553Y2090278D1*
X3068522Y2088965D1*
X3071146Y2087653D1*
X3074427Y2086997D1*
X3077708D1*
X3080989Y2087653D1*
X3082957Y2088309D1*
X3084270Y2088965D1*
X3086238Y2090278D1*
X3088207Y2092246D1*
X3089519Y2094215D1*
X3090831Y2096839D1*
X3090938Y2097347D1*
X3091341Y2097885D1*
X3091664Y2097869D1*
X3092144Y2097495D1*
X3096081Y2094215D1*
X3099361Y2091590D1*
X3103298Y2088309D1*
X3106579Y2085684D1*
X3110516Y2082404D1*
X3113797Y2079779D1*
X3114453D1*
Y2087653D1*
X3111829Y2090278D1*
X3109204Y2092246D1*
X3096081Y2102745D1*
X3094768Y2103401D1*
X3093456Y2104713D1*
Y2112587D1*
X3114453Y2113243D1*
Y2119805D1*
X3061960D1*
Y2112587D1*
X3067209D1*
X3074208Y2113243D1*
X3081208D1*
X3088207Y2112587D1*
Y2104057D1*
X3087550Y2103401D1*
X3086894Y2100120D1*
X3086238Y2098808D1*
Y2098152D1*
X3084270Y2096183D1*
X3081645Y2094871D1*
X3078583Y2094215D1*
X3075521D1*
X3072459Y2094871D1*
X3069834Y2096183D1*
X3068522Y2097495D1*
Y2098152D1*
X3067865Y2100120D1*
X3067209Y2112587D1*
X3061960D1*
G37*
G36*
X839781Y2731026D2*
Y2687456D1*
X844506D1*
Y2731026D1*
X839781D1*
G37*
G36*
X764191Y2729451D2*
Y2724201D1*
X769965D1*
Y2729451D1*
X764191D1*
G37*
G36*
X826133D2*
Y2724201D1*
X831907D1*
Y2729451D1*
X826133D1*
G37*
G36*
X867078D2*
X868128Y2728401D1*
Y2727876D1*
X868653Y2726826D1*
X869703Y2725251D1*
X870228Y2724201D1*
X871277Y2722627D1*
X871802Y2721577D1*
X872852Y2720002D1*
X873377Y2718952D1*
X874427Y2717377D1*
X874952Y2716327D1*
X876002Y2714753D1*
X876527Y2713703D1*
X877577Y2712128D1*
X878102Y2711078D1*
X879152Y2709503D1*
X879676Y2708453D1*
X880726Y2706879D1*
X881251Y2687456D1*
X886501D1*
Y2705829D1*
X887550Y2706879D1*
X888600Y2708978D1*
X889650Y2710553D1*
X890175Y2711603D1*
X891225Y2713178D1*
X891750Y2714228D1*
X892800Y2715802D1*
X893850Y2717902D1*
X894900Y2719477D1*
X895424Y2720527D1*
X896474Y2722102D1*
X896999Y2723152D1*
X898049Y2724726D1*
X899099Y2726826D1*
X900149Y2728401D1*
X900674Y2729451D1*
X894900D1*
X893850Y2727876D1*
X893325Y2726826D1*
X892275Y2725251D1*
X891225Y2723152D1*
X890175Y2721577D1*
X889650Y2720527D1*
X888600Y2718952D1*
X887550Y2716852D1*
X886501Y2715278D1*
X885976Y2714228D1*
X884926Y2712653D1*
X884661Y2712127D1*
X884356Y2711578D1*
X883844Y2711032D1*
X883573Y2711118D1*
X883351Y2711603D1*
X882301Y2713178D1*
X881251Y2715278D1*
X880201Y2716852D1*
X879676Y2717902D1*
X878627Y2719477D1*
X878102Y2720527D1*
X877052Y2722102D1*
X876527Y2723152D1*
X875477Y2724726D1*
X874427Y2726826D1*
X873377Y2728401D1*
X872852Y2729451D1*
X867078D1*
G37*
G36*
X751592Y2727876D2*
Y2719477D1*
X741619Y2718952D1*
Y2714753D1*
X751592Y2714228D1*
Y2696380D1*
X751068Y2695855D1*
Y2693755D1*
X749493Y2692180D1*
X748443Y2691655D1*
X746693Y2691131D1*
X744943D1*
X743194Y2691655D1*
X741619Y2692180D1*
Y2687981D1*
X742144Y2687456D1*
X744768Y2686931D1*
X749493D1*
X751068Y2687456D1*
X753167Y2688506D1*
X754217Y2689556D1*
X755267Y2691131D1*
X755792Y2692705D1*
X756317Y2695330D1*
Y2714228D1*
X759991Y2714753D1*
Y2718952D1*
X756317Y2719477D1*
Y2727876D1*
X751592D1*
G37*
G36*
X784663Y2720002D2*
X783089Y2719477D1*
X780989Y2718427D1*
X779939Y2717377D1*
X778889Y2715802D1*
X777839Y2712653D1*
Y2687456D1*
X782564D1*
X783089Y2711603D1*
Y2712653D1*
X784663Y2714228D1*
X785713Y2714753D1*
X787113Y2715278D1*
X788513D1*
X789913Y2714753D1*
X791487Y2714228D1*
X792537Y2713703D1*
X793062Y2713178D1*
X794112Y2712653D1*
X795687Y2711078D1*
Y2687456D1*
X800411D1*
X800936Y2711078D1*
Y2712653D1*
X802511Y2714228D1*
X803561Y2714753D1*
X805136Y2715278D1*
X806711D1*
X808285Y2714753D1*
X811435Y2713178D1*
X812485Y2712128D1*
X813535Y2711603D1*
Y2687456D1*
X818259D1*
Y2718952D1*
X813535D1*
Y2716327D1*
X812978Y2715757D1*
X812706Y2715843D1*
X812485Y2716327D1*
X810910Y2717902D1*
X809335Y2718952D1*
X808285Y2719477D1*
X806711Y2720002D1*
X802511D1*
X800936Y2719477D1*
X799886Y2718952D1*
X797262Y2716327D1*
X796997Y2715801D1*
X796692Y2715253D1*
X796179Y2714706D1*
X795909Y2714793D1*
X795687Y2715278D1*
X793587Y2717377D1*
X792012Y2718427D1*
X789913Y2719477D1*
X788338Y2720002D1*
X784663D1*
G37*
G36*
X764716Y2718952D2*
Y2687456D1*
X769440D1*
Y2718952D1*
X764716D1*
G37*
G36*
X826658D2*
Y2687456D1*
X831382D1*
Y2718952D1*
X826658D1*
G37*
G36*
X1162616Y2731026D2*
Y2687456D1*
X1167340D1*
Y2731026D1*
X1162616D1*
G37*
G36*
X1087026Y2729451D2*
Y2724201D1*
X1092800D1*
Y2729451D1*
X1087026D1*
G37*
G36*
X1148968D2*
Y2724201D1*
X1154742D1*
Y2729451D1*
X1148968D1*
G37*
G36*
X1190963D2*
Y2728926D1*
X1191487Y2727876D1*
X1193587Y2724726D1*
X1194112Y2723676D1*
X1197262Y2718952D1*
X1197787Y2717902D1*
X1199886Y2714753D1*
X1200411Y2713703D1*
X1202511Y2710553D1*
X1203036Y2709503D1*
X1203433Y2708797D1*
X1203381Y2708324D1*
X1203036Y2707928D1*
X1202511Y2706879D1*
X1200411Y2703729D1*
X1199886Y2702679D1*
X1198837Y2701104D1*
X1198312Y2700054D1*
X1197262Y2698480D1*
X1196737Y2697430D1*
X1194637Y2694280D1*
X1194112Y2693230D1*
X1193062Y2691655D1*
X1192537Y2690606D1*
X1191487Y2689031D1*
X1190963Y2687981D1*
Y2687456D1*
X1196737D1*
X1197262Y2688506D1*
X1198312Y2690081D1*
X1198837Y2691131D1*
X1199886Y2692705D1*
X1200411Y2693755D1*
X1201461Y2695330D1*
X1201986Y2696380D1*
X1203036Y2697955D1*
X1203561Y2699005D1*
X1204611Y2700579D1*
X1205136Y2701629D1*
X1206186Y2703204D1*
X1206271Y2703610D1*
X1206593Y2704040D1*
X1206852Y2704028D1*
X1207236Y2703729D1*
X1209335Y2700579D1*
X1209860Y2699530D1*
X1210910Y2697955D1*
X1211435Y2696905D1*
X1212485Y2695330D1*
X1213010Y2694280D1*
X1215110Y2691131D1*
X1215634Y2690081D1*
X1216684Y2688506D1*
X1217209Y2687456D1*
X1222984D1*
X1222459Y2688506D1*
X1220359Y2691655D1*
X1219834Y2692705D1*
X1217734Y2695855D1*
X1217209Y2696905D1*
X1214060Y2701629D1*
X1213535Y2702679D1*
X1211435Y2705829D1*
X1210910Y2706879D1*
X1209860Y2707928D1*
Y2708978D1*
X1210910Y2710028D1*
X1211435Y2711078D1*
X1212485Y2712653D1*
X1213010Y2713703D1*
X1214060Y2715278D1*
X1214585Y2716327D1*
X1216684Y2719477D1*
X1217209Y2720527D1*
X1218259Y2722102D1*
X1218784Y2723152D1*
X1219834Y2724726D1*
X1220359Y2725776D1*
X1221409Y2727351D1*
X1222459Y2729451D1*
X1216684D1*
X1216159Y2728926D1*
X1215634Y2727876D1*
X1214585Y2726301D1*
X1214060Y2725251D1*
X1213010Y2723676D1*
X1212485Y2722627D1*
X1211435Y2721052D1*
X1210910Y2720002D1*
X1209860Y2718427D1*
X1209335Y2717377D1*
X1208285Y2715802D1*
X1207760Y2714753D1*
Y2714228D1*
X1206711Y2713178D1*
X1205938Y2713231D1*
X1205503Y2713822D1*
X1205661Y2714228D1*
X1204611Y2715802D1*
X1204086Y2716852D1*
X1203036Y2718427D1*
X1202511Y2719477D1*
X1201461Y2721052D1*
X1200936Y2722102D1*
X1198837Y2725251D1*
X1198312Y2726301D1*
X1197262Y2727876D1*
X1196737Y2728926D1*
X1196212Y2729451D1*
X1190963D1*
G37*
G36*
X1074427Y2727876D2*
Y2719477D1*
X1064453Y2718952D1*
Y2714753D1*
X1074427Y2714228D1*
Y2696380D1*
X1073902Y2695855D1*
Y2693755D1*
X1072327Y2692180D1*
X1071277Y2691655D1*
X1069528Y2691131D1*
X1067778D1*
X1066028Y2691655D1*
X1064453Y2692180D1*
Y2687981D1*
X1064978Y2687456D1*
X1067603Y2686931D1*
X1072327D1*
X1073902Y2687456D1*
X1076002Y2688506D1*
X1077052Y2689556D1*
X1078102Y2691131D1*
X1078627Y2692705D1*
X1079152Y2695330D1*
Y2714228D1*
X1082826Y2714753D1*
Y2718952D1*
X1079152Y2719477D1*
Y2727876D1*
X1074427D1*
G37*
G36*
X1107498Y2720002D2*
X1105923Y2719477D1*
X1103823Y2718427D1*
X1102774Y2717377D1*
X1101724Y2715802D1*
X1100674Y2712653D1*
Y2687456D1*
X1105398D1*
X1105923Y2711603D1*
Y2712653D1*
X1107498Y2714228D1*
X1108548Y2714753D1*
X1109948Y2715278D1*
X1111347D1*
X1112747Y2714753D1*
X1114322Y2714228D1*
X1115372Y2713703D1*
X1115897Y2713178D1*
X1116947Y2712653D1*
X1118522Y2711078D1*
Y2687456D1*
X1123246D1*
X1123771Y2711078D1*
Y2712653D1*
X1125346Y2714228D1*
X1126396Y2714753D1*
X1127970Y2715278D1*
X1129545D1*
X1131120Y2714753D1*
X1134270Y2713178D1*
X1135319Y2712128D1*
X1136369Y2711603D1*
Y2687456D1*
X1141094D1*
Y2718952D1*
X1136369D1*
Y2716327D1*
X1135813Y2715757D1*
X1135541Y2715843D1*
X1135319Y2716327D1*
X1133745Y2717902D1*
X1132170Y2718952D1*
X1131120Y2719477D1*
X1129545Y2720002D1*
X1125346D1*
X1123771Y2719477D1*
X1122721Y2718952D1*
X1120096Y2716327D1*
X1119832Y2715801D1*
X1119527Y2715253D1*
X1119014Y2714706D1*
X1118744Y2714793D1*
X1118522Y2715278D1*
X1116422Y2717377D1*
X1114847Y2718427D1*
X1112747Y2719477D1*
X1111173Y2720002D1*
X1107498D1*
G37*
G36*
X1087550Y2718952D2*
Y2687456D1*
X1092275D1*
Y2718952D1*
X1087550D1*
G37*
G36*
X1149493D2*
Y2687456D1*
X1154217D1*
Y2718952D1*
X1149493D1*
G37*
G36*
X1516422Y2731026D2*
Y2687456D1*
X1521146D1*
Y2731026D1*
X1516422D1*
G37*
G36*
X1578889Y2729451D2*
Y2724201D1*
X1584663D1*
Y2729451D1*
X1578889D1*
G37*
G36*
X1624033D2*
Y2724201D1*
X1629808D1*
Y2729451D1*
X1624033D1*
G37*
G36*
X1642406Y2724726D2*
X1639257Y2721577D1*
X1638207Y2720002D1*
X1637157Y2717902D1*
X1636632Y2716327D1*
X1636107Y2714228D1*
X1635582Y2711078D1*
Y2705829D1*
X1636107Y2702679D1*
X1637157Y2699530D1*
X1638732Y2696380D1*
X1639781Y2694805D1*
X1643456Y2691131D1*
X1645031Y2690081D1*
X1647131Y2689031D1*
X1650280Y2687981D1*
X1653430Y2687456D1*
X1668128D1*
Y2729451D1*
X1653955D1*
X1650805Y2728926D1*
X1648705Y2728401D1*
X1647131Y2727876D1*
X1643981Y2726301D1*
X1642406Y2724726D1*
X1653955D1*
X1657104Y2725251D1*
X1660254D1*
X1663403Y2724726D1*
Y2692180D1*
X1660254Y2691655D1*
X1657104D1*
X1653955Y2692180D1*
X1651330Y2692705D1*
X1649755Y2693230D1*
X1646606Y2694805D1*
X1643456Y2697955D1*
Y2698480D1*
X1642406Y2700579D1*
X1641881Y2702154D1*
X1641356Y2705304D1*
X1640831Y2705829D1*
Y2711078D1*
X1641356Y2711603D1*
X1641881Y2714228D1*
X1642406Y2716327D1*
X1643456Y2718427D1*
Y2718952D1*
X1646081Y2721577D1*
X1647131Y2722102D1*
X1647655Y2722627D1*
X1649755Y2723676D1*
X1651330Y2724201D1*
X1653955Y2724726D1*
X1642406D1*
G37*
G36*
X1566291Y2727876D2*
Y2719477D1*
X1556317Y2718952D1*
Y2714753D1*
X1566291Y2714228D1*
Y2696380D1*
X1565766Y2695855D1*
Y2693755D1*
X1564191Y2692180D1*
X1563141Y2691655D1*
X1561391Y2691131D1*
X1559641D1*
X1557892Y2691655D1*
X1556317Y2692180D1*
Y2687981D1*
X1556842Y2687456D1*
X1559466Y2686931D1*
X1564191D1*
X1565766Y2687456D1*
X1567865Y2688506D1*
X1568915Y2689556D1*
X1569965Y2691131D1*
X1570490Y2692705D1*
X1571015Y2695330D1*
Y2714228D1*
X1574690Y2714753D1*
Y2718952D1*
X1571015Y2719477D1*
Y2727876D1*
X1566291D1*
G37*
G36*
X1529545Y2703729D2*
Y2687456D1*
X1534270D1*
Y2690081D1*
X1534662Y2690418D1*
X1534934Y2690387D1*
X1535319Y2690081D1*
X1536369Y2689031D1*
X1537944Y2687981D1*
X1540044Y2686931D1*
X1542144Y2686406D1*
X1546343D1*
X1547918Y2686931D1*
X1550018Y2687981D1*
X1552117Y2690081D1*
X1553167Y2691655D1*
X1553692Y2693230D1*
Y2700054D1*
X1552642Y2702154D1*
X1550018Y2704779D1*
X1546868Y2706354D1*
X1544768Y2706879D1*
X1542144Y2707404D1*
X1537944Y2707928D1*
X1534270Y2708453D1*
Y2712128D1*
X1534795Y2712653D1*
Y2713178D1*
X1535844Y2714228D1*
X1536894Y2714753D1*
X1538469Y2715278D1*
X1540744Y2715802D1*
X1543019D1*
X1545293Y2715278D1*
X1551068Y2713703D1*
X1551592D1*
Y2718427D1*
X1551068Y2718952D1*
X1548443Y2719477D1*
X1545293Y2720002D1*
X1538469D1*
X1535844Y2719477D1*
X1532695Y2717902D1*
X1531120Y2716327D1*
X1529545Y2713178D1*
Y2703729D1*
X1534270D1*
X1535319Y2704254D1*
X1536369D1*
X1537419Y2703729D1*
X1541619Y2703204D1*
X1544243Y2702679D1*
X1546343Y2701629D1*
X1548443Y2699530D1*
Y2699005D1*
X1548968Y2698480D1*
Y2694280D1*
X1548443Y2693755D1*
Y2693230D1*
X1546868Y2691655D1*
X1545293Y2691131D1*
X1543543Y2690606D1*
X1541794D1*
X1540044Y2691131D1*
X1538469Y2691655D1*
X1537419Y2692180D1*
X1536894Y2692705D1*
X1535844Y2693230D1*
X1534270Y2694805D1*
Y2703729D1*
X1529545D1*
G37*
G36*
X1592537Y2715278D2*
Y2686931D1*
X1593062Y2684306D1*
X1593587Y2682732D1*
X1594637Y2680632D1*
X1596212Y2678532D1*
X1598312Y2676957D1*
X1599361Y2676432D1*
X1600936Y2675907D1*
X1603561Y2675383D1*
X1610385D1*
X1613010Y2675907D1*
X1615110Y2676432D1*
X1615634Y2676957D1*
Y2681682D1*
X1615110D1*
X1609335Y2680107D1*
X1607236Y2679582D1*
X1605136D1*
X1603036Y2680107D1*
X1601461Y2680632D1*
X1599361Y2681682D1*
X1598739Y2682272D1*
X1598837Y2682732D1*
X1598312Y2683781D1*
X1597787Y2685356D1*
X1597262Y2685881D1*
Y2691131D1*
X1597654Y2691468D1*
X1597926Y2691437D1*
X1598312Y2691131D1*
X1599361Y2690081D1*
X1602511Y2688506D1*
X1604086Y2687981D1*
X1609335D1*
X1610910Y2688506D1*
X1613010Y2689556D1*
X1616159Y2692705D1*
X1617209Y2694805D1*
X1618259Y2697955D1*
X1618784Y2703204D1*
Y2703729D1*
X1618259Y2708453D1*
X1617209Y2711603D1*
X1616159Y2713703D1*
X1615110Y2715278D1*
X1612485Y2717902D1*
X1609335Y2719477D1*
X1607760Y2720002D1*
X1603036D1*
X1600936Y2719477D1*
X1598837Y2718427D1*
X1598196Y2717879D1*
X1597588Y2717947D1*
X1597090Y2718554D1*
X1597262Y2718952D1*
X1592537D1*
Y2715278D1*
X1601461D1*
X1603386Y2715802D1*
X1605311D1*
X1607236Y2715278D1*
X1608810Y2714753D1*
X1609335Y2714228D1*
X1610385Y2713703D1*
X1610808Y2713025D1*
X1610910Y2712653D1*
X1611960Y2711078D1*
X1612485Y2710028D1*
X1613010Y2707928D1*
X1613535Y2707404D1*
Y2699530D1*
X1613010Y2699005D1*
X1612485Y2696905D1*
X1611960Y2695855D1*
Y2695330D1*
X1609860Y2693230D1*
X1608285Y2692705D1*
X1606536Y2692180D1*
X1604786D1*
X1603036Y2692705D1*
X1601461Y2693230D1*
X1598312Y2694805D1*
X1597262Y2695855D1*
Y2713703D1*
X1598312Y2714228D1*
X1601461Y2715278D1*
X1592537D1*
G37*
G36*
X1579414Y2718952D2*
Y2687456D1*
X1584138D1*
Y2718952D1*
X1579414D1*
G37*
G36*
X1624558D2*
Y2687456D1*
X1629283D1*
Y2718952D1*
X1624558D1*
G37*
G36*
X2094900Y630763D2*
X2093850Y629713D1*
X2092800Y627613D1*
X2092275Y626039D1*
Y619739D1*
X2092800Y618165D1*
X2094375Y615015D1*
X2097524Y611865D1*
X2100674Y610291D1*
X2102249Y609766D1*
X2104348Y609241D1*
X2113272Y608716D1*
Y593493D1*
X2117997D1*
Y635488D1*
X2103823D1*
X2101199Y634963D1*
X2099624Y634438D1*
X2097524Y633388D1*
X2095424Y631813D1*
X2094900Y631288D1*
Y630763D1*
X2103823D1*
X2106973Y631288D1*
X2110123D1*
X2113272Y630763D1*
Y613965D1*
X2110473Y613440D1*
X2107673D1*
X2104873Y613965D1*
X2102774Y614490D1*
X2101199Y615015D1*
X2098574Y617640D1*
Y618165D1*
X2098049Y619739D1*
X2097524Y620264D1*
Y625514D1*
X2098049Y626039D1*
X2098574Y627089D1*
Y627613D1*
X2100149Y629188D1*
X2102249Y630238D1*
X2103823Y630763D1*
X2094900D1*
G37*
G36*
X1990438Y621839D2*
X1989388Y620789D1*
X1988863Y619739D1*
X1987813Y616590D1*
Y609241D1*
X2009335Y608716D1*
Y605041D1*
X2008810Y604516D1*
X2008285Y602942D1*
X2007760Y601892D1*
Y601367D1*
X2005661Y599267D1*
X2003561Y598217D1*
X2001986Y597692D1*
X1999886Y597167D1*
X1997787D1*
X1993587Y598217D1*
X1992012Y598742D1*
X1988863Y600317D1*
X1988338Y600842D1*
Y595592D1*
X1988863Y595068D1*
X1991487Y594018D1*
X1995687Y592968D1*
X2001986D1*
X2004086Y593493D1*
X2005661Y594018D1*
X2007760Y595068D1*
X2009335Y596117D1*
X2011435Y598217D1*
X2013535Y602417D1*
X2014060Y604516D1*
X2014585Y608716D1*
Y609766D1*
X2014060Y614490D1*
X2013010Y617640D1*
X2011960Y619739D1*
X2010385Y621839D1*
X2009335Y622889D1*
X2006186Y624989D1*
X2004611Y625514D1*
X2002511Y626039D1*
X1997262D1*
X1995162Y625514D1*
X1993062Y624464D1*
X1990438Y621839D1*
X1997262D1*
X1999187Y622364D1*
X2001111D1*
X2003036Y621839D1*
X2004611Y621314D1*
X2005661Y620789D1*
X2007760Y618690D1*
Y618165D1*
X2008810Y616065D1*
X2009335Y615540D1*
Y613440D1*
X2003561Y612915D1*
X1997787D1*
X1992012Y613440D1*
X1992114Y613812D1*
X1992537Y614490D1*
X1993062Y617640D1*
X1993587Y618690D1*
Y619215D1*
X1995162Y620789D1*
X1997262Y621839D1*
X1990438D1*
G37*
G36*
X2064453Y621314D2*
Y620789D1*
X2063403Y619739D1*
X2062354Y617640D1*
X2061829Y616065D1*
X2061304Y613440D1*
Y605041D1*
X2061829Y602417D1*
X2062354Y600842D1*
X2063403Y598742D1*
X2064453Y597167D1*
X2066553Y595068D1*
X2068128Y594018D1*
X2070228Y592968D1*
X2072327Y592443D1*
X2077577D1*
X2079676Y592968D1*
X2082826Y594543D1*
X2085976Y597692D1*
X2088075Y601892D1*
X2088600Y603991D1*
Y614490D1*
X2088075Y616590D1*
X2085976Y620789D1*
X2082826Y623939D1*
X2079676Y625514D1*
X2077577Y626039D1*
X2072327D1*
X2070228Y625514D1*
X2068128Y624464D1*
X2066553Y623414D1*
X2064453Y621314D1*
X2072327D1*
X2074077Y621839D1*
X2075827D1*
X2077577Y621314D1*
X2079152Y620789D1*
X2080201Y620264D1*
X2081776Y618690D1*
Y618165D1*
X2082826Y616065D1*
X2083351Y613965D1*
X2083876Y613440D1*
Y605041D1*
X2083351Y604516D1*
X2082826Y602417D1*
X2081776Y600317D1*
Y599792D1*
X2080726Y598742D1*
X2079676Y598217D1*
X2079152Y597692D1*
X2077577Y597167D1*
X2075827Y596642D1*
X2074077D1*
X2072327Y597167D1*
X2070228Y598217D1*
X2067603Y600842D1*
Y601367D1*
X2067078Y602942D1*
X2066553Y606091D1*
X2066028Y606616D1*
Y611865D1*
X2066553Y612390D1*
X2067078Y615540D1*
X2067603Y617115D1*
Y617640D1*
X2070753Y620789D1*
X2072327Y621314D1*
X2064453D1*
G37*
G36*
X1965241Y624989D2*
Y619739D1*
X1971015Y619215D1*
X1972590Y618690D1*
X1974690Y617640D1*
X1975739Y616590D1*
X1976789Y616065D1*
Y593493D1*
X1981514D1*
Y624989D1*
X1976789D1*
Y620789D1*
X1976233Y620219D1*
X1975961Y620304D1*
X1975739Y620789D1*
X1974165Y622364D1*
X1972590Y623414D1*
X1970490Y624464D1*
X1968915Y624989D1*
X1965241D1*
G37*
G36*
X2017734D2*
Y623414D1*
X2025083Y594018D1*
X2025608Y593493D1*
X2029808D1*
X2030333Y594543D1*
X2031382Y597692D1*
X2031907Y599792D1*
X2034007Y606091D1*
X2034532Y608191D1*
X2036632Y614490D1*
X2037157Y616590D1*
X2037242Y616996D1*
X2037564Y617426D1*
X2037823Y617414D1*
X2038207Y617115D1*
X2038732Y615015D1*
X2040831Y608716D1*
X2041356Y606616D1*
X2042931Y601892D1*
X2043456Y599792D1*
X2045556Y593493D1*
X2050280D1*
X2053955Y608191D1*
X2054480Y609766D1*
X2058154Y624464D1*
Y624989D1*
X2052905D1*
X2052380Y622364D1*
X2051855Y620264D1*
X2051330Y617640D1*
X2050805Y615540D1*
X2050280Y612915D1*
X2049230Y608716D1*
X2048705Y606091D1*
X2048180Y603991D1*
X2047655Y601367D1*
X2047099Y600797D1*
X2046827Y600882D1*
X2046606Y601367D1*
Y602417D1*
X2046081Y603991D1*
X2045556Y606091D1*
X2043981Y610816D1*
X2043456Y612915D1*
X2042406Y616065D1*
X2041881Y618165D1*
X2040831Y621314D1*
X2040306Y623414D1*
X2039781Y624989D1*
X2035582D1*
X2035057Y623939D1*
X2034532Y621839D1*
X2032957Y617115D1*
X2032432Y615015D1*
X2030333Y608716D1*
X2029808Y606616D1*
X2028233Y601892D1*
Y600842D1*
X2027676Y600272D1*
X2027404Y600357D1*
X2027183Y600842D1*
Y602417D1*
X2026133Y607666D1*
X2025608Y609766D1*
X2024033Y617640D1*
X2023508Y619739D1*
X2022459Y624989D1*
X2017734D1*
G37*
G36*
X2055005Y561997D2*
Y556747D1*
X2060254D1*
Y561997D1*
X2055005D1*
G37*
G36*
X2102249D2*
Y558322D1*
X2108023Y557797D1*
Y524201D1*
X2102249Y523676D1*
Y520002D1*
X2118522D1*
Y523676D1*
X2112747Y524201D1*
Y557797D1*
X2118522Y558322D1*
Y561997D1*
X2102249D1*
G37*
G36*
X1977314Y560422D2*
Y552023D1*
X1967340Y551498D1*
Y547299D1*
X1977314Y546774D1*
Y528926D1*
X1976789Y528401D1*
Y526301D1*
X1975215Y524726D1*
X1974165Y524201D1*
X1972415Y523676D1*
X1970665D1*
X1968915Y524201D1*
X1967340Y524726D1*
Y520527D1*
X1967865Y520002D1*
X1970490Y519477D1*
X1975215D1*
X1976789Y520002D1*
X1978889Y521052D1*
X1979939Y522102D1*
X1980989Y523676D1*
X1981514Y525251D1*
X1982039Y527876D1*
Y546774D1*
X1985713Y547299D1*
Y551498D1*
X1982039Y552023D1*
Y560422D1*
X1977314D1*
G37*
G36*
X2022984Y547299D2*
X2022811Y546662D1*
X2022459Y546249D1*
X2021934Y545199D1*
X2021409Y543624D1*
X2020884Y540999D1*
Y532600D1*
X2021409Y529976D1*
X2021934Y528401D1*
X2023508Y525251D1*
X2024558Y523676D1*
X2026133Y522102D1*
X2027708Y521052D1*
X2029808Y520002D1*
X2031382Y519477D1*
X2036632D1*
X2039781Y520527D1*
X2040831Y521052D1*
X2041223Y521389D1*
X2041495Y521358D1*
X2041881Y521052D1*
Y508453D1*
X2046606D1*
Y551498D1*
X2041881D1*
Y548873D1*
X2041325Y548303D1*
X2041053Y548388D1*
X2040831Y548873D1*
X2039781Y549923D1*
X2038207Y550973D1*
X2036107Y552023D1*
X2034007Y552548D1*
X2029808D1*
X2028233Y552023D1*
X2026133Y550973D1*
X2023508Y548348D1*
X2022984Y547299D1*
X2030858D1*
X2032607Y547823D1*
X2034357D1*
X2036107Y547299D1*
X2037682Y546774D1*
X2039781Y545724D1*
X2040831Y544674D1*
X2041881Y544149D1*
Y525776D1*
X2039781Y524726D1*
X2038207Y524201D1*
X2036107Y523676D1*
X2034007D1*
X2031907Y524201D1*
X2029808Y525251D1*
X2027183Y527876D1*
Y528401D1*
X2026658Y529976D1*
X2026133Y532600D1*
X2025608Y533125D1*
Y538900D1*
X2026133Y539425D1*
X2026658Y542049D1*
X2027183Y543624D1*
X2027708Y544674D1*
Y545199D1*
X2028758Y546249D1*
X2030858Y547299D1*
X2022984D1*
G37*
G36*
X2078627Y552548D2*
X2077052Y552023D1*
X2074952Y550973D1*
X2073377Y549398D1*
X2072327Y547823D1*
X2071277Y544674D1*
Y520002D1*
X2076002D1*
X2076527Y543624D1*
X2077052Y545199D1*
X2077154Y545571D1*
X2077577Y546249D1*
X2079676Y547299D1*
X2081251Y547823D1*
X2082826D1*
X2085976Y546774D1*
X2088075Y545724D1*
X2088600Y545199D1*
X2089650Y544674D1*
X2090700Y543624D1*
Y520002D1*
X2095424D1*
Y551498D1*
X2090700D1*
Y548873D1*
X2090143Y548303D1*
X2089872Y548388D1*
X2089650Y548873D1*
X2089125Y549398D1*
X2085976Y551498D1*
X2082826Y552548D1*
X2078627D1*
G37*
G36*
X1990438Y551498D2*
Y520002D1*
X1995162D1*
Y522627D1*
X1995554Y522964D1*
X1995826Y522933D1*
X1996212Y522627D1*
X1998312Y521052D1*
X2001461Y519477D1*
X2003036Y518952D1*
X2007236D1*
X2008810Y519477D1*
X2010910Y520527D1*
X2013010Y522627D1*
X2014060Y524726D1*
X2014585Y526301D1*
X2015110Y529451D1*
Y551498D1*
X2010385D1*
X2009860Y530501D1*
X2009335Y527351D1*
Y526301D1*
X2007760Y524726D1*
X2006711Y524201D1*
X2004961Y523676D1*
X2003211D1*
X2001461Y524201D1*
X1999886Y524726D1*
X1997787Y525776D1*
X1997262Y526301D1*
X1996212Y526826D1*
X1995162Y527876D1*
Y551498D1*
X1990438D1*
G37*
G36*
X2055005D2*
Y516327D1*
X2055529Y514228D1*
X2056579Y512128D1*
X2059204Y509503D1*
X2061304Y508453D1*
X2063403Y507928D1*
X2068653D1*
X2069703Y508453D1*
Y512653D1*
X2069178D1*
X2067253Y512128D1*
X2065328D1*
X2063403Y512653D1*
X2061304Y513703D1*
Y514228D1*
X2060254Y516852D1*
X2059729Y517377D1*
Y546774D1*
X2065503Y547299D1*
Y551498D1*
X2055005D1*
G37*
G36*
X1913272Y490081D2*
X1911173Y487981D1*
X1908023Y483257D1*
X1904873Y476957D1*
X1903823Y473808D1*
X1903298Y471708D1*
X1902774Y468558D1*
Y456485D1*
X1903298Y453335D1*
X1903823Y451236D1*
X1904873Y448086D1*
X1908023Y441787D1*
X1909073Y440212D1*
X1909598Y439162D1*
X1911173Y437062D1*
X1913272Y434963D1*
X1919047D1*
X1915897Y438637D1*
X1913797Y441262D1*
X1912747Y442837D1*
X1910123Y448086D1*
X1908548Y452810D1*
X1908023Y454910D1*
X1907498Y458585D1*
X1906973Y459110D1*
Y465934D1*
X1907498Y466459D1*
X1908023Y470133D1*
X1908548Y472233D1*
X1910123Y476957D1*
X1912747Y482207D1*
X1915897Y486406D1*
X1919047Y490081D1*
X1913272D1*
G37*
G36*
X1966291D2*
X1970490Y485881D1*
Y485356D1*
X1972065Y483257D1*
X1972590Y482207D1*
X1973640Y480632D1*
X1975215Y477482D1*
X1976789Y472758D1*
X1977314Y470658D1*
X1977839Y468033D1*
X1978364Y467509D1*
Y457535D1*
X1977839Y457010D1*
X1977314Y454385D1*
X1976789Y452285D1*
X1975215Y447561D1*
X1973640Y444411D1*
X1972590Y442837D1*
X1972065Y441787D1*
X1970490Y439687D1*
X1966291Y434963D1*
X1972590D1*
X1973115Y435488D1*
X1976264Y439687D1*
X1976789Y440737D1*
X1977839Y442312D1*
X1980464Y447561D1*
X1981514Y450711D1*
X1982039Y452810D1*
X1982564Y455435D1*
X1983089Y460684D1*
Y464359D1*
X1982564Y469608D1*
X1982039Y472233D1*
X1981514Y474333D1*
X1980464Y477482D1*
X1977839Y482732D1*
X1976789Y484306D1*
X1976264Y485356D1*
X1973115Y489556D1*
X1972590Y490081D1*
X1966291D1*
G37*
G36*
X2085451Y489556D2*
X2083351Y489031D1*
X2080201Y487456D1*
X2078102Y485356D1*
X2077052Y483781D1*
X2076002Y480632D1*
Y475383D1*
X2076527Y473283D1*
X2077052Y471708D1*
X2078627Y468558D1*
X2079676Y466984D1*
X2081251Y464884D1*
X2094900Y451236D1*
X2074427Y450711D1*
Y446511D1*
X2100149D1*
Y451760D1*
X2089125Y463309D1*
X2086501Y466459D1*
X2084401Y469083D1*
X2083351Y470658D1*
X2082301Y472758D1*
X2081776Y474858D1*
X2081251Y475383D1*
Y480107D1*
X2081776Y480632D1*
Y481682D1*
X2083876Y483781D1*
X2085976Y484831D1*
X2087900Y485356D1*
X2089825D1*
X2091750Y484831D1*
X2093850Y484306D1*
X2095424Y483781D1*
X2097524Y482732D1*
X2098049Y482207D1*
X2099099Y481682D1*
Y486931D1*
X2098574Y487456D1*
X2097524Y487981D1*
X2095949Y488506D1*
X2093850Y489031D1*
X2091225Y489556D1*
X2085451D1*
G37*
G36*
X2138469D2*
X2136369Y489031D1*
X2133220Y487456D1*
X2131120Y485356D1*
X2130070Y483781D1*
X2129020Y480632D1*
Y475383D1*
X2129545Y473283D1*
X2130070Y471708D1*
X2131645Y468558D1*
X2132695Y466984D1*
X2134270Y464884D1*
X2147918Y451236D1*
X2127445Y450711D1*
Y446511D1*
X2153167D1*
Y451760D1*
X2142144Y463309D1*
X2139519Y466459D1*
X2137419Y469083D1*
X2136369Y470658D1*
X2135319Y472758D1*
X2134795Y474858D1*
X2134270Y475383D1*
Y480107D1*
X2134795Y480632D1*
Y481682D1*
X2136894Y483781D1*
X2138994Y484831D1*
X2140919Y485356D1*
X2142844D1*
X2144768Y484831D1*
X2146868Y484306D1*
X2148443Y483781D1*
X2150543Y482732D1*
X2151068Y482207D1*
X2152117Y481682D1*
Y486931D1*
X2151592Y487456D1*
X2150543Y487981D1*
X2148968Y488506D1*
X2146868Y489031D1*
X2144243Y489556D1*
X2138469D1*
G37*
G36*
X2004611Y488506D2*
X2005136Y487981D1*
Y486931D1*
X2005661Y485881D1*
X2012485Y465409D1*
X2013010Y464359D1*
X2018784Y447036D1*
X2019309Y446511D1*
X2025083D1*
X2031382Y465409D1*
X2031907Y466459D1*
X2038732Y486931D1*
X2039257Y487981D1*
Y488506D1*
X2033482D1*
X2024558Y461734D1*
X2024033Y459634D1*
X2022459Y454910D1*
X2022325Y454291D1*
X2021903Y453812D1*
X2021631Y453900D1*
X2021409Y454385D1*
X2018259Y463834D1*
X2017734Y465934D1*
X2010385Y487981D1*
X2009860Y488506D1*
X2004611D1*
G37*
G36*
X2046081Y481682D2*
Y465934D1*
X2040831Y465409D1*
Y461209D1*
X2046081Y460684D1*
Y446511D1*
X2050805D1*
Y460684D1*
X2069703Y461209D1*
Y467509D1*
X2066553Y471183D1*
X2062354Y475907D1*
X2055005Y484306D1*
X2050805Y488506D1*
X2046081D1*
Y481682D1*
X2050805D1*
X2051197Y482019D1*
X2051469Y481988D1*
X2051855Y481682D1*
X2055005Y478007D1*
X2062354Y469608D1*
X2066028Y465934D1*
X2060954Y465409D1*
X2055879D1*
X2050805Y465934D1*
Y481682D1*
X2046081D1*
G37*
G36*
X2168915Y488506D2*
Y450711D1*
X2161566Y450186D1*
Y446511D1*
X2181514D1*
Y450186D1*
X2174165Y450711D1*
Y479057D1*
X2181514Y479582D1*
Y482732D1*
X2177839Y483257D1*
X2176264Y483781D1*
X2174165Y484831D1*
Y485356D1*
X2173115Y488506D1*
X2168915D1*
G37*
G36*
X1941094Y481157D2*
Y467509D1*
X1926396Y466984D1*
Y462784D1*
X1941094Y462259D1*
Y448611D1*
X1945293D1*
Y462259D1*
X1959466Y462784D1*
Y466984D1*
X1945293Y467509D1*
Y481157D1*
X1941094D1*
G37*
G36*
X2105923Y466984D2*
Y462259D1*
X2121671D1*
Y466984D1*
X2105923D1*
G37*
M02*
