M48
INCH
T01C0.0118
T02C0.0191
T03C0.0354
T04C0.0394
T05C0.0433
T06C0.14
%
T01
X+024853Y+014822
X+025090Y+014820
X+025080Y+014475
X+024840Y+014475
X+024519Y+014470
X+024195Y+014573
X+023950Y+014850
X+023173Y+014600
X+022756Y+015220
X+022892Y+015896
X+022703Y+016172
X+022986Y+016469
X+023720Y+016623
X+023720Y+016183
X+024211Y+016183
X+024577Y+016172
X+024701Y+016663
X+024211Y+016663
X+024211Y+015682
X+023720Y+015682
X+024701Y+015682
X+024857Y+017527
X+025097Y+017527
X+025092Y+017857
X+024857Y+017857
X+024570Y+018010
X+024360Y+017715
X+022987Y+017467
X+024517Y+020337
X+024864Y+020408
X+025093Y+020408
X+025101Y+020723
X+024872Y+020731
X+024170Y+020597
X+023888Y+020743
X+023620Y+021487
X+023620Y+021763
X+023620Y+022038
X+023620Y+022353
X+023620Y+022629
X+024211Y+022668
X+024211Y+022353
X+024211Y+022038
X+024211Y+021763
X+024211Y+021487
X+024801Y+021487
X+024801Y+021802
X+024801Y+022393
X+024801Y+022668
X+024875Y+023433
X+025105Y+023433
X+025107Y+023763
X+024862Y+023763
X+024530Y+023895
X+024364Y+023605
X+023003Y+023378
X+022828Y+022326
X+022632Y+022078
X+022886Y+021797
X+022764Y+021464
X+022565Y+021160
X+019010Y+021220
X+018575Y+020945
X+018030Y+022065
X+018320Y+023895
X+015253Y+019963
X+015987Y+017268
X+016378Y+016378
X+018065Y+016160
X+017980Y+017265
X+018565Y+018010
X+019010Y+017265
X+019010Y+015220
X+018555Y+014600
X+016190Y+011503
X+015253Y+011440
X+016378Y+010315
X+018065Y+010440
X+018315Y+007440
X+011587Y+008962
X+010878Y+010503
X+009173Y+008458
X+012003Y+014440
X+012315Y+014990
X+011154Y+015469
X+010878Y+015900
X+010940Y+017315
X+010628Y+017948
X+009173Y+018435
X+011315Y+020128
X+010753Y+021128
X+011315Y+022128
X+010378Y+023128
X+008690Y+023128
X+006215Y+018923
X+012315Y+018435
X+013065Y+016378
X+013802Y+013435
X+026527Y+014117
X+027479Y+014085
X+027794Y+014085
X+027794Y+013731
X+027479Y+013731
X+027487Y+018277
X+027802Y+018277
X+027802Y+018631
X+027487Y+018631
X+027479Y+019637
X+027794Y+019637
X+027794Y+019991
X+027479Y+019991
X+026494Y+020011
X+026500Y+018269
X+026494Y+024243
X+027487Y+024183
X+027802Y+024183
X+027802Y+024537
X+027487Y+024537
X+026170Y+004980
T02
X+025851Y+011122
X+025401Y+009356
X+025403Y+008975
X+025395Y+008605
X+025399Y+008253
X+024203Y+008255
X+024199Y+008607
X+024206Y+008977
X+024205Y+009358
X+023493Y+010744
X+023464Y+011171
X+023461Y+011655
X+028315Y+012815
X+026009Y+006324
X+025993Y+005924
X+025991Y+005554
X+025563Y+005546
X+025560Y+005912
X+025569Y+006340
X+027565Y+004690
X+027957Y+005121
X+022755Y+005276
X+022738Y+005666
X+022720Y+006010
X+015940Y+005940
X+015690Y+008753
X+012690Y+012940
X+008940Y+010940
X+009815Y+008753
X+009815Y+005940
X+005190Y+006690
X+005753Y+012128
X+005190Y+012878
X+013003Y+021503
X+013378Y+022628
X+014253Y+020616
X+015565Y+020616
X+019457Y+021563
X+019837Y+021553
X+020217Y+021563
X+020197Y+022563
X+019817Y+022563
X+019457Y+022573
X+019477Y+016667
X+019837Y+016657
X+020217Y+016657
X+020237Y+015657
X+019857Y+015647
X+019477Y+015657
T03
X+008190Y+004440
X+008190Y+005440
X+007190Y+005440
X+007190Y+004440
X+007190Y+006440
X+008190Y+006440
X+008190Y+007440
X+007190Y+007440
X+007190Y+008440
X+008190Y+008440
X+008190Y+009440
X+007190Y+009440
X+007190Y+010440
X+008190Y+010440
X+008190Y+011440
X+007190Y+011440
X+007190Y+012440
X+008190Y+012440
X+008190Y+013440
X+008190Y+014440
X+007190Y+014440
X+007190Y+013440
X+007190Y+015440
X+008190Y+015440
X+008190Y+016440
X+008190Y+017440
X+007190Y+017440
X+007190Y+016440
X+007190Y+018440
X+008190Y+018440
X+008190Y+019440
X+007190Y+019440
X+007190Y+020440
X+008190Y+020440
X+008190Y+021440
X+008190Y+022440
X+007190Y+022440
X+007190Y+021440
X+007698Y+026315
X+008682Y+026315
X+010948Y+026315
X+011932Y+026315
X+014714Y+026315
X+015698Y+026315
X+016682Y+026315
X+017667Y+026315
X+019940Y+026060
X+020940Y+026060
X+021940Y+026060
X+017190Y+022440
X+017190Y+021440
X+017190Y+020440
X+017190Y+019440
X+017190Y+018440
X+017190Y+017440
X+017190Y+016440
X+017190Y+015440
X+017190Y+014440
X+017190Y+013440
X+017190Y+012440
X+017190Y+011440
X+017190Y+010440
X+017190Y+009440
X+017190Y+008440
X+017190Y+007440
X+017190Y+006440
X+017190Y+005440
X+017190Y+004440
X+022440Y+010690
X+022440Y+011690
X+022440Y+012690
X+029565Y+014714
X+029565Y+015698
X+029565Y+016682
X+029565Y+017667
X+029565Y+020601
X+029565Y+021585
X+029565Y+022570
X+029565Y+023554
T04
X+020560Y+009621G85X+020167Y+009621
X+022214Y+008637G85X+022214Y+008243
X+020560Y+007259G85X+020167Y+007259
X+014111Y+005198
X+010962Y+005198
T05
X+028778Y+018296
X+028778Y+024184
X+014084Y+025528
X+010318Y+025528
X+007068Y+025528
T06
X+005318Y+005318
X+005318Y+026184
X+030121Y+026184
X+030121Y+005318
T00
M30
