G04 DipTrace 4.1.0.0*
G04 TopSilk.gbr*
%MOIN*%
G04 #@! TF.FileFunction,Legend,Top*
G04 #@! TF.Part,Single*
%ADD10C,0.009843*%
%ADD13C,0.004724*%
%ADD23C,0.005906*%
%ADD26C,0.003937*%
%ADD43C,0.006*%
%ADD105C,0.004632*%
%ADD106C,0.00772*%
%FSLAX26Y26*%
G04*
G70*
G90*
G75*
G01*
G04 TopSilk*
%LPD*%
X1940823Y1580644D2*
D26*
Y1479857D1*
X2154602D1*
X2208539Y1533794D1*
Y1580644D1*
X1940823Y1646786D2*
Y1747573D1*
X2154602D1*
X2208539Y1693636D1*
Y1646786D1*
X550480Y783436D2*
D10*
X487551D1*
X550480Y775987D2*
X487551D1*
X550480D2*
Y799546D1*
X487551Y775987D2*
Y799546D1*
X1940823Y2174692D2*
D26*
Y2073904D1*
X2154602D1*
X2208539Y2127841D1*
Y2174692D1*
X1940823Y2240833D2*
Y2341621D1*
X2154602D1*
X2208539Y2287684D1*
Y2240833D1*
X2328630Y551866D2*
D13*
X2338079D1*
X2328630Y494386D2*
X2338079D1*
X2328630Y639421D2*
X2338079D1*
X2328630Y581941D2*
X2338079D1*
X2423144Y1189920D2*
X2432593D1*
X2423144Y1132440D2*
X2432593D1*
X2423144Y1103306D2*
X2432593D1*
X2423144Y1045825D2*
X2432593D1*
X2779269Y541581D2*
D26*
X2772970D1*
X2779269Y565203D2*
X2772970D1*
X2817197Y569432D2*
Y575731D1*
X2840819Y569432D2*
Y575731D1*
X479650Y1013387D2*
D10*
X459961D1*
Y1249612D1*
X479650D1*
X558382Y1013387D2*
X578071D1*
Y1249612D1*
X558382D1*
X479650Y1111833D2*
X558382D1*
G36*
X528854Y983865D2*
X528770Y982581D1*
X528519Y981318D1*
X528105Y980100D1*
X527536Y978946D1*
X526821Y977875D1*
X525973Y976908D1*
X525005Y976059D1*
X523935Y975344D1*
X522781Y974775D1*
X521562Y974361D1*
X520300Y974110D1*
X519016Y974026D1*
X517732Y974110D1*
X516469Y974361D1*
X515251Y974775D1*
X514096Y975344D1*
X513026Y976059D1*
X512059Y976908D1*
X511210Y977875D1*
X510495Y978946D1*
X509926Y980100D1*
X509512Y981318D1*
X509261Y982581D1*
X509177Y983865D1*
Y983883D1*
X509261Y985167D1*
X509512Y986430D1*
X509926Y987648D1*
X510495Y988802D1*
X511210Y989873D1*
X512059Y990840D1*
X513026Y991689D1*
X514096Y992404D1*
X515251Y992973D1*
X516469Y993387D1*
X517732Y993638D1*
X519016Y993722D1*
X520300Y993638D1*
X521562Y993387D1*
X522781Y992973D1*
X523935Y992404D1*
X525005Y991689D1*
X525973Y990840D1*
X526821Y989873D1*
X527536Y988803D1*
X528105Y987648D1*
X528519Y986430D1*
X528770Y985167D1*
X528854Y983883D1*
Y983865D1*
G37*
X2741749Y773247D2*
D10*
Y993325D1*
X2481907D1*
Y773247D1*
X2741749D1*
G36*
X2690568Y773050D2*
Y993522D1*
X2631513D1*
Y773050D1*
X2690568D1*
G37*
G36*
X2808678Y780924D2*
X2808443Y777327D1*
X2807739Y773791D1*
X2806581Y770377D1*
X2804986Y767144D1*
X2802983Y764147D1*
X2800607Y761437D1*
X2797896Y759060D1*
X2794899Y757057D1*
X2791666Y755463D1*
X2788252Y754304D1*
X2784717Y753601D1*
X2781119Y753365D1*
X2777522Y753601D1*
X2773987Y754304D1*
X2770573Y755463D1*
X2767340Y757057D1*
X2764343Y759060D1*
X2761632Y761437D1*
X2759255Y764147D1*
X2757253Y767144D1*
X2755658Y770377D1*
X2754499Y773791D1*
X2753796Y777327D1*
X2753560Y780924D1*
Y784861D1*
X2753796Y788458D1*
X2754499Y791994D1*
X2755658Y795407D1*
X2757253Y798640D1*
X2759255Y801638D1*
X2761632Y804348D1*
X2764343Y806725D1*
X2767340Y808728D1*
X2770573Y810322D1*
X2773987Y811481D1*
X2777522Y812184D1*
X2781119Y812420D1*
X2784717Y812184D1*
X2788252Y811481D1*
X2791666Y810322D1*
X2794899Y808728D1*
X2797896Y806725D1*
X2800607Y804348D1*
X2802983Y801638D1*
X2804986Y798640D1*
X2806581Y795407D1*
X2807739Y791994D1*
X2808443Y788458D1*
X2808678Y784861D1*
Y780924D1*
G37*
X769016Y1919715D2*
D10*
Y1927316D1*
Y468115D2*
Y2294016D1*
Y394016D2*
Y468115D1*
X869016Y394016D2*
X769016D1*
X869016D2*
Y2294016D1*
X769016D1*
X669016Y1919715D2*
Y1927316D1*
Y468115D2*
Y2294016D1*
Y394016D2*
Y468115D1*
X769016Y394016D2*
X669016D1*
X769016D2*
Y2294016D1*
X669016D1*
X1669016Y1919715D2*
Y1927316D1*
Y468115D2*
Y2294016D1*
Y394016D2*
Y468115D1*
X1769016Y394016D2*
X1669016D1*
X1769016D2*
Y2294016D1*
X1669016D1*
X2822657Y1374921D2*
X3049035D1*
Y1863110D1*
X2822657D1*
Y1374921D1*
X3015571Y1432008D2*
X3045098D1*
Y1510748D1*
X3015571D1*
Y1432008D1*
Y1727283D2*
X3045098D1*
Y1806024D1*
X3015571D1*
Y1727283D1*
X1289685Y2497657D2*
Y2724035D1*
X998346D1*
Y2497657D1*
X1289685D1*
X1232598Y2690571D2*
Y2720098D1*
X1153858D1*
Y2690571D1*
X1232598D1*
X1134173D2*
Y2720098D1*
X1055433D1*
Y2690571D1*
X1134173D1*
X964685Y2497657D2*
Y2724035D1*
X673346D1*
Y2497657D1*
X964685D1*
X907598Y2690571D2*
Y2720098D1*
X828858D1*
Y2690571D1*
X907598D1*
X809173D2*
Y2720098D1*
X730433D1*
Y2690571D1*
X809173D1*
X2213524Y767222D2*
Y422756D1*
X1859181D1*
Y426692D1*
Y422756D2*
Y989690D1*
X1965476D1*
X2107189D2*
X2213524D1*
Y920761D1*
X2822657Y1963668D2*
X3049035D1*
Y2451857D1*
X2822657D1*
Y1963668D1*
X3015571Y2020755D2*
X3045098D1*
Y2099495D1*
X3015571D1*
Y2020755D1*
Y2316030D2*
X3045098D1*
Y2394770D1*
X3015571D1*
Y2316030D1*
X2294018Y1019017D2*
X2194018Y1019014D1*
X2194008Y1319014D1*
X2294008Y1319017D2*
X2194008Y1319014D1*
X2294018Y1019017D2*
X2294008Y1319017D1*
X1863110Y2497657D2*
Y2724035D1*
X1374921D1*
Y2497657D1*
X1863110D1*
X1806024Y2690571D2*
Y2720098D1*
X1727283D1*
Y2690571D1*
X1806024D1*
X1510748D2*
Y2720098D1*
X1432008D1*
Y2690571D1*
X1510748D1*
X1944016Y2556016D2*
Y2656016D1*
X2244016D1*
Y2556016D2*
Y2656016D1*
X1944016Y2556016D2*
X2244016D1*
X2718127Y1010451D2*
Y1215176D1*
X2505529D1*
Y1010451D1*
X2718127D1*
G36*
X2745756Y1281516D2*
X2720756Y1300266D1*
Y1262765D1*
D1*
X2745756Y1281516D1*
G37*
Y1312765D2*
D23*
Y1250266D1*
X2808403Y1311043D2*
Y1251988D1*
X1809827Y1771521D2*
D13*
Y1766009D1*
X1786205Y1771521D2*
Y1766009D1*
X1021772Y2369705D2*
X1016260D1*
X1021772Y2393327D2*
X1016260D1*
X885009D2*
X890521D1*
X885009Y2369705D2*
X890521D1*
X2720264Y1778597D2*
D10*
X2696705D1*
X2720264Y1715668D2*
X2696705D1*
X2720264Y1518755D2*
X2696705D1*
X2720264Y1455825D2*
X2696705D1*
X2603760Y1293327D2*
D13*
X2609272D1*
X2603760Y1269705D2*
X2609272D1*
X2621352Y458902D2*
X2615840D1*
X2621352Y482524D2*
X2615840D1*
X2484272Y458902D2*
X2478760D1*
X2484272Y482524D2*
X2478760D1*
X2778982Y579420D2*
X2773470D1*
X2778982Y603042D2*
X2773470D1*
X2699315Y458993D2*
X2693803D1*
X2699315Y482615D2*
X2693803D1*
X2720264Y2367621D2*
D10*
X2696705D1*
X2720264Y2304692D2*
X2696705D1*
X2720264Y2111822D2*
X2696705D1*
X2720264Y2048892D2*
X2696705D1*
X915522Y1232205D2*
D13*
X910010D1*
X915522Y1255827D2*
X910010D1*
X1616260D2*
X1621772D1*
X1616260Y1232205D2*
X1621772D1*
X1616260Y1112076D2*
X1621772D1*
X1616260Y1088454D2*
X1621772D1*
X910010Y1218327D2*
X915522D1*
X910010Y1194705D2*
X915522D1*
X1621772Y1182205D2*
X1616260D1*
X1621772Y1205827D2*
X1616260D1*
X1621772Y1044705D2*
X1616260D1*
X1621772Y1068327D2*
X1616260D1*
X985544Y401484D2*
D10*
X1010518Y426504D1*
X935527Y401483D2*
X1610527Y401496D1*
X1610515Y1001496D1*
X935515Y1001483D1*
X935527Y401483D1*
X1010518Y426504D2*
X1535534Y426514D1*
X1560509Y401495D1*
X1260539Y426509D2*
X1260536Y601469D1*
X1210518Y576508D1*
X1260536Y601469D2*
X1310553Y576510D1*
G36*
X2533582Y1742209D2*
X2535214Y1742102D1*
X2536817Y1741783D1*
X2538366Y1741258D1*
X2539832Y1740535D1*
X2541192Y1739626D1*
X2542421Y1738548D1*
X2543499Y1737319D1*
X2544407Y1735959D1*
X2545131Y1734493D1*
X2545656Y1732945D1*
X2545975Y1731341D1*
X2546082Y1729709D1*
X2545975Y1728078D1*
X2545656Y1726474D1*
X2545131Y1724926D1*
X2544407Y1723459D1*
X2543499Y1722100D1*
X2542421Y1720870D1*
X2541192Y1719792D1*
X2539832Y1718884D1*
X2538366Y1718161D1*
X2536817Y1717635D1*
X2535214Y1717316D1*
X2533582Y1717209D1*
X2532695D1*
X2531063Y1717316D1*
X2529460Y1717635D1*
X2527911Y1718161D1*
X2526445Y1718884D1*
X2525085Y1719792D1*
X2523856Y1720870D1*
X2522778Y1722100D1*
X2521870Y1723459D1*
X2521146Y1724926D1*
X2520621Y1726474D1*
X2520302Y1728078D1*
X2520195Y1729709D1*
X2520302Y1731341D1*
X2520621Y1732945D1*
X2521146Y1734493D1*
X2521870Y1735959D1*
X2522778Y1737319D1*
X2523856Y1738548D1*
X2525085Y1739626D1*
X2526445Y1740535D1*
X2527911Y1741258D1*
X2529460Y1741783D1*
X2531063Y1742102D1*
X2532695Y1742209D1*
X2533582D1*
G37*
X2530830Y1700611D2*
D43*
Y1726957D1*
X2504484Y1507455D2*
X2530830D1*
X2311327Y1533804D2*
Y1507455D1*
Y1726957D2*
Y1700611D1*
Y1507455D2*
X2337677D1*
X2530830D2*
Y1533804D1*
Y1726957D2*
X2504484D1*
X2337677D2*
X2311327D1*
G36*
X2533582Y2332760D2*
X2535214Y2332654D1*
X2536817Y2332335D1*
X2538366Y2331809D1*
X2539832Y2331086D1*
X2541192Y2330177D1*
X2542421Y2329099D1*
X2543499Y2327870D1*
X2544407Y2326510D1*
X2545131Y2325044D1*
X2545656Y2323496D1*
X2545975Y2321892D1*
X2546082Y2320260D1*
X2545975Y2318629D1*
X2545656Y2317025D1*
X2545131Y2315477D1*
X2544407Y2314010D1*
X2543499Y2312651D1*
X2542421Y2311422D1*
X2541192Y2310344D1*
X2539832Y2309435D1*
X2538366Y2308712D1*
X2536817Y2308186D1*
X2535214Y2307867D1*
X2533582Y2307760D1*
X2532695D1*
X2531063Y2307867D1*
X2529460Y2308186D1*
X2527911Y2308712D1*
X2526445Y2309435D1*
X2525085Y2310344D1*
X2523856Y2311422D1*
X2522778Y2312651D1*
X2521870Y2314010D1*
X2521146Y2315477D1*
X2520621Y2317025D1*
X2520302Y2318629D1*
X2520195Y2320260D1*
X2520302Y2321892D1*
X2520621Y2323496D1*
X2521146Y2325044D1*
X2521870Y2326510D1*
X2522778Y2327870D1*
X2523856Y2329099D1*
X2525085Y2330177D1*
X2526445Y2331086D1*
X2527911Y2331809D1*
X2529460Y2332335D1*
X2531063Y2332654D1*
X2532695Y2332760D1*
X2533582D1*
G37*
X2530830Y2291162D2*
D43*
Y2317509D1*
X2504484Y2098006D2*
X2530830D1*
X2311327Y2124355D2*
Y2098006D1*
Y2317509D2*
Y2291162D1*
Y2098006D2*
X2337677D1*
X2530830D2*
Y2124355D1*
Y2317509D2*
X2504484D1*
X2337677D2*
X2311327D1*
X2638693Y689390D2*
D10*
X2510736D1*
Y502382D1*
X2638693D1*
Y689390D1*
G36*
X2520595D2*
X2521880Y689306D1*
X2523143Y689054D1*
X2524363Y688640D1*
X2525518Y688071D1*
X2526589Y687355D1*
X2527557Y686506D1*
X2528406Y685538D1*
X2529122Y684467D1*
X2529691Y683312D1*
X2530105Y682092D1*
X2530357Y680829D1*
X2530441Y679544D1*
X2530357Y678259D1*
X2530105Y676996D1*
X2529691Y675776D1*
X2529122Y674621D1*
X2528406Y673550D1*
X2527557Y672582D1*
X2526589Y671733D1*
X2525518Y671017D1*
X2524363Y670448D1*
X2523143Y670034D1*
X2521880Y669782D1*
X2520595Y669698D1*
X2520582D1*
X2519297Y669782D1*
X2518034Y670034D1*
X2516814Y670448D1*
X2515659Y671017D1*
X2514588Y671733D1*
X2513620Y672582D1*
X2512771Y673550D1*
X2512055Y674621D1*
X2511486Y675776D1*
X2511072Y676996D1*
X2510820Y678259D1*
X2510736Y679544D1*
X2510820Y680829D1*
X2511072Y682092D1*
X2511486Y683312D1*
X2512055Y684467D1*
X2512771Y685538D1*
X2513620Y686506D1*
X2514588Y687355D1*
X2515659Y688071D1*
X2516814Y688640D1*
X2518034Y689054D1*
X2519297Y689306D1*
X2520582Y689390D1*
X2520595D1*
G37*
G36*
X2599339D2*
X2550118D1*
Y669698D1*
X2599339D1*
Y689390D1*
G37*
X1181031Y2211193D2*
D10*
Y2014340D1*
X1307000Y2211193D2*
Y2014340D1*
X1181031D2*
X1307000D1*
X1181031Y2211193D2*
X1224328D1*
X1263703D2*
X1307000D1*
X1224328D2*
G03X1263703Y2211193I19688J1D01*
G01*
G36*
X3095424Y1758913D2*
Y1759569D1*
X3094768Y1760881D1*
X3093456Y1762850D1*
X3089519Y1766787D1*
X3085582Y1768755D1*
X3082301Y1769411D1*
X3078364D1*
X3075739Y1768755D1*
X3073771Y1768099D1*
X3071802Y1766787D1*
X3069178Y1764162D1*
X3067209Y1760225D1*
X3066553Y1758257D1*
X3065897Y1752351D1*
Y1736603D1*
X3118390D1*
Y1743165D1*
X3097393Y1743821D1*
Y1751039D1*
X3100018Y1753663D1*
X3101330Y1754320D1*
X3117734Y1767443D1*
X3118390Y1768099D1*
Y1776629D1*
X3115766Y1774661D1*
X3112485Y1772036D1*
X3108548Y1768755D1*
X3105267Y1766131D1*
X3101330Y1762850D1*
X3098049Y1760225D1*
X3096737Y1758913D1*
X3096041Y1758200D1*
X3095701Y1758307D1*
X3095424Y1758913D1*
X3090175D1*
Y1758257D1*
X3091487Y1755632D1*
X3092144Y1754976D1*
Y1743821D1*
X3085145Y1743165D1*
X3078145D1*
X3071146Y1743821D1*
Y1753663D1*
X3071802Y1754320D1*
X3072459Y1756944D1*
X3073115Y1758257D1*
Y1758913D1*
X3075083Y1760881D1*
X3076396Y1761537D1*
X3079458Y1762194D1*
X3082520D1*
X3085582Y1761537D1*
X3087550Y1760881D1*
X3088207Y1760225D1*
X3090175Y1758913D1*
X3095424D1*
G37*
G36*
X3071146Y1720855D2*
X3068522Y1718230D1*
X3067209Y1716262D1*
X3066553Y1714949D1*
X3065241Y1711012D1*
X3064585Y1706419D1*
Y1703138D1*
X3065241Y1699201D1*
X3065897Y1696577D1*
X3067865Y1692640D1*
X3069178Y1690671D1*
X3072459Y1687390D1*
X3074427Y1686078D1*
X3078364Y1684110D1*
X3082301Y1682797D1*
X3084926Y1682141D1*
X3099361D1*
X3102642Y1682797D1*
X3106579Y1684110D1*
X3109204Y1685422D1*
X3111173Y1686734D1*
X3113797Y1688703D1*
X3114453Y1689359D1*
X3116422Y1691984D1*
X3117734Y1693952D1*
X3118390Y1695921D1*
X3119047Y1697233D1*
X3119703Y1699858D1*
Y1709700D1*
X3119047Y1712325D1*
X3118390Y1714293D1*
X3117078Y1716918D1*
X3115766Y1718886D1*
X3111829Y1722823D1*
X3109860Y1724136D1*
X3105923Y1726104D1*
X3103955Y1726760D1*
X3101330Y1727417D1*
X3097393Y1728073D1*
X3087550D1*
X3083613Y1727417D1*
X3080989Y1726760D1*
X3079020Y1726104D1*
X3073771Y1723480D1*
X3071146Y1720855D1*
X3087550D1*
X3090831Y1721511D1*
X3094112D1*
X3097393Y1720855D1*
X3101330Y1720199D1*
X3103955Y1719543D1*
X3107892Y1717574D1*
X3108548Y1716918D1*
X3109860Y1716262D1*
X3111829Y1714293D1*
Y1713637D1*
X3113141Y1711669D1*
X3113797Y1709700D1*
X3114453Y1709044D1*
Y1700514D1*
X3113797Y1699858D1*
X3112485Y1697233D1*
Y1696577D1*
X3108548Y1692640D1*
X3104611Y1690671D1*
X3102642Y1690015D1*
X3099361Y1689359D1*
X3094768Y1688703D1*
X3090175D1*
X3085582Y1689359D1*
X3082301Y1690015D1*
X3080333Y1690671D1*
X3076396Y1692640D1*
X3075739Y1693296D1*
X3074427Y1693952D1*
X3073115Y1695264D1*
Y1695921D1*
X3071802Y1697889D1*
X3071146Y1699201D1*
X3070490Y1701826D1*
X3069834Y1702482D1*
Y1707075D1*
X3070490Y1707732D1*
X3071146Y1710356D1*
X3071802Y1712325D1*
Y1712981D1*
X3075739Y1716918D1*
X3080989Y1719543D1*
X3083613Y1720199D1*
X3087550Y1720855D1*
X3071146D1*
G37*
G36*
X3065897Y1678860D2*
Y1636865D1*
X3071802D1*
Y1653926D1*
X3118390Y1654582D1*
Y1661144D1*
X3071802Y1661800D1*
Y1678860D1*
X3065897D1*
G37*
G36*
X3071146Y1626367D2*
X3068522Y1623742D1*
X3067209Y1621774D1*
X3066553Y1620461D1*
X3065241Y1616524D1*
X3064585Y1611931D1*
Y1608650D1*
X3065241Y1604713D1*
X3065897Y1602089D1*
X3067865Y1598152D1*
X3069178Y1596183D1*
X3072459Y1592902D1*
X3074427Y1591590D1*
X3078364Y1589621D1*
X3082301Y1588309D1*
X3084926Y1587653D1*
X3099361D1*
X3102642Y1588309D1*
X3106579Y1589621D1*
X3109204Y1590934D1*
X3111173Y1592246D1*
X3113797Y1594215D1*
X3114453Y1594871D1*
X3116422Y1597495D1*
X3117734Y1599464D1*
X3118390Y1601432D1*
X3119047Y1602745D1*
X3119703Y1605369D1*
Y1615212D1*
X3119047Y1617837D1*
X3118390Y1619805D1*
X3117078Y1622430D1*
X3115766Y1624398D1*
X3111829Y1628335D1*
X3109860Y1629648D1*
X3105923Y1631616D1*
X3103955Y1632272D1*
X3101330Y1632928D1*
X3097393Y1633585D1*
X3087550D1*
X3083613Y1632928D1*
X3080989Y1632272D1*
X3079020Y1631616D1*
X3073771Y1628991D1*
X3071146Y1626367D1*
X3087550D1*
X3090831Y1627023D1*
X3094112D1*
X3097393Y1626367D1*
X3101330Y1625711D1*
X3103955Y1625054D1*
X3107892Y1623086D1*
X3108548Y1622430D1*
X3109860Y1621774D1*
X3111829Y1619805D1*
Y1619149D1*
X3113141Y1617180D1*
X3113797Y1615212D1*
X3114453Y1614556D1*
Y1606026D1*
X3113797Y1605369D1*
X3112485Y1602745D1*
Y1602089D1*
X3108548Y1598152D1*
X3104611Y1596183D1*
X3102642Y1595527D1*
X3099361Y1594871D1*
X3094768Y1594215D1*
X3090175D1*
X3085582Y1594871D1*
X3082301Y1595527D1*
X3080333Y1596183D1*
X3076396Y1598152D1*
X3075739Y1598808D1*
X3074427Y1599464D1*
X3073115Y1600776D1*
Y1601432D1*
X3071802Y1603401D1*
X3071146Y1604713D1*
X3070490Y1607338D1*
X3069834Y1607994D1*
Y1612587D1*
X3070490Y1613243D1*
X3071146Y1615868D1*
X3071802Y1617837D1*
Y1618493D1*
X3075739Y1622430D1*
X3080989Y1625054D1*
X3083613Y1625711D1*
X3087550Y1626367D1*
X3071146D1*
G37*
G36*
X3065897Y1578467D2*
Y1569936D1*
X3066553Y1569280D1*
X3070490Y1567312D1*
X3093456Y1557469D1*
X3095424Y1556813D1*
Y1556157D1*
X3093456Y1555501D1*
X3069834Y1545002D1*
X3065897Y1543033D1*
Y1533847D1*
X3118390D1*
Y1539753D1*
X3073115Y1540409D1*
X3074427Y1541065D1*
X3076396Y1541721D1*
X3080989Y1543690D1*
X3086894Y1546314D1*
X3091487Y1548283D1*
X3097393Y1550907D1*
X3101986Y1552876D1*
X3103298Y1553532D1*
X3103955Y1554188D1*
Y1558125D1*
X3100018Y1560094D1*
X3088207Y1565343D1*
X3083613Y1567312D1*
X3077708Y1569936D1*
X3075739Y1570592D1*
X3073115Y1571905D1*
X3118390Y1572561D1*
Y1578467D1*
X3065897D1*
G37*
G36*
X3092800Y1524661D2*
Y1505632D1*
X3098705D1*
Y1524661D1*
X3092800D1*
G37*
G36*
X3065897Y1501039D2*
Y1495133D1*
X3067865Y1493165D1*
X3074427Y1489228D1*
X3076396Y1487915D1*
X3079676Y1485947D1*
X3081645Y1484634D1*
X3084926Y1482666D1*
X3086238Y1482010D1*
X3086894Y1481354D1*
X3085582Y1480697D1*
X3069178Y1470855D1*
X3067209Y1469543D1*
X3065897Y1468230D1*
Y1461669D1*
X3066553D1*
X3069178Y1462981D1*
X3072459Y1464949D1*
X3074427Y1466262D1*
X3080989Y1470199D1*
X3082957Y1471511D1*
X3089519Y1475448D1*
X3091487Y1476760D1*
X3092189Y1477199D1*
X3092800Y1477417D1*
X3094112Y1476104D1*
X3097393Y1474136D1*
X3101330Y1471511D1*
X3104611Y1469543D1*
X3106579Y1468230D1*
X3109860Y1466262D1*
X3113797Y1463637D1*
X3117078Y1461669D1*
X3118390Y1461012D1*
Y1467574D1*
X3117078Y1468886D1*
X3115110Y1470199D1*
X3111829Y1472167D1*
X3109860Y1473480D1*
X3103298Y1477417D1*
X3101330Y1478729D1*
X3098705Y1480041D1*
X3097927Y1480779D1*
X3098130Y1481217D1*
X3098705Y1482010D1*
X3101330Y1483322D1*
X3107892Y1487259D1*
X3109860Y1488571D1*
X3116422Y1492509D1*
X3118390Y1493821D1*
Y1501039D1*
X3117734D1*
X3116422Y1500383D1*
X3114453Y1499070D1*
X3107892Y1495133D1*
X3105923Y1493821D1*
X3102642Y1491852D1*
X3100674Y1490540D1*
X3094112Y1486603D1*
X3093456Y1485947D1*
X3092581Y1485291D1*
X3091706D1*
X3090831Y1485947D1*
X3088863Y1487259D1*
X3085582Y1489228D1*
X3081645Y1491852D1*
X3078364Y1493821D1*
X3074427Y1496446D1*
X3071146Y1498414D1*
X3067209Y1501039D1*
X3065897D1*
G37*
G36*
X3095424Y2378991D2*
Y2379648D1*
X3094768Y2380960D1*
X3093456Y2382928D1*
X3089519Y2386865D1*
X3085582Y2388834D1*
X3082301Y2389490D1*
X3078364D1*
X3075739Y2388834D1*
X3073771Y2388178D1*
X3071802Y2386865D1*
X3069178Y2384241D1*
X3067209Y2380304D1*
X3066553Y2378335D1*
X3065897Y2372430D1*
Y2356682D1*
X3118390D1*
Y2363243D1*
X3097393Y2363900D1*
Y2371117D1*
X3100018Y2373742D1*
X3101330Y2374398D1*
X3117734Y2387522D1*
X3118390Y2388178D1*
Y2396708D1*
X3115766Y2394739D1*
X3112485Y2392115D1*
X3108548Y2388834D1*
X3105267Y2386209D1*
X3101330Y2382928D1*
X3098049Y2380304D1*
X3096737Y2378991D1*
X3096041Y2378279D1*
X3095701Y2378385D1*
X3095424Y2378991D1*
X3090175D1*
Y2378335D1*
X3091487Y2375711D1*
X3092144Y2375054D1*
Y2363900D1*
X3085145Y2363243D1*
X3078145D1*
X3071146Y2363900D1*
Y2373742D1*
X3071802Y2374398D1*
X3072459Y2377023D1*
X3073115Y2378335D1*
Y2378991D1*
X3075083Y2380960D1*
X3076396Y2381616D1*
X3079458Y2382272D1*
X3082520D1*
X3085582Y2381616D1*
X3087550Y2380960D1*
X3088207Y2380304D1*
X3090175Y2378991D1*
X3095424D1*
G37*
G36*
X3071146Y2340934D2*
X3068522Y2338309D1*
X3067209Y2336341D1*
X3066553Y2335028D1*
X3065241Y2331091D1*
X3064585Y2326498D1*
Y2323217D1*
X3065241Y2319280D1*
X3065897Y2316655D1*
X3067865Y2312718D1*
X3069178Y2310750D1*
X3072459Y2307469D1*
X3074427Y2306157D1*
X3078364Y2304188D1*
X3082301Y2302876D1*
X3084926Y2302220D1*
X3099361D1*
X3102642Y2302876D1*
X3106579Y2304188D1*
X3109204Y2305501D1*
X3111173Y2306813D1*
X3113797Y2308781D1*
X3114453Y2309438D1*
X3116422Y2312062D1*
X3117734Y2314031D1*
X3118390Y2315999D1*
X3119047Y2317312D1*
X3119703Y2319936D1*
Y2329779D1*
X3119047Y2332404D1*
X3118390Y2334372D1*
X3117078Y2336997D1*
X3115766Y2338965D1*
X3111829Y2342902D1*
X3109860Y2344215D1*
X3105923Y2346183D1*
X3103955Y2346839D1*
X3101330Y2347495D1*
X3097393Y2348152D1*
X3087550D1*
X3083613Y2347495D1*
X3080989Y2346839D1*
X3079020Y2346183D1*
X3073771Y2343558D1*
X3071146Y2340934D1*
X3087550D1*
X3090831Y2341590D1*
X3094112D1*
X3097393Y2340934D1*
X3101330Y2340278D1*
X3103955Y2339621D1*
X3107892Y2337653D1*
X3108548Y2336997D1*
X3109860Y2336341D1*
X3111829Y2334372D1*
Y2333716D1*
X3113141Y2331747D1*
X3113797Y2329779D1*
X3114453Y2329123D1*
Y2320592D1*
X3113797Y2319936D1*
X3112485Y2317312D1*
Y2316655D1*
X3108548Y2312718D1*
X3104611Y2310750D1*
X3102642Y2310094D1*
X3099361Y2309438D1*
X3094768Y2308781D1*
X3090175D1*
X3085582Y2309438D1*
X3082301Y2310094D1*
X3080333Y2310750D1*
X3076396Y2312718D1*
X3075739Y2313375D1*
X3074427Y2314031D1*
X3073115Y2315343D1*
Y2315999D1*
X3071802Y2317968D1*
X3071146Y2319280D1*
X3070490Y2321905D1*
X3069834Y2322561D1*
Y2327154D1*
X3070490Y2327810D1*
X3071146Y2330435D1*
X3071802Y2332404D1*
Y2333060D1*
X3075739Y2336997D1*
X3080989Y2339621D1*
X3083613Y2340278D1*
X3087550Y2340934D1*
X3071146D1*
G37*
G36*
X3065897Y2298939D2*
Y2256944D1*
X3071802D1*
Y2274005D1*
X3118390Y2274661D1*
Y2281222D1*
X3071802Y2281879D1*
Y2298939D1*
X3065897D1*
G37*
G36*
X3071146Y2246446D2*
X3068522Y2243821D1*
X3067209Y2241852D1*
X3066553Y2240540D1*
X3065241Y2236603D1*
X3064585Y2232010D1*
Y2228729D1*
X3065241Y2224792D1*
X3065897Y2222167D1*
X3067865Y2218230D1*
X3069178Y2216262D1*
X3072459Y2212981D1*
X3074427Y2211669D1*
X3078364Y2209700D1*
X3082301Y2208388D1*
X3084926Y2207732D1*
X3099361D1*
X3102642Y2208388D1*
X3106579Y2209700D1*
X3109204Y2211012D1*
X3111173Y2212325D1*
X3113797Y2214293D1*
X3114453Y2214949D1*
X3116422Y2217574D1*
X3117734Y2219543D1*
X3118390Y2221511D1*
X3119047Y2222823D1*
X3119703Y2225448D1*
Y2235291D1*
X3119047Y2237915D1*
X3118390Y2239884D1*
X3117078Y2242509D1*
X3115766Y2244477D1*
X3111829Y2248414D1*
X3109860Y2249726D1*
X3105923Y2251695D1*
X3103955Y2252351D1*
X3101330Y2253007D1*
X3097393Y2253663D1*
X3087550D1*
X3083613Y2253007D1*
X3080989Y2252351D1*
X3079020Y2251695D1*
X3073771Y2249070D1*
X3071146Y2246446D1*
X3087550D1*
X3090831Y2247102D1*
X3094112D1*
X3097393Y2246446D1*
X3101330Y2245789D1*
X3103955Y2245133D1*
X3107892Y2243165D1*
X3108548Y2242509D1*
X3109860Y2241852D1*
X3111829Y2239884D1*
Y2239228D1*
X3113141Y2237259D1*
X3113797Y2235291D1*
X3114453Y2234634D1*
Y2226104D1*
X3113797Y2225448D1*
X3112485Y2222823D1*
Y2222167D1*
X3108548Y2218230D1*
X3104611Y2216262D1*
X3102642Y2215606D1*
X3099361Y2214949D1*
X3094768Y2214293D1*
X3090175D1*
X3085582Y2214949D1*
X3082301Y2215606D1*
X3080333Y2216262D1*
X3076396Y2218230D1*
X3075739Y2218886D1*
X3074427Y2219543D1*
X3073115Y2220855D1*
Y2221511D1*
X3071802Y2223480D1*
X3071146Y2224792D1*
X3070490Y2227417D1*
X3069834Y2228073D1*
Y2232666D1*
X3070490Y2233322D1*
X3071146Y2235947D1*
X3071802Y2237915D1*
Y2238571D1*
X3075739Y2242509D1*
X3080989Y2245133D1*
X3083613Y2245789D1*
X3087550Y2246446D1*
X3071146D1*
G37*
G36*
X3065897Y2198545D2*
Y2190015D1*
X3066553Y2189359D1*
X3070490Y2187390D1*
X3093456Y2177548D1*
X3095424Y2176892D1*
Y2176236D1*
X3093456Y2175579D1*
X3069834Y2165081D1*
X3065897Y2163112D1*
Y2153926D1*
X3118390D1*
Y2159831D1*
X3073115Y2160488D1*
X3074427Y2161144D1*
X3076396Y2161800D1*
X3080989Y2163768D1*
X3086894Y2166393D1*
X3091487Y2168362D1*
X3097393Y2170986D1*
X3101986Y2172955D1*
X3103298Y2173611D1*
X3103955Y2174267D1*
Y2178204D1*
X3100018Y2180173D1*
X3088207Y2185422D1*
X3083613Y2187390D1*
X3077708Y2190015D1*
X3075739Y2190671D1*
X3073115Y2191984D1*
X3118390Y2192640D1*
Y2198545D1*
X3065897D1*
G37*
G36*
X3092800Y2144739D2*
Y2125711D1*
X3098705D1*
Y2144739D1*
X3092800D1*
G37*
G36*
X3065897Y2121774D2*
Y2115212D1*
X3067865Y2113900D1*
X3072459Y2111275D1*
X3082301Y2105369D1*
X3086894Y2102745D1*
X3089519Y2101432D1*
X3088863Y2100776D1*
X3087550Y2100120D1*
X3082957Y2097495D1*
X3079676Y2095527D1*
X3075083Y2092902D1*
X3071802Y2090934D1*
X3067209Y2088309D1*
X3065897Y2086997D1*
Y2080435D1*
X3066553D1*
X3067865Y2081091D1*
X3072459Y2083716D1*
X3079020Y2087653D1*
X3083613Y2090278D1*
X3090175Y2094215D1*
X3094768Y2096839D1*
X3118390Y2098152D1*
Y2104057D1*
X3094112Y2105369D1*
X3091487Y2106682D1*
X3090831Y2107338D1*
X3074427Y2117180D1*
X3072459Y2118493D1*
X3069178Y2120461D1*
X3066553Y2121774D1*
X3065897D1*
G37*
G36*
X1132695Y2461734D2*
Y2438637D1*
X1133220Y2436012D1*
X1133745Y2434438D1*
X1134795Y2432338D1*
X1136894Y2430238D1*
X1137944Y2429713D1*
X1140044Y2429188D1*
X1143718D1*
X1145293Y2429713D1*
X1147393Y2430763D1*
X1150018Y2432863D1*
X1150543Y2433388D1*
X1150651Y2433744D1*
X1151127Y2434178D1*
X1151554Y2434153D1*
X1152002Y2433715D1*
X1152117Y2433388D1*
X1153167Y2431813D1*
X1154217Y2430763D1*
X1156317Y2429713D1*
X1157892Y2429188D1*
X1161566D1*
X1163141Y2429713D1*
X1165241Y2430763D1*
X1166816Y2431813D1*
X1167865Y2432863D1*
X1168257Y2433200D1*
X1168529Y2433169D1*
X1168915Y2432863D1*
Y2430238D1*
X1173640D1*
Y2461734D1*
X1168915D1*
Y2438112D1*
X1167340Y2436537D1*
X1166291Y2436012D1*
X1165766Y2435488D1*
X1164716Y2434963D1*
X1163141Y2434438D1*
X1161741Y2433913D1*
X1160341D1*
X1158942Y2434438D1*
X1156842Y2435488D1*
Y2436012D1*
X1156317Y2437062D1*
X1155792Y2461734D1*
X1151068D1*
Y2438112D1*
X1149493Y2436537D1*
X1148443Y2436012D1*
X1147918Y2435488D1*
X1146868Y2434963D1*
X1143718Y2433913D1*
X1142144D1*
X1140569Y2434438D1*
X1139519Y2434963D1*
X1138469Y2436012D1*
Y2436537D1*
X1137944Y2440212D1*
X1137419Y2461734D1*
X1132695D1*
G37*
G36*
X1182039D2*
Y2430238D1*
X1186763D1*
Y2461734D1*
X1182039D1*
G37*
G36*
X1195162D2*
Y2418165D1*
X1199886D1*
Y2461734D1*
X1195162D1*
G37*
G36*
X1204611D2*
X1205034Y2461056D1*
X1205136Y2460684D1*
X1206186Y2459110D1*
X1206711Y2458060D1*
X1208810Y2454910D1*
X1209335Y2453860D1*
X1210385Y2452285D1*
X1210910Y2451236D1*
X1211960Y2449661D1*
X1212485Y2448611D1*
X1214585Y2445461D1*
X1215110Y2444411D1*
X1216159Y2442837D1*
X1216684Y2441787D1*
X1217734Y2440737D1*
Y2440212D1*
X1216684Y2439162D1*
X1216159Y2438112D1*
X1214060Y2434963D1*
X1213535Y2433913D1*
X1211435Y2430763D1*
X1210910Y2429713D1*
X1208810Y2426564D1*
X1208285Y2425514D1*
X1205136Y2420789D1*
X1204611Y2419739D1*
X1210385D1*
X1210910Y2420789D1*
X1213010Y2423939D1*
X1213535Y2424989D1*
X1214585Y2426564D1*
X1215110Y2427613D1*
X1216159Y2429188D1*
X1216684Y2430238D1*
X1218784Y2433388D1*
X1219309Y2434438D1*
Y2434963D1*
X1220359Y2436012D1*
X1220838Y2435812D1*
X1221296Y2435300D1*
X1221409Y2434963D1*
X1221934Y2433913D1*
X1222984Y2432338D1*
X1223508Y2431288D1*
X1224558Y2429713D1*
X1225083Y2428663D1*
X1226133Y2427089D1*
X1226658Y2426039D1*
X1227708Y2424464D1*
X1228233Y2423414D1*
X1229283Y2421839D1*
X1229808Y2420789D1*
X1230858Y2419739D1*
X1236632D1*
X1236107Y2420789D1*
X1234007Y2423939D1*
X1233482Y2424989D1*
X1232432Y2426564D1*
X1231907Y2427613D1*
X1230858Y2429188D1*
X1230333Y2430238D1*
X1229283Y2431813D1*
X1228758Y2432863D1*
X1226658Y2436012D1*
X1226133Y2437062D1*
X1225083Y2438637D1*
X1224558Y2439687D1*
X1223508Y2440737D1*
X1224558Y2441787D1*
X1225608Y2443362D1*
X1226133Y2444411D1*
X1228233Y2447561D1*
X1228758Y2448611D1*
X1230858Y2451760D1*
X1231382Y2452810D1*
X1233482Y2455960D1*
X1234007Y2457010D1*
X1236107Y2460159D1*
X1236632Y2461209D1*
Y2461734D1*
X1231382D1*
X1229283Y2458585D1*
X1228758Y2457535D1*
X1227708Y2455960D1*
X1227183Y2454910D1*
X1225083Y2451760D1*
X1224558Y2450711D1*
X1223508Y2449136D1*
X1222984Y2448086D1*
X1221934Y2446511D1*
X1221669Y2445985D1*
X1221364Y2445437D1*
X1220851Y2444890D1*
X1220581Y2444976D1*
X1220359Y2445461D1*
X1219309Y2447561D1*
X1218259Y2449136D1*
X1217734Y2450186D1*
X1216684Y2451760D1*
X1216159Y2452810D1*
X1215110Y2454385D1*
X1214585Y2455435D1*
X1213535Y2457010D1*
X1213010Y2458060D1*
X1211960Y2459634D1*
X1211435Y2460684D1*
X1210385Y2461734D1*
X1204611D1*
G37*
G36*
X1181514Y2424989D2*
Y2419739D1*
X1187288D1*
Y2424989D1*
X1181514D1*
G37*
G36*
X1434007Y2461734D2*
Y2458060D1*
X1441356Y2457535D1*
Y2419739D1*
X1445031D1*
X1445556Y2420789D1*
X1446081Y2422364D1*
Y2422889D1*
X1447131Y2423939D1*
X1448180Y2424464D1*
X1450280Y2424989D1*
X1453955Y2425514D1*
Y2428663D1*
X1446081Y2429188D1*
Y2457535D1*
X1453955Y2458060D1*
Y2461734D1*
X1434007D1*
G37*
G36*
X1469178Y2457010D2*
X1468128Y2455960D1*
X1466553Y2453860D1*
X1465503Y2452285D1*
X1464453Y2450186D1*
X1463403Y2447036D1*
X1462879Y2444411D1*
Y2436537D1*
X1463403Y2433913D1*
X1463928Y2432338D1*
X1466028Y2428138D1*
X1467078Y2426564D1*
X1469703Y2423939D1*
X1471277Y2422889D1*
X1474427Y2421314D1*
X1477577Y2420264D1*
X1480726Y2419739D1*
X1495424D1*
Y2461734D1*
X1480726D1*
X1477577Y2461209D1*
X1474427Y2460159D1*
X1471277Y2458585D1*
X1469178Y2457010D1*
X1480726D1*
X1484051Y2457535D1*
X1487375D1*
X1490700Y2457010D1*
Y2424464D1*
X1487550Y2423939D1*
X1484401D1*
X1481251Y2424464D1*
X1478627Y2424989D1*
X1477052Y2425514D1*
X1473902Y2427089D1*
X1470753Y2430238D1*
Y2430763D1*
X1469703Y2432338D1*
X1469178Y2433913D1*
X1468653Y2436537D1*
X1468128Y2437062D1*
Y2444411D1*
X1468653Y2444936D1*
X1469178Y2447561D1*
X1469703Y2449136D1*
X1470228Y2450186D1*
X1471802Y2452285D1*
X1471905Y2452658D1*
X1472327Y2453335D1*
X1473377Y2453860D1*
X1474427Y2454910D1*
X1476527Y2455960D1*
X1478102Y2456485D1*
X1480726Y2457010D1*
X1469178D1*
G37*
G36*
X1637682Y2461734D2*
Y2457535D1*
X1658679Y2457010D1*
X1656054Y2454385D1*
X1655005Y2453860D1*
X1647655Y2446511D1*
X1643981Y2442312D1*
X1641881Y2439162D1*
X1640831Y2437062D1*
X1639781Y2433913D1*
Y2427089D1*
X1640306Y2425514D1*
X1641356Y2423414D1*
X1643981Y2420789D1*
X1645556Y2419739D1*
X1647131Y2419215D1*
X1649230Y2418690D1*
X1655005D1*
X1657629Y2419215D1*
X1661304Y2420264D1*
X1662354Y2420789D1*
X1662879Y2421314D1*
Y2426564D1*
X1662354D1*
X1661829Y2426039D1*
X1658679Y2424464D1*
X1655529Y2423414D1*
X1653605Y2422889D1*
X1651680D1*
X1649755Y2423414D1*
X1648180Y2423939D1*
X1647655Y2424464D1*
X1646606Y2424989D1*
X1645983Y2425579D1*
X1646081Y2426039D1*
X1645556Y2427089D1*
X1645031Y2427613D1*
Y2433913D1*
X1645556Y2434438D1*
X1647655Y2438637D1*
X1649230Y2440737D1*
X1651855Y2443886D1*
X1663403Y2455960D1*
Y2461734D1*
X1637682D1*
G37*
G36*
X1675477Y2457010D2*
X1674427Y2455960D1*
X1672852Y2453860D1*
X1671802Y2452285D1*
X1670753Y2450186D1*
X1669703Y2447036D1*
X1669178Y2444411D1*
Y2436537D1*
X1669703Y2433913D1*
X1670228Y2432338D1*
X1672327Y2428138D1*
X1673377Y2426564D1*
X1676002Y2423939D1*
X1677577Y2422889D1*
X1680726Y2421314D1*
X1683876Y2420264D1*
X1687026Y2419739D1*
X1701724D1*
Y2461734D1*
X1687026D1*
X1683876Y2461209D1*
X1680726Y2460159D1*
X1677577Y2458585D1*
X1675477Y2457010D1*
X1687026D1*
X1690350Y2457535D1*
X1693675D1*
X1696999Y2457010D1*
Y2424464D1*
X1693850Y2423939D1*
X1690700D1*
X1687550Y2424464D1*
X1684926Y2424989D1*
X1683351Y2425514D1*
X1680201Y2427089D1*
X1677052Y2430238D1*
Y2430763D1*
X1676002Y2432338D1*
X1675477Y2433913D1*
X1674952Y2436537D1*
X1674427Y2437062D1*
Y2444411D1*
X1674952Y2444936D1*
X1675477Y2447561D1*
X1676002Y2449136D1*
X1676527Y2450186D1*
X1678102Y2452285D1*
X1678204Y2452658D1*
X1678627Y2453335D1*
X1679676Y2453860D1*
X1680726Y2454910D1*
X1682826Y2455960D1*
X1684401Y2456485D1*
X1687026Y2457010D1*
X1675477D1*
G37*
G36*
X756317Y2462784D2*
X753692Y2462259D1*
X750018Y2461209D1*
X747393Y2460159D1*
X746343Y2459634D1*
X745818Y2459110D1*
Y2440737D1*
X760516D1*
Y2445461D1*
X750543Y2445986D1*
Y2456485D1*
X751068Y2457010D1*
X752117Y2457535D1*
X755267Y2458060D1*
X757892Y2458585D1*
X760516D1*
X763141Y2458060D1*
X764716Y2457535D1*
X767865Y2455960D1*
X771015Y2452810D1*
Y2452285D1*
X772590Y2449136D1*
X773115Y2447036D1*
X773640Y2443362D1*
X774165Y2442837D1*
Y2438112D1*
X773640Y2437587D1*
X773115Y2434438D1*
X772590Y2432338D1*
X771015Y2429188D1*
Y2428663D1*
X767865Y2425514D1*
X766816Y2424989D1*
X766291Y2424464D1*
X763141Y2423414D1*
X760866Y2422889D1*
X758592D1*
X756317Y2423414D1*
X754217Y2423939D1*
X752642Y2424464D1*
X748443Y2426564D1*
X747393Y2427613D1*
X745818Y2428663D1*
Y2422364D1*
X746343Y2421839D1*
X748443Y2420789D1*
X753167Y2419215D1*
X755792Y2418690D1*
X762616D1*
X765241Y2419215D1*
X766816Y2419739D1*
X771015Y2421839D1*
X775215Y2426039D1*
X776264Y2427613D1*
X777839Y2430763D1*
X778364Y2432338D1*
X778889Y2434438D1*
X779414Y2438112D1*
Y2443362D1*
X778889Y2447036D1*
X778364Y2449136D1*
X777314Y2452285D1*
X776264Y2454385D1*
X775215Y2455960D1*
X772065Y2459110D1*
X770490Y2460159D1*
X767340Y2461734D1*
X765241Y2462259D1*
X762616Y2462784D1*
X756317D1*
G37*
G36*
X1082301Y2467509D2*
X1079676Y2466984D1*
X1076002Y2465934D1*
X1073377Y2464884D1*
X1072327Y2464359D1*
X1071802Y2463834D1*
Y2445461D1*
X1086501D1*
Y2450186D1*
X1076527Y2450711D1*
Y2461209D1*
X1077052Y2461734D1*
X1078102Y2462259D1*
X1081251Y2462784D1*
X1083876Y2463309D1*
X1086501D1*
X1089125Y2462784D1*
X1090700Y2462259D1*
X1093850Y2460684D1*
X1096999Y2457535D1*
Y2457010D1*
X1098574Y2453860D1*
X1099099Y2451760D1*
X1099624Y2448086D1*
X1100149Y2447561D1*
Y2442837D1*
X1099624Y2442312D1*
X1099099Y2439162D1*
X1098574Y2437062D1*
X1096999Y2433913D1*
Y2433388D1*
X1093850Y2430238D1*
X1092800Y2429713D1*
X1092275Y2429188D1*
X1089125Y2428138D1*
X1086851Y2427613D1*
X1084576D1*
X1082301Y2428138D1*
X1080201Y2428663D1*
X1078627Y2429188D1*
X1074427Y2431288D1*
X1073377Y2432338D1*
X1071802Y2433388D1*
Y2427089D1*
X1072327Y2426564D1*
X1074427Y2425514D1*
X1079152Y2423939D1*
X1081776Y2423414D1*
X1088600D1*
X1091225Y2423939D1*
X1092800Y2424464D1*
X1096999Y2426564D1*
X1101199Y2430763D1*
X1102249Y2432338D1*
X1103823Y2435488D1*
X1104348Y2437062D1*
X1104873Y2439162D1*
X1105398Y2442837D1*
Y2448086D1*
X1104873Y2451760D1*
X1104348Y2453860D1*
X1103298Y2457010D1*
X1102249Y2459110D1*
X1101199Y2460684D1*
X1098049Y2463834D1*
X1096474Y2464884D1*
X1093325Y2466459D1*
X1091225Y2466984D1*
X1088600Y2467509D1*
X1082301D1*
G37*
G36*
X1562616Y2462784D2*
X1559991Y2462259D1*
X1556317Y2461209D1*
X1553692Y2460159D1*
X1552642Y2459634D1*
X1552117Y2459110D1*
Y2440737D1*
X1566816D1*
Y2445461D1*
X1556842Y2445986D1*
Y2456485D1*
X1557367Y2457010D1*
X1558417Y2457535D1*
X1561566Y2458060D1*
X1564191Y2458585D1*
X1566816D1*
X1569440Y2458060D1*
X1571015Y2457535D1*
X1574165Y2455960D1*
X1577314Y2452810D1*
Y2452285D1*
X1578889Y2449136D1*
X1579414Y2447036D1*
X1579939Y2443362D1*
X1580464Y2442837D1*
Y2438112D1*
X1579939Y2437587D1*
X1579414Y2434438D1*
X1578889Y2432338D1*
X1577314Y2429188D1*
Y2428663D1*
X1574165Y2425514D1*
X1573115Y2424989D1*
X1572590Y2424464D1*
X1569440Y2423414D1*
X1567166Y2422889D1*
X1564891D1*
X1562616Y2423414D1*
X1560516Y2423939D1*
X1558942Y2424464D1*
X1554742Y2426564D1*
X1553692Y2427613D1*
X1552117Y2428663D1*
Y2422364D1*
X1552642Y2421839D1*
X1554742Y2420789D1*
X1559466Y2419215D1*
X1562091Y2418690D1*
X1568915D1*
X1571540Y2419215D1*
X1573115Y2419739D1*
X1577314Y2421839D1*
X1581514Y2426039D1*
X1582564Y2427613D1*
X1584138Y2430763D1*
X1584663Y2432338D1*
X1585188Y2434438D1*
X1585713Y2438112D1*
Y2443362D1*
X1585188Y2447036D1*
X1584663Y2449136D1*
X1583613Y2452285D1*
X1582564Y2454385D1*
X1581514Y2455960D1*
X1578364Y2459110D1*
X1576789Y2460159D1*
X1573640Y2461734D1*
X1571540Y2462259D1*
X1568915Y2462784D1*
X1562616D1*
G37*
G36*
X1756317D2*
X1753692Y2462259D1*
X1750018Y2461209D1*
X1747393Y2460159D1*
X1746343Y2459634D1*
X1745818Y2459110D1*
Y2440737D1*
X1760516D1*
Y2445461D1*
X1750543Y2445986D1*
Y2456485D1*
X1751068Y2457010D1*
X1752117Y2457535D1*
X1755267Y2458060D1*
X1757892Y2458585D1*
X1760516D1*
X1763141Y2458060D1*
X1764716Y2457535D1*
X1767865Y2455960D1*
X1771015Y2452810D1*
Y2452285D1*
X1772590Y2449136D1*
X1773115Y2447036D1*
X1773640Y2443362D1*
X1774165Y2442837D1*
Y2438112D1*
X1773640Y2437587D1*
X1773115Y2434438D1*
X1772590Y2432338D1*
X1771015Y2429188D1*
Y2428663D1*
X1767865Y2425514D1*
X1766816Y2424989D1*
X1766291Y2424464D1*
X1763141Y2423414D1*
X1760866Y2422889D1*
X1758592D1*
X1756317Y2423414D1*
X1754217Y2423939D1*
X1752642Y2424464D1*
X1748443Y2426564D1*
X1747393Y2427613D1*
X1745818Y2428663D1*
Y2422364D1*
X1746343Y2421839D1*
X1748443Y2420789D1*
X1753167Y2419215D1*
X1755792Y2418690D1*
X1762616D1*
X1765241Y2419215D1*
X1766816Y2419739D1*
X1771015Y2421839D1*
X1775215Y2426039D1*
X1776264Y2427613D1*
X1777839Y2430763D1*
X1778364Y2432338D1*
X1778889Y2434438D1*
X1779414Y2438112D1*
Y2443362D1*
X1778889Y2447036D1*
X1778364Y2449136D1*
X1777314Y2452285D1*
X1776264Y2454385D1*
X1775215Y2455960D1*
X1772065Y2459110D1*
X1770490Y2460159D1*
X1767340Y2461734D1*
X1765241Y2462259D1*
X1762616Y2462784D1*
X1756317D1*
G37*
G36*
X1985713Y2734700D2*
X1983089Y2734175D1*
X1979414Y2733125D1*
X1976789Y2732075D1*
X1975739Y2731551D1*
X1975215Y2731026D1*
Y2712653D1*
X1989913D1*
Y2717377D1*
X1979939Y2717902D1*
Y2728401D1*
X1980464Y2728926D1*
X1981514Y2729451D1*
X1984663Y2729976D1*
X1987288Y2730501D1*
X1989913D1*
X1992537Y2729976D1*
X1994112Y2729451D1*
X1997262Y2727876D1*
X2000411Y2724726D1*
Y2724201D1*
X2001986Y2721052D1*
X2002511Y2718952D1*
X2003036Y2715278D1*
X2003561Y2714753D1*
Y2710028D1*
X2003036Y2709503D1*
X2002511Y2706354D1*
X2001986Y2704254D1*
X2000411Y2701104D1*
Y2700579D1*
X1997262Y2697430D1*
X1996212Y2696905D1*
X1995687Y2696380D1*
X1992537Y2695330D1*
X1990263Y2694805D1*
X1987988D1*
X1985713Y2695330D1*
X1983613Y2695855D1*
X1982039Y2696380D1*
X1977839Y2698480D1*
X1976789Y2699530D1*
X1975215Y2700579D1*
Y2694280D1*
X1975739Y2693755D1*
X1977839Y2692705D1*
X1982564Y2691131D1*
X1985188Y2690606D1*
X1992012D1*
X1994637Y2691131D1*
X1996212Y2691655D1*
X2000411Y2693755D1*
X2004611Y2697955D1*
X2005661Y2699530D1*
X2007236Y2702679D1*
X2007760Y2704254D1*
X2008285Y2706354D1*
X2008810Y2710028D1*
Y2715278D1*
X2008285Y2718952D1*
X2007760Y2721052D1*
X2006711Y2724201D1*
X2005661Y2726301D1*
X2004611Y2727876D1*
X2001461Y2731026D1*
X1999886Y2732075D1*
X1996737Y2733650D1*
X1994637Y2734175D1*
X1992012Y2734700D1*
X1985713D1*
G37*
G36*
X2106973D2*
X2104873Y2734175D1*
X2103298Y2733650D1*
X2101199Y2732600D1*
X2098049Y2729451D1*
X2096474Y2726301D1*
X2095949Y2724726D1*
X2095424Y2722627D1*
Y2718427D1*
X2095949Y2715802D1*
X2097524Y2712653D1*
X2100149Y2710028D1*
X2103298Y2708453D1*
X2105923Y2707928D1*
X2113797Y2707404D1*
Y2696380D1*
X2095949Y2695855D1*
Y2691655D1*
X2118522D1*
Y2713178D1*
X2117997D1*
X2114847Y2712653D1*
X2112222Y2712128D1*
X2109598D1*
X2106973Y2712653D1*
X2104873Y2713178D1*
X2103823Y2713703D1*
X2101724Y2715802D1*
Y2716327D1*
X2101199Y2717902D1*
X2100674Y2718427D1*
Y2723152D1*
X2101199Y2723676D1*
X2101724Y2725251D1*
X2102249Y2726301D1*
Y2726826D1*
X2104348Y2728926D1*
X2105398Y2729451D1*
X2106973Y2729976D1*
X2108898Y2730501D1*
X2110823D1*
X2112747Y2729976D1*
X2117472Y2728401D1*
X2119571Y2727351D1*
X2120096Y2726826D1*
X2120621D1*
Y2732075D1*
X2120096Y2732600D1*
X2119047Y2733125D1*
X2115897Y2734175D1*
X2112747Y2734700D1*
X2106973D1*
G37*
G36*
X2075477Y2733650D2*
X2075304Y2733013D1*
X2074952Y2732600D1*
X2073377Y2727876D1*
X2072852Y2726826D1*
X2071802Y2723676D1*
X2071277Y2722627D1*
X2070228Y2719477D1*
X2069703Y2718427D1*
X2068653Y2715278D1*
X2068128Y2714228D1*
X2067078Y2711078D1*
X2066553Y2710028D1*
X2065503Y2706879D1*
X2064978Y2705829D1*
X2063928Y2702679D1*
Y2702154D1*
X2068653D1*
X2069178Y2702679D1*
X2071277Y2708978D1*
X2071802Y2710028D1*
X2074952Y2719477D1*
X2075477Y2720527D1*
X2077052Y2725251D1*
X2077138Y2725657D1*
X2077459Y2726088D1*
X2077718Y2726075D1*
X2078102Y2725776D1*
X2080201Y2719477D1*
X2080726Y2718427D1*
X2083876Y2708978D1*
X2084401Y2707928D1*
X2085976Y2703204D1*
X2086501Y2702154D1*
X2091750D1*
X2090700Y2705304D1*
X2090175Y2706354D1*
X2089125Y2709503D1*
X2088600Y2710553D1*
X2087026Y2715278D1*
X2086501Y2716327D1*
X2085451Y2719477D1*
X2084926Y2720527D1*
X2083876Y2723676D1*
X2083351Y2724726D1*
X2081776Y2729451D1*
X2081251Y2730501D1*
X2080201Y2733650D1*
X2075477D1*
G37*
G36*
X2179939Y2736275D2*
X2177839Y2735750D1*
X2176264Y2735225D1*
X2175215Y2734700D1*
X2173640Y2733650D1*
X2171015Y2731026D1*
X2169440Y2727876D1*
X2168915Y2726301D1*
Y2720002D1*
X2169440Y2718427D1*
X2169965Y2717377D1*
X2171015Y2715802D1*
X2172065Y2714753D1*
X2173640Y2713703D1*
X2176789Y2712653D1*
X2177314Y2712128D1*
X2176264Y2711603D1*
X2174690Y2711078D1*
X2172590Y2709503D1*
X2172065Y2708978D1*
X2170490Y2706879D1*
X2169965Y2705304D1*
X2169440Y2703204D1*
Y2701104D1*
X2169965Y2699005D1*
X2170490Y2697430D1*
X2172065Y2695330D1*
X2174165Y2693755D1*
X2175215Y2693230D1*
X2176789Y2692705D1*
X2178889Y2692180D1*
X2185188D1*
X2187813Y2692705D1*
X2189913Y2693230D1*
X2191487Y2693755D1*
X2192537Y2694280D1*
X2193062Y2694805D1*
Y2700054D1*
X2192537D1*
X2192012Y2699530D1*
X2188863Y2697955D1*
X2185713Y2696905D1*
X2183613Y2696380D1*
X2181514D1*
X2179414Y2696905D1*
X2177839Y2697430D1*
X2175215Y2700054D1*
Y2701104D1*
X2174690Y2701629D1*
Y2704254D1*
X2175215Y2704779D1*
X2175739Y2706354D1*
Y2706879D1*
X2177839Y2708978D1*
X2178889Y2709503D1*
X2180989Y2710028D1*
X2185188Y2710553D1*
Y2714753D1*
X2179414Y2715278D1*
X2177839Y2715802D1*
X2176789Y2716327D1*
X2174690Y2718427D1*
Y2718952D1*
X2174165Y2719477D1*
Y2725776D1*
X2174690Y2726301D1*
X2175739Y2728401D1*
Y2728926D1*
X2176789Y2729976D1*
X2178889Y2731026D1*
X2180464Y2731551D1*
X2182389Y2732075D1*
X2184313D1*
X2186238Y2731551D1*
X2188338Y2731026D1*
X2189913Y2730501D1*
X2194112Y2728401D1*
Y2733650D1*
X2193587Y2734175D1*
X2192537Y2734700D1*
X2190963Y2735225D1*
X2188863Y2735750D1*
X2186238Y2736275D1*
X2179939D1*
G37*
G36*
X2205661Y2730501D2*
X2204611Y2729451D1*
X2203036Y2727351D1*
X2201986Y2725776D1*
X2200936Y2723676D1*
X2199886Y2720527D1*
X2199361Y2717902D1*
Y2710028D1*
X2199886Y2707404D1*
X2200411Y2705829D1*
X2202511Y2701629D1*
X2203561Y2700054D1*
X2206186Y2697430D1*
X2207760Y2696380D1*
X2210910Y2694805D1*
X2214060Y2693755D1*
X2217209Y2693230D1*
X2231907D1*
Y2735225D1*
X2217209D1*
X2214060Y2734700D1*
X2210910Y2733650D1*
X2207760Y2732075D1*
X2205661Y2730501D1*
X2217209D1*
X2220534Y2731026D1*
X2223858D1*
X2227183Y2730501D1*
Y2697955D1*
X2224033Y2697430D1*
X2220884D1*
X2217734Y2697955D1*
X2215110Y2698480D1*
X2213535Y2699005D1*
X2210385Y2700579D1*
X2207236Y2703729D1*
Y2704254D1*
X2206186Y2705829D1*
X2205661Y2707404D1*
X2205136Y2710028D1*
X2204611Y2710553D1*
Y2717902D1*
X2205136Y2718427D1*
X2205661Y2721052D1*
X2206186Y2722627D1*
X2206711Y2723676D1*
X2208285Y2725776D1*
X2208387Y2726148D1*
X2208810Y2726826D1*
X2209860Y2727351D1*
X2210910Y2728401D1*
X2213010Y2729451D1*
X2214585Y2729976D1*
X2217209Y2730501D1*
X2205661D1*
G37*
G36*
X421409Y2382075D2*
X419834Y2380501D1*
X419047Y2378926D1*
X418259Y2376564D1*
X417472Y2372627D1*
Y2369477D1*
X418259Y2364753D1*
X420621Y2360028D1*
X423771Y2356879D1*
X426133Y2355304D1*
X429283Y2353729D1*
X431645Y2352942D1*
X434795Y2352154D1*
X438732Y2351367D1*
X462354D1*
X466291Y2352154D1*
X469440Y2352942D1*
X471802Y2353729D1*
X476527Y2356091D1*
X478889Y2357666D1*
X479676Y2358453D1*
X481251Y2360816D1*
X482826Y2363965D1*
X483613Y2366327D1*
Y2375776D1*
X482826Y2378138D1*
X481251Y2381288D1*
X477314Y2385225D1*
X474952Y2386800D1*
X473377Y2387587D1*
X468653Y2389162D1*
X465503Y2389949D1*
X459991Y2390737D1*
X441881D1*
X436369Y2389949D1*
X433220Y2389162D1*
X428495Y2387587D1*
X425346Y2386012D1*
X421409Y2382075D1*
X438732D1*
X446606Y2382863D1*
X454480D1*
X462354Y2382075D1*
X467865Y2381288D1*
X472590Y2379713D1*
X473377Y2378926D1*
X474952Y2378138D1*
X475586Y2377122D1*
X475739Y2376564D1*
X476527Y2374989D1*
X477314Y2374201D1*
Y2367115D1*
X476527Y2366327D1*
Y2365540D1*
X474165Y2363178D1*
X469440Y2360816D1*
X465503Y2360028D1*
X455792Y2359241D1*
X446081D1*
X436369Y2360028D1*
X432432Y2360816D1*
X430070Y2361603D1*
X428495Y2362390D1*
X424558Y2366327D1*
Y2367902D1*
X423771Y2368690D1*
Y2372627D1*
X424558Y2373414D1*
X425346Y2375776D1*
Y2376564D1*
X427708Y2378926D1*
X429283Y2379713D1*
X434007Y2381288D1*
X438732Y2382075D1*
X421409D1*
G37*
G36*
X471015Y2337981D2*
Y2329320D1*
X471802Y2328532D1*
X482039D1*
Y2337981D1*
X471015D1*
G37*
G36*
X475739Y2315934D2*
Y2286012D1*
X474905Y2285157D1*
X474497Y2285285D1*
X474165Y2286012D1*
X456054Y2304123D1*
X452117Y2307272D1*
X447393Y2310422D1*
X445818Y2311209D1*
X443456Y2311997D1*
X440306Y2312784D1*
X430070D1*
X427708Y2311997D1*
X424558Y2310422D1*
X420621Y2306485D1*
X419047Y2303335D1*
X418259Y2300973D1*
X417472Y2296249D1*
Y2293099D1*
X418259Y2287587D1*
X419047Y2284438D1*
X420621Y2279713D1*
X421409Y2278926D1*
X429283D1*
X426133Y2285225D1*
X425346Y2287587D1*
X424558Y2290737D1*
X423771Y2291524D1*
Y2296249D1*
X424558Y2297036D1*
X425346Y2299398D1*
Y2300186D1*
X428495Y2303335D1*
X430070Y2304123D1*
X433745Y2304910D1*
X437419D1*
X441094Y2304123D1*
X443456Y2303335D1*
X446606Y2301760D1*
X447393Y2300973D1*
X449755Y2299398D1*
X452905Y2297036D1*
X458417Y2292312D1*
X474165Y2277351D1*
X482039D1*
Y2315934D1*
X475739D1*
G37*
G36*
X419047Y2271839D2*
Y2264753D1*
X419834Y2263965D1*
X471802Y2246642D1*
X470228Y2245855D1*
X434795Y2234044D1*
X431645Y2233257D1*
X419834Y2229320D1*
X419047Y2228532D1*
Y2220658D1*
X420621D1*
X430070Y2223808D1*
X457629Y2233257D1*
X480464Y2241131D1*
X482039Y2241918D1*
Y2250579D1*
X478889Y2252154D1*
X423771Y2271052D1*
X421409Y2271839D1*
X419047D1*
G37*
G36*
X435582Y2191524D2*
X434795Y2190737D1*
Y2188375D1*
X435582Y2185225D1*
X436369Y2182863D1*
X437157Y2181288D1*
X438732Y2178926D1*
X441881Y2175776D1*
X435582Y2174989D1*
X434795Y2174201D1*
Y2167902D1*
X435582Y2167115D1*
X482039D1*
Y2174989D1*
X447393Y2176564D1*
X445031Y2178926D1*
Y2179713D1*
X443456Y2184438D1*
X442669Y2191524D1*
X435582D1*
G37*
G36*
X436369Y2151367D2*
X436111Y2150412D1*
X435582Y2149792D1*
X434007Y2146642D1*
X433220Y2141918D1*
Y2138768D1*
X434007Y2134044D1*
X434795Y2131682D1*
X436369Y2128532D1*
X442669Y2122233D1*
X447393Y2119871D1*
X450543Y2119083D1*
X454480Y2118296D1*
X463141D1*
X467078Y2119083D1*
X469440Y2119871D1*
X474165Y2122233D1*
X479676Y2127745D1*
X481251Y2130894D1*
X482826Y2135619D1*
Y2147430D1*
X482039Y2150579D1*
X480464Y2155304D1*
X479676Y2156879D1*
X478889Y2157666D1*
X471802D1*
Y2156879D1*
X473377Y2154516D1*
X474165Y2152942D1*
X475739Y2148217D1*
X476527Y2147430D1*
Y2137194D1*
X475739Y2136406D1*
X474952Y2134044D1*
Y2133257D1*
X470228Y2128532D1*
X468653Y2127745D1*
X466291Y2126957D1*
X463666Y2126170D1*
X461041D1*
X458417Y2126957D1*
Y2159241D1*
X455267D1*
X447393Y2158453D1*
X445031Y2157666D1*
X440306Y2155304D1*
X436369Y2151367D1*
X451330D1*
X451918Y2151872D1*
X452326Y2151826D1*
X452905Y2151367D1*
Y2126957D1*
X451330Y2126170D1*
X449755D1*
X443456Y2129320D1*
X441094Y2131682D1*
Y2132469D1*
X440306Y2134044D1*
X439519Y2136406D1*
X438732Y2137194D1*
Y2141918D1*
X439519Y2142705D1*
X441094Y2146642D1*
X441247Y2147201D1*
X441881Y2148217D1*
X443456Y2149005D1*
X444243Y2149792D1*
X446606Y2150579D1*
X451330Y2151367D1*
X436369D1*
G37*
G36*
X463928Y2112784D2*
X460779Y2111209D1*
X458417Y2108847D1*
X456054Y2104123D1*
X455267Y2100973D1*
X454480Y2097036D1*
X453692Y2093886D1*
X452905Y2091524D1*
Y2090737D1*
X450543Y2088375D1*
X448180Y2087587D1*
X447131Y2086800D1*
X446081D1*
X441881Y2089949D1*
X440947Y2090835D1*
X441094Y2091524D1*
X440306Y2093886D1*
X439519Y2094674D1*
Y2099398D1*
X440306Y2100186D1*
X441094Y2104123D1*
X441881Y2106485D1*
X444243Y2111209D1*
X436369D1*
X435582Y2109634D1*
X434795Y2107272D1*
X434007Y2104123D1*
X433220Y2098611D1*
Y2095461D1*
X434007Y2090737D1*
X434795Y2088375D1*
X435582Y2086800D1*
X437157Y2084438D1*
X439519Y2082075D1*
X441881Y2080501D1*
X444243Y2079713D1*
X450543D1*
X452905Y2080501D1*
X456054Y2082075D1*
X457629Y2083650D1*
X459991Y2088375D1*
X460779Y2090737D1*
X461566Y2093886D1*
X462354Y2097823D1*
X463928Y2102548D1*
X464082Y2103106D1*
X464716Y2104123D1*
X466291Y2104910D1*
X468390Y2105697D1*
X470490D1*
X472590Y2104910D1*
X474165Y2104123D1*
X474799Y2103106D1*
X474952Y2102548D1*
X475739Y2100973D1*
X476527Y2100186D1*
Y2090737D1*
X475739Y2089949D1*
X474165Y2085225D1*
X473377Y2083650D1*
X471015Y2080501D1*
Y2079713D1*
X478889D1*
X479676Y2080501D1*
X481251Y2083650D1*
X482039Y2086012D1*
X482826Y2089162D1*
Y2100973D1*
X482039Y2103335D1*
X480464Y2106485D1*
X478889Y2108847D1*
X477314Y2110422D1*
X472590Y2112784D1*
X463928D1*
G37*
G36*
X451330Y2062390D2*
X452117Y2061603D1*
Y2052942D1*
X452905Y2048217D1*
X453692Y2045068D1*
X454480Y2042705D1*
X456054Y2039556D1*
X459991Y2035619D1*
X463141Y2034044D1*
X466291Y2033257D1*
X471802D1*
X476527Y2034831D1*
X478889Y2036406D1*
X481251Y2038768D1*
X483613Y2043493D1*
Y2052942D1*
X480464Y2059241D1*
X478102Y2061603D1*
Y2062390D1*
X482039Y2063178D1*
Y2070264D1*
X444243D1*
X441881Y2069477D1*
X440306Y2068690D1*
X436369Y2064753D1*
X434795Y2061603D1*
X434007Y2059241D1*
X433220Y2053729D1*
Y2049792D1*
X434007Y2043493D1*
X434795Y2039556D1*
X435582Y2037194D1*
X442669D1*
Y2038768D1*
X441094Y2043493D1*
X440306Y2048217D1*
X439519Y2049005D1*
Y2054516D1*
X440306Y2055304D1*
X441094Y2058453D1*
Y2059241D1*
X443456Y2061603D1*
X445031Y2062390D1*
X447131Y2063178D1*
X449230D1*
X451330Y2062390D1*
X456842D1*
X461829Y2063178D1*
X466816D1*
X471802Y2062390D1*
X474952Y2059241D1*
Y2058453D1*
X476527Y2055304D1*
X477314Y2054516D1*
Y2046642D1*
X476527Y2045855D1*
X476133Y2045068D1*
X475669Y2044244D1*
X474946Y2043490D1*
X473377Y2041918D1*
X470228Y2041131D1*
X467078D1*
X463928Y2041918D1*
X459991Y2045855D1*
Y2046642D1*
X459204Y2049005D1*
X458417Y2052942D1*
X457629Y2060816D1*
X456842Y2062390D1*
X451330D1*
G37*
G36*
X474952Y2030107D2*
Y2002548D1*
X419047Y2001760D1*
Y1993886D1*
X482039D1*
Y2030107D1*
X474952D1*
G37*
G36*
X447393Y1953729D2*
X443456Y1952942D1*
X441094Y1952154D1*
X438732Y1950579D1*
X435582Y1947430D1*
X434007Y1944280D1*
X433220Y1940343D1*
Y1937981D1*
X434007Y1934044D1*
X436369Y1929320D1*
X437944Y1926957D1*
X439519Y1925383D1*
X435582Y1924595D1*
X434795Y1923808D1*
Y1917509D1*
X435582Y1916721D1*
X482039D1*
Y1924595D1*
X445818Y1925383D1*
X444243Y1926957D1*
Y1927745D1*
X442669Y1930107D1*
X441881Y1931682D1*
X441094Y1934831D1*
X440306Y1935619D1*
Y1939556D1*
X441094Y1940343D1*
Y1941918D1*
X443456Y1944280D1*
X445031Y1945068D1*
X449755Y1945855D1*
X482039Y1946642D1*
Y1953729D1*
X447393D1*
G37*
G36*
X436369Y1900973D2*
X436111Y1900018D1*
X435582Y1899398D1*
X434007Y1896249D1*
X433220Y1891524D1*
Y1888375D1*
X434007Y1883650D1*
X434795Y1881288D1*
X436369Y1878138D1*
X442669Y1871839D1*
X447393Y1869477D1*
X450543Y1868690D1*
X454480Y1867902D1*
X463141D1*
X467078Y1868690D1*
X469440Y1869477D1*
X474165Y1871839D1*
X479676Y1877351D1*
X481251Y1880501D1*
X482826Y1885225D1*
Y1897036D1*
X482039Y1900186D1*
X480464Y1904910D1*
X479676Y1906485D1*
X478889Y1907272D1*
X471802D1*
Y1906485D1*
X473377Y1904123D1*
X474165Y1902548D1*
X475739Y1897823D1*
X476527Y1897036D1*
Y1886800D1*
X475739Y1886012D1*
X474952Y1883650D1*
Y1882863D1*
X470228Y1878138D1*
X468653Y1877351D1*
X466291Y1876564D1*
X463666Y1875776D1*
X461041D1*
X458417Y1876564D1*
Y1908847D1*
X455267D1*
X447393Y1908060D1*
X445031Y1907272D1*
X440306Y1904910D1*
X436369Y1900973D1*
X451330D1*
X451918Y1901479D1*
X452326Y1901433D1*
X452905Y1900973D1*
Y1876564D1*
X451330Y1875776D1*
X449755D1*
X443456Y1878926D1*
X441094Y1881288D1*
Y1882075D1*
X440306Y1883650D1*
X439519Y1886012D1*
X438732Y1886800D1*
Y1891524D1*
X439519Y1892312D1*
X441094Y1896249D1*
X441247Y1896807D1*
X441881Y1897823D1*
X443456Y1898611D1*
X444243Y1899398D1*
X446606Y1900186D1*
X451330Y1900973D1*
X436369D1*
G37*
G36*
X422196Y1854516D2*
X421937Y1853561D1*
X421409Y1852942D1*
X420621Y1851367D1*
X419834Y1848217D1*
X419047Y1841918D1*
Y1823808D1*
X482039D1*
Y1831682D1*
X458417Y1832469D1*
Y1845855D1*
X457629Y1849005D1*
X456842Y1851367D1*
X455267Y1854516D1*
X449755Y1860028D1*
X447393Y1861603D1*
X442669Y1863178D1*
X434007D1*
X430858Y1862390D1*
X429283Y1861603D1*
X426921Y1860028D1*
X422984Y1856091D1*
X422196Y1854516D1*
X434007D1*
X436894Y1855304D1*
X439781D1*
X442669Y1854516D1*
X445031Y1853729D1*
X446606Y1852942D1*
X450543Y1849005D1*
Y1848217D1*
X451330Y1845855D1*
X452117Y1845068D1*
Y1832469D1*
X443194Y1831682D1*
X434270D1*
X425346Y1832469D1*
Y1842705D1*
X426133Y1843493D1*
X426921Y1847430D1*
X428495Y1850579D1*
X428648Y1851138D1*
X429283Y1852154D1*
X434007Y1854516D1*
X422196D1*
G37*
G36*
X421409Y1776564D2*
Y1775776D1*
X419834Y1774201D1*
X419047Y1772627D1*
X418259Y1770264D1*
X417472Y1766327D1*
Y1763178D1*
X418259Y1759241D1*
X419047Y1756879D1*
X419834Y1755304D1*
X421409Y1752942D1*
X425346Y1749005D1*
X427708Y1747430D1*
X429283Y1746642D1*
X434007Y1745068D1*
X445818D1*
X448180Y1745855D1*
X451330Y1747430D1*
X453692Y1749005D1*
X455267Y1750579D1*
X456842Y1752942D1*
X458417Y1756091D1*
X459204Y1758453D1*
Y1767902D1*
X457629Y1772627D1*
X456842Y1774201D1*
X455267Y1775776D1*
Y1776564D1*
X456317Y1777351D1*
X457367D1*
X458417Y1776564D1*
X463141Y1775776D1*
X465503Y1774989D1*
X470228Y1772627D1*
X471015Y1771839D1*
X472590Y1771052D1*
X474165Y1769477D1*
Y1768690D1*
X475739Y1766327D1*
X476527Y1763965D1*
X477314Y1763178D1*
Y1752942D1*
X476527Y1752154D1*
Y1750579D1*
X482826D1*
X483613Y1751367D1*
Y1763178D1*
X482826Y1766327D1*
X482039Y1768690D1*
X481251Y1770264D1*
X479676Y1772627D1*
X473377Y1778926D1*
X467078Y1782075D1*
X462354Y1783650D1*
X459204Y1784438D1*
X453692Y1785225D1*
X440306D1*
X435582Y1784438D1*
X432432Y1783650D1*
X430070Y1782863D1*
X426921Y1781288D1*
X424558Y1779713D1*
X421409Y1776564D1*
X437944D1*
X441881Y1777351D1*
X445818D1*
X449755Y1776564D1*
X450389Y1775547D1*
X450543Y1774989D1*
X451330Y1773414D1*
X452117Y1771052D1*
X452905Y1770264D1*
Y1760816D1*
X452117Y1760028D1*
Y1758453D1*
X448968Y1755304D1*
X445818Y1753729D1*
X441356Y1752942D1*
X436894D1*
X432432Y1753729D1*
X427708Y1756091D1*
X425346Y1758453D1*
Y1759241D1*
X424558Y1761603D1*
X423771Y1762390D1*
Y1766327D1*
X424558Y1767115D1*
X425346Y1769477D1*
Y1770264D1*
X428495Y1773414D1*
X431645Y1774989D1*
X434007Y1775776D1*
X437944Y1776564D1*
X421409D1*
G37*
G36*
Y1728532D2*
X419834Y1726957D1*
X419047Y1725383D1*
X418259Y1723020D1*
X417472Y1719083D1*
Y1715934D1*
X418259Y1711209D1*
X420621Y1706485D1*
X423771Y1703335D1*
X426133Y1701760D1*
X429283Y1700186D1*
X431645Y1699398D1*
X434795Y1698611D1*
X438732Y1697823D1*
X462354D1*
X466291Y1698611D1*
X469440Y1699398D1*
X471802Y1700186D1*
X476527Y1702548D1*
X478889Y1704123D1*
X479676Y1704910D1*
X481251Y1707272D1*
X482826Y1710422D1*
X483613Y1712784D1*
Y1722233D1*
X482826Y1724595D1*
X481251Y1727745D1*
X477314Y1731682D1*
X474952Y1733257D1*
X473377Y1734044D1*
X468653Y1735619D1*
X465503Y1736406D1*
X459991Y1737194D1*
X441881D1*
X436369Y1736406D1*
X433220Y1735619D1*
X428495Y1734044D1*
X425346Y1732469D1*
X421409Y1728532D1*
X438732D1*
X446606Y1729320D1*
X454480D1*
X462354Y1728532D1*
X467865Y1727745D1*
X472590Y1726170D1*
X473377Y1725383D1*
X474952Y1724595D1*
X475586Y1723578D1*
X475739Y1723020D1*
X476527Y1721446D1*
X477314Y1720658D1*
Y1713571D1*
X476527Y1712784D1*
Y1711997D1*
X474165Y1709634D1*
X469440Y1707272D1*
X465503Y1706485D1*
X455792Y1705697D1*
X446081D1*
X436369Y1706485D1*
X432432Y1707272D1*
X430070Y1708060D1*
X428495Y1708847D1*
X424558Y1712784D1*
Y1714359D1*
X423771Y1715146D1*
Y1719083D1*
X424558Y1719871D1*
X425346Y1722233D1*
Y1723020D1*
X427708Y1725383D1*
X429283Y1726170D1*
X434007Y1727745D1*
X438732Y1728532D1*
X421409D1*
G37*
G36*
X475739Y1689162D2*
Y1659241D1*
X474905Y1658386D1*
X474497Y1658513D1*
X474165Y1659241D1*
X456054Y1677351D1*
X452117Y1680501D1*
X447393Y1683650D1*
X445818Y1684438D1*
X443456Y1685225D1*
X440306Y1686012D1*
X430070D1*
X427708Y1685225D1*
X424558Y1683650D1*
X420621Y1679713D1*
X419047Y1676564D1*
X418259Y1674201D1*
X417472Y1669477D1*
Y1666327D1*
X418259Y1660816D1*
X419047Y1657666D1*
X420621Y1652942D1*
X421409Y1652154D1*
X429283D1*
X426133Y1658453D1*
X425346Y1660816D1*
X424558Y1663965D1*
X423771Y1664753D1*
Y1669477D1*
X424558Y1670264D1*
X425346Y1672627D1*
Y1673414D1*
X428495Y1676564D1*
X430070Y1677351D1*
X433745Y1678138D1*
X437419D1*
X441094Y1677351D1*
X443456Y1676564D1*
X446606Y1674989D1*
X447393Y1674201D1*
X449755Y1672627D1*
X452905Y1670264D1*
X458417Y1665540D1*
X474165Y1650579D1*
X482039D1*
Y1689162D1*
X475739D1*
G37*
G36*
Y1641131D2*
Y1611209D1*
X474905Y1610354D1*
X474497Y1610482D1*
X474165Y1611209D1*
X456054Y1629320D1*
X452117Y1632469D1*
X447393Y1635619D1*
X445818Y1636406D1*
X443456Y1637194D1*
X440306Y1637981D1*
X430070D1*
X427708Y1637194D1*
X424558Y1635619D1*
X420621Y1631682D1*
X419047Y1628532D1*
X418259Y1626170D1*
X417472Y1621446D1*
Y1618296D1*
X418259Y1612784D1*
X419047Y1609634D1*
X420621Y1604910D1*
X421409Y1604123D1*
X429283D1*
X426133Y1610422D1*
X425346Y1612784D1*
X424558Y1615934D1*
X423771Y1616721D1*
Y1621446D1*
X424558Y1622233D1*
X425346Y1624595D1*
Y1625383D1*
X428495Y1628532D1*
X430070Y1629320D1*
X433745Y1630107D1*
X437419D1*
X441094Y1629320D1*
X443456Y1628532D1*
X446606Y1626957D1*
X447393Y1626170D1*
X449755Y1624595D1*
X452905Y1622233D1*
X458417Y1617509D1*
X474165Y1602548D1*
X482039D1*
Y1641131D1*
X475739D1*
G37*
G36*
X422984Y1595461D2*
X422725Y1594506D1*
X422196Y1593886D1*
X419834Y1589162D1*
X419047Y1586800D1*
X418259Y1583650D1*
X417472Y1578138D1*
Y1574201D1*
X418259Y1568690D1*
X419047Y1566327D1*
X422196Y1560028D1*
X428495Y1553729D1*
X432432Y1551367D1*
X436369Y1549792D1*
X438732Y1549005D1*
X442669Y1548217D1*
X459204D1*
X463141Y1549005D1*
X467865Y1550579D1*
X471015Y1552154D1*
X473377Y1553729D1*
X479676Y1560028D1*
X482039Y1564753D1*
X482826Y1567115D1*
X483613Y1570264D1*
Y1582075D1*
X482826Y1585225D1*
X481251Y1589949D1*
X478889Y1594674D1*
X478102Y1595461D1*
X468653D1*
X472590Y1590737D1*
X474165Y1588375D1*
X475739Y1585225D1*
X476527Y1582075D1*
X477314Y1581288D1*
Y1571052D1*
X476527Y1570264D1*
X474952Y1567115D1*
X473377Y1564753D1*
X473118Y1563797D1*
X472590Y1563178D1*
X471015Y1562390D1*
X469440Y1560816D1*
X464716Y1558453D1*
X462354Y1557666D1*
X459204Y1556879D1*
X453692Y1556091D1*
X448180D1*
X442669Y1556879D1*
X439519Y1557666D1*
X434795Y1559241D1*
X434007Y1560028D1*
X430858Y1561603D1*
X427708Y1564753D1*
Y1565540D1*
X426133Y1567902D1*
X425346Y1569477D1*
X424558Y1572627D1*
X423771Y1573414D1*
Y1578926D1*
X424558Y1579713D1*
X425346Y1583650D1*
X427708Y1588375D1*
X429283Y1590737D1*
X432432Y1594674D1*
Y1595461D1*
X422984D1*
G37*
G36*
X419047Y1537194D2*
Y1526957D1*
X419834Y1526170D1*
X424558Y1523808D1*
X452117Y1511997D1*
X454480Y1511209D1*
Y1510422D1*
X452117Y1509634D1*
X423771Y1497036D1*
X419047Y1494674D1*
Y1483650D1*
X482039D1*
Y1490737D1*
X427708Y1491524D1*
X429283Y1492312D1*
X431645Y1493099D1*
X437157Y1495461D1*
X444243Y1498611D1*
X449755Y1500973D1*
X456842Y1504123D1*
X462354Y1506485D1*
X463928Y1507272D1*
X464716Y1508060D1*
Y1512784D1*
X459991Y1515146D1*
X445818Y1521446D1*
X440306Y1523808D1*
X433220Y1526957D1*
X430858Y1527745D1*
X427708Y1529320D1*
X482039Y1530107D1*
Y1537194D1*
X419047D1*
G37*
G36*
Y1476564D2*
Y1426170D1*
X426133D1*
Y1446642D1*
X482039Y1447430D1*
Y1455304D1*
X426133Y1456091D1*
Y1476564D1*
X419047D1*
G37*
G36*
X571015Y2253729D2*
X570228Y2252942D1*
Y2242705D1*
X512747Y2241918D1*
Y2236406D1*
X517472Y2234831D1*
X520621Y2231682D1*
Y2230107D1*
X521409Y2223020D1*
X526133D1*
Y2234044D1*
X540831Y2234831D1*
X555529D1*
X570228Y2234044D1*
Y2223020D1*
X575739D1*
Y2253729D1*
X571015D1*
G37*
G36*
X569440Y2208847D2*
Y2178926D1*
X568605Y2178071D1*
X568198Y2178198D1*
X567865Y2178926D1*
X549755Y2197036D1*
X545818Y2200186D1*
X541094Y2203335D1*
X539519Y2204123D1*
X537157Y2204910D1*
X534007Y2205697D1*
X523771D1*
X521409Y2204910D1*
X518259Y2203335D1*
X514322Y2199398D1*
X512747Y2196249D1*
X511960Y2193886D1*
X511173Y2189162D1*
Y2186012D1*
X511960Y2180501D1*
X512747Y2177351D1*
X514322Y2172627D1*
X515110Y2171839D1*
X522984D1*
X519834Y2178138D1*
X519047Y2180501D1*
X518259Y2183650D1*
X517472Y2184438D1*
Y2189162D1*
X518259Y2189949D1*
X519047Y2192312D1*
Y2193099D1*
X522196Y2196249D1*
X523771Y2197036D1*
X527445Y2197823D1*
X531120D1*
X534795Y2197036D1*
X537157Y2196249D1*
X540306Y2194674D1*
X541094Y2193886D1*
X543456Y2192312D1*
X546606Y2189949D1*
X552117Y2185225D1*
X567865Y2170264D1*
X575739D1*
Y2208847D1*
X569440D1*
G37*
G36*
X515110Y2152154D2*
X513535Y2150579D1*
X512747Y2149005D1*
X511960Y2146642D1*
X511173Y2142705D1*
Y2139556D1*
X511960Y2134831D1*
X514322Y2130107D1*
X517472Y2126957D1*
X519834Y2125383D1*
X522984Y2123808D1*
X525346Y2123020D1*
X528495Y2122233D1*
X532432Y2121446D1*
X556054D1*
X559991Y2122233D1*
X563141Y2123020D1*
X565503Y2123808D1*
X570228Y2126170D1*
X572590Y2127745D1*
X573377Y2128532D1*
X574952Y2130894D1*
X576527Y2134044D1*
X577314Y2136406D1*
Y2145855D1*
X576527Y2148217D1*
X574952Y2151367D1*
X571015Y2155304D1*
X568653Y2156879D1*
X567078Y2157666D1*
X562354Y2159241D1*
X559204Y2160028D1*
X553692Y2160816D1*
X535582D1*
X530070Y2160028D1*
X526921Y2159241D1*
X522196Y2157666D1*
X519047Y2156091D1*
X515110Y2152154D1*
X532432D1*
X540306Y2152942D1*
X548180D1*
X556054Y2152154D1*
X561566Y2151367D1*
X566291Y2149792D1*
X567078Y2149005D1*
X568653Y2148217D1*
X569287Y2147201D1*
X569440Y2146642D1*
X570228Y2145068D1*
X571015Y2144280D1*
Y2137194D1*
X570228Y2136406D1*
Y2135619D1*
X567865Y2133257D1*
X563141Y2130894D1*
X559204Y2130107D1*
X549493Y2129320D1*
X539781D1*
X530070Y2130107D1*
X526133Y2130894D1*
X523771Y2131682D1*
X522196Y2132469D1*
X518259Y2136406D1*
Y2137981D1*
X517472Y2138768D1*
Y2142705D1*
X518259Y2143493D1*
X519047Y2145855D1*
Y2146642D1*
X521409Y2149005D1*
X522984Y2149792D1*
X527708Y2151367D1*
X532432Y2152154D1*
X515110D1*
G37*
G36*
X569440Y2112784D2*
Y2082863D1*
X568605Y2082008D1*
X568198Y2082136D1*
X567865Y2082863D1*
X549755Y2100973D1*
X545818Y2104123D1*
X541094Y2107272D1*
X539519Y2108060D1*
X537157Y2108847D1*
X534007Y2109634D1*
X523771D1*
X521409Y2108847D1*
X518259Y2107272D1*
X514322Y2103335D1*
X512747Y2100186D1*
X511960Y2097823D1*
X511173Y2093099D1*
Y2089949D1*
X511960Y2084438D1*
X512747Y2081288D1*
X514322Y2076564D1*
X515110Y2075776D1*
X522984D1*
X519834Y2082075D1*
X519047Y2084438D1*
X518259Y2087587D1*
X517472Y2088375D1*
Y2093099D1*
X518259Y2093886D1*
X519047Y2096249D1*
Y2097036D1*
X522196Y2100186D1*
X523771Y2100973D1*
X527445Y2101760D1*
X531120D1*
X534795Y2100973D1*
X537157Y2100186D1*
X540306Y2098611D1*
X541094Y2097823D1*
X543456Y2096249D1*
X546606Y2093886D1*
X552117Y2089162D1*
X567865Y2074201D1*
X575739D1*
Y2112784D1*
X569440D1*
G37*
G36*
X510385Y2066327D2*
Y2060028D1*
X519834Y2056879D1*
X560779Y2044280D1*
X573377Y2040343D1*
X583613Y2037194D1*
X589125Y2035619D1*
X589913D1*
Y2041918D1*
X588338Y2042705D1*
X585976Y2043493D1*
X573377Y2047430D1*
X563141Y2050579D1*
X550543Y2054516D1*
X530070Y2060816D1*
X517472Y2064753D1*
X511960Y2066327D1*
X510385D1*
G37*
G36*
X569440Y2031682D2*
Y2001760D1*
X568605Y2000905D1*
X568198Y2001033D1*
X567865Y2001760D1*
X549755Y2019871D1*
X545818Y2023020D1*
X541094Y2026170D1*
X539519Y2026957D1*
X537157Y2027745D1*
X534007Y2028532D1*
X523771D1*
X521409Y2027745D1*
X518259Y2026170D1*
X514322Y2022233D1*
X512747Y2019083D1*
X511960Y2016721D1*
X511173Y2011997D1*
Y2008847D1*
X511960Y2003335D1*
X512747Y2000186D1*
X514322Y1995461D1*
X515110Y1994674D1*
X522984D1*
X519834Y2000973D1*
X519047Y2003335D1*
X518259Y2006485D1*
X517472Y2007272D1*
Y2011997D1*
X518259Y2012784D1*
X519047Y2015146D1*
Y2015934D1*
X522196Y2019083D1*
X523771Y2019871D1*
X527445Y2020658D1*
X531120D1*
X534795Y2019871D1*
X537157Y2019083D1*
X540306Y2017509D1*
X541094Y2016721D1*
X543456Y2015146D1*
X546606Y2012784D1*
X552117Y2008060D1*
X567865Y1993099D1*
X575739D1*
Y2031682D1*
X569440D1*
G37*
G36*
X530070Y1946642D2*
X529811Y1945687D1*
X529283Y1945068D1*
X528495Y1942705D1*
X527708Y1941131D1*
X526921Y1936406D1*
Y1934044D1*
X527708Y1930107D1*
X528495Y1927745D1*
X529283Y1926170D1*
X530858Y1923808D1*
X534795Y1919871D1*
X541094Y1916721D1*
X543456Y1915934D1*
X547393Y1915146D1*
X556842D1*
X560779Y1915934D1*
X563928Y1916721D1*
X567078Y1918296D1*
X569440Y1919871D1*
X572590Y1923020D1*
X574165Y1926170D1*
X574952Y1928532D1*
Y1937981D1*
X574165Y1940343D1*
X572590Y1943493D1*
X570228Y1945855D1*
Y1946642D1*
X573115Y1947430D1*
X576002D1*
X578889Y1946642D1*
X581251Y1945855D1*
X584401Y1944280D1*
X585976Y1942705D1*
Y1941918D1*
X586763Y1940343D1*
X587550Y1939556D1*
Y1928532D1*
X586763Y1927745D1*
X585188Y1921446D1*
X584401Y1919871D1*
X592275D1*
X593062Y1922233D1*
X593850Y1926170D1*
Y1939556D1*
X593062Y1942705D1*
X591487Y1945855D1*
X589913Y1948217D1*
X587550Y1950579D1*
X582826Y1952942D1*
X580464Y1953729D1*
X576527Y1954516D1*
X528495D1*
Y1948217D1*
X530070Y1946642D1*
X536369D1*
X545556Y1947430D1*
X554742D1*
X563928Y1946642D1*
X566291Y1944280D1*
Y1943493D1*
X567078Y1941918D1*
X567865Y1939556D1*
X568653Y1938768D1*
Y1930894D1*
X567865Y1930107D1*
Y1928532D1*
X565503Y1926170D1*
X562354Y1924595D1*
X559991Y1923808D1*
X554742Y1923020D1*
X549493D1*
X544243Y1923808D1*
X541881Y1924595D1*
X538732Y1926170D1*
X534795Y1930107D1*
Y1930894D1*
X534007Y1933257D1*
X533220Y1934044D1*
Y1938768D1*
X534007Y1939556D1*
X534795Y1942705D1*
X535582Y1945068D1*
X536369Y1946642D1*
X530070D1*
G37*
G36*
X531645Y1901760D2*
X530070Y1900186D1*
X528495Y1897036D1*
X527708Y1894674D1*
X526921Y1890737D1*
Y1887587D1*
X527708Y1882863D1*
X528495Y1880501D1*
X529283Y1878926D1*
X530858Y1876564D1*
X534795Y1872627D1*
X537157Y1871052D1*
X538732Y1870264D1*
X543456Y1868690D1*
X548180Y1867902D1*
X556842D1*
X561566Y1868690D1*
X563928Y1869477D1*
X568653Y1871839D1*
X571015Y1873414D1*
X573377Y1875776D1*
X574952Y1878138D1*
X576527Y1881288D1*
X577314Y1883650D1*
Y1893886D1*
X575739Y1898611D1*
X574165Y1900973D1*
X569440Y1905697D1*
X564716Y1908060D1*
X562354Y1908847D1*
X558417Y1909634D1*
X546606D1*
X542669Y1908847D1*
X540306Y1908060D1*
X535582Y1905697D1*
X531645Y1901760D1*
X548968D1*
X551330Y1902548D1*
X553692D1*
X556054Y1901760D1*
X561566Y1900973D1*
X563928Y1900186D1*
X565503Y1899398D1*
X566291Y1898611D1*
X567865Y1897823D1*
X568500Y1896807D1*
X568653Y1896249D1*
X570228Y1893886D1*
X571015Y1893099D1*
Y1885225D1*
X570228Y1884438D1*
Y1882863D1*
X566291Y1878926D1*
X563141Y1877351D1*
X559991Y1876564D1*
X554742Y1875776D1*
X549493D1*
X544243Y1876564D1*
X539519Y1878138D1*
X538732Y1878926D1*
X537157Y1879713D1*
X535582Y1881288D1*
Y1882075D1*
X534795Y1883650D1*
X534007Y1886012D1*
X533220Y1886800D1*
Y1890737D1*
X534007Y1891524D1*
X534795Y1894674D1*
Y1895461D1*
X537944Y1898611D1*
X541094Y1900186D1*
X543456Y1900973D1*
X548968Y1901760D1*
X531645D1*
G37*
G36*
X510385Y1859241D2*
Y1852154D1*
X575739D1*
Y1859241D1*
X510385D1*
G37*
G36*
X530070Y1831682D2*
X529811Y1830726D1*
X529283Y1830107D1*
X528495Y1828532D1*
X527708Y1826170D1*
X526921Y1821446D1*
Y1819083D1*
X527708Y1815146D1*
X528495Y1812784D1*
X529283Y1811209D1*
X530858Y1808847D1*
X534007Y1805697D1*
X536369Y1804123D1*
X539519Y1802548D1*
X544243Y1800973D1*
X548180Y1800186D1*
X557629D1*
X562354Y1800973D1*
X567078Y1802548D1*
X570228Y1804123D1*
X573377Y1806485D1*
X575739Y1809634D1*
X576527Y1811209D1*
X577314Y1813571D1*
Y1822233D1*
X576527Y1824595D1*
X574952Y1827745D1*
X571802Y1830894D1*
Y1831682D1*
X575739Y1832469D1*
Y1839556D1*
X509598D1*
Y1832469D1*
X530070Y1831682D1*
X536369D1*
X546081Y1832469D1*
X555792D1*
X565503Y1831682D1*
X567078Y1830107D1*
Y1829320D1*
X568653Y1826957D1*
X569440Y1824595D1*
X570228Y1823808D1*
Y1815934D1*
X569440Y1815146D1*
X568653Y1813571D1*
X568394Y1812616D1*
X567865Y1811997D1*
X566291Y1811209D1*
X565503Y1810422D1*
X560779Y1808847D1*
X555267Y1808060D1*
X549755D1*
X544243Y1808847D1*
X541881Y1809634D1*
X538732Y1811209D1*
X534795Y1815146D1*
Y1815934D1*
X534007Y1818296D1*
X533220Y1819083D1*
Y1823808D1*
X534007Y1824595D1*
X534795Y1828532D1*
X536369Y1831682D1*
X530070D1*
G37*
G36*
X510385Y1791524D2*
Y1784438D1*
X575739D1*
Y1791524D1*
X510385D1*
G37*
G36*
X513535Y1772627D2*
X512747Y1771839D1*
Y1763965D1*
X520621D1*
Y1772627D1*
X513535D1*
G37*
G36*
X528495Y1771839D2*
Y1764753D1*
X575739D1*
Y1771839D1*
X528495D1*
G37*
G36*
X529283Y1752154D2*
X528495Y1751367D1*
Y1745068D1*
X529283Y1744280D1*
X565503Y1743493D1*
X567078Y1741918D1*
Y1741131D1*
X569440Y1736406D1*
X570228Y1735619D1*
Y1727745D1*
X569440Y1726957D1*
Y1726170D1*
X567865Y1724595D1*
X566291Y1723808D1*
X563141Y1723020D1*
X528495Y1722233D1*
Y1715146D1*
X564716D1*
X567865Y1715934D1*
X572590Y1718296D1*
X574952Y1720658D1*
X576527Y1723020D1*
X577314Y1725383D1*
Y1734044D1*
X576527Y1736406D1*
X575739Y1737981D1*
X574165Y1740343D1*
X571802Y1742705D1*
Y1743493D1*
X575739Y1744280D1*
Y1752154D1*
X529283D1*
G37*
G36*
X530070Y1698611D2*
X529283Y1697823D1*
X527708Y1694674D1*
X526921Y1690737D1*
Y1688375D1*
X527708Y1684438D1*
X528495Y1682075D1*
X529283Y1680501D1*
X530858Y1678138D1*
X533220Y1675776D1*
X511173Y1674989D1*
X510385Y1674201D1*
Y1667902D1*
X511173Y1667115D1*
X575739D1*
Y1674201D1*
X574165Y1674989D1*
X574318Y1675547D1*
X574952Y1676564D1*
X576527Y1679713D1*
X577314Y1682075D1*
Y1691524D1*
X576527Y1693886D1*
X575739Y1695461D1*
X574165Y1697823D1*
X571015Y1700973D1*
X568653Y1702548D1*
X563928Y1704910D1*
X561566Y1705697D1*
X558417Y1706485D1*
X544243D1*
X541094Y1705697D1*
X536369Y1704123D1*
X534007Y1702548D1*
X530858Y1700186D1*
X530070Y1698611D1*
X547393D1*
X550543Y1699398D1*
X553692D1*
X556842Y1698611D1*
X561566Y1697823D1*
X563928Y1697036D1*
X565503Y1696249D1*
X566291Y1695461D1*
X567865Y1694674D1*
X569440Y1693099D1*
Y1692312D1*
X570228Y1690737D1*
X571015Y1689949D1*
Y1680501D1*
X570228Y1679713D1*
X569440Y1677351D1*
X569181Y1676396D1*
X568653Y1675776D1*
X558679Y1674989D1*
X548705D1*
X538732Y1675776D1*
X537798Y1676661D1*
X537944Y1677351D1*
X536369Y1679713D1*
X535582Y1682075D1*
X534795Y1685225D1*
X534007Y1686012D1*
Y1689949D1*
X534795Y1690737D1*
X536369Y1693886D1*
X538732Y1696249D1*
X540306Y1697036D1*
X542669Y1697823D1*
X547393Y1698611D1*
X530070D1*
G37*
G36*
X530858Y1630107D2*
X530070Y1629320D1*
X528495Y1626170D1*
X527708Y1622233D1*
Y1619871D1*
X528495Y1615934D1*
X530070Y1612784D1*
X534795Y1608060D1*
X537157Y1606485D1*
X538732Y1605697D1*
X541881Y1604910D1*
X545818Y1604123D1*
X552905D1*
X557629Y1604910D1*
X559991Y1605697D1*
X563141Y1607272D1*
X565503Y1608847D1*
X567078Y1610422D1*
X568653Y1612784D1*
X569440Y1615146D1*
Y1623020D1*
X568653Y1625383D1*
X567078Y1627745D1*
X564716Y1630107D1*
X566291Y1630894D1*
X569440Y1631682D1*
Y1649792D1*
X563141Y1652942D1*
X558417Y1654516D1*
X554480Y1655304D1*
X540306D1*
X536369Y1654516D1*
X531645Y1652942D1*
X525346Y1649792D1*
X522984Y1648217D1*
X517472Y1642705D1*
X515897Y1640343D1*
X513535Y1635619D1*
X511960Y1630894D1*
X511173Y1624595D1*
Y1620658D1*
X511960Y1615146D1*
X512747Y1611997D1*
X513535Y1609634D1*
X515897Y1604910D1*
X518259Y1601760D1*
X525346Y1594674D1*
X527708Y1593099D1*
X534007Y1589949D1*
X536369Y1589162D1*
X539519Y1588375D1*
X544243Y1587587D1*
X552905D1*
X557629Y1588375D1*
X560779Y1589162D1*
X565503Y1590737D1*
X568653Y1592312D1*
X571015Y1593886D1*
X574165Y1596249D1*
X578102Y1600186D1*
X580464Y1603335D1*
X583613Y1609634D1*
X584401Y1611997D1*
X585188Y1615934D1*
Y1631682D1*
X584401Y1636406D1*
X579676D1*
Y1632469D1*
X580464Y1631682D1*
Y1615934D1*
X579676Y1615146D1*
X578889Y1611997D1*
X578102Y1609634D1*
X574952Y1604910D1*
Y1604123D1*
X571802Y1600973D1*
X570228Y1600186D1*
X568653Y1598611D1*
X563928Y1596249D1*
X559204Y1594674D1*
X555267Y1593886D1*
X550805Y1593099D1*
X546343D1*
X541881Y1593886D1*
X537944Y1594674D1*
X535582Y1595461D1*
X529283Y1598611D1*
X528495Y1599398D1*
X526921Y1600186D1*
X520621Y1606485D1*
Y1607272D1*
X518259Y1611997D1*
X517472Y1614359D1*
X516684Y1618296D1*
X515897Y1619083D1*
Y1626170D1*
X516684Y1626957D1*
X517472Y1630894D1*
X519047Y1635619D1*
X520621Y1637981D1*
Y1638768D1*
X525346Y1643493D1*
X526921Y1644280D1*
X527708Y1645068D1*
X532432Y1647430D1*
X534795Y1648217D1*
X537944Y1649005D1*
X543456Y1649792D1*
X546868Y1650579D1*
X550280D1*
X553692Y1649792D1*
X559991Y1649005D1*
X563141Y1648217D1*
X564716Y1647430D1*
X565503Y1646642D1*
Y1637981D1*
X529283Y1637194D1*
X528495Y1636406D1*
Y1630894D1*
X530858Y1630107D1*
X535582D1*
X543718Y1630894D1*
X551855D1*
X559991Y1630107D1*
X560626Y1629090D1*
X560779Y1628532D1*
X562354Y1626170D1*
X563141Y1624595D1*
X563928Y1623808D1*
Y1616721D1*
X560779Y1613571D1*
X559204Y1612784D1*
X556842Y1611997D1*
X552117Y1611209D1*
X550280Y1610422D1*
X548443D1*
X546606Y1611209D1*
X541094Y1611997D1*
X537944Y1613571D1*
X534007Y1617509D1*
Y1619083D1*
X533220Y1619871D1*
Y1623808D1*
X534007Y1624595D1*
X534795Y1627745D1*
X535582Y1629320D1*
Y1630107D1*
X530858D1*
G37*
G36*
X818784Y2461734D2*
Y2438637D1*
X819309Y2436012D1*
X819834Y2434438D1*
X820884Y2432338D1*
X822984Y2430238D1*
X824033Y2429713D1*
X826133Y2429188D1*
X829808D1*
X831382Y2429713D1*
X833482Y2430763D1*
X836107Y2432863D1*
X836632Y2433388D1*
X836741Y2433744D1*
X837216Y2434178D1*
X837643Y2434153D1*
X838091Y2433715D1*
X838207Y2433388D1*
X839257Y2431813D1*
X840306Y2430763D1*
X842406Y2429713D1*
X843981Y2429188D1*
X847655D1*
X849230Y2429713D1*
X851330Y2430763D1*
X852905Y2431813D1*
X853955Y2432863D1*
X854347Y2433200D1*
X854619Y2433169D1*
X855005Y2432863D1*
Y2430238D1*
X859729D1*
Y2461734D1*
X855005D1*
Y2438112D1*
X853430Y2436537D1*
X852380Y2436012D1*
X851855Y2435488D1*
X850805Y2434963D1*
X849230Y2434438D1*
X847830Y2433913D1*
X846431D1*
X845031Y2434438D1*
X842931Y2435488D1*
Y2436012D1*
X842406Y2437062D1*
X841881Y2461734D1*
X837157D1*
Y2438112D1*
X835582Y2436537D1*
X834532Y2436012D1*
X834007Y2435488D1*
X832957Y2434963D1*
X829808Y2433913D1*
X828233D1*
X826658Y2434438D1*
X825608Y2434963D1*
X824558Y2436012D1*
Y2436537D1*
X824033Y2440212D1*
X823508Y2461734D1*
X818784D1*
G37*
G36*
X868128D2*
Y2430238D1*
X872852D1*
Y2461734D1*
X868128D1*
G37*
G36*
X877577D2*
Y2457010D1*
X896474Y2456485D1*
Y2419739D1*
X901199D1*
Y2461734D1*
X877577D1*
G37*
G36*
X920096D2*
Y2442837D1*
X919047Y2441787D1*
X918522Y2440737D1*
X917472Y2439162D1*
X916947Y2438112D1*
X915897Y2436537D1*
X915372Y2435488D1*
X913272Y2432338D1*
X912747Y2431288D1*
X911697Y2429713D1*
X911173Y2428663D1*
X910123Y2427089D1*
X909598Y2426039D1*
X908548Y2424464D1*
X908023Y2423414D1*
X906973Y2421839D1*
X905923Y2419739D1*
X911173D1*
X911697Y2420264D1*
X912747Y2421839D1*
X913272Y2422889D1*
X914322Y2424464D1*
X914847Y2425514D1*
X915897Y2427089D1*
X916947Y2429188D1*
X917997Y2430763D1*
X918522Y2431813D1*
X919571Y2433388D1*
X920096Y2434438D1*
X921146Y2436012D1*
X921671Y2437062D1*
X921780Y2437418D1*
X922255Y2437888D1*
X922721Y2438112D1*
X923771Y2437062D1*
Y2436537D1*
X924821Y2434438D1*
X925871Y2432863D1*
X926396Y2431813D1*
X927445Y2430238D1*
X928495Y2428138D1*
X929545Y2426564D1*
X930070Y2425514D1*
X931120Y2423939D1*
X932170Y2421839D1*
X933220Y2420264D1*
X933745Y2419739D1*
X939519D1*
X938469Y2421314D1*
X937944Y2422364D1*
X936894Y2423939D1*
X936369Y2424989D1*
X935319Y2426564D1*
X934795Y2427613D1*
X933745Y2429188D1*
X932695Y2431288D1*
X931645Y2432863D1*
X931120Y2433913D1*
X930070Y2435488D1*
X929545Y2436537D1*
X928495Y2438112D1*
X927445Y2440212D1*
X926396Y2441787D1*
X925871Y2442837D1*
X925346Y2461734D1*
X920096D1*
G37*
G36*
X867603Y2424989D2*
Y2419739D1*
X873377D1*
Y2424989D1*
X867603D1*
G37*
X2060575Y1186808D2*
D106*
X2058198Y1191561D1*
X2053390Y1196369D1*
X2048637Y1198746D1*
X2039075D1*
X2034267Y1196369D1*
X2029513Y1191561D1*
X2027082Y1186808D1*
X2024705Y1179623D1*
Y1167629D1*
X2027082Y1160500D1*
X2029513Y1155691D1*
X2034267Y1150938D1*
X2039075Y1148506D1*
X2048637D1*
X2053390Y1150938D1*
X2058198Y1155691D1*
X2060575Y1160500D1*
Y1167629D1*
X2048637D1*
X2076014Y1181999D2*
Y1148506D1*
Y1172438D2*
X2083199Y1179623D1*
X2088008Y1181999D1*
X2095137D1*
X2099946Y1179623D1*
X2102322Y1172438D1*
Y1148506D1*
X2146447Y1198746D2*
Y1148506D1*
Y1174814D2*
X2141693Y1179623D1*
X2136885Y1181999D1*
X2129700D1*
X2124947Y1179623D1*
X2120138Y1174814D1*
X2117762Y1167629D1*
Y1162876D1*
X2120138Y1155691D1*
X2124947Y1150938D1*
X2129700Y1148506D1*
X2136885D1*
X2141693Y1150938D1*
X2146447Y1155691D1*
X2058477Y1091820D2*
X2077600Y1041580D1*
X2096723Y1091820D1*
X2112162D2*
X2114539Y1089443D1*
X2116971Y1091820D1*
X2114539Y1094251D1*
X2112162Y1091820D1*
X2114539Y1075073D2*
Y1041580D1*
X2132410Y1075073D2*
Y1041580D1*
Y1065511D2*
X2139595Y1072696D1*
X2144404Y1075073D1*
X2151533D1*
X2156342Y1072696D1*
X2158718Y1065511D1*
Y1041580D1*
X2135315Y1289389D2*
X2111439D1*
X2109062Y1267889D1*
X2111439Y1270266D1*
X2118624Y1272698D1*
X2125753D1*
X2132938Y1270266D1*
X2137747Y1265512D1*
X2140123Y1258327D1*
Y1253574D1*
X2137747Y1246389D1*
X2132938Y1241581D1*
X2125753Y1239204D1*
X2118624D1*
X2111439Y1241581D1*
X2109062Y1244013D1*
X2106630Y1248766D1*
X2155563Y1272698D2*
X2169933Y1239204D1*
X2184248Y1272698D1*
X1974173Y1722482D2*
D105*
X1972747Y1725334D1*
X1969862Y1728219D1*
X1967010Y1729645D1*
X1961273D1*
X1958388Y1728219D1*
X1955536Y1725334D1*
X1954077Y1722482D1*
X1952651Y1718171D1*
Y1710975D1*
X1954077Y1706697D1*
X1955536Y1703812D1*
X1958388Y1700960D1*
X1961273Y1699501D1*
X1967010D1*
X1969862Y1700960D1*
X1972747Y1703812D1*
X1974173Y1706697D1*
X1983436Y1723875D2*
X1986322Y1725334D1*
X1990633Y1729612D1*
Y1699501D1*
X2602203Y1383288D2*
X2600777Y1386140D1*
X2597892Y1389025D1*
X2595040Y1390451D1*
X2589303D1*
X2586418Y1389025D1*
X2583566Y1386140D1*
X2582107Y1383288D1*
X2580681Y1378977D1*
Y1371781D1*
X2582107Y1367503D1*
X2583566Y1364618D1*
X2586418Y1361766D1*
X2589303Y1360307D1*
X2595040D1*
X2597892Y1361766D1*
X2600777Y1364618D1*
X2602203Y1367503D1*
X2612926Y1383255D2*
Y1384681D1*
X2614352Y1387566D1*
X2615778Y1388992D1*
X2618663Y1390418D1*
X2624400D1*
X2627252Y1388992D1*
X2628678Y1387566D1*
X2630137Y1384681D1*
Y1381829D1*
X2628678Y1378944D1*
X2625826Y1374666D1*
X2611467Y1360307D1*
X2631563D1*
X2598266Y1870788D2*
X2596840Y1873640D1*
X2593955Y1876525D1*
X2591103Y1877951D1*
X2585366D1*
X2582481Y1876525D1*
X2579629Y1873640D1*
X2578170Y1870788D1*
X2576744Y1866477D1*
Y1859281D1*
X2578170Y1855003D1*
X2579629Y1852118D1*
X2582481Y1849266D1*
X2585366Y1847807D1*
X2591103D1*
X2593955Y1849266D1*
X2596840Y1852118D1*
X2598266Y1855003D1*
X2610415Y1877918D2*
X2626167D1*
X2617578Y1866444D1*
X2621889D1*
X2624741Y1865018D1*
X2626167Y1863592D1*
X2627626Y1859281D1*
Y1856429D1*
X2626167Y1852118D1*
X2623315Y1849233D1*
X2619004Y1847807D1*
X2614693D1*
X2610415Y1849233D1*
X2608989Y1850692D1*
X2607530Y1853544D1*
X2324220Y1855763D2*
X2321368Y1854337D1*
X2318483Y1851452D1*
X2317057Y1848600D1*
Y1842863D1*
X2318483Y1839978D1*
X2321368Y1837126D1*
X2324220Y1835667D1*
X2328531Y1834241D1*
X2335727D1*
X2340005Y1835667D1*
X2342890Y1837126D1*
X2345742Y1839978D1*
X2347201Y1842863D1*
Y1848600D1*
X2345742Y1851452D1*
X2342890Y1854337D1*
X2340005Y1855763D1*
X2347201Y1879386D2*
X2317090D1*
X2337153Y1865027D1*
Y1886549D1*
X2379010Y1866105D2*
X2376158Y1864679D1*
X2373273Y1861794D1*
X2371847Y1858942D1*
Y1853205D1*
X2373273Y1850320D1*
X2376158Y1847468D1*
X2379010Y1846009D1*
X2383321Y1844583D1*
X2390517D1*
X2394795Y1846009D1*
X2397680Y1847468D1*
X2400532Y1850320D1*
X2401991Y1853205D1*
Y1858942D1*
X2400532Y1861794D1*
X2397680Y1864679D1*
X2394795Y1866105D1*
X2371880Y1892579D2*
Y1878253D1*
X2384780Y1876827D1*
X2383354Y1878253D1*
X2381895Y1882564D1*
Y1886842D1*
X2383354Y1891153D1*
X2386206Y1894038D1*
X2390517Y1895464D1*
X2393369D1*
X2397680Y1894038D1*
X2400565Y1891153D1*
X2401991Y1886842D1*
Y1882564D1*
X2400565Y1878253D1*
X2399106Y1876827D1*
X2396254Y1875368D1*
X1084971Y2343533D2*
X1083545Y2346385D1*
X1080660Y2349270D1*
X1077808Y2350696D1*
X1072071D1*
X1069186Y2349270D1*
X1066334Y2346385D1*
X1064875Y2343533D1*
X1063449Y2339222D1*
Y2332026D1*
X1064875Y2327748D1*
X1066334Y2324863D1*
X1069186Y2322011D1*
X1072071Y2320552D1*
X1077808D1*
X1080660Y2322011D1*
X1083545Y2324863D1*
X1084971Y2327748D1*
X1111445Y2346385D2*
X1110019Y2349237D1*
X1105708Y2350663D1*
X1102856D1*
X1098545Y2349237D1*
X1095660Y2344926D1*
X1094234Y2337763D1*
Y2330600D1*
X1095660Y2324863D1*
X1098545Y2321978D1*
X1102856Y2320552D1*
X1104282D1*
X1108560Y2321978D1*
X1111445Y2324863D1*
X1112871Y2329174D1*
Y2330600D1*
X1111445Y2334911D1*
X1108560Y2337763D1*
X1104282Y2339189D1*
X1102856D1*
X1098545Y2337763D1*
X1095660Y2334911D1*
X1094234Y2330600D1*
X815096Y2347482D2*
X813670Y2350334D1*
X810785Y2353219D1*
X807933Y2354645D1*
X802196D1*
X799311Y2353219D1*
X796459Y2350334D1*
X795000Y2347482D1*
X793574Y2343171D1*
Y2335975D1*
X795000Y2331697D1*
X796459Y2328812D1*
X799311Y2325960D1*
X802196Y2324501D1*
X807933D1*
X810785Y2325960D1*
X813670Y2328812D1*
X815096Y2331697D1*
X830096Y2324501D2*
X844455Y2354612D1*
X824359D1*
X2261789Y1802615D2*
X2258938Y1801189D1*
X2256052Y1798304D1*
X2254627Y1795452D1*
Y1789715D1*
X2256052Y1786830D1*
X2258938Y1783978D1*
X2261789Y1782519D1*
X2266100Y1781093D1*
X2273297D1*
X2277574Y1782519D1*
X2280460Y1783978D1*
X2283311Y1786830D1*
X2284771Y1789715D1*
Y1795452D1*
X2283311Y1798304D1*
X2280460Y1801189D1*
X2277574Y1802615D1*
X2254660Y1819041D2*
X2256086Y1814763D1*
X2258938Y1813304D1*
X2261823D1*
X2264675Y1814763D1*
X2266134Y1817615D1*
X2267560Y1823352D1*
X2268986Y1827663D1*
X2271871Y1830515D1*
X2274723Y1831941D1*
X2279034D1*
X2281885Y1830515D1*
X2283345Y1829089D1*
X2284771Y1824778D1*
Y1819041D1*
X2283345Y1814763D1*
X2281885Y1813304D1*
X2279034Y1811878D1*
X2274723D1*
X2271871Y1813304D1*
X2268986Y1816189D1*
X2267560Y1820467D1*
X2266134Y1826204D1*
X2264675Y1829089D1*
X2261823Y1830515D1*
X2258938D1*
X2256086Y1829089D1*
X2254660Y1824778D1*
Y1819041D1*
X2367672Y1414817D2*
X2366246Y1417669D1*
X2363361Y1420554D1*
X2360509Y1421980D1*
X2354772D1*
X2351887Y1420554D1*
X2349035Y1417669D1*
X2347576Y1414817D1*
X2346150Y1410506D1*
Y1403310D1*
X2347576Y1399032D1*
X2349035Y1396147D1*
X2351887Y1393295D1*
X2354772Y1391836D1*
X2360509D1*
X2363361Y1393295D1*
X2366246Y1396147D1*
X2367672Y1399032D1*
X2395606Y1411932D2*
X2394147Y1407621D1*
X2391295Y1404736D1*
X2386984Y1403310D1*
X2385558D1*
X2381247Y1404736D1*
X2378395Y1407621D1*
X2376936Y1411932D1*
Y1413358D1*
X2378395Y1417669D1*
X2381247Y1420521D1*
X2385558Y1421947D1*
X2386984D1*
X2391295Y1420521D1*
X2394147Y1417669D1*
X2395606Y1411932D1*
Y1404736D1*
X2394147Y1397573D1*
X2391295Y1393262D1*
X2386984Y1391836D1*
X2384132D1*
X2379821Y1393262D1*
X2378395Y1396147D1*
X446812Y775618D2*
X443960Y774192D1*
X441075Y771307D1*
X439649Y768455D1*
Y762718D1*
X441075Y759833D1*
X443960Y756981D1*
X446812Y755522D1*
X451123Y754096D1*
X458319D1*
X462597Y755522D1*
X465482Y756981D1*
X468334Y759833D1*
X469793Y762718D1*
Y768455D1*
X468334Y771307D1*
X465482Y774192D1*
X462597Y775618D1*
X445419Y784881D2*
X443960Y787766D1*
X439682Y792077D1*
X469793D1*
X439682Y809963D2*
X441108Y805652D1*
X445419Y802767D1*
X452582Y801341D1*
X456893D1*
X464056Y802767D1*
X468367Y805652D1*
X469793Y809963D1*
Y812815D1*
X468367Y817126D1*
X464056Y819978D1*
X456893Y821437D1*
X452582D1*
X445419Y819978D1*
X441108Y817126D1*
X439682Y812815D1*
Y809963D1*
X445419Y819978D2*
X464056Y802767D1*
X1976820Y2318217D2*
X1975394Y2321069D1*
X1972509Y2323954D1*
X1969657Y2325380D1*
X1963920D1*
X1961035Y2323954D1*
X1958183Y2321069D1*
X1956724Y2318217D1*
X1955298Y2313906D1*
Y2306710D1*
X1956724Y2302432D1*
X1958183Y2299547D1*
X1961035Y2296695D1*
X1963920Y2295236D1*
X1969657D1*
X1972509Y2296695D1*
X1975394Y2299547D1*
X1976820Y2302432D1*
X1986083Y2319610D2*
X1988968Y2321069D1*
X1993279Y2325347D1*
Y2295236D1*
X2002543Y2319610D2*
X2005428Y2321069D1*
X2009739Y2325347D1*
Y2295236D1*
X2590036Y1969902D2*
X2588610Y1972754D1*
X2585725Y1975639D1*
X2582873Y1977065D1*
X2577137D1*
X2574251Y1975639D1*
X2571400Y1972754D1*
X2569940Y1969902D1*
X2568514Y1965591D1*
Y1958395D1*
X2569940Y1954117D1*
X2571400Y1951232D1*
X2574251Y1948380D1*
X2577137Y1946921D1*
X2582873D1*
X2585725Y1948380D1*
X2588610Y1951232D1*
X2590036Y1954117D1*
X2599300Y1971295D2*
X2602185Y1972754D1*
X2606496Y1977032D1*
Y1946921D1*
X2617219Y1969869D2*
Y1971295D1*
X2618645Y1974180D1*
X2620071Y1975606D1*
X2622956Y1977032D1*
X2628693D1*
X2631545Y1975606D1*
X2632971Y1974180D1*
X2634430Y1971295D1*
Y1968443D1*
X2632971Y1965558D1*
X2630119Y1961280D1*
X2615760Y1946921D1*
X2635856D1*
X2594418Y2473208D2*
X2592992Y2476060D1*
X2590107Y2478945D1*
X2587255Y2480371D1*
X2581518D1*
X2578633Y2478945D1*
X2575781Y2476060D1*
X2574322Y2473208D1*
X2572896Y2468897D1*
Y2461701D1*
X2574322Y2457423D1*
X2575781Y2454538D1*
X2578633Y2451686D1*
X2581518Y2450227D1*
X2587255D1*
X2590107Y2451686D1*
X2592992Y2454538D1*
X2594418Y2457423D1*
X2603682Y2474601D2*
X2606567Y2476060D1*
X2610878Y2480338D1*
Y2450227D1*
X2623027Y2480338D2*
X2638778D1*
X2630190Y2468864D1*
X2634501D1*
X2637352Y2467438D1*
X2638778Y2466012D1*
X2640238Y2461701D1*
Y2458849D1*
X2638778Y2454538D1*
X2635926Y2451653D1*
X2631615Y2450227D1*
X2627304D1*
X2623027Y2451653D1*
X2621601Y2453112D1*
X2620142Y2455964D1*
X2335744Y2436728D2*
X2332892Y2435302D1*
X2330007Y2432416D1*
X2328581Y2429565D1*
Y2423828D1*
X2330007Y2420942D1*
X2332892Y2418091D1*
X2335744Y2416632D1*
X2340055Y2415206D1*
X2347251D1*
X2351529Y2416632D1*
X2354414Y2418091D1*
X2357266Y2420943D1*
X2358725Y2423828D1*
Y2429565D1*
X2357266Y2432417D1*
X2354414Y2435302D1*
X2351529Y2436728D1*
X2334351Y2445991D2*
X2332891Y2448876D1*
X2328613Y2453187D1*
X2358724Y2453188D1*
Y2476810D2*
X2328613D1*
X2348676Y2462451D1*
Y2483973D1*
X2573828Y721894D2*
X2575254Y719043D1*
X2578139Y716157D1*
X2580991Y714732D1*
X2586728D1*
X2589613Y716157D1*
X2592465Y719043D1*
X2593924Y721894D1*
X2595350Y726205D1*
Y733402D1*
X2593924Y737679D1*
X2592465Y740564D1*
X2589613Y743416D1*
X2586728Y744876D1*
X2580991D1*
X2578139Y743416D1*
X2575254Y740564D1*
X2573828Y737679D1*
X2564565Y720502D2*
X2561680Y719043D1*
X2557369Y714765D1*
Y744876D1*
X2530894Y714765D2*
X2545220D1*
X2546646Y727665D1*
X2545220Y726239D1*
X2540909Y724780D1*
X2536631D1*
X2532320Y726239D1*
X2529435Y729091D1*
X2528009Y733402D1*
Y736253D1*
X2529435Y740564D1*
X2532320Y743450D1*
X2536631Y744876D1*
X2540909D1*
X2545220Y743450D1*
X2546646Y741990D1*
X2548105Y739139D1*
X2377293Y2438040D2*
X2374441Y2436614D1*
X2371556Y2433729D1*
X2370130Y2430877D1*
Y2425140D1*
X2371556Y2422255D1*
X2374441Y2419403D1*
X2377293Y2417944D1*
X2381604Y2416518D1*
X2388801D1*
X2393078Y2417944D1*
X2395963Y2419403D1*
X2398815Y2422255D1*
X2400274Y2425140D1*
Y2430877D1*
X2398815Y2433729D1*
X2395963Y2436614D1*
X2393078Y2438040D1*
X2375901Y2447304D2*
X2374441Y2450189D1*
X2370164Y2454500D1*
X2400274D1*
X2374441Y2480974D2*
X2371590Y2479548D1*
X2370164Y2475237D1*
Y2472385D1*
X2371590Y2468074D1*
X2375901Y2465189D1*
X2383064Y2463763D1*
X2390226D1*
X2395963Y2465189D1*
X2398849Y2468074D1*
X2400274Y2472385D1*
Y2473811D1*
X2398849Y2478089D1*
X2395963Y2480974D1*
X2391652Y2482400D1*
X2390226D1*
X2385915Y2480974D1*
X2383064Y2478089D1*
X2381638Y2473811D1*
Y2472385D1*
X2383064Y2468074D1*
X2385915Y2465189D1*
X2390226Y2463763D1*
X2319481Y479825D2*
X2318055Y482677D1*
X2315170Y485562D1*
X2312318Y486988D1*
X2306581D1*
X2303696Y485562D1*
X2300844Y482677D1*
X2299385Y479825D1*
X2297959Y475514D1*
Y468318D1*
X2299385Y464040D1*
X2300844Y461155D1*
X2303696Y458303D1*
X2306581Y456844D1*
X2312318D1*
X2315170Y458303D1*
X2318055Y461155D1*
X2319481Y464040D1*
X2328745Y481218D2*
X2331630Y482677D1*
X2335941Y486954D1*
Y456844D1*
X2350941D2*
X2365300Y486954D1*
X2345204D1*
X2319498Y678711D2*
X2318072Y681562D1*
X2315187Y684448D1*
X2312335Y685873D1*
X2306598D1*
X2303713Y684448D1*
X2300861Y681562D1*
X2299402Y678711D1*
X2297976Y674400D1*
Y667203D1*
X2299402Y662926D1*
X2300861Y660040D1*
X2303713Y657189D1*
X2306598Y655729D1*
X2312335D1*
X2315187Y657189D1*
X2318072Y660040D1*
X2319498Y662926D1*
X2328761Y680103D2*
X2331647Y681562D1*
X2335958Y685840D1*
Y655729D1*
X2352384Y685840D2*
X2348106Y684414D1*
X2346647Y681562D1*
Y678677D1*
X2348106Y675825D1*
X2350958Y674366D1*
X2356695Y672940D1*
X2361006Y671514D1*
X2363858Y668629D1*
X2365284Y665777D1*
Y661466D1*
X2363858Y658615D1*
X2362432Y657155D1*
X2358121Y655729D1*
X2352384D1*
X2348106Y657155D1*
X2346647Y658615D1*
X2345221Y661466D1*
Y665777D1*
X2346647Y668629D1*
X2349532Y671514D1*
X2353810Y672940D1*
X2359547Y674366D1*
X2362432Y675825D1*
X2363858Y678677D1*
Y681562D1*
X2362432Y684414D1*
X2358121Y685840D1*
X2352384D1*
X2415135Y1226844D2*
X2413709Y1229696D1*
X2410824Y1232581D1*
X2407972Y1234007D1*
X2402235D1*
X2399350Y1232581D1*
X2396498Y1229696D1*
X2395039Y1226844D1*
X2393613Y1222533D1*
Y1215337D1*
X2395039Y1211059D1*
X2396498Y1208174D1*
X2399350Y1205322D1*
X2402235Y1203863D1*
X2407972D1*
X2410824Y1205322D1*
X2413709Y1208174D1*
X2415135Y1211059D1*
X2424399Y1228237D2*
X2427284Y1229696D1*
X2431595Y1233974D1*
Y1203863D1*
X2459528Y1223959D2*
X2458069Y1219648D1*
X2455217Y1216763D1*
X2450906Y1215337D1*
X2449480D1*
X2445169Y1216763D1*
X2442318Y1219648D1*
X2440858Y1223959D1*
Y1225385D1*
X2442318Y1229696D1*
X2445169Y1232548D1*
X2449480Y1233974D1*
X2450906D1*
X2455217Y1232548D1*
X2458069Y1229696D1*
X2459528Y1223959D1*
Y1216763D1*
X2458069Y1209600D1*
X2455217Y1205289D1*
X2450906Y1203863D1*
X2448055D1*
X2443743Y1205289D1*
X2442318Y1208174D1*
X2409270Y1028743D2*
X2407844Y1031595D1*
X2404959Y1034480D1*
X2402107Y1035906D1*
X2396370D1*
X2393485Y1034480D1*
X2390633Y1031595D1*
X2389174Y1028743D1*
X2387748Y1024432D1*
Y1017236D1*
X2389174Y1012958D1*
X2390633Y1010073D1*
X2393485Y1007221D1*
X2396370Y1005762D1*
X2402107D1*
X2404959Y1007221D1*
X2407844Y1010073D1*
X2409270Y1012958D1*
X2419993Y1028710D2*
Y1030136D1*
X2421419Y1033021D1*
X2422845Y1034447D1*
X2425730Y1035873D1*
X2431467D1*
X2434319Y1034447D1*
X2435745Y1033021D1*
X2437204Y1030136D1*
Y1027284D1*
X2435745Y1024399D1*
X2432893Y1020121D1*
X2418534Y1005762D1*
X2438630D1*
X2456515Y1035873D2*
X2452204Y1034447D1*
X2449319Y1030136D1*
X2447893Y1022973D1*
Y1018662D1*
X2449319Y1011499D1*
X2452204Y1007188D1*
X2456515Y1005762D1*
X2459367D1*
X2463678Y1007188D1*
X2466530Y1011499D1*
X2467989Y1018662D1*
Y1022973D1*
X2466530Y1030136D1*
X2463678Y1034447D1*
X2459367Y1035873D1*
X2456515D1*
X2466530Y1030136D2*
X2449319Y1011499D1*
X2265549Y2412349D2*
X2262697Y2410923D1*
X2259812Y2408038D1*
X2258386Y2405186D1*
Y2399449D1*
X2259812Y2396564D1*
X2262697Y2393712D1*
X2265549Y2392253D1*
X2269860Y2390827D1*
X2277056D1*
X2281334Y2392253D1*
X2284219Y2393712D1*
X2287071Y2396564D1*
X2288530Y2399449D1*
Y2405186D1*
X2287071Y2408038D1*
X2284219Y2410923D1*
X2281334Y2412349D1*
X2265582Y2423071D2*
X2264157D1*
X2261271Y2424497D1*
X2259845Y2425923D1*
X2258420Y2428808D1*
Y2434545D1*
X2259845Y2437397D1*
X2261271Y2438823D1*
X2264157Y2440282D1*
X2267008D1*
X2269893Y2438823D1*
X2274171Y2435971D1*
X2288530Y2421612D1*
Y2441708D1*
X2264157Y2450972D2*
X2262697Y2453857D1*
X2258420Y2458168D1*
X2288530D1*
X2362917Y2014817D2*
X2361491Y2017669D1*
X2358606Y2020554D1*
X2355754Y2021980D1*
X2350017D1*
X2347132Y2020554D1*
X2344280Y2017669D1*
X2342821Y2014817D1*
X2341395Y2010506D1*
Y2003310D1*
X2342821Y1999032D1*
X2344280Y1996147D1*
X2347132Y1993295D1*
X2350017Y1991836D1*
X2355754D1*
X2358606Y1993295D1*
X2361491Y1996147D1*
X2362917Y1999032D1*
X2373640Y2014784D2*
Y2016210D1*
X2375066Y2019095D1*
X2376492Y2020521D1*
X2379377Y2021947D1*
X2385114D1*
X2387966Y2020521D1*
X2389392Y2019095D1*
X2390851Y2016210D1*
Y2013358D1*
X2389392Y2010473D1*
X2386540Y2006195D1*
X2372181Y1991836D1*
X2392277D1*
X2402999Y2014784D2*
Y2016210D1*
X2404425Y2019095D1*
X2405851Y2020521D1*
X2408736Y2021947D1*
X2414473D1*
X2417325Y2020521D1*
X2418751Y2019095D1*
X2420210Y2016210D1*
Y2013358D1*
X2418751Y2010473D1*
X2415899Y2006195D1*
X2401540Y1991836D1*
X2421636D1*
X2757521Y520306D2*
X2756095Y523158D1*
X2753210Y526043D1*
X2750358Y527469D1*
X2744621D1*
X2741736Y526043D1*
X2738884Y523158D1*
X2737425Y520306D1*
X2735999Y515995D1*
Y508799D1*
X2737425Y504521D1*
X2738884Y501636D1*
X2741736Y498784D1*
X2744621Y497325D1*
X2750358D1*
X2753210Y498784D1*
X2756095Y501636D1*
X2757521Y504521D1*
X2768244Y520273D2*
Y521699D1*
X2769669Y524584D1*
X2771095Y526010D1*
X2773980Y527436D1*
X2779717D1*
X2782569Y526010D1*
X2783995Y524584D1*
X2785454Y521699D1*
Y518847D1*
X2783995Y515962D1*
X2781143Y511684D1*
X2766784Y497325D1*
X2786880D1*
X2799029Y527436D2*
X2814781D1*
X2806192Y515962D1*
X2810503D1*
X2813355Y514536D1*
X2814781Y513110D1*
X2816240Y508799D1*
Y505947D1*
X2814781Y501636D1*
X2811929Y498751D1*
X2807618Y497325D1*
X2803307D1*
X2799029Y498751D1*
X2797603Y500210D1*
X2796144Y503062D1*
X2873717Y599499D2*
X2876569Y600925D1*
X2879454Y603810D1*
X2880880Y606662D1*
Y612399D1*
X2879454Y615284D1*
X2876569Y618136D1*
X2873717Y619595D1*
X2869406Y621021D1*
X2862210D1*
X2857932Y619595D1*
X2855047Y618136D1*
X2852195Y615284D1*
X2850736Y612399D1*
Y606662D1*
X2852195Y603810D1*
X2855047Y600925D1*
X2857932Y599499D1*
X2873684Y588777D2*
X2875110D1*
X2877995Y587351D1*
X2879421Y585925D1*
X2880847Y583040D1*
Y577303D1*
X2879421Y574451D1*
X2877995Y573025D1*
X2875110Y571566D1*
X2872258D1*
X2869373Y573025D1*
X2865095Y575877D1*
X2850736Y590236D1*
Y570140D1*
Y546517D2*
X2880847D1*
X2860784Y560876D1*
Y539354D1*
X1426303Y2241232D2*
X1424877Y2244083D1*
X1421992Y2246969D1*
X1419140Y2248394D1*
X1413403D1*
X1410518Y2246969D1*
X1407666Y2244083D1*
X1406207Y2241232D1*
X1404781Y2236921D1*
Y2229724D1*
X1406207Y2225447D1*
X1407666Y2222561D1*
X1410518Y2219710D1*
X1413403Y2218250D1*
X1419140D1*
X1421992Y2219710D1*
X1424877Y2222561D1*
X1426303Y2225447D1*
X1437026Y2241198D2*
Y2242624D1*
X1438452Y2245509D1*
X1439878Y2246935D1*
X1442763Y2248361D1*
X1448500D1*
X1451352Y2246935D1*
X1452777Y2245509D1*
X1454237Y2242624D1*
Y2239772D1*
X1452777Y2236887D1*
X1449926Y2232609D1*
X1435567Y2218250D1*
X1455663D1*
X1482137Y2248361D2*
X1467811D1*
X1466385Y2235461D1*
X1467811Y2236887D1*
X1472122Y2238346D1*
X1476400D1*
X1480711Y2236887D1*
X1483596Y2234035D1*
X1485022Y2229724D1*
Y2226873D1*
X1483596Y2222561D1*
X1480711Y2219676D1*
X1476400Y2218250D1*
X1472122D1*
X1467811Y2219676D1*
X1466385Y2221136D1*
X1464926Y2223987D1*
X416027Y1098465D2*
X446171D1*
Y1108513D1*
X444712Y1112824D1*
X441860Y1115709D1*
X438975Y1117135D1*
X434697Y1118561D1*
X427501D1*
X423190Y1117135D1*
X420338Y1115709D1*
X417453Y1112824D1*
X416027Y1108513D1*
Y1098465D1*
X421797Y1127825D2*
X420338Y1130710D1*
X416060Y1135021D1*
X446171D1*
X2567516Y978139D2*
Y947995D1*
X2577564D1*
X2581875Y949454D1*
X2584760Y952306D1*
X2586186Y955191D1*
X2587612Y959469D1*
Y966665D1*
X2586186Y970976D1*
X2584760Y973828D1*
X2581875Y976713D1*
X2577564Y978139D1*
X2567516D1*
X2598335Y970942D2*
Y972368D1*
X2599761Y975254D1*
X2601187Y976679D1*
X2604072Y978105D1*
X2609809D1*
X2612661Y976679D1*
X2614087Y975254D1*
X2615546Y972368D1*
Y969517D1*
X2614087Y966631D1*
X2611235Y962354D1*
X2596876Y947995D1*
X2616972D1*
X893833Y2249216D2*
X916780D1*
X921091Y2247790D1*
X922517Y2246331D1*
X923977Y2243479D1*
Y2240594D1*
X922517Y2237742D1*
X921091Y2236316D1*
X916780Y2234857D1*
X913929D1*
X899603Y2258480D2*
X898144Y2261365D1*
X893866Y2265676D1*
X923977D1*
X618833Y2242765D2*
X641780D1*
X646091Y2241339D1*
X647517Y2239880D1*
X648977Y2237028D1*
Y2234143D1*
X647517Y2231291D1*
X646091Y2229865D1*
X641780Y2228406D1*
X638929D1*
X626029Y2253487D2*
X624603D1*
X621718Y2254913D1*
X620292Y2256339D1*
X618866Y2259224D1*
Y2264961D1*
X620292Y2267813D1*
X621718Y2269239D1*
X624603Y2270698D1*
X627455D1*
X630340Y2269239D1*
X634618Y2266387D1*
X648977Y2252028D1*
Y2272124D1*
X1625082Y2242766D2*
X1648030D1*
X1652341Y2241340D1*
X1653767Y2239881D1*
X1655226Y2237029D1*
Y2234144D1*
X1653767Y2231292D1*
X1652341Y2229866D1*
X1648030Y2228407D1*
X1645178D1*
X1625115Y2254915D2*
Y2270667D1*
X1636589Y2262078D1*
Y2266389D1*
X1638015Y2269241D1*
X1639441Y2270667D1*
X1643752Y2272126D1*
X1646604D1*
X1650915Y2270667D1*
X1653800Y2267815D1*
X1655226Y2263504D1*
Y2259193D1*
X1653800Y2254915D1*
X1652341Y2253489D1*
X1649489Y2252030D1*
X2841224Y1609654D2*
X2864172D1*
X2868483Y1608228D1*
X2869909Y1606769D1*
X2871368Y1603917D1*
Y1601032D1*
X2869909Y1598180D1*
X2868483Y1596754D1*
X2864172Y1595295D1*
X2861320D1*
X2871368Y1633277D2*
X2841257D1*
X2861320Y1618918D1*
Y1640440D1*
X1136515Y2568732D2*
Y2545784D1*
X1135090Y2541473D1*
X1133630Y2540047D1*
X1130779Y2538588D1*
X1127893D1*
X1125042Y2540047D1*
X1123616Y2541473D1*
X1122156Y2545784D1*
Y2548636D1*
X1162990Y2568699D2*
X1148664D1*
X1147238Y2555799D1*
X1148664Y2557225D1*
X1152975Y2558684D1*
X1157253D1*
X1161564Y2557225D1*
X1164449Y2554373D1*
X1165875Y2550062D1*
Y2547210D1*
X1164449Y2542899D1*
X1161564Y2540014D1*
X1157253Y2538588D1*
X1152975D1*
X1148664Y2540014D1*
X1147238Y2541473D1*
X1145779Y2544325D1*
X812245Y2562482D2*
Y2539534D1*
X810819Y2535223D1*
X809360Y2533798D1*
X806508Y2532338D1*
X803623D1*
X800771Y2533798D1*
X799345Y2535223D1*
X797886Y2539534D1*
Y2542386D1*
X838720Y2558171D2*
X837294Y2561023D1*
X832983Y2562449D1*
X830131D1*
X825820Y2561023D1*
X822935Y2556712D1*
X821509Y2549549D1*
Y2542386D1*
X822935Y2536649D1*
X825820Y2533764D1*
X830131Y2532338D1*
X831557D1*
X835834Y2533764D1*
X838720Y2536649D1*
X840145Y2540960D1*
Y2542386D1*
X838720Y2546697D1*
X835834Y2549549D1*
X831557Y2550975D1*
X830131D1*
X825820Y2549549D1*
X822935Y2546697D1*
X821509Y2542386D1*
X2030876Y479005D2*
Y456057D1*
X2029450Y451746D1*
X2027991Y450320D1*
X2025139Y448861D1*
X2022254D1*
X2019402Y450320D1*
X2017976Y451746D1*
X2016517Y456057D1*
Y458909D1*
X2045877Y448861D2*
X2060236Y478972D1*
X2040140D1*
X2843339Y2196342D2*
X2866287D1*
X2870598Y2194916D1*
X2872024Y2193457D1*
X2873483Y2190605D1*
Y2187720D1*
X2872024Y2184868D1*
X2870598Y2183442D1*
X2866287Y2181983D1*
X2863435D1*
X2843372Y2212768D2*
X2844798Y2208490D1*
X2847650Y2207031D1*
X2850535D1*
X2853387Y2208490D1*
X2854846Y2211342D1*
X2856272Y2217079D1*
X2857698Y2221390D1*
X2860583Y2224242D1*
X2863435Y2225668D1*
X2867746D1*
X2870598Y2224242D1*
X2872057Y2222816D1*
X2873483Y2218505D1*
Y2212768D1*
X2872057Y2208490D1*
X2870598Y2207031D1*
X2867746Y2205605D1*
X2863435D1*
X2860583Y2207031D1*
X2857698Y2209916D1*
X2856272Y2214194D1*
X2854846Y2219931D1*
X2853387Y2222816D1*
X2850535Y2224242D1*
X2847650D1*
X2844798Y2222816D1*
X2843372Y2218505D1*
Y2212768D1*
X1597035Y2562482D2*
Y2539534D1*
X1595609Y2535223D1*
X1594150Y2533798D1*
X1591298Y2532338D1*
X1588413D1*
X1585561Y2533798D1*
X1584135Y2535223D1*
X1582676Y2539534D1*
Y2542386D1*
X1606299Y2556712D2*
X1609184Y2558171D1*
X1613495Y2562449D1*
Y2532338D1*
X1631380Y2562449D2*
X1627069Y2561023D1*
X1624184Y2556712D1*
X1622758Y2549549D1*
Y2545238D1*
X1624184Y2538075D1*
X1627069Y2533764D1*
X1631380Y2532338D1*
X1634232D1*
X1638543Y2533764D1*
X1641395Y2538075D1*
X1642854Y2545238D1*
Y2549549D1*
X1641395Y2556712D1*
X1638543Y2561023D1*
X1634232Y2562449D1*
X1631380D1*
X1641395Y2556712D2*
X1624184Y2538075D1*
X2265985Y2622894D2*
Y2599947D1*
X2264559Y2595636D1*
X2263100Y2594210D1*
X2260248Y2592750D1*
X2257363D1*
X2254511Y2594210D1*
X2253085Y2595636D1*
X2251626Y2599947D1*
Y2602798D1*
X2275249Y2617124D2*
X2278134Y2618583D1*
X2282445Y2622861D1*
Y2592750D1*
X2291708Y2617124D2*
X2294593Y2618583D1*
X2298904Y2622861D1*
Y2592750D1*
X2594993Y1197039D2*
Y1166895D1*
X2612204D1*
X2621467Y1191269D2*
X2624352Y1192728D1*
X2628663Y1197006D1*
Y1166895D1*
X2867884Y1298394D2*
Y1268250D1*
X2885095D1*
X2912995Y1298394D2*
X2894358D1*
Y1268250D1*
X2912995D1*
X2894358Y1284035D2*
X2905832D1*
X2922259Y1298394D2*
Y1268250D1*
X2932307D1*
X2936618Y1269710D1*
X2939503Y1272561D1*
X2940929Y1275447D1*
X2942355Y1279724D1*
Y1286921D1*
X2940929Y1291232D1*
X2939503Y1294083D1*
X2936618Y1296969D1*
X2932307Y1298394D1*
X2922259D1*
X2951618Y1292624D2*
X2954503Y1294083D1*
X2958814Y1298361D1*
Y1268250D1*
X1845701Y1787043D2*
Y1774143D1*
X1847160Y1769832D1*
X1848586Y1768373D1*
X1851438Y1766947D1*
X1854323D1*
X1857175Y1768373D1*
X1858634Y1769832D1*
X1860060Y1774143D1*
Y1787043D1*
X1829916D1*
X1845701Y1776995D2*
X1829916Y1766947D1*
X1854290Y1757683D2*
X1855749Y1754798D1*
X1860027Y1750487D1*
X1829916D1*
X1063431Y2384035D2*
X1076331D1*
X1080642Y2385495D1*
X1082101Y2386921D1*
X1083527Y2389772D1*
Y2392657D1*
X1082101Y2395509D1*
X1080642Y2396969D1*
X1076331Y2398394D1*
X1063431D1*
Y2368250D1*
X1073479Y2384035D2*
X1083527Y2368250D1*
X1094250Y2391198D2*
Y2392624D1*
X1095676Y2395509D1*
X1097102Y2396935D1*
X1099987Y2398361D1*
X1105724D1*
X1108576Y2396935D1*
X1110001Y2395509D1*
X1111461Y2392624D1*
Y2389772D1*
X1110001Y2386887D1*
X1107150Y2382609D1*
X1092791Y2368250D1*
X1112887D1*
X786754Y2384035D2*
X799654D1*
X803965Y2385495D1*
X805424Y2386921D1*
X806850Y2389772D1*
Y2392657D1*
X805424Y2395509D1*
X803965Y2396969D1*
X799654Y2398394D1*
X786754D1*
Y2368250D1*
X796802Y2384035D2*
X806850Y2368250D1*
X818998Y2398361D2*
X834750D1*
X826161Y2386887D1*
X830472D1*
X833324Y2385461D1*
X834750Y2384035D1*
X836209Y2379724D1*
Y2376873D1*
X834750Y2372561D1*
X831898Y2369676D1*
X827587Y2368250D1*
X823276D1*
X818998Y2369676D1*
X817573Y2371136D1*
X816113Y2373987D1*
X2690561Y1680915D2*
X2703460D1*
X2707771Y1682374D1*
X2709231Y1683800D1*
X2710657Y1686652D1*
Y1689537D1*
X2709231Y1692389D1*
X2707771Y1693848D1*
X2703460Y1695274D1*
X2690561D1*
Y1665130D1*
X2700609Y1680915D2*
X2710657Y1665130D1*
X2734279D2*
Y1695241D1*
X2719920Y1675178D1*
X2741442D1*
X2683756Y1552298D2*
X2696656D1*
X2700967Y1553757D1*
X2702427Y1555183D1*
X2703852Y1558035D1*
Y1560920D1*
X2702427Y1563772D1*
X2700967Y1565231D1*
X2696656Y1566657D1*
X2683756D1*
Y1536513D1*
X2693804Y1552298D2*
X2703852Y1536513D1*
X2730327Y1566624D2*
X2716001D1*
X2714575Y1553724D1*
X2716001Y1555150D1*
X2720312Y1556609D1*
X2724590D1*
X2728901Y1555150D1*
X2731786Y1552298D1*
X2733212Y1547987D1*
Y1545135D1*
X2731786Y1540824D1*
X2728901Y1537939D1*
X2724590Y1536513D1*
X2720312D1*
X2716001Y1537939D1*
X2714575Y1539398D1*
X2713116Y1542250D1*
X2519590Y1281869D2*
X2532490D1*
X2536801Y1283328D1*
X2538260Y1284754D1*
X2539686Y1287606D1*
Y1290491D1*
X2538260Y1293343D1*
X2536801Y1294802D1*
X2532490Y1296228D1*
X2519590D1*
Y1266084D1*
X2529638Y1281869D2*
X2539686Y1266084D1*
X2566160Y1291917D2*
X2564734Y1294769D1*
X2560423Y1296195D1*
X2557571D1*
X2553260Y1294769D1*
X2550375Y1290458D1*
X2548949Y1283295D1*
Y1276132D1*
X2550375Y1270395D1*
X2553260Y1267510D1*
X2557571Y1266084D1*
X2558997D1*
X2563275Y1267510D1*
X2566160Y1270395D1*
X2567586Y1274706D1*
Y1276132D1*
X2566160Y1280443D1*
X2563275Y1283295D1*
X2558997Y1284721D1*
X2557571D1*
X2553260Y1283295D1*
X2550375Y1280443D1*
X2548949Y1276132D1*
X2593868Y437297D2*
X2606768D1*
X2611079Y438756D1*
X2612538Y440182D1*
X2613964Y443034D1*
Y445919D1*
X2612538Y448771D1*
X2611079Y450230D1*
X2606768Y451656D1*
X2593868D1*
Y421512D1*
X2603916Y437297D2*
X2613964Y421512D1*
X2628965D2*
X2643324Y451622D1*
X2623228D1*
X2456805Y437106D2*
X2469704D1*
X2474015Y438565D1*
X2475475Y439991D1*
X2476901Y442843D1*
Y445728D1*
X2475475Y448580D1*
X2474015Y450039D1*
X2469704Y451465D1*
X2456805D1*
Y421321D1*
X2466853Y437106D2*
X2476901Y421321D1*
X2493327Y451432D2*
X2489049Y450006D1*
X2487590Y447154D1*
Y444269D1*
X2489049Y441417D1*
X2491901Y439958D1*
X2497638Y438532D1*
X2501949Y437106D1*
X2504801Y434221D1*
X2506227Y431369D1*
Y427058D1*
X2504801Y424206D1*
X2503375Y422747D1*
X2499064Y421321D1*
X2493327D1*
X2489049Y422747D1*
X2487590Y424206D1*
X2486164Y427058D1*
Y431369D1*
X2487590Y434221D1*
X2490475Y437106D1*
X2494753Y438532D1*
X2500490Y439958D1*
X2503375Y441417D1*
X2504801Y444269D1*
Y447154D1*
X2503375Y450006D1*
X2499064Y451432D1*
X2493327D1*
X2752105Y631688D2*
X2765005D1*
X2769316Y633147D1*
X2770775Y634573D1*
X2772201Y637425D1*
Y640310D1*
X2770775Y643162D1*
X2769316Y644621D1*
X2765005Y646047D1*
X2752105D1*
Y615903D1*
X2762153Y631688D2*
X2772201Y615903D1*
X2800134Y635999D2*
X2798675Y631688D1*
X2795823Y628803D1*
X2791512Y627377D1*
X2790086D1*
X2785775Y628803D1*
X2782923Y631688D1*
X2781464Y635999D1*
Y637425D1*
X2782923Y641736D1*
X2785775Y644588D1*
X2790086Y646014D1*
X2791512D1*
X2795823Y644588D1*
X2798675Y641736D1*
X2800134Y635999D1*
Y628803D1*
X2798675Y621640D1*
X2795823Y617329D1*
X2791512Y615903D1*
X2788660D1*
X2784349Y617329D1*
X2782923Y620214D1*
X2663601Y437297D2*
X2676501D1*
X2680812Y438756D1*
X2682272Y440182D1*
X2683697Y443034D1*
Y445919D1*
X2682272Y448771D1*
X2680812Y450230D1*
X2676501Y451656D1*
X2663601D1*
Y421512D1*
X2673649Y437297D2*
X2683697Y421512D1*
X2692961Y445885D2*
X2695846Y447345D1*
X2700157Y451622D1*
Y421512D1*
X2718043Y451622D2*
X2713732Y450197D1*
X2710847Y445885D1*
X2709421Y438723D1*
Y434412D1*
X2710847Y427249D1*
X2713732Y422938D1*
X2718043Y421512D1*
X2720895D1*
X2725206Y422938D1*
X2728058Y427249D1*
X2729517Y434412D1*
Y438723D1*
X2728058Y445885D1*
X2725206Y450197D1*
X2720895Y451622D1*
X2718043D1*
X2728058Y445885D2*
X2710847Y427249D1*
X2681977Y2269938D2*
X2694877D1*
X2699188Y2271397D1*
X2700647Y2272823D1*
X2702073Y2275675D1*
Y2278560D1*
X2700647Y2281412D1*
X2699188Y2282871D1*
X2694877Y2284297D1*
X2681977D1*
Y2254153D1*
X2692025Y2269938D2*
X2702073Y2254153D1*
X2711336Y2278527D2*
X2714221Y2279986D1*
X2718532Y2284264D1*
Y2254153D1*
X2727796Y2278527D2*
X2730681Y2279986D1*
X2734992Y2284264D1*
Y2254153D1*
X2683044Y2145365D2*
X2695944D1*
X2700255Y2146824D1*
X2701714Y2148250D1*
X2703140Y2151102D1*
Y2153987D1*
X2701714Y2156839D1*
X2700255Y2158298D1*
X2695944Y2159724D1*
X2683044D1*
Y2129580D1*
X2693092Y2145365D2*
X2703140Y2129580D1*
X2712403Y2153954D2*
X2715288Y2155413D1*
X2719599Y2159691D1*
Y2129580D1*
X2730322Y2152528D2*
Y2153954D1*
X2731748Y2156839D1*
X2733174Y2158265D1*
X2736059Y2159691D1*
X2741796D1*
X2744648Y2158265D1*
X2746074Y2156839D1*
X2747533Y2153954D1*
Y2151102D1*
X2746074Y2148217D1*
X2743222Y2143939D1*
X2728863Y2129580D1*
X2748959D1*
X961058Y1246535D2*
X973958D1*
X978269Y1247995D1*
X979728Y1249421D1*
X981154Y1252272D1*
Y1255157D1*
X979728Y1258009D1*
X978269Y1259469D1*
X973958Y1260894D1*
X961058D1*
Y1230750D1*
X971106Y1246535D2*
X981154Y1230750D1*
X990418Y1255124D2*
X993303Y1256583D1*
X997614Y1260861D1*
Y1230750D1*
X1009762Y1260861D2*
X1025514D1*
X1016925Y1249387D1*
X1021236D1*
X1024088Y1247961D1*
X1025514Y1246535D1*
X1026973Y1242224D1*
Y1239373D1*
X1025514Y1235061D1*
X1022662Y1232176D1*
X1018351Y1230750D1*
X1014040D1*
X1009762Y1232176D1*
X1008336Y1233636D1*
X1006877Y1236487D1*
X1512744Y1246535D2*
X1525644D1*
X1529955Y1247995D1*
X1531414Y1249421D1*
X1532840Y1252272D1*
Y1255157D1*
X1531414Y1258009D1*
X1529955Y1259469D1*
X1525644Y1260894D1*
X1512744D1*
Y1230750D1*
X1522792Y1246535D2*
X1532840Y1230750D1*
X1542104Y1255124D2*
X1544989Y1256583D1*
X1549300Y1260861D1*
Y1230750D1*
X1572922D2*
Y1260861D1*
X1558563Y1240798D1*
X1580085D1*
X1504809Y1102785D2*
X1517709D1*
X1522020Y1104244D1*
X1523479Y1105670D1*
X1524905Y1108522D1*
Y1111407D1*
X1523479Y1114259D1*
X1522020Y1115718D1*
X1517709Y1117144D1*
X1504809D1*
Y1087000D1*
X1514857Y1102785D2*
X1524905Y1087000D1*
X1534168Y1111374D2*
X1537053Y1112833D1*
X1541364Y1117111D1*
Y1087000D1*
X1567839Y1117111D2*
X1553513D1*
X1552087Y1104211D1*
X1553513Y1105637D1*
X1557824Y1107096D1*
X1562102D1*
X1566413Y1105637D1*
X1569298Y1102785D1*
X1570724Y1098474D1*
Y1095622D1*
X1569298Y1091311D1*
X1566413Y1088426D1*
X1562102Y1087000D1*
X1557824D1*
X1553513Y1088426D1*
X1552087Y1089885D1*
X1550628Y1092737D1*
X961788Y1201371D2*
X974688D1*
X978999Y1202831D1*
X980458Y1204256D1*
X981884Y1207108D1*
Y1209993D1*
X980458Y1212845D1*
X978999Y1214304D1*
X974688Y1215730D1*
X961788D1*
Y1185586D1*
X971836Y1201371D2*
X981884Y1185586D1*
X991147Y1209960D2*
X994032Y1211419D1*
X998343Y1215697D1*
Y1185586D1*
X1024818Y1211419D2*
X1023392Y1214271D1*
X1019081Y1215697D1*
X1016229D1*
X1011918Y1214271D1*
X1009033Y1209960D1*
X1007607Y1202797D1*
Y1195634D1*
X1009033Y1189897D1*
X1011918Y1187012D1*
X1016229Y1185586D1*
X1017655D1*
X1021933Y1187012D1*
X1024818Y1189897D1*
X1026244Y1194208D1*
Y1195634D1*
X1024818Y1199945D1*
X1021933Y1202797D1*
X1017655Y1204223D1*
X1016229D1*
X1011918Y1202797D1*
X1009033Y1199945D1*
X1007607Y1195634D1*
X1511058Y1196535D2*
X1523958D1*
X1528269Y1197995D1*
X1529728Y1199421D1*
X1531154Y1202272D1*
Y1205157D1*
X1529728Y1208009D1*
X1528269Y1209469D1*
X1523958Y1210894D1*
X1511058D1*
Y1180750D1*
X1521106Y1196535D2*
X1531154Y1180750D1*
X1540418Y1205124D2*
X1543303Y1206583D1*
X1547614Y1210861D1*
Y1180750D1*
X1562614D2*
X1576973Y1210861D1*
X1556877D1*
X1504824Y1059035D2*
X1517724D1*
X1522035Y1060495D1*
X1523494Y1061921D1*
X1524920Y1064772D1*
Y1067657D1*
X1523494Y1070509D1*
X1522035Y1071969D1*
X1517724Y1073394D1*
X1504824D1*
Y1043250D1*
X1514872Y1059035D2*
X1524920Y1043250D1*
X1534184Y1067624D2*
X1537069Y1069083D1*
X1541380Y1073361D1*
Y1043250D1*
X1557806Y1073361D2*
X1553528Y1071935D1*
X1552069Y1069083D1*
Y1066198D1*
X1553528Y1063346D1*
X1556380Y1061887D1*
X1562117Y1060461D1*
X1566428Y1059035D1*
X1569280Y1056150D1*
X1570706Y1053298D1*
Y1048987D1*
X1569280Y1046136D1*
X1567854Y1044676D1*
X1563543Y1043250D1*
X1557806D1*
X1553528Y1044676D1*
X1552069Y1046136D1*
X1550643Y1048987D1*
Y1053298D1*
X1552069Y1056150D1*
X1554954Y1059035D1*
X1559232Y1060461D1*
X1564969Y1061887D1*
X1567854Y1063346D1*
X1569280Y1066198D1*
Y1069083D1*
X1567854Y1071935D1*
X1563543Y1073361D1*
X1557806D1*
X1250428Y664051D2*
X1247576Y666936D1*
X1243265Y668362D1*
X1237528D1*
X1233217Y666936D1*
X1230332Y664051D1*
Y661199D1*
X1231791Y658314D1*
X1233217Y656888D1*
X1236069Y655462D1*
X1244691Y652577D1*
X1247576Y651151D1*
X1249002Y649692D1*
X1250428Y646841D1*
Y642529D1*
X1247576Y639678D1*
X1243265Y638218D1*
X1237528D1*
X1233217Y639677D1*
X1230332Y642529D1*
X1259691Y668363D2*
X1259692Y638219D1*
X1269740D1*
X1274051Y639678D1*
X1276936Y642530D1*
X1278362Y645415D1*
X1279788Y649693D1*
X1279787Y656889D1*
X1278361Y661200D1*
X1276935Y664052D1*
X1274050Y666937D1*
X1269739Y668363D1*
X1259691D1*
X1289051Y662593D2*
X1291936Y664052D1*
X1296247Y668330D1*
Y638219D1*
X2559634Y1634230D2*
Y1612708D1*
X2561060Y1608397D1*
X2563945Y1605545D1*
X2568256Y1604086D1*
X2571108D1*
X2575419Y1605545D1*
X2578304Y1608397D1*
X2579730Y1612708D1*
Y1634230D1*
X2588993Y1628460D2*
X2591878Y1629919D1*
X2596189Y1634197D1*
Y1604086D1*
X2557302Y2222396D2*
Y2200874D1*
X2558728Y2196563D1*
X2561613Y2193712D1*
X2565924Y2192252D1*
X2568776D1*
X2573087Y2193712D1*
X2575972Y2196563D1*
X2577398Y2200874D1*
Y2222396D1*
X2588120Y2215200D2*
Y2216626D1*
X2589546Y2219511D1*
X2590972Y2220937D1*
X2593857Y2222363D1*
X2599594D1*
X2602446Y2220937D1*
X2603872Y2219511D1*
X2605331Y2216626D1*
Y2213774D1*
X2603872Y2210889D1*
X2601020Y2206611D1*
X2586661Y2192252D1*
X2606757D1*
X2557739Y544976D2*
Y523454D1*
X2559165Y519143D1*
X2562050Y516291D1*
X2566361Y514832D1*
X2569213D1*
X2573524Y516291D1*
X2576409Y519143D1*
X2577835Y523454D1*
Y544976D1*
X2589984Y544943D2*
X2605736D1*
X2597147Y533469D1*
X2601458D1*
X2604310Y532043D1*
X2605736Y530617D1*
X2607195Y526306D1*
Y523454D1*
X2605736Y519143D1*
X2602884Y516258D1*
X2598573Y514832D1*
X2594262D1*
X2589984Y516258D1*
X2588558Y517717D1*
X2587099Y520569D1*
X1218575Y2255127D2*
Y2233605D1*
X1220001Y2229294D1*
X1222886Y2226442D1*
X1227197Y2224983D1*
X1230049D1*
X1234360Y2226442D1*
X1237245Y2229294D1*
X1238671Y2233605D1*
Y2255127D1*
X1262294Y2224983D2*
Y2255094D1*
X1247935Y2235031D1*
X1269457D1*
M02*
