G04 DipTrace Beta 4.1.9.0*
G04 2 - Bottom.gbr*
%MOIN*%
G04 #@! TF.FileFunction,Copper,L2,Bot*
G04 #@! TF.Part,Single*
G04 #@! TA.AperFunction,CopperBalancing*
%ADD16C,0.01*%
%ADD17C,0.012*%
G04 #@! TA.AperFunction,Conductor*
%ADD18C,0.009*%
G04 #@! TA.AperFunction,ViaPad*
%ADD19C,0.04*%
G04 #@! TA.AperFunction,CopperBalancing*
%ADD27C,0.012008*%
G04 #@! TA.AperFunction,ComponentPad*
%ADD32R,0.059055X0.059055*%
%ADD33C,0.059055*%
%ADD34O,0.11811X0.07874*%
%ADD35O,0.07874X0.11811*%
%ADD38C,0.2*%
%ADD44R,0.084X0.084*%
%ADD45C,0.084*%
G04 #@! TA.AperFunction,ViaPad*
%ADD54C,0.023622*%
%FSLAX26Y26*%
G04*
G70*
G90*
G75*
G01*
G04 Bottom*
%LPD*%
X2256200Y2115700D2*
D17*
X2253449Y2112949D1*
X2117449D1*
D16*
X2098700Y2094200D1*
X1857200D1*
X1855200Y1459700D2*
X2316951D1*
X1231200Y1498700D2*
X1816200D1*
X1855200Y1459700D1*
X1231200Y1843200D2*
X916951D1*
X2616700Y497700D2*
X2642700Y523700D1*
Y1054022D1*
X2584810Y1111911D1*
X1158430Y895930D2*
D17*
X1156200Y893700D1*
X2394700Y1484700D2*
D16*
X1896449D1*
X1844449Y1536700D1*
X1795700D1*
X1742700Y1589700D1*
X1087449D1*
Y1049949D2*
X1081200Y1043700D1*
X818700D1*
X2451621Y1446701D2*
D18*
X2402871Y1397951D1*
X975451D1*
X921200Y1343700D1*
X818700D1*
X1353700Y1637451D2*
D17*
X1637449D1*
X2269997Y1616894D2*
D18*
X2268802Y1615700D1*
X1806200D1*
Y1043700D2*
X1718700D1*
X1797700Y1726200D2*
X1900700D1*
Y1521700D2*
X2275284D1*
X1900700Y2121700D2*
X2089700D1*
X2114088Y2146088D1*
X2276062D1*
X1398700Y1343200D2*
D17*
X1718700D1*
Y1343700D1*
X1199951Y1443700D2*
X1718700D1*
X2262875Y2207445D2*
D18*
X2261630Y2206200D1*
X1802700D1*
X1831200Y743700D2*
X1718700D1*
X1115123Y1546632D2*
D17*
X1118054Y1543700D1*
X1718700D1*
X2388449Y2073949D2*
D18*
X2310449Y1995949D1*
X1524949D1*
Y1143700D2*
X818700D1*
X2451430Y2033430D2*
X2309949Y1891949D1*
X621200D1*
X1598700Y1958700D2*
D17*
X1357873D1*
X1456199Y2112451D2*
X1506199Y2162451D1*
Y2356199D1*
X1618700Y2468700D1*
Y2587449D1*
X1649951Y2618700D1*
X1887451D1*
X1598424Y1726476D2*
X1593700Y1731200D1*
X1093700D1*
X1556200Y2061270D2*
X1424944D1*
X2452700Y2389200D2*
D18*
X1831700D1*
X1856200Y1800700D2*
X2456700D1*
X1856200D2*
D16*
X1842951D1*
X1836700Y1794449D1*
X1062449D1*
X916951Y845451D2*
X915200Y843700D1*
X818700D1*
D54*
X2256200Y2115700D3*
X1857200Y2094200D3*
X1855200Y1459700D3*
X2316951D3*
X1231200Y1498700D3*
X1855200Y1459700D3*
X1231200Y1843200D3*
X916951D3*
X2616700Y497700D3*
X1158430Y895930D3*
X1087449Y1589700D3*
Y1049949D3*
X2451621Y1446701D3*
X1353700Y1637451D3*
X1637449D3*
X2269997Y1616894D3*
X1806200Y1615700D3*
Y1043700D3*
X1797700Y1726200D3*
X1900700D3*
Y1521700D3*
X2275284D3*
X1900700Y2121700D3*
X2276062Y2146088D3*
X1900700Y1726200D3*
X1398700Y1343200D3*
X1199951Y1443700D3*
X2262875Y2207445D3*
X1802700Y2206200D3*
X1831200Y743700D3*
X1115123Y1546632D3*
X2388449Y2073949D3*
X1524949Y1995949D3*
Y1143700D3*
X2451430Y2033430D3*
X621200Y1891949D3*
D19*
X1598700Y1958700D3*
X1357873D3*
X1456199Y2112451D3*
X1887451Y2618700D3*
D54*
X1598424Y1726476D3*
X1093700Y1731200D3*
D19*
X1556200Y2061270D3*
X1424944D3*
D54*
X2452700Y2389200D3*
X1831700D3*
X1856200Y1800700D3*
X2456700D3*
X1062449Y1794449D3*
X916951Y845451D3*
X1856200Y1800700D3*
X2484953Y1481855D3*
X2779861Y1827399D3*
X2394700Y1484700D3*
X2483700Y1447200D3*
X2747539Y1408234D3*
X2779035D3*
X2747539Y1372801D3*
X2779035D3*
X2485365Y1785399D3*
Y1752399D3*
X2508865Y1785399D3*
X2509365Y1752399D3*
X2748365Y1862833D3*
X2779861D3*
X2748365Y1827399D3*
D19*
X2584810Y1111911D3*
X2795378Y511743D3*
X2539752Y935289D3*
X2539935Y897184D3*
X2539169Y860161D3*
X2539569Y825003D3*
X2420136Y935498D3*
X2420318Y897393D3*
X2419552Y860369D3*
X2419952Y825212D3*
X2600630Y632083D3*
X2556603Y633670D3*
X2555716Y590888D3*
X2599022Y592119D3*
X2598752Y555104D3*
X2555938Y554312D3*
D54*
X2649661Y1826536D3*
X2652365Y1411399D3*
X2298365Y1746399D3*
D19*
X1947365Y1666399D3*
X1983365Y1665399D3*
X2021365D3*
D54*
X2299951Y2337451D3*
D19*
X2345777Y1165208D3*
X2346073Y1116821D3*
X2349023Y1074039D3*
X2756200Y468700D3*
X2271728Y600682D3*
X2273435Y566300D3*
X2275141Y527287D3*
X1947365Y1565399D3*
X1985365Y1564399D3*
X2023365Y1565399D3*
X1945397Y2256951D3*
X1981397Y2255951D3*
X2019397D3*
X1945397Y2155951D3*
X1983397Y2154951D3*
X2021397Y2155951D3*
X2831200Y1281200D3*
D54*
X2747539Y1998785D3*
X2779035D3*
X2747539Y1963352D3*
X2779035D3*
X2748365Y2453384D3*
X2779861D3*
X2748365Y2417951D3*
X2779861D3*
X1424949Y2187451D3*
D19*
X1337451Y2262449D3*
X981200Y593700D3*
Y874949D3*
X1568700D3*
X1593700Y593700D3*
X893700Y1093700D3*
D54*
X1637451Y1031200D3*
X2486909Y2072801D3*
X2508956Y2040518D3*
X2509743Y2072014D3*
X2486121Y2040518D3*
X2485865Y2375951D3*
X2487191Y2342951D3*
X2510365Y2375951D3*
X2510191Y2342951D3*
X1618700Y1149949D3*
D19*
X1303700Y1293700D3*
X518700Y1287451D3*
X574949Y1212451D3*
D54*
X868700Y2312451D3*
X1037451D3*
X1131200Y2212451D3*
X1074949Y2112451D3*
X1131200Y2012451D3*
D19*
X518700Y668700D3*
D54*
X2508700Y1481700D3*
X2507700Y1447200D3*
X2419153Y1456956D3*
X2288899Y1589297D3*
X2298276Y1646623D3*
X2435700Y1771200D3*
X2649113Y2000754D3*
Y2423982D3*
X2416695Y2059405D3*
X2288327Y2179338D3*
X2282469Y2232301D3*
X2436079Y2360201D3*
X1373700Y1058700D3*
X1293700Y2074951D3*
X2361712Y2148392D3*
Y2175951D3*
Y2203510D3*
Y2235006D3*
Y2262565D3*
X2420767Y2148392D3*
Y2175951D3*
Y2203510D3*
Y2235006D3*
Y2266502D3*
X2479822Y2148392D3*
Y2179888D3*
Y2238943D3*
Y2266502D3*
X2371725Y1567854D3*
Y1617965D3*
Y1662001D3*
X2420767Y1567854D3*
Y1617965D3*
Y1665938D3*
X2469809Y1567854D3*
X2457397Y1616896D3*
X2469809Y1665938D3*
X2479154Y1488791D2*
D17*
X2924001D1*
X2479154Y1476922D2*
X2924001D1*
X2479154Y1465053D2*
X2924001D1*
X2482166Y1453184D2*
X2924001D1*
X2477947Y1460880D2*
X2479201Y1458636D1*
X2481039Y1452839D1*
X2481672Y1446701D1*
X2481184Y1441830D1*
X2813812Y1443027D1*
X2925204Y1443428D1*
X2925200Y1500208D1*
X2477949Y1500653D1*
X2477947Y1460880D1*
X2483091Y1784066D2*
X2917754D1*
X2483091Y1772197D2*
X2917754D1*
X2483091Y1760329D2*
X2917754D1*
X2483091Y1748460D2*
X2917754D1*
X2483091Y1736591D2*
X2917754D1*
X2486268Y1795886D2*
X2486154Y1794739D1*
X2484351Y1788932D1*
X2481884Y1784455D1*
X2481885Y1733106D1*
X2918944Y1730980D1*
X2918949Y1793981D1*
X2799016Y1794507D1*
X2486368Y1795889D1*
X2479158Y2079330D2*
D27*
X2984430D1*
X2479158Y2067453D2*
X2984430D1*
X2479158Y2055577D2*
X2984430D1*
X2480882Y2043700D2*
X2984430D1*
X2477952Y2047280D2*
X2479022Y2045367D1*
X2480859Y2039569D1*
X2481493Y2033430D1*
X2481385Y2032352D1*
X2609940Y2032348D1*
X2985627D1*
X2985629Y2091204D1*
X2477955Y2091207D1*
X2477952Y2047280D1*
X2483095Y2374606D2*
X2984427D1*
X2483095Y2362729D2*
X2984427D1*
X2483095Y2350852D2*
X2984427D1*
X2483095Y2338976D2*
X2984427D1*
X2483095Y2327099D2*
X2984427D1*
X2482490Y2386480D2*
X2482166Y2383235D1*
X2481889Y2382346D1*
Y2323686D1*
X2985632Y2323687D1*
X2985629Y2386483D1*
X2482636Y2386482D1*
X497205Y1306331D2*
D16*
X689649D1*
X747751D2*
X789649D1*
X847751D2*
X1689649D1*
X1747751D2*
X2262695D1*
X497205Y1296462D2*
X2262695D1*
X497205Y1286594D2*
X699159D1*
X738241D2*
X799159D1*
X838241D2*
X1699159D1*
X1738241D2*
X2262695D1*
X497205Y1276725D2*
X684638D1*
X752762D2*
X784638D1*
X852762D2*
X1684638D1*
X1752762D2*
X2262695D1*
X497205Y1266856D2*
X677109D1*
X760291D2*
X777109D1*
X860291D2*
X1677109D1*
X1760291D2*
X2262695D1*
X497205Y1256987D2*
X672901D1*
X764499D2*
X772901D1*
X864499D2*
X1672901D1*
X1764499D2*
X2262695D1*
X497205Y1247119D2*
X671094D1*
X866306D2*
X1671094D1*
X1766306D2*
X2262695D1*
X497205Y1237250D2*
X671415D1*
X765985D2*
X771415D1*
X865985D2*
X1671415D1*
X1765985D2*
X2262695D1*
X497205Y1227381D2*
X673915D1*
X763485D2*
X773915D1*
X863485D2*
X1673915D1*
X1763485D2*
X1849726D1*
X497205Y1217512D2*
X679003D1*
X758397D2*
X779003D1*
X858397D2*
X1679003D1*
X1758397D2*
X1841738D1*
X497205Y1207644D2*
X687978D1*
X749422D2*
X787978D1*
X849422D2*
X1687978D1*
X1749422D2*
X1833750D1*
X497205Y1197775D2*
X709082D1*
X728318D2*
X809082D1*
X828318D2*
X1709082D1*
X1728318D2*
X1825751D1*
X497205Y1187906D2*
X702558D1*
X734842D2*
X802558D1*
X834842D2*
X1702558D1*
X1734842D2*
X1817763D1*
X787840Y1178700D2*
X789863Y1180468D1*
X793935Y1183325D1*
X798287Y1185733D1*
X802871Y1187665D1*
X807633Y1189098D1*
X812522Y1190018D1*
X817480Y1190411D1*
X822452Y1190276D1*
X827381Y1189613D1*
X832213Y1188431D1*
X836890Y1186742D1*
X841363Y1184564D1*
X845578Y1181923D1*
X849489Y1178850D1*
X849645Y1178697D1*
X1081209Y1178700D1*
X1614818D1*
X1618637Y1178960D1*
X1621692Y1178700D1*
X1687738D1*
X1689863Y1180468D1*
X1693935Y1183325D1*
X1698287Y1185733D1*
X1702871Y1187665D1*
X1707633Y1189098D1*
X1712522Y1190018D1*
X1717480Y1190411D1*
X1722452Y1190276D1*
X1727381Y1189613D1*
X1732213Y1188431D1*
X1736890Y1186742D1*
X1741363Y1184564D1*
X1745578Y1181923D1*
X1749489Y1178850D1*
X1749645Y1178697D1*
X1811314Y1178700D1*
X1852314Y1229346D1*
X1854382Y1230857D1*
X1861127Y1231186D1*
X2263697Y1229965D1*
X2263700Y1307472D1*
X2218683Y1307697D1*
X1751066Y1309998D1*
X1749453Y1308519D1*
X1745539Y1305449D1*
X1741321Y1302813D1*
X1736847Y1300640D1*
X1732167Y1298955D1*
X1727335Y1297777D1*
X1722405Y1297120D1*
X1717432Y1296990D1*
X1712474Y1297389D1*
X1707587Y1298313D1*
X1702826Y1299751D1*
X1698245Y1301688D1*
X1693894Y1304100D1*
X1689826Y1306961D1*
X1686085Y1310238D1*
X1686008Y1310321D1*
X855111Y1314409D1*
X853018Y1311986D1*
X849453Y1308519D1*
X845539Y1305449D1*
X841321Y1302813D1*
X836847Y1300640D1*
X832167Y1298955D1*
X827335Y1297777D1*
X822405Y1297120D1*
X817432Y1296990D1*
X812474Y1297389D1*
X807587Y1298313D1*
X802826Y1299751D1*
X798245Y1301688D1*
X793894Y1304100D1*
X789826Y1306961D1*
X786085Y1310238D1*
X782712Y1313894D1*
X782067Y1314764D1*
X755493Y1314899D1*
X753018Y1311986D1*
X749453Y1308519D1*
X745539Y1305449D1*
X741321Y1302813D1*
X736847Y1300640D1*
X732167Y1298955D1*
X727335Y1297777D1*
X722405Y1297120D1*
X717432Y1296990D1*
X712474Y1297389D1*
X707587Y1298313D1*
X702826Y1299751D1*
X698245Y1301688D1*
X693894Y1304100D1*
X689826Y1306961D1*
X686085Y1310238D1*
X682712Y1313894D1*
X681696Y1315264D1*
X496199Y1316175D1*
X496200Y1178700D1*
X687738D1*
X689863Y1180468D1*
X693935Y1183325D1*
X698287Y1185733D1*
X702871Y1187665D1*
X707633Y1189098D1*
X712522Y1190018D1*
X717480Y1190411D1*
X722452Y1190276D1*
X727381Y1189613D1*
X732213Y1188431D1*
X736890Y1186742D1*
X741363Y1184564D1*
X745578Y1181923D1*
X749489Y1178850D1*
X749645Y1178697D1*
X787738Y1178700D1*
X865161Y1238709D2*
X864367Y1233800D1*
X863056Y1229002D1*
X861242Y1224371D1*
X858947Y1219957D1*
X856195Y1215814D1*
X853018Y1211986D1*
X849453Y1208519D1*
X845539Y1205449D1*
X841321Y1202813D1*
X836847Y1200640D1*
X832167Y1198955D1*
X827335Y1197777D1*
X822405Y1197120D1*
X817432Y1196990D1*
X812474Y1197389D1*
X807587Y1198313D1*
X802826Y1199751D1*
X798245Y1201688D1*
X793894Y1204100D1*
X789826Y1206961D1*
X786085Y1210238D1*
X782712Y1213894D1*
X779749Y1217889D1*
X777225Y1222175D1*
X775172Y1226705D1*
X773612Y1231428D1*
X772564Y1236291D1*
X772037Y1241237D1*
X772040Y1246210D1*
X772571Y1251157D1*
X773625Y1256018D1*
X775190Y1260738D1*
X777247Y1265267D1*
X779775Y1269550D1*
X782743Y1273543D1*
X786119Y1277195D1*
X789863Y1280468D1*
X793935Y1283325D1*
X798287Y1285733D1*
X802871Y1287665D1*
X807633Y1289098D1*
X812522Y1290018D1*
X817480Y1290411D1*
X822452Y1290276D1*
X827381Y1289613D1*
X832213Y1288431D1*
X836890Y1286742D1*
X841363Y1284564D1*
X845578Y1281923D1*
X849489Y1278850D1*
X853050Y1275378D1*
X856222Y1271548D1*
X858970Y1267402D1*
X861262Y1262987D1*
X863070Y1258354D1*
X864377Y1253554D1*
X865166Y1248644D1*
X865427Y1243700D1*
X865161Y1238709D1*
X765161D2*
X764367Y1233800D1*
X763056Y1229002D1*
X761242Y1224371D1*
X758947Y1219957D1*
X756195Y1215814D1*
X753018Y1211986D1*
X749453Y1208519D1*
X745539Y1205449D1*
X741321Y1202813D1*
X736847Y1200640D1*
X732167Y1198955D1*
X727335Y1197777D1*
X722405Y1197120D1*
X717432Y1196990D1*
X712474Y1197389D1*
X707587Y1198313D1*
X702826Y1199751D1*
X698245Y1201688D1*
X693894Y1204100D1*
X689826Y1206961D1*
X686085Y1210238D1*
X682712Y1213894D1*
X679749Y1217889D1*
X677225Y1222175D1*
X675172Y1226705D1*
X673612Y1231428D1*
X672564Y1236291D1*
X672037Y1241237D1*
X672040Y1246210D1*
X672571Y1251157D1*
X673625Y1256018D1*
X675190Y1260738D1*
X677247Y1265267D1*
X679775Y1269550D1*
X682743Y1273543D1*
X686119Y1277195D1*
X689863Y1280468D1*
X693935Y1283325D1*
X698287Y1285733D1*
X702871Y1287665D1*
X707633Y1289098D1*
X712522Y1290018D1*
X717480Y1290411D1*
X722452Y1290276D1*
X727381Y1289613D1*
X732213Y1288431D1*
X736890Y1286742D1*
X741363Y1284564D1*
X745578Y1281923D1*
X749489Y1278850D1*
X753050Y1275378D1*
X756222Y1271548D1*
X758970Y1267402D1*
X761262Y1262987D1*
X763070Y1258354D1*
X764377Y1253554D1*
X765166Y1248644D1*
X765427Y1243700D1*
X765161Y1238709D1*
X1765161D2*
X1764367Y1233800D1*
X1763056Y1229002D1*
X1761242Y1224371D1*
X1758947Y1219957D1*
X1756195Y1215814D1*
X1753018Y1211986D1*
X1749453Y1208519D1*
X1745539Y1205449D1*
X1741321Y1202813D1*
X1736847Y1200640D1*
X1732167Y1198955D1*
X1727335Y1197777D1*
X1722405Y1197120D1*
X1717432Y1196990D1*
X1712474Y1197389D1*
X1707587Y1198313D1*
X1702826Y1199751D1*
X1698245Y1201688D1*
X1693894Y1204100D1*
X1689826Y1206961D1*
X1686085Y1210238D1*
X1682712Y1213894D1*
X1679749Y1217889D1*
X1677225Y1222175D1*
X1675172Y1226705D1*
X1673612Y1231428D1*
X1672564Y1236291D1*
X1672037Y1241237D1*
X1672040Y1246210D1*
X1672571Y1251157D1*
X1673625Y1256018D1*
X1675190Y1260738D1*
X1677247Y1265267D1*
X1679775Y1269550D1*
X1682743Y1273543D1*
X1686119Y1277195D1*
X1689863Y1280468D1*
X1693935Y1283325D1*
X1698287Y1285733D1*
X1702871Y1287665D1*
X1707633Y1289098D1*
X1712522Y1290018D1*
X1717480Y1290411D1*
X1722452Y1290276D1*
X1727381Y1289613D1*
X1732213Y1288431D1*
X1736890Y1286742D1*
X1741363Y1284564D1*
X1745578Y1281923D1*
X1749489Y1278850D1*
X1753050Y1275378D1*
X1756222Y1271548D1*
X1758970Y1267402D1*
X1761262Y1262987D1*
X1763070Y1258354D1*
X1764377Y1253554D1*
X1765166Y1248644D1*
X1765427Y1243700D1*
X1765161Y1238709D1*
X431207Y2708508D2*
D17*
X3112881D1*
X431207Y2696640D2*
X3112881D1*
X431195Y2684771D2*
X3112881D1*
X431195Y2672902D2*
X3112881D1*
X431195Y2661033D2*
X2220369D1*
X2267031D2*
X2320377D1*
X2367027D2*
X3112881D1*
X431183Y2649165D2*
X1863134D1*
X1911766D2*
X2205709D1*
X2281691D2*
X2305705D1*
X2381687D2*
X3112881D1*
X431183Y2637296D2*
X1633201D1*
X1922066D2*
X2198502D1*
X2288898D2*
X2298498D1*
X2388894D2*
X3112881D1*
X431183Y2625427D2*
X1621201D1*
X1926297D2*
X2195209D1*
X2392187D2*
X3112881D1*
X431171Y2613558D2*
X1609330D1*
X1926543D2*
X2195010D1*
X2392386D2*
X3112881D1*
X431171Y2601690D2*
X1597881D1*
X1922898D2*
X2197869D1*
X2289531D2*
X2297865D1*
X2389539D2*
X3112881D1*
X431171Y2589821D2*
X1593381D1*
X1656554D2*
X1861190D1*
X1913710D2*
X2204456D1*
X2282945D2*
X2304452D1*
X2382953D2*
X3112881D1*
X431161Y2577952D2*
X706634D1*
X730762D2*
X906638D1*
X930766D2*
X1206638D1*
X1230766D2*
X1406630D1*
X1430770D2*
X1593264D1*
X1644683D2*
X1706630D1*
X1730770D2*
X1806638D1*
X1830766D2*
X1957260D1*
X2080141D2*
X2217569D1*
X2269831D2*
X2317577D1*
X2369827D2*
X3112881D1*
X431161Y2566083D2*
X680302D1*
X757094D2*
X880306D1*
X957098D2*
X1180306D1*
X1257098D2*
X1380298D1*
X1457102D2*
X1593264D1*
X1644145D2*
X1680298D1*
X1757102D2*
X1780306D1*
X1857098D2*
X1957260D1*
X2080141D2*
X3112881D1*
X431161Y2554214D2*
X668842D1*
X768554D2*
X868846D1*
X968558D2*
X1168846D1*
X1268558D2*
X1368838D1*
X1468562D2*
X1593264D1*
X1644145D2*
X1668838D1*
X1868558D2*
X1957260D1*
X2080141D2*
X3112881D1*
X431149Y2542346D2*
X662092D1*
X775305D2*
X862096D1*
X975309D2*
X1162096D1*
X1275309D2*
X1362100D1*
X1475301D2*
X1593264D1*
X1644145D2*
X1662100D1*
X1875309D2*
X1957260D1*
X2080141D2*
X3112881D1*
X431149Y2530477D2*
X658424D1*
X778973D2*
X858428D1*
X978977D2*
X1158428D1*
X1278977D2*
X1358420D1*
X1478981D2*
X1593264D1*
X1644145D2*
X1658420D1*
X1878977D2*
X1957260D1*
X2080141D2*
X3112881D1*
X431149Y2518608D2*
X657264D1*
X780145D2*
X857256D1*
X980137D2*
X1157256D1*
X1280137D2*
X1357260D1*
X1480141D2*
X1593264D1*
X1644145D2*
X1657260D1*
X1880137D2*
X1957260D1*
X2080141D2*
X3112881D1*
X431137Y2506739D2*
X658460D1*
X778938D2*
X858462D1*
X978941D2*
X1158462D1*
X1278941D2*
X1358456D1*
X1478945D2*
X1593264D1*
X1644145D2*
X1658456D1*
X1878941D2*
X1957260D1*
X2080141D2*
X3112881D1*
X431137Y2494871D2*
X662174D1*
X775222D2*
X862178D1*
X975226D2*
X1162178D1*
X1275226D2*
X1362170D1*
X1475230D2*
X1593264D1*
X1644145D2*
X1662170D1*
X1875226D2*
X1957260D1*
X2080141D2*
X3112881D1*
X431137Y2483002D2*
X668982D1*
X768426D2*
X868974D1*
X968418D2*
X1168974D1*
X1268418D2*
X1368978D1*
X1468422D2*
X1593264D1*
X1644145D2*
X1668978D1*
X1868418D2*
X1957260D1*
X2080141D2*
X3112881D1*
X431125Y2471133D2*
X680537D1*
X756859D2*
X880541D1*
X956863D2*
X1180541D1*
X1256863D2*
X1380533D1*
X1456867D2*
X1585646D1*
X1644145D2*
X1680533D1*
X1756867D2*
X1780541D1*
X1856863D2*
X1957260D1*
X2080141D2*
X3112881D1*
X431125Y2459264D2*
X707690D1*
X729707D2*
X907693D1*
X929710D2*
X1207693D1*
X1229710D2*
X1407686D1*
X1429714D2*
X1573788D1*
X1642222D2*
X1707686D1*
X1729714D2*
X1807693D1*
X1829710D2*
X1957260D1*
X2080141D2*
X3112881D1*
X431125Y2447396D2*
X1561917D1*
X1632871D2*
X3112881D1*
X431113Y2435527D2*
X1550045D1*
X1621011D2*
X3112881D1*
X431113Y2423658D2*
X1538174D1*
X1609141D2*
X3112881D1*
X431113Y2411789D2*
X1526302D1*
X1597270D2*
X1810682D1*
X2473714D2*
X2859029D1*
X2918371D2*
X3112881D1*
X431102Y2399920D2*
X1514444D1*
X1585398D2*
X1802432D1*
X3009485D2*
X3112881D1*
X431102Y2388052D2*
X1502573D1*
X1573527D2*
X1800474D1*
X3011078D2*
X3112881D1*
X431090Y2376183D2*
X1490701D1*
X1561667D2*
X1803417D1*
X3011078D2*
X3112881D1*
X431090Y2364314D2*
X1482158D1*
X1549797D2*
X1813658D1*
X1849750D2*
X2434658D1*
X3011078D2*
X3112881D1*
X431090Y2352445D2*
X1480764D1*
X1537926D2*
X2456444D1*
X3011078D2*
X3112881D1*
X431078Y2340577D2*
X1480764D1*
X1531645D2*
X2456033D1*
X3011078D2*
X3112881D1*
X431078Y2328708D2*
X1480764D1*
X1531645D2*
X2456444D1*
X3011078D2*
X3112881D1*
X431078Y2316839D2*
X1480764D1*
X1531645D2*
X2456466D1*
X3011054D2*
X3112881D1*
X431066Y2304970D2*
X1480764D1*
X1531645D2*
X2461600D1*
X3005910D2*
X3112881D1*
X431066Y2293102D2*
X1480764D1*
X1531645D2*
X2838053D1*
X2939347D2*
X3112881D1*
X431066Y2281233D2*
X687956D1*
X749441D2*
X787952D1*
X849449D2*
X1480764D1*
X1531645D2*
X2831630D1*
X2945770D2*
X3112881D1*
X431054Y2269364D2*
X677209D1*
X760187D2*
X777217D1*
X860183D2*
X1480764D1*
X1531645D2*
X2828209D1*
X2949191D2*
X3112881D1*
X431054Y2257495D2*
X671772D1*
X765637D2*
X771768D1*
X865633D2*
X1480764D1*
X1531645D2*
X2827272D1*
X2950129D2*
X3112881D1*
X431054Y2245627D2*
X669768D1*
X867625D2*
X1480764D1*
X1531645D2*
X2828701D1*
X2948699D2*
X3112881D1*
X431043Y2233758D2*
X670776D1*
X866617D2*
X1480764D1*
X1531645D2*
X1789518D1*
X1815882D2*
X2247158D1*
X2278586D2*
X2832662D1*
X2944738D2*
X3112881D1*
X431043Y2221889D2*
X675006D1*
X762402D2*
X775002D1*
X862398D2*
X1480764D1*
X1531645D2*
X1775865D1*
X2290422D2*
X2839810D1*
X2937590D2*
X3112881D1*
X431043Y2210020D2*
X683630D1*
X753777D2*
X783628D1*
X853773D2*
X1480764D1*
X1531645D2*
X1771693D1*
X2294019D2*
X2852010D1*
X2925378D2*
X3112881D1*
X431031Y2198151D2*
X703108D1*
X734289D2*
X803116D1*
X834285D2*
X1480764D1*
X1531645D2*
X1772549D1*
X2292649D2*
X2841978D1*
X2935422D2*
X3112881D1*
X431031Y2186283D2*
X695854D1*
X741543D2*
X795861D1*
X841539D2*
X1480764D1*
X1531645D2*
X1695861D1*
X1741539D2*
X1778994D1*
X2285406D2*
X2833952D1*
X2943449D2*
X3112881D1*
X431031Y2174414D2*
X680913D1*
X756485D2*
X780920D1*
X856481D2*
X1480764D1*
X1531645D2*
X1680920D1*
X1756481D2*
X2264830D1*
X2287305D2*
X2829346D1*
X2948054D2*
X3112881D1*
X431019Y2162545D2*
X673612D1*
X763797D2*
X773608D1*
X863793D2*
X1470814D1*
X1531645D2*
X1673608D1*
X1763793D2*
X2097193D1*
X2302410D2*
X2827377D1*
X2950011D2*
X3112881D1*
X431019Y2150676D2*
X670249D1*
X867157D2*
X1453952D1*
X1528586D2*
X1670245D1*
X1767157D2*
X1891541D1*
X1909867D2*
X2085322D1*
X2306957D2*
X2827798D1*
X2949602D2*
X3112881D1*
X431019Y2138808D2*
X669978D1*
X867414D2*
X1427292D1*
X1518039D2*
X1669986D1*
X1767414D2*
X1874794D1*
X2306418D2*
X2830634D1*
X2946766D2*
X3112881D1*
X431007Y2126939D2*
X672768D1*
X764629D2*
X772764D1*
X864625D2*
X1419616D1*
X1506167D2*
X1672764D1*
X1764625D2*
X1869909D1*
X2300418D2*
X2836318D1*
X2941082D2*
X3112881D1*
X431007Y2115070D2*
X679260D1*
X758137D2*
X779268D1*
X858133D2*
X1416850D1*
X1495550D2*
X1679268D1*
X1758133D2*
X1834377D1*
X2287445D2*
X2467037D1*
X2996535D2*
X3112881D1*
X431007Y2103201D2*
X692174D1*
X745234D2*
X792170D1*
X845230D2*
X1417893D1*
X1494507D2*
X1692170D1*
X1745230D2*
X1827334D1*
X2284726D2*
X2380365D1*
X2396535D2*
X2453525D1*
X3010058D2*
X3112881D1*
X430995Y2091333D2*
X713913D1*
X723485D2*
X813909D1*
X823493D2*
X1400116D1*
X1489281D2*
X1531365D1*
X1581027D2*
X1713909D1*
X1723493D2*
X1826081D1*
X2274989D2*
X2362741D1*
X2414161D2*
X2452506D1*
X3011078D2*
X3112881D1*
X430995Y2079464D2*
X685834D1*
X751562D2*
X785830D1*
X851570D2*
X1390108D1*
X1591035D2*
X1685830D1*
X1751570D2*
X1829806D1*
X2118027D2*
X2357713D1*
X2419187D2*
X2452506D1*
X3011078D2*
X3112881D1*
X430985Y2067595D2*
X676142D1*
X761266D2*
X776138D1*
X861262D2*
X1386029D1*
X1595113D2*
X1676138D1*
X1761262D2*
X1842029D1*
X1872367D2*
X2348737D1*
X2419023D2*
X2452506D1*
X3011078D2*
X3112881D1*
X430985Y2055726D2*
X671268D1*
X866125D2*
X1385913D1*
X1595230D2*
X1671276D1*
X1766125D2*
X2336865D1*
X2413539D2*
X2430077D1*
X3011078D2*
X3112881D1*
X430985Y2043857D2*
X669733D1*
X867671D2*
X1389697D1*
X1591445D2*
X1669729D1*
X1767671D2*
X2324994D1*
X2391718D2*
X2422049D1*
X3011078D2*
X3112881D1*
X430973Y2031989D2*
X671186D1*
X866207D2*
X1399154D1*
X1450738D2*
X1530405D1*
X1581999D2*
X1671193D1*
X1766207D2*
X2313134D1*
X2379847D2*
X2416634D1*
X3011078D2*
X3112881D1*
X430973Y2020120D2*
X675956D1*
X761441D2*
X775962D1*
X861438D2*
X1505889D1*
X1544007D2*
X1675962D1*
X1761438D2*
X2301264D1*
X2367977D2*
X2404764D1*
X3009977D2*
X3112881D1*
X430973Y2008251D2*
X685482D1*
X751914D2*
X785478D1*
X851922D2*
X1496326D1*
X2356106D2*
X2392893D1*
X2995141D2*
X3112881D1*
X430961Y1996382D2*
X710960D1*
X726438D2*
X810956D1*
X826445D2*
X1350170D1*
X1365578D2*
X1493701D1*
X2344246D2*
X2381022D1*
X2447746D2*
X3112881D1*
X430961Y1984514D2*
X692678D1*
X744718D2*
X792686D1*
X844714D2*
X1328456D1*
X1387281D2*
X1495962D1*
X2332375D2*
X2369150D1*
X2435875D2*
X3112881D1*
X430961Y1972645D2*
X679506D1*
X757902D2*
X779502D1*
X857898D2*
X1321061D1*
X1635507D2*
X1679502D1*
X1757898D2*
X2357292D1*
X2424003D2*
X3112881D1*
X430949Y1960776D2*
X672885D1*
X764511D2*
X772893D1*
X864507D2*
X1318494D1*
X1638086D2*
X1672893D1*
X1764507D2*
X2345420D1*
X2412133D2*
X3112881D1*
X430949Y1948907D2*
X670014D1*
X867378D2*
X1319713D1*
X1636867D2*
X1670022D1*
X1767378D2*
X2333549D1*
X2400262D2*
X3112881D1*
X430949Y1937039D2*
X670201D1*
X867203D2*
X1325162D1*
X1631418D2*
X1670197D1*
X1767203D2*
X2321678D1*
X2388402D2*
X3112881D1*
X430938Y1925170D2*
X673470D1*
X763926D2*
X773478D1*
X863922D2*
X1338288D1*
X1377461D2*
X1579120D1*
X1618281D2*
X1673478D1*
X1763922D2*
X2309806D1*
X2376531D2*
X3112881D1*
X430938Y1913301D2*
X598857D1*
X2364661D2*
X3112881D1*
X430938Y1901432D2*
X591486D1*
X2352789D2*
X3112881D1*
X430926Y1889564D2*
X590045D1*
X2340918D2*
X3112881D1*
X430926Y1877695D2*
X593549D1*
X2329058D2*
X3112881D1*
X430926Y1865826D2*
X605150D1*
X637258D2*
X675170D1*
X762238D2*
X775166D1*
X862234D2*
X895974D1*
X1762234D2*
X3112881D1*
X430914Y1853957D2*
X670846D1*
X866558D2*
X887690D1*
X1766558D2*
X3112881D1*
X430914Y1842088D2*
X669756D1*
X867637D2*
X885721D1*
X1767637D2*
X3112881D1*
X430914Y1830220D2*
X671678D1*
X865726D2*
X888650D1*
X1765726D2*
X1849377D1*
X1863027D2*
X2449869D1*
X2463531D2*
X3112881D1*
X430902Y1818351D2*
X677010D1*
X760386D2*
X777018D1*
X860382D2*
X898846D1*
X935054D2*
X1043033D1*
X1760382D2*
X1826630D1*
X2915242D2*
X3112881D1*
X430902Y1806482D2*
X687557D1*
X749839D2*
X787553D1*
X849847D2*
X1033717D1*
X2943179D2*
X3112881D1*
X430902Y1794613D2*
X1031197D1*
X2944386D2*
X3112881D1*
X430890Y1782745D2*
X689982D1*
X747414D2*
X789978D1*
X847422D2*
X1033577D1*
X2947046D2*
X3112881D1*
X430890Y1770876D2*
X678217D1*
X759179D2*
X778213D1*
X859187D2*
X1042612D1*
X1082289D2*
X1678213D1*
X1759187D2*
X1851310D1*
X1861082D2*
X2451814D1*
X2949707D2*
X3112881D1*
X430878Y1759007D2*
X672252D1*
X765145D2*
X772249D1*
X865153D2*
X1081108D1*
X1106289D2*
X1672249D1*
X1765153D2*
X2454850D1*
X2949953D2*
X3112881D1*
X430878Y1747138D2*
X669861D1*
X867543D2*
X1067022D1*
X1621445D2*
X1669857D1*
X1767543D2*
X1774940D1*
X1923461D2*
X2454581D1*
X2947821D2*
X3112881D1*
X430878Y1735270D2*
X670482D1*
X866922D2*
X1062721D1*
X1628359D2*
X1670478D1*
X1930550D2*
X2456444D1*
X2944386D2*
X3112881D1*
X430867Y1723401D2*
X674256D1*
X763141D2*
X774264D1*
X863137D2*
X1063482D1*
X1629519D2*
X1674264D1*
X1931817D2*
X2456830D1*
X2944327D2*
X3112881D1*
X430867Y1711532D2*
X682190D1*
X755207D2*
X782186D1*
X855214D2*
X1069776D1*
X1625699D2*
X1682186D1*
X1755214D2*
X1770276D1*
X1928125D2*
X2465233D1*
X2938503D2*
X3112881D1*
X430867Y1699663D2*
X698994D1*
X738402D2*
X798990D1*
X838410D2*
X1583654D1*
X1613195D2*
X1698990D1*
X1738410D2*
X1782393D1*
X1812999D2*
X1885401D1*
X1916007D2*
X2839178D1*
X2938222D2*
X3112881D1*
X430855Y1687794D2*
X699134D1*
X738273D2*
X799130D1*
X838270D2*
X2832288D1*
X2945113D2*
X3112881D1*
X430855Y1675926D2*
X682237D1*
X755161D2*
X782245D1*
X855157D2*
X2828514D1*
X2948886D2*
X3112881D1*
X430855Y1664057D2*
X674292D1*
X763117D2*
X774288D1*
X863113D2*
X1338533D1*
X1368871D2*
X1622280D1*
X1652617D2*
X2827260D1*
X2950141D2*
X3112881D1*
X430843Y1652188D2*
X670494D1*
X866910D2*
X1326310D1*
X1664839D2*
X2828373D1*
X2949027D2*
X3112881D1*
X430843Y1640319D2*
X669850D1*
X867543D2*
X1322585D1*
X1668566D2*
X1787772D1*
X1824637D2*
X2249970D1*
X2290023D2*
X2831982D1*
X2945418D2*
X3112881D1*
X430843Y1628451D2*
X672229D1*
X765167D2*
X772237D1*
X865163D2*
X1323826D1*
X1667325D2*
X1777788D1*
X2298941D2*
X2838650D1*
X2938750D2*
X3112881D1*
X430831Y1616582D2*
X678182D1*
X759226D2*
X778178D1*
X859222D2*
X1072822D1*
X1102082D2*
X1330881D1*
X1660270D2*
X1774962D1*
X2301250D2*
X2849970D1*
X2927430D2*
X3112881D1*
X430831Y1604713D2*
X689901D1*
X747495D2*
X789897D1*
X847503D2*
X1060213D1*
X1761754D2*
X1777025D1*
X2298671D2*
X2843373D1*
X2934027D2*
X3112881D1*
X430831Y1592844D2*
X1056357D1*
X1773625D2*
X1785486D1*
X1826910D2*
X2250780D1*
X2289214D2*
X2834784D1*
X2942617D2*
X3112881D1*
X430821Y1580976D2*
X687628D1*
X749770D2*
X787624D1*
X849766D2*
X1057494D1*
X1785495D2*
X2829792D1*
X2947609D2*
X3112881D1*
X430821Y1569107D2*
X677045D1*
X760351D2*
X777053D1*
X860347D2*
X1064361D1*
X1797355D2*
X2827506D1*
X2949894D2*
X3112881D1*
X430821Y1557238D2*
X671690D1*
X865714D2*
X1085806D1*
X1856523D2*
X2827612D1*
X2949789D2*
X3112881D1*
X430809Y1545369D2*
X669756D1*
X867637D2*
X1083897D1*
X1869847D2*
X1880982D1*
X1920414D2*
X2255573D1*
X2295003D2*
X2830120D1*
X2947281D2*
X3112881D1*
X430809Y1533501D2*
X670834D1*
X866570D2*
X1086897D1*
X2304121D2*
X2835381D1*
X2942019D2*
X3112881D1*
X430809Y1521632D2*
X675134D1*
X762262D2*
X775130D1*
X862270D2*
X1097245D1*
X2306535D2*
X2460334D1*
X2950141D2*
X3112881D1*
X430797Y1509763D2*
X683889D1*
X753519D2*
X783885D1*
X853515D2*
X1202057D1*
X2304062D2*
X2376920D1*
X2412485D2*
X2452776D1*
X2950293D2*
X3112881D1*
X430797Y1497894D2*
X703952D1*
X733445D2*
X803948D1*
X833453D2*
X1199960D1*
X2422902D2*
X2452506D1*
X2950645D2*
X3112881D1*
X430797Y1486025D2*
X695361D1*
X742046D2*
X795357D1*
X842043D2*
X1202749D1*
X2425926D2*
X2452506D1*
X2950645D2*
X3112881D1*
X430785Y1474157D2*
X680701D1*
X756695D2*
X780697D1*
X856703D2*
X1212662D1*
X1249738D2*
X1680697D1*
X1756703D2*
X1806674D1*
X2424039D2*
X2438209D1*
X2950645D2*
X3112881D1*
X430785Y1462288D2*
X673494D1*
X763902D2*
X773502D1*
X863898D2*
X1175138D1*
X1763898D2*
X1818545D1*
X2415918D2*
X2424733D1*
X2950645D2*
X3112881D1*
X430773Y1450419D2*
X670213D1*
X867191D2*
X1169456D1*
X1767191D2*
X1825413D1*
X2346730D2*
X2420596D1*
X2950645D2*
X3112881D1*
X430773Y1438550D2*
X670014D1*
X867390D2*
X1169138D1*
X1767390D2*
X1832654D1*
X2339499D2*
X2410108D1*
X2950645D2*
X3112881D1*
X430773Y1426682D2*
X672861D1*
X764535D2*
X772869D1*
X864531D2*
X1173978D1*
X1764531D2*
X2398237D1*
X2950141D2*
X3112881D1*
X430762Y1414813D2*
X679460D1*
X757938D2*
X779456D1*
X857945D2*
X958998D1*
X2453090D2*
X2827260D1*
X2950141D2*
X3112881D1*
X430762Y1402944D2*
X692585D1*
X744813D2*
X792592D1*
X844809D2*
X947081D1*
X2441218D2*
X3112881D1*
X430762Y1391075D2*
X711393D1*
X726003D2*
X811389D1*
X826011D2*
X935221D1*
X2429359D2*
X3112881D1*
X430750Y1379207D2*
X685541D1*
X751855D2*
X785549D1*
X851851D2*
X923350D1*
X2416949D2*
X3112881D1*
X430750Y1367338D2*
X675990D1*
X761406D2*
X775986D1*
X861414D2*
X911478D1*
X1761414D2*
X3112881D1*
X430750Y1355469D2*
X671209D1*
X1766195D2*
X3112881D1*
X430738Y1343600D2*
X669733D1*
X1767671D2*
X3112881D1*
X430738Y1331731D2*
X475108D1*
X2058507D2*
X3112881D1*
X430738Y1319863D2*
X471756D1*
X2286566D2*
X3112881D1*
X430726Y1307994D2*
X471756D1*
X2288137D2*
X3112881D1*
X430726Y1296125D2*
X471756D1*
X2288137D2*
X3112881D1*
X430726Y1284256D2*
X471756D1*
X2290058D2*
X3112881D1*
X430714Y1272388D2*
X471756D1*
X2292519D2*
X3112881D1*
X430714Y1260519D2*
X471756D1*
X2291957D2*
X3112881D1*
X430714Y1248650D2*
X471756D1*
X2288254D2*
X3112881D1*
X430703Y1236781D2*
X471756D1*
X2288137D2*
X3112881D1*
X430703Y1224913D2*
X471756D1*
X2288137D2*
X3112881D1*
X430703Y1213044D2*
X471756D1*
X2283718D2*
X3112881D1*
X430691Y1201175D2*
X471756D1*
X1860613D2*
X3112881D1*
X430691Y1189306D2*
X471756D1*
X1851003D2*
X3112881D1*
X430691Y1177438D2*
X471756D1*
X1841394D2*
X3112881D1*
X430679Y1165569D2*
X473678D1*
X1831785D2*
X3112881D1*
X430679Y1153700D2*
X670788D1*
X1554485D2*
X1670794D1*
X1766606D2*
X3112881D1*
X430667Y1141831D2*
X669768D1*
X1556137D2*
X1669764D1*
X1767637D2*
X2559792D1*
X2609827D2*
X3112881D1*
X430667Y1129962D2*
X671749D1*
X765649D2*
X771756D1*
X1552878D2*
X1671756D1*
X1765645D2*
X2549901D1*
X2619718D2*
X3112881D1*
X430667Y1118094D2*
X677174D1*
X760222D2*
X777170D1*
X860218D2*
X1508022D1*
X1541875D2*
X1677170D1*
X1760218D2*
X2545869D1*
X2623750D2*
X3112881D1*
X430657Y1106225D2*
X687885D1*
X749523D2*
X787881D1*
X849519D2*
X1687881D1*
X1749519D2*
X2194729D1*
X2292671D2*
X2545798D1*
X2624558D2*
X3112881D1*
X430657Y1094356D2*
X2194729D1*
X2292671D2*
X2549642D1*
X2636430D2*
X3112881D1*
X430657Y1082487D2*
X689620D1*
X747777D2*
X789616D1*
X847785D2*
X1689616D1*
X1747785D2*
X2194729D1*
X2292671D2*
X2559182D1*
X2648301D2*
X3112881D1*
X430645Y1070619D2*
X678041D1*
X759355D2*
X778037D1*
X859363D2*
X1064432D1*
X1110461D2*
X1678037D1*
X1759363D2*
X1791638D1*
X1820758D2*
X2194729D1*
X2292671D2*
X2592041D1*
X2660171D2*
X3112881D1*
X430645Y1058750D2*
X672170D1*
X765238D2*
X772166D1*
X1117386D2*
X1672166D1*
X1833414D2*
X2194729D1*
X2292671D2*
X2603901D1*
X2666653D2*
X3112881D1*
X430645Y1046881D2*
X669838D1*
X1118546D2*
X1669834D1*
X1837281D2*
X2194729D1*
X2292671D2*
X2615772D1*
X2667145D2*
X3112881D1*
X430633Y1035012D2*
X670529D1*
X1114726D2*
X1670525D1*
X1836167D2*
X2194729D1*
X2292671D2*
X2618256D1*
X2667145D2*
X3112881D1*
X430633Y1023144D2*
X674385D1*
X763023D2*
X774381D1*
X1102234D2*
X1674381D1*
X1829325D2*
X2194729D1*
X2292671D2*
X2618256D1*
X2667145D2*
X3112881D1*
X430633Y1011275D2*
X682424D1*
X754973D2*
X782420D1*
X854981D2*
X1682420D1*
X1754981D2*
X1985608D1*
X2086445D2*
X2618256D1*
X2667145D2*
X3112881D1*
X430621Y999406D2*
X699616D1*
X737781D2*
X799624D1*
X837777D2*
X1699624D1*
X1737777D2*
X1971486D1*
X2100554D2*
X2618256D1*
X2667145D2*
X3112881D1*
X430621Y987537D2*
X1698522D1*
X1738878D2*
X1963588D1*
X2108453D2*
X2618256D1*
X2667145D2*
X3112881D1*
X430621Y975669D2*
X1682010D1*
X1755390D2*
X1959217D1*
X2112825D2*
X2618256D1*
X2667145D2*
X3112881D1*
X430609Y963800D2*
X1674170D1*
X1763230D2*
X1957565D1*
X2114489D2*
X2618256D1*
X2667145D2*
X3112881D1*
X430609Y951931D2*
X1670444D1*
X1766957D2*
X1958385D1*
X2113667D2*
X2618256D1*
X2667145D2*
X3112881D1*
X430609Y940062D2*
X1669869D1*
X1767531D2*
X1961794D1*
X2110258D2*
X2618256D1*
X2667145D2*
X3112881D1*
X430598Y928193D2*
X1672318D1*
X1765082D2*
X1968357D1*
X2103695D2*
X2618256D1*
X2667145D2*
X3112881D1*
X430598Y916325D2*
X1678354D1*
X1759046D2*
X1979784D1*
X2092258D2*
X2197142D1*
X2244989D2*
X2618256D1*
X2667145D2*
X3112881D1*
X430598Y904456D2*
X1690272D1*
X1747129D2*
X2009713D1*
X2062327D2*
X2179460D1*
X2262661D2*
X2618256D1*
X2667145D2*
X3112881D1*
X430586Y892587D2*
X2170201D1*
X2271918D2*
X2618256D1*
X2667145D2*
X3112881D1*
X430586Y880718D2*
X687310D1*
X750086D2*
X787306D1*
X850094D2*
X1687306D1*
X1750094D2*
X2164917D1*
X2277203D2*
X2618256D1*
X2667145D2*
X3112881D1*
X430586Y868850D2*
X676893D1*
X760515D2*
X776889D1*
X860511D2*
X896889D1*
X937011D2*
X1676889D1*
X1760511D2*
X2162514D1*
X2279617D2*
X2618256D1*
X2667145D2*
X3112881D1*
X430574Y856981D2*
X671620D1*
X945906D2*
X1671616D1*
X1765785D2*
X2162256D1*
X2279875D2*
X2618256D1*
X2667145D2*
X3112881D1*
X430574Y845112D2*
X669756D1*
X948203D2*
X1669752D1*
X1767649D2*
X2162256D1*
X2279875D2*
X2618256D1*
X2667145D2*
X3112881D1*
X430562Y833243D2*
X670893D1*
X945613D2*
X1670889D1*
X1766511D2*
X2162256D1*
X2279875D2*
X2618256D1*
X2667145D2*
X3112881D1*
X430562Y821375D2*
X675276D1*
X762133D2*
X775272D1*
X936133D2*
X1675272D1*
X1762129D2*
X2162314D1*
X2279817D2*
X2618256D1*
X2667145D2*
X3112881D1*
X430562Y809506D2*
X684146D1*
X753250D2*
X784142D1*
X853258D2*
X1684142D1*
X1753258D2*
X2164108D1*
X2278011D2*
X2618256D1*
X2667145D2*
X3112881D1*
X430550Y797637D2*
X704854D1*
X732543D2*
X804850D1*
X832550D2*
X1704850D1*
X1732550D2*
X2168642D1*
X2273477D2*
X2618256D1*
X2667145D2*
X3112881D1*
X430550Y785768D2*
X694869D1*
X742527D2*
X794877D1*
X842523D2*
X1694877D1*
X1742523D2*
X2176776D1*
X2265343D2*
X2618256D1*
X2667145D2*
X3112881D1*
X430550Y773899D2*
X680490D1*
X756906D2*
X780486D1*
X856914D2*
X1680486D1*
X1756914D2*
X2191448D1*
X2250671D2*
X2618256D1*
X2667145D2*
X3112881D1*
X430539Y762031D2*
X673389D1*
X764007D2*
X773385D1*
X864015D2*
X1673385D1*
X1856218D2*
X2618256D1*
X2667145D2*
X3112881D1*
X430539Y750162D2*
X670166D1*
X867226D2*
X1670174D1*
X1861750D2*
X2618256D1*
X2667145D2*
X3112881D1*
X430539Y738293D2*
X670037D1*
X867355D2*
X1670045D1*
X1861961D2*
X2618256D1*
X2667145D2*
X3112881D1*
X430527Y726424D2*
X672966D1*
X764430D2*
X772962D1*
X864438D2*
X1672962D1*
X1856993D2*
X2618256D1*
X2667145D2*
X3112881D1*
X430527Y714556D2*
X679658D1*
X757750D2*
X779654D1*
X857746D2*
X1679654D1*
X1757746D2*
X1822670D1*
X1839730D2*
X2618256D1*
X2667145D2*
X3112881D1*
X430527Y702687D2*
X693018D1*
X744390D2*
X793014D1*
X844386D2*
X1693014D1*
X1744386D2*
X2618256D1*
X2667145D2*
X3112881D1*
X430515Y690818D2*
X709646D1*
X727750D2*
X809654D1*
X827746D2*
X1709654D1*
X1727746D2*
X2618256D1*
X2667145D2*
X3112881D1*
X430515Y678949D2*
X685260D1*
X752137D2*
X785268D1*
X852133D2*
X1685268D1*
X1752133D2*
X2618256D1*
X2667145D2*
X3112881D1*
X430515Y667081D2*
X675850D1*
X761558D2*
X775846D1*
X861554D2*
X1675846D1*
X1761554D2*
X2618256D1*
X2667145D2*
X3112881D1*
X430503Y655212D2*
X671138D1*
X866266D2*
X1671134D1*
X1766266D2*
X2618256D1*
X2667145D2*
X3112881D1*
X430503Y643343D2*
X669733D1*
X867671D2*
X1669729D1*
X1767671D2*
X2618256D1*
X2667145D2*
X3112881D1*
X430503Y631474D2*
X671326D1*
X866078D2*
X1671322D1*
X1766078D2*
X2618256D1*
X2667145D2*
X3112881D1*
X430493Y619606D2*
X676260D1*
X761149D2*
X776256D1*
X861145D2*
X1676256D1*
X1761145D2*
X2618256D1*
X2667145D2*
X3112881D1*
X430493Y607737D2*
X686057D1*
X751339D2*
X786065D1*
X851335D2*
X1686065D1*
X1751335D2*
X2618256D1*
X2667145D2*
X3112881D1*
X430493Y595868D2*
X2618256D1*
X2667145D2*
X3112881D1*
X430481Y583999D2*
X691857D1*
X745550D2*
X791854D1*
X845546D2*
X1691854D1*
X1745546D2*
X2618256D1*
X2667145D2*
X3112881D1*
X430481Y572130D2*
X679120D1*
X758289D2*
X779116D1*
X858285D2*
X1679116D1*
X1758285D2*
X2618256D1*
X2667145D2*
X3112881D1*
X430481Y560262D2*
X672697D1*
X764699D2*
X772693D1*
X864707D2*
X1073877D1*
X1117797D2*
X1388830D1*
X1432773D2*
X1672693D1*
X1764707D2*
X2618256D1*
X2667145D2*
X3112881D1*
X430469Y548393D2*
X669966D1*
X867438D2*
X1059170D1*
X1132515D2*
X1374124D1*
X1447481D2*
X1669962D1*
X1767438D2*
X2618256D1*
X2667145D2*
X3112881D1*
X430469Y536524D2*
X670272D1*
X867121D2*
X1052162D1*
X1139511D2*
X1367128D1*
X1454477D2*
X1670280D1*
X1767121D2*
X2618256D1*
X2667145D2*
X3112881D1*
X430457Y524655D2*
X673693D1*
X763703D2*
X773690D1*
X863710D2*
X1049174D1*
X1142511D2*
X1364128D1*
X1457465D2*
X1673690D1*
X1763710D2*
X2602213D1*
X2667145D2*
X3112881D1*
X430457Y512787D2*
X681088D1*
X756321D2*
X781085D1*
X856317D2*
X1049361D1*
X1142313D2*
X1364326D1*
X1457266D2*
X1681085D1*
X1756317D2*
X2589510D1*
X2664414D2*
X3112881D1*
X430457Y500918D2*
X696252D1*
X741145D2*
X796249D1*
X841153D2*
X1052806D1*
X1138867D2*
X1367772D1*
X1453831D2*
X1696249D1*
X1741153D2*
X2585620D1*
X2653985D2*
X3112881D1*
X430445Y489049D2*
X669733D1*
X867671D2*
X1060460D1*
X1131226D2*
X1375424D1*
X1446179D2*
X1669729D1*
X1767671D2*
X2586721D1*
X2646683D2*
X3112881D1*
X430445Y477180D2*
X669733D1*
X867671D2*
X1077170D1*
X1114515D2*
X1392146D1*
X1429457D2*
X1669729D1*
X1767671D2*
X2593541D1*
X2639851D2*
X3112881D1*
X430445Y465312D2*
X669733D1*
X867671D2*
X1669729D1*
X1767671D2*
X3112881D1*
X430434Y453443D2*
X669733D1*
X867671D2*
X1669729D1*
X1767671D2*
X3112881D1*
X430434Y441574D2*
X669733D1*
X867671D2*
X1669729D1*
X1767671D2*
X3112881D1*
X430434Y429705D2*
X669733D1*
X867671D2*
X1669729D1*
X1767671D2*
X3112881D1*
X776932Y491468D2*
X866468D1*
Y429224D1*
X927221Y429228D1*
X1670934D1*
X1670932Y491468D1*
X1766468D1*
Y429224D1*
X1827221Y429228D1*
X3114074D1*
X3114078Y645225D1*
Y2720376D1*
X430019Y2720377D1*
X429986Y2642377D1*
X429230Y429228D1*
X670938D1*
X670932Y491468D1*
X766468D1*
Y429224D1*
X770931Y429228D1*
X770932Y491468D1*
X776932D1*
X866091Y537716D2*
X864968Y531823D1*
X863115Y526119D1*
X860561Y520690D1*
X857346Y515625D1*
X853523Y511003D1*
X849150Y506896D1*
X844297Y503369D1*
X839041Y500480D1*
X833464Y498271D1*
X827653Y496779D1*
X821703Y496027D1*
X815704D1*
X809752Y496777D1*
X803941Y498270D1*
X798364Y500477D1*
X793107Y503367D1*
X788254Y506893D1*
X783881Y510999D1*
X780057Y515621D1*
X776842Y520686D1*
X774288Y526113D1*
X772434Y531818D1*
X771309Y537710D1*
X770932Y543697D1*
X771309Y549684D1*
X772432Y555577D1*
X774285Y561281D1*
X776839Y566710D1*
X780054Y571775D1*
X783877Y576397D1*
X788250Y580504D1*
X793103Y584031D1*
X798359Y586920D1*
X803936Y589129D1*
X809747Y590621D1*
X815697Y591373D1*
X821696D1*
X827648Y590623D1*
X833459Y589130D1*
X839036Y586923D1*
X844293Y584033D1*
X849146Y580507D1*
X853519Y576401D1*
X857343Y571779D1*
X860558Y566714D1*
X863112Y561287D1*
X864966Y555582D1*
X866091Y549690D1*
X866468Y543700D1*
X866091Y537716D1*
Y637716D2*
X864968Y631823D1*
X863115Y626119D1*
X860561Y620690D1*
X857346Y615625D1*
X853523Y611003D1*
X849150Y606896D1*
X844297Y603369D1*
X839041Y600480D1*
X833464Y598271D1*
X827653Y596779D1*
X821703Y596027D1*
X815704D1*
X809752Y596777D1*
X803941Y598270D1*
X798364Y600477D1*
X793107Y603367D1*
X788254Y606893D1*
X783881Y610999D1*
X780057Y615621D1*
X776842Y620686D1*
X774288Y626113D1*
X772434Y631818D1*
X771309Y637710D1*
X770932Y643697D1*
X771309Y649684D1*
X772432Y655577D1*
X774285Y661281D1*
X776839Y666710D1*
X780054Y671775D1*
X783877Y676397D1*
X788250Y680504D1*
X793103Y684031D1*
X798359Y686920D1*
X803936Y689129D1*
X809747Y690621D1*
X815697Y691373D1*
X821696D1*
X827648Y690623D1*
X833459Y689130D1*
X839036Y686923D1*
X844293Y684033D1*
X849146Y680507D1*
X853519Y676401D1*
X857343Y671779D1*
X860558Y666714D1*
X863112Y661287D1*
X864966Y655582D1*
X866091Y649690D1*
X866468Y643700D1*
X866091Y637716D1*
Y737716D2*
X864968Y731823D1*
X863115Y726119D1*
X860561Y720690D1*
X857346Y715625D1*
X853523Y711003D1*
X849150Y706896D1*
X844297Y703369D1*
X839041Y700480D1*
X833464Y698271D1*
X827653Y696779D1*
X821703Y696027D1*
X815704D1*
X809752Y696777D1*
X803941Y698270D1*
X798364Y700477D1*
X793107Y703367D1*
X788254Y706893D1*
X783881Y710999D1*
X780057Y715621D1*
X776842Y720686D1*
X774288Y726113D1*
X772434Y731818D1*
X771309Y737710D1*
X770932Y743697D1*
X771309Y749684D1*
X772432Y755577D1*
X774285Y761281D1*
X776839Y766710D1*
X780054Y771775D1*
X783877Y776397D1*
X788250Y780504D1*
X793103Y784031D1*
X798359Y786920D1*
X803936Y789129D1*
X809747Y790621D1*
X815697Y791373D1*
X821696D1*
X827648Y790623D1*
X833459Y789130D1*
X839036Y786923D1*
X844293Y784033D1*
X849146Y780507D1*
X853519Y776401D1*
X857343Y771779D1*
X860558Y766714D1*
X863112Y761287D1*
X864966Y755582D1*
X866091Y749690D1*
X866468Y743700D1*
X866091Y737716D1*
X860413Y820457D2*
X857346Y815625D1*
X853523Y811003D1*
X849150Y806896D1*
X844297Y803369D1*
X839041Y800480D1*
X833464Y798271D1*
X827653Y796779D1*
X821703Y796027D1*
X815704D1*
X809752Y796777D1*
X803941Y798270D1*
X798364Y800477D1*
X793107Y803367D1*
X788254Y806893D1*
X783881Y810999D1*
X780057Y815621D1*
X776842Y820686D1*
X774288Y826113D1*
X772434Y831818D1*
X771309Y837710D1*
X770932Y843697D1*
X771309Y849684D1*
X772432Y855577D1*
X774285Y861281D1*
X776839Y866710D1*
X780054Y871775D1*
X783877Y876397D1*
X788250Y880504D1*
X793103Y884031D1*
X798359Y886920D1*
X803936Y889129D1*
X809747Y890621D1*
X815697Y891373D1*
X821696D1*
X827648Y890623D1*
X833459Y889130D1*
X839036Y886923D1*
X844293Y884033D1*
X849146Y880507D1*
X853519Y876401D1*
X857343Y871779D1*
X860417Y866938D1*
X895940Y866940D1*
X898485Y869158D1*
X903634Y872390D1*
X909330Y874519D1*
X915338Y875459D1*
X921411Y875169D1*
X927302Y873662D1*
X932770Y871002D1*
X937588Y867294D1*
X941564Y862692D1*
X944531Y857385D1*
X946368Y851588D1*
X947002Y845451D1*
X946405Y839490D1*
X944602Y833683D1*
X941667Y828357D1*
X937721Y823733D1*
X932923Y819997D1*
X927473Y817302D1*
X921591Y815760D1*
X915519Y815434D1*
X909506Y816336D1*
X903798Y818431D1*
X900522Y820460D1*
X860436D1*
X1082325Y1020487D2*
X1086018Y1019932D1*
X1092090Y1020259D1*
X1097972Y1021801D1*
X1103422Y1024495D1*
X1108220Y1028231D1*
X1112166Y1032856D1*
X1115100Y1038182D1*
X1116903Y1043989D1*
X1117501Y1050040D1*
X1116867Y1056087D1*
X1115029Y1061884D1*
X1112062Y1067191D1*
X1108087Y1071793D1*
X1103268Y1075501D1*
X1097801Y1078161D1*
X1091910Y1079667D1*
X1085836Y1079957D1*
X1079829Y1079018D1*
X1074133Y1076889D1*
X1068983Y1073657D1*
X1064588Y1069455D1*
X1062669Y1066940D1*
X860417Y1066938D1*
X857343Y1071779D1*
X853519Y1076401D1*
X849146Y1080507D1*
X844293Y1084033D1*
X839036Y1086923D1*
X833459Y1089130D1*
X827648Y1090623D1*
X821696Y1091373D1*
X815697D1*
X809747Y1090621D1*
X803936Y1089129D1*
X798359Y1086920D1*
X793103Y1084031D1*
X788250Y1080504D1*
X783877Y1076397D1*
X780054Y1071775D1*
X776839Y1066710D1*
X774285Y1061281D1*
X772432Y1055577D1*
X771309Y1049684D1*
X770932Y1043697D1*
X771309Y1037710D1*
X772434Y1031818D1*
X774288Y1026113D1*
X776842Y1020686D1*
X780057Y1015621D1*
X783881Y1010999D1*
X788254Y1006893D1*
X793107Y1003367D1*
X798364Y1000477D1*
X803941Y998270D1*
X809752Y996777D1*
X815704Y996027D1*
X821703D1*
X827653Y996779D1*
X833464Y998271D1*
X839041Y1000480D1*
X844297Y1003369D1*
X849150Y1006896D1*
X853523Y1011003D1*
X857346Y1015625D1*
X860413Y1020457D1*
X1075234Y1020460D1*
X1082325Y1020487D1*
X866091Y1437716D2*
X864968Y1431823D1*
X863115Y1426119D1*
X860561Y1420690D1*
X857346Y1415625D1*
X853523Y1411003D1*
X849150Y1406896D1*
X844297Y1403369D1*
X839041Y1400480D1*
X833464Y1398271D1*
X827653Y1396779D1*
X821703Y1396027D1*
X815704D1*
X809752Y1396777D1*
X803941Y1398270D1*
X798364Y1400477D1*
X793107Y1403367D1*
X788254Y1406893D1*
X783881Y1410999D1*
X780057Y1415621D1*
X776842Y1420686D1*
X774288Y1426113D1*
X772434Y1431818D1*
X771309Y1437710D1*
X770932Y1443697D1*
X771309Y1449684D1*
X772432Y1455577D1*
X774285Y1461281D1*
X776839Y1466710D1*
X780054Y1471775D1*
X783877Y1476397D1*
X788250Y1480504D1*
X793103Y1484031D1*
X798359Y1486920D1*
X803936Y1489129D1*
X809747Y1490621D1*
X815697Y1491373D1*
X821696D1*
X827648Y1490623D1*
X833459Y1489130D1*
X839036Y1486923D1*
X844293Y1484033D1*
X849146Y1480507D1*
X853519Y1476401D1*
X857343Y1471779D1*
X860558Y1466714D1*
X863112Y1461287D1*
X864966Y1455582D1*
X866091Y1449690D1*
X866468Y1443700D1*
X866091Y1437716D1*
Y1537716D2*
X864968Y1531823D1*
X863115Y1526119D1*
X860561Y1520690D1*
X857346Y1515625D1*
X853523Y1511003D1*
X849150Y1506896D1*
X844297Y1503369D1*
X839041Y1500480D1*
X833464Y1498271D1*
X827653Y1496779D1*
X821703Y1496027D1*
X815704D1*
X809752Y1496777D1*
X803941Y1498270D1*
X798364Y1500477D1*
X793107Y1503367D1*
X788254Y1506893D1*
X783881Y1510999D1*
X780057Y1515621D1*
X776842Y1520686D1*
X774288Y1526113D1*
X772434Y1531818D1*
X771309Y1537710D1*
X770932Y1543697D1*
X771309Y1549684D1*
X772432Y1555577D1*
X774285Y1561281D1*
X776839Y1566710D1*
X780054Y1571775D1*
X783877Y1576397D1*
X788250Y1580504D1*
X793103Y1584031D1*
X798359Y1586920D1*
X803936Y1589129D1*
X809747Y1590621D1*
X815697Y1591373D1*
X821696D1*
X827648Y1590623D1*
X833459Y1589130D1*
X839036Y1586923D1*
X844293Y1584033D1*
X849146Y1580507D1*
X853519Y1576401D1*
X857343Y1571779D1*
X860558Y1566714D1*
X863112Y1561287D1*
X864966Y1555582D1*
X866091Y1549690D1*
X866468Y1543700D1*
X866091Y1537716D1*
Y1637716D2*
X864968Y1631823D1*
X863115Y1626119D1*
X860561Y1620690D1*
X857346Y1615625D1*
X853523Y1611003D1*
X849150Y1606896D1*
X844297Y1603369D1*
X839041Y1600480D1*
X833464Y1598271D1*
X827653Y1596779D1*
X821703Y1596027D1*
X815704D1*
X809752Y1596777D1*
X803941Y1598270D1*
X798364Y1600477D1*
X793107Y1603367D1*
X788254Y1606893D1*
X783881Y1610999D1*
X780057Y1615621D1*
X776842Y1620686D1*
X774288Y1626113D1*
X772434Y1631818D1*
X771309Y1637710D1*
X770932Y1643697D1*
X771309Y1649684D1*
X772432Y1655577D1*
X774285Y1661281D1*
X776839Y1666710D1*
X780054Y1671775D1*
X783877Y1676397D1*
X788250Y1680504D1*
X793103Y1684031D1*
X798359Y1686920D1*
X803936Y1689129D1*
X809747Y1690621D1*
X815697Y1691373D1*
X821696D1*
X827648Y1690623D1*
X833459Y1689130D1*
X839036Y1686923D1*
X844293Y1684033D1*
X849146Y1680507D1*
X853519Y1676401D1*
X857343Y1671779D1*
X860558Y1666714D1*
X863112Y1661287D1*
X864966Y1655582D1*
X866091Y1649690D1*
X866468Y1643700D1*
X866091Y1637716D1*
Y1737716D2*
X864968Y1731823D1*
X863115Y1726119D1*
X860561Y1720690D1*
X857346Y1715625D1*
X853523Y1711003D1*
X849150Y1706896D1*
X844297Y1703369D1*
X839041Y1700480D1*
X833464Y1698271D1*
X827653Y1696779D1*
X821703Y1696027D1*
X815704D1*
X809752Y1696777D1*
X803941Y1698270D1*
X798364Y1700477D1*
X793107Y1703367D1*
X788254Y1706893D1*
X783881Y1710999D1*
X780057Y1715621D1*
X776842Y1720686D1*
X774288Y1726113D1*
X772434Y1731818D1*
X771309Y1737710D1*
X770932Y1743697D1*
X771309Y1749684D1*
X772432Y1755577D1*
X774285Y1761281D1*
X776839Y1766710D1*
X780054Y1771775D1*
X783877Y1776397D1*
X788250Y1780504D1*
X793103Y1784031D1*
X798359Y1786920D1*
X803936Y1789129D1*
X809747Y1790621D1*
X815697Y1791373D1*
X821696D1*
X827648Y1790623D1*
X833459Y1789130D1*
X839036Y1786923D1*
X844293Y1784033D1*
X849146Y1780507D1*
X853519Y1776401D1*
X857343Y1771779D1*
X860558Y1766714D1*
X863112Y1761287D1*
X864966Y1755582D1*
X866091Y1749690D1*
X866468Y1743700D1*
X866091Y1737716D1*
Y2037716D2*
X864968Y2031823D1*
X863115Y2026119D1*
X860561Y2020690D1*
X857346Y2015625D1*
X853523Y2011003D1*
X849150Y2006896D1*
X844297Y2003369D1*
X839041Y2000480D1*
X833464Y1998271D1*
X827653Y1996779D1*
X821703Y1996027D1*
X815704D1*
X809752Y1996777D1*
X803941Y1998270D1*
X798364Y2000477D1*
X793107Y2003367D1*
X788254Y2006893D1*
X783881Y2010999D1*
X780057Y2015621D1*
X776842Y2020686D1*
X774288Y2026113D1*
X772434Y2031818D1*
X771309Y2037710D1*
X770932Y2043697D1*
X771309Y2049684D1*
X772432Y2055577D1*
X774285Y2061281D1*
X776839Y2066710D1*
X780054Y2071775D1*
X783877Y2076397D1*
X788250Y2080504D1*
X793103Y2084031D1*
X798359Y2086920D1*
X803936Y2089129D1*
X809747Y2090621D1*
X815697Y2091373D1*
X821696D1*
X827648Y2090623D1*
X833459Y2089130D1*
X839036Y2086923D1*
X844293Y2084033D1*
X849146Y2080507D1*
X853519Y2076401D1*
X857343Y2071779D1*
X860558Y2066714D1*
X863112Y2061287D1*
X864966Y2055582D1*
X866091Y2049690D1*
X866468Y2043700D1*
X866091Y2037716D1*
Y2137716D2*
X864968Y2131823D1*
X863115Y2126119D1*
X860561Y2120690D1*
X857346Y2115625D1*
X853523Y2111003D1*
X849150Y2106896D1*
X844297Y2103369D1*
X839041Y2100480D1*
X833464Y2098271D1*
X827653Y2096779D1*
X821703Y2096027D1*
X815704D1*
X809752Y2096777D1*
X803941Y2098270D1*
X798364Y2100477D1*
X793107Y2103367D1*
X788254Y2106893D1*
X783881Y2110999D1*
X780057Y2115621D1*
X776842Y2120686D1*
X774288Y2126113D1*
X772434Y2131818D1*
X771309Y2137710D1*
X770932Y2143697D1*
X771309Y2149684D1*
X772432Y2155577D1*
X774285Y2161281D1*
X776839Y2166710D1*
X780054Y2171775D1*
X783877Y2176397D1*
X788250Y2180504D1*
X793103Y2184031D1*
X798359Y2186920D1*
X803936Y2189129D1*
X809747Y2190621D1*
X815697Y2191373D1*
X821696D1*
X827648Y2190623D1*
X833459Y2189130D1*
X839036Y2186923D1*
X844293Y2184033D1*
X849146Y2180507D1*
X853519Y2176401D1*
X857343Y2171779D1*
X860558Y2166714D1*
X863112Y2161287D1*
X864966Y2155582D1*
X866091Y2149690D1*
X866468Y2143700D1*
X866091Y2137716D1*
Y2237716D2*
X864968Y2231823D1*
X863115Y2226119D1*
X860561Y2220690D1*
X857346Y2215625D1*
X853523Y2211003D1*
X849150Y2206896D1*
X844297Y2203369D1*
X839041Y2200480D1*
X833464Y2198271D1*
X827653Y2196779D1*
X821703Y2196027D1*
X815704D1*
X809752Y2196777D1*
X803941Y2198270D1*
X798364Y2200477D1*
X793107Y2203367D1*
X788254Y2206893D1*
X783881Y2210999D1*
X780057Y2215621D1*
X776842Y2220686D1*
X774288Y2226113D1*
X772434Y2231818D1*
X771309Y2237710D1*
X770932Y2243697D1*
X771309Y2249684D1*
X772432Y2255577D1*
X774285Y2261281D1*
X776839Y2266710D1*
X780054Y2271775D1*
X783877Y2276397D1*
X788250Y2280504D1*
X793103Y2284031D1*
X798359Y2286920D1*
X803936Y2289129D1*
X809747Y2290621D1*
X815697Y2291373D1*
X821696D1*
X827648Y2290623D1*
X833459Y2289130D1*
X839036Y2286923D1*
X844293Y2284033D1*
X849146Y2280507D1*
X853519Y2276401D1*
X857343Y2271779D1*
X860558Y2266714D1*
X863112Y2261287D1*
X864966Y2255582D1*
X866091Y2249690D1*
X866468Y2243700D1*
X866091Y2237716D1*
X766091Y537716D2*
X764968Y531823D1*
X763115Y526119D1*
X760561Y520690D1*
X757346Y515625D1*
X753523Y511003D1*
X749150Y506896D1*
X744297Y503369D1*
X739041Y500480D1*
X733464Y498271D1*
X727653Y496779D1*
X721703Y496027D1*
X715704D1*
X709752Y496777D1*
X703941Y498270D1*
X698364Y500477D1*
X693107Y503367D1*
X688254Y506893D1*
X683881Y510999D1*
X680057Y515621D1*
X676842Y520686D1*
X674288Y526113D1*
X672434Y531818D1*
X671309Y537710D1*
X670932Y543697D1*
X671309Y549684D1*
X672432Y555577D1*
X674285Y561281D1*
X676839Y566710D1*
X680054Y571775D1*
X683877Y576397D1*
X688250Y580504D1*
X693103Y584031D1*
X698359Y586920D1*
X703936Y589129D1*
X709747Y590621D1*
X715697Y591373D1*
X721696D1*
X727648Y590623D1*
X733459Y589130D1*
X739036Y586923D1*
X744293Y584033D1*
X749146Y580507D1*
X753519Y576401D1*
X757343Y571779D1*
X760558Y566714D1*
X763112Y561287D1*
X764966Y555582D1*
X766091Y549690D1*
X766468Y543700D1*
X766091Y537716D1*
Y637716D2*
X764968Y631823D1*
X763115Y626119D1*
X760561Y620690D1*
X757346Y615625D1*
X753523Y611003D1*
X749150Y606896D1*
X744297Y603369D1*
X739041Y600480D1*
X733464Y598271D1*
X727653Y596779D1*
X721703Y596027D1*
X715704D1*
X709752Y596777D1*
X703941Y598270D1*
X698364Y600477D1*
X693107Y603367D1*
X688254Y606893D1*
X683881Y610999D1*
X680057Y615621D1*
X676842Y620686D1*
X674288Y626113D1*
X672434Y631818D1*
X671309Y637710D1*
X670932Y643697D1*
X671309Y649684D1*
X672432Y655577D1*
X674285Y661281D1*
X676839Y666710D1*
X680054Y671775D1*
X683877Y676397D1*
X688250Y680504D1*
X693103Y684031D1*
X698359Y686920D1*
X703936Y689129D1*
X709747Y690621D1*
X715697Y691373D1*
X721696D1*
X727648Y690623D1*
X733459Y689130D1*
X739036Y686923D1*
X744293Y684033D1*
X749146Y680507D1*
X753519Y676401D1*
X757343Y671779D1*
X760558Y666714D1*
X763112Y661287D1*
X764966Y655582D1*
X766091Y649690D1*
X766468Y643700D1*
X766091Y637716D1*
Y737716D2*
X764968Y731823D1*
X763115Y726119D1*
X760561Y720690D1*
X757346Y715625D1*
X753523Y711003D1*
X749150Y706896D1*
X744297Y703369D1*
X739041Y700480D1*
X733464Y698271D1*
X727653Y696779D1*
X721703Y696027D1*
X715704D1*
X709752Y696777D1*
X703941Y698270D1*
X698364Y700477D1*
X693107Y703367D1*
X688254Y706893D1*
X683881Y710999D1*
X680057Y715621D1*
X676842Y720686D1*
X674288Y726113D1*
X672434Y731818D1*
X671309Y737710D1*
X670932Y743697D1*
X671309Y749684D1*
X672432Y755577D1*
X674285Y761281D1*
X676839Y766710D1*
X680054Y771775D1*
X683877Y776397D1*
X688250Y780504D1*
X693103Y784031D1*
X698359Y786920D1*
X703936Y789129D1*
X709747Y790621D1*
X715697Y791373D1*
X721696D1*
X727648Y790623D1*
X733459Y789130D1*
X739036Y786923D1*
X744293Y784033D1*
X749146Y780507D1*
X753519Y776401D1*
X757343Y771779D1*
X760558Y766714D1*
X763112Y761287D1*
X764966Y755582D1*
X766091Y749690D1*
X766468Y743700D1*
X766091Y737716D1*
Y837716D2*
X764968Y831823D1*
X763115Y826119D1*
X760561Y820690D1*
X757346Y815625D1*
X753523Y811003D1*
X749150Y806896D1*
X744297Y803369D1*
X739041Y800480D1*
X733464Y798271D1*
X727653Y796779D1*
X721703Y796027D1*
X715704D1*
X709752Y796777D1*
X703941Y798270D1*
X698364Y800477D1*
X693107Y803367D1*
X688254Y806893D1*
X683881Y810999D1*
X680057Y815621D1*
X676842Y820686D1*
X674288Y826113D1*
X672434Y831818D1*
X671309Y837710D1*
X670932Y843697D1*
X671309Y849684D1*
X672432Y855577D1*
X674285Y861281D1*
X676839Y866710D1*
X680054Y871775D1*
X683877Y876397D1*
X688250Y880504D1*
X693103Y884031D1*
X698359Y886920D1*
X703936Y889129D1*
X709747Y890621D1*
X715697Y891373D1*
X721696D1*
X727648Y890623D1*
X733459Y889130D1*
X739036Y886923D1*
X744293Y884033D1*
X749146Y880507D1*
X753519Y876401D1*
X757343Y871779D1*
X760558Y866714D1*
X763112Y861287D1*
X764966Y855582D1*
X766091Y849690D1*
X766468Y843700D1*
X766091Y837716D1*
Y1037716D2*
X764968Y1031823D1*
X763115Y1026119D1*
X760561Y1020690D1*
X757346Y1015625D1*
X753523Y1011003D1*
X749150Y1006896D1*
X744297Y1003369D1*
X739041Y1000480D1*
X733464Y998271D1*
X727653Y996779D1*
X721703Y996027D1*
X715704D1*
X709752Y996777D1*
X703941Y998270D1*
X698364Y1000477D1*
X693107Y1003367D1*
X688254Y1006893D1*
X683881Y1010999D1*
X680057Y1015621D1*
X676842Y1020686D1*
X674288Y1026113D1*
X672434Y1031818D1*
X671309Y1037710D1*
X670932Y1043697D1*
X671309Y1049684D1*
X672432Y1055577D1*
X674285Y1061281D1*
X676839Y1066710D1*
X680054Y1071775D1*
X683877Y1076397D1*
X688250Y1080504D1*
X693103Y1084031D1*
X698359Y1086920D1*
X703936Y1089129D1*
X709747Y1090621D1*
X715697Y1091373D1*
X721696D1*
X727648Y1090623D1*
X733459Y1089130D1*
X739036Y1086923D1*
X744293Y1084033D1*
X749146Y1080507D1*
X753519Y1076401D1*
X757343Y1071779D1*
X760558Y1066714D1*
X763112Y1061287D1*
X764966Y1055582D1*
X766091Y1049690D1*
X766468Y1043700D1*
X766091Y1037716D1*
Y1437716D2*
X764968Y1431823D1*
X763115Y1426119D1*
X760561Y1420690D1*
X757346Y1415625D1*
X753523Y1411003D1*
X749150Y1406896D1*
X744297Y1403369D1*
X739041Y1400480D1*
X733464Y1398271D1*
X727653Y1396779D1*
X721703Y1396027D1*
X715704D1*
X709752Y1396777D1*
X703941Y1398270D1*
X698364Y1400477D1*
X693107Y1403367D1*
X688254Y1406893D1*
X683881Y1410999D1*
X680057Y1415621D1*
X676842Y1420686D1*
X674288Y1426113D1*
X672434Y1431818D1*
X671309Y1437710D1*
X670932Y1443697D1*
X671309Y1449684D1*
X672432Y1455577D1*
X674285Y1461281D1*
X676839Y1466710D1*
X680054Y1471775D1*
X683877Y1476397D1*
X688250Y1480504D1*
X693103Y1484031D1*
X698359Y1486920D1*
X703936Y1489129D1*
X709747Y1490621D1*
X715697Y1491373D1*
X721696D1*
X727648Y1490623D1*
X733459Y1489130D1*
X739036Y1486923D1*
X744293Y1484033D1*
X749146Y1480507D1*
X753519Y1476401D1*
X757343Y1471779D1*
X760558Y1466714D1*
X763112Y1461287D1*
X764966Y1455582D1*
X766091Y1449690D1*
X766468Y1443700D1*
X766091Y1437716D1*
Y1537716D2*
X764968Y1531823D1*
X763115Y1526119D1*
X760561Y1520690D1*
X757346Y1515625D1*
X753523Y1511003D1*
X749150Y1506896D1*
X744297Y1503369D1*
X739041Y1500480D1*
X733464Y1498271D1*
X727653Y1496779D1*
X721703Y1496027D1*
X715704D1*
X709752Y1496777D1*
X703941Y1498270D1*
X698364Y1500477D1*
X693107Y1503367D1*
X688254Y1506893D1*
X683881Y1510999D1*
X680057Y1515621D1*
X676842Y1520686D1*
X674288Y1526113D1*
X672434Y1531818D1*
X671309Y1537710D1*
X670932Y1543697D1*
X671309Y1549684D1*
X672432Y1555577D1*
X674285Y1561281D1*
X676839Y1566710D1*
X680054Y1571775D1*
X683877Y1576397D1*
X688250Y1580504D1*
X693103Y1584031D1*
X698359Y1586920D1*
X703936Y1589129D1*
X709747Y1590621D1*
X715697Y1591373D1*
X721696D1*
X727648Y1590623D1*
X733459Y1589130D1*
X739036Y1586923D1*
X744293Y1584033D1*
X749146Y1580507D1*
X753519Y1576401D1*
X757343Y1571779D1*
X760558Y1566714D1*
X763112Y1561287D1*
X764966Y1555582D1*
X766091Y1549690D1*
X766468Y1543700D1*
X766091Y1537716D1*
Y1637716D2*
X764968Y1631823D1*
X763115Y1626119D1*
X760561Y1620690D1*
X757346Y1615625D1*
X753523Y1611003D1*
X749150Y1606896D1*
X744297Y1603369D1*
X739041Y1600480D1*
X733464Y1598271D1*
X727653Y1596779D1*
X721703Y1596027D1*
X715704D1*
X709752Y1596777D1*
X703941Y1598270D1*
X698364Y1600477D1*
X693107Y1603367D1*
X688254Y1606893D1*
X683881Y1610999D1*
X680057Y1615621D1*
X676842Y1620686D1*
X674288Y1626113D1*
X672434Y1631818D1*
X671309Y1637710D1*
X670932Y1643697D1*
X671309Y1649684D1*
X672432Y1655577D1*
X674285Y1661281D1*
X676839Y1666710D1*
X680054Y1671775D1*
X683877Y1676397D1*
X688250Y1680504D1*
X693103Y1684031D1*
X698359Y1686920D1*
X703936Y1689129D1*
X709747Y1690621D1*
X715697Y1691373D1*
X721696D1*
X727648Y1690623D1*
X733459Y1689130D1*
X739036Y1686923D1*
X744293Y1684033D1*
X749146Y1680507D1*
X753519Y1676401D1*
X757343Y1671779D1*
X760558Y1666714D1*
X763112Y1661287D1*
X764966Y1655582D1*
X766091Y1649690D1*
X766468Y1643700D1*
X766091Y1637716D1*
Y1737716D2*
X764968Y1731823D1*
X763115Y1726119D1*
X760561Y1720690D1*
X757346Y1715625D1*
X753523Y1711003D1*
X749150Y1706896D1*
X744297Y1703369D1*
X739041Y1700480D1*
X733464Y1698271D1*
X727653Y1696779D1*
X721703Y1696027D1*
X715704D1*
X709752Y1696777D1*
X703941Y1698270D1*
X698364Y1700477D1*
X693107Y1703367D1*
X688254Y1706893D1*
X683881Y1710999D1*
X680057Y1715621D1*
X676842Y1720686D1*
X674288Y1726113D1*
X672434Y1731818D1*
X671309Y1737710D1*
X670932Y1743697D1*
X671309Y1749684D1*
X672432Y1755577D1*
X674285Y1761281D1*
X676839Y1766710D1*
X680054Y1771775D1*
X683877Y1776397D1*
X688250Y1780504D1*
X693103Y1784031D1*
X698359Y1786920D1*
X703936Y1789129D1*
X709747Y1790621D1*
X715697Y1791373D1*
X721696D1*
X727648Y1790623D1*
X733459Y1789130D1*
X739036Y1786923D1*
X744293Y1784033D1*
X749146Y1780507D1*
X753519Y1776401D1*
X757343Y1771779D1*
X760558Y1766714D1*
X763112Y1761287D1*
X764966Y1755582D1*
X766091Y1749690D1*
X766468Y1743700D1*
X766091Y1737716D1*
Y2037716D2*
X764968Y2031823D1*
X763115Y2026119D1*
X760561Y2020690D1*
X757346Y2015625D1*
X753523Y2011003D1*
X749150Y2006896D1*
X744297Y2003369D1*
X739041Y2000480D1*
X733464Y1998271D1*
X727653Y1996779D1*
X721703Y1996027D1*
X715704D1*
X709752Y1996777D1*
X703941Y1998270D1*
X698364Y2000477D1*
X693107Y2003367D1*
X688254Y2006893D1*
X683881Y2010999D1*
X680057Y2015621D1*
X676842Y2020686D1*
X674288Y2026113D1*
X672434Y2031818D1*
X671309Y2037710D1*
X670932Y2043697D1*
X671309Y2049684D1*
X672432Y2055577D1*
X674285Y2061281D1*
X676839Y2066710D1*
X680054Y2071775D1*
X683877Y2076397D1*
X688250Y2080504D1*
X693103Y2084031D1*
X698359Y2086920D1*
X703936Y2089129D1*
X709747Y2090621D1*
X715697Y2091373D1*
X721696D1*
X727648Y2090623D1*
X733459Y2089130D1*
X739036Y2086923D1*
X744293Y2084033D1*
X749146Y2080507D1*
X753519Y2076401D1*
X757343Y2071779D1*
X760558Y2066714D1*
X763112Y2061287D1*
X764966Y2055582D1*
X766091Y2049690D1*
X766468Y2043700D1*
X766091Y2037716D1*
Y2137716D2*
X764968Y2131823D1*
X763115Y2126119D1*
X760561Y2120690D1*
X757346Y2115625D1*
X753523Y2111003D1*
X749150Y2106896D1*
X744297Y2103369D1*
X739041Y2100480D1*
X733464Y2098271D1*
X727653Y2096779D1*
X721703Y2096027D1*
X715704D1*
X709752Y2096777D1*
X703941Y2098270D1*
X698364Y2100477D1*
X693107Y2103367D1*
X688254Y2106893D1*
X683881Y2110999D1*
X680057Y2115621D1*
X676842Y2120686D1*
X674288Y2126113D1*
X672434Y2131818D1*
X671309Y2137710D1*
X670932Y2143697D1*
X671309Y2149684D1*
X672432Y2155577D1*
X674285Y2161281D1*
X676839Y2166710D1*
X680054Y2171775D1*
X683877Y2176397D1*
X688250Y2180504D1*
X693103Y2184031D1*
X698359Y2186920D1*
X703936Y2189129D1*
X709747Y2190621D1*
X715697Y2191373D1*
X721696D1*
X727648Y2190623D1*
X733459Y2189130D1*
X739036Y2186923D1*
X744293Y2184033D1*
X749146Y2180507D1*
X753519Y2176401D1*
X757343Y2171779D1*
X760558Y2166714D1*
X763112Y2161287D1*
X764966Y2155582D1*
X766091Y2149690D1*
X766468Y2143700D1*
X766091Y2137716D1*
Y2237716D2*
X764968Y2231823D1*
X763115Y2226119D1*
X760561Y2220690D1*
X757346Y2215625D1*
X753523Y2211003D1*
X749150Y2206896D1*
X744297Y2203369D1*
X739041Y2200480D1*
X733464Y2198271D1*
X727653Y2196779D1*
X721703Y2196027D1*
X715704D1*
X709752Y2196777D1*
X703941Y2198270D1*
X698364Y2200477D1*
X693107Y2203367D1*
X688254Y2206893D1*
X683881Y2210999D1*
X680057Y2215621D1*
X676842Y2220686D1*
X674288Y2226113D1*
X672434Y2231818D1*
X671309Y2237710D1*
X670932Y2243697D1*
X671309Y2249684D1*
X672432Y2255577D1*
X674285Y2261281D1*
X676839Y2266710D1*
X680054Y2271775D1*
X683877Y2276397D1*
X688250Y2280504D1*
X693103Y2284031D1*
X698359Y2286920D1*
X703936Y2289129D1*
X709747Y2290621D1*
X715697Y2291373D1*
X721696D1*
X727648Y2290623D1*
X733459Y2289130D1*
X739036Y2286923D1*
X744293Y2284033D1*
X749146Y2280507D1*
X753519Y2276401D1*
X757343Y2271779D1*
X760558Y2266714D1*
X763112Y2261287D1*
X764966Y2255582D1*
X766091Y2249690D1*
X766468Y2243700D1*
X766091Y2237716D1*
X1766091Y537716D2*
X1764968Y531823D1*
X1763115Y526119D1*
X1760561Y520690D1*
X1757346Y515625D1*
X1753523Y511003D1*
X1749150Y506896D1*
X1744297Y503369D1*
X1739041Y500480D1*
X1733464Y498271D1*
X1727653Y496779D1*
X1721703Y496027D1*
X1715704D1*
X1709752Y496777D1*
X1703941Y498270D1*
X1698364Y500477D1*
X1693107Y503367D1*
X1688254Y506893D1*
X1683881Y510999D1*
X1680057Y515621D1*
X1676842Y520686D1*
X1674288Y526113D1*
X1672434Y531818D1*
X1671309Y537710D1*
X1670932Y543697D1*
X1671309Y549684D1*
X1672432Y555577D1*
X1674285Y561281D1*
X1676839Y566710D1*
X1680054Y571775D1*
X1683877Y576397D1*
X1688250Y580504D1*
X1693103Y584031D1*
X1698359Y586920D1*
X1703936Y589129D1*
X1709747Y590621D1*
X1715697Y591373D1*
X1721696D1*
X1727648Y590623D1*
X1733459Y589130D1*
X1739036Y586923D1*
X1744293Y584033D1*
X1749146Y580507D1*
X1753519Y576401D1*
X1757343Y571779D1*
X1760558Y566714D1*
X1763112Y561287D1*
X1764966Y555582D1*
X1766091Y549690D1*
X1766468Y543700D1*
X1766091Y537716D1*
Y637716D2*
X1764968Y631823D1*
X1763115Y626119D1*
X1760561Y620690D1*
X1757346Y615625D1*
X1753523Y611003D1*
X1749150Y606896D1*
X1744297Y603369D1*
X1739041Y600480D1*
X1733464Y598271D1*
X1727653Y596779D1*
X1721703Y596027D1*
X1715704D1*
X1709752Y596777D1*
X1703941Y598270D1*
X1698364Y600477D1*
X1693107Y603367D1*
X1688254Y606893D1*
X1683881Y610999D1*
X1680057Y615621D1*
X1676842Y620686D1*
X1674288Y626113D1*
X1672434Y631818D1*
X1671309Y637710D1*
X1670932Y643697D1*
X1671309Y649684D1*
X1672432Y655577D1*
X1674285Y661281D1*
X1676839Y666710D1*
X1680054Y671775D1*
X1683877Y676397D1*
X1688250Y680504D1*
X1693103Y684031D1*
X1698359Y686920D1*
X1703936Y689129D1*
X1709747Y690621D1*
X1715697Y691373D1*
X1721696D1*
X1727648Y690623D1*
X1733459Y689130D1*
X1739036Y686923D1*
X1744293Y684033D1*
X1749146Y680507D1*
X1753519Y676401D1*
X1757343Y671779D1*
X1760558Y666714D1*
X1763112Y661287D1*
X1764966Y655582D1*
X1766091Y649690D1*
X1766468Y643700D1*
X1766091Y637716D1*
X1760687Y720960D2*
X1760561Y720690D1*
X1757346Y715625D1*
X1753523Y711003D1*
X1749150Y706896D1*
X1744297Y703369D1*
X1739041Y700480D1*
X1733464Y698271D1*
X1727653Y696779D1*
X1721703Y696027D1*
X1715704D1*
X1709752Y696777D1*
X1703941Y698270D1*
X1698364Y700477D1*
X1693107Y703367D1*
X1688254Y706893D1*
X1683881Y710999D1*
X1680057Y715621D1*
X1676842Y720686D1*
X1674288Y726113D1*
X1672434Y731818D1*
X1671309Y737710D1*
X1670932Y743697D1*
X1671309Y749684D1*
X1672432Y755577D1*
X1674285Y761281D1*
X1676839Y766710D1*
X1680054Y771775D1*
X1683877Y776397D1*
X1688250Y780504D1*
X1693103Y784031D1*
X1698359Y786920D1*
X1703936Y789129D1*
X1709747Y790621D1*
X1715697Y791373D1*
X1721696D1*
X1727648Y790623D1*
X1733459Y789130D1*
X1739036Y786923D1*
X1744293Y784033D1*
X1749146Y780507D1*
X1753519Y776401D1*
X1757343Y771779D1*
X1760558Y766714D1*
X1760686Y766444D1*
X1811553Y766440D1*
X1812734Y767407D1*
X1817884Y770640D1*
X1823579Y772768D1*
X1829587Y773708D1*
X1835661Y773418D1*
X1841552Y771911D1*
X1847019Y769251D1*
X1851838Y765544D1*
X1855813Y760941D1*
X1858780Y755634D1*
X1860617Y749838D1*
X1861251Y743700D1*
X1860654Y737739D1*
X1858851Y731932D1*
X1855917Y726607D1*
X1851970Y721982D1*
X1847172Y718246D1*
X1841722Y715552D1*
X1835840Y714010D1*
X1829768Y713683D1*
X1823755Y714586D1*
X1818048Y716680D1*
X1812877Y719881D1*
X1811734Y720961D1*
X1760705Y720960D1*
X1766091Y837716D2*
X1764968Y831823D1*
X1763115Y826119D1*
X1760561Y820690D1*
X1757346Y815625D1*
X1753523Y811003D1*
X1749150Y806896D1*
X1744297Y803369D1*
X1739041Y800480D1*
X1733464Y798271D1*
X1727653Y796779D1*
X1721703Y796027D1*
X1715704D1*
X1709752Y796777D1*
X1703941Y798270D1*
X1698364Y800477D1*
X1693107Y803367D1*
X1688254Y806893D1*
X1683881Y810999D1*
X1680057Y815621D1*
X1676842Y820686D1*
X1674288Y826113D1*
X1672434Y831818D1*
X1671309Y837710D1*
X1670932Y843697D1*
X1671309Y849684D1*
X1672432Y855577D1*
X1674285Y861281D1*
X1676839Y866710D1*
X1680054Y871775D1*
X1683877Y876397D1*
X1688250Y880504D1*
X1693103Y884031D1*
X1698359Y886920D1*
X1703936Y889129D1*
X1709747Y890621D1*
X1715697Y891373D1*
X1721696D1*
X1727648Y890623D1*
X1733459Y889130D1*
X1739036Y886923D1*
X1744293Y884033D1*
X1749146Y880507D1*
X1753519Y876401D1*
X1757343Y871779D1*
X1760558Y866714D1*
X1763112Y861287D1*
X1764966Y855582D1*
X1766091Y849690D1*
X1766468Y843700D1*
X1766091Y837716D1*
Y937716D2*
X1764968Y931823D1*
X1763115Y926119D1*
X1760561Y920690D1*
X1757346Y915625D1*
X1753523Y911003D1*
X1749150Y906896D1*
X1744297Y903369D1*
X1739041Y900480D1*
X1733464Y898271D1*
X1727653Y896779D1*
X1721703Y896027D1*
X1715704D1*
X1709752Y896777D1*
X1703941Y898270D1*
X1698364Y900477D1*
X1693107Y903367D1*
X1688254Y906893D1*
X1683881Y910999D1*
X1680057Y915621D1*
X1676842Y920686D1*
X1674288Y926113D1*
X1672434Y931818D1*
X1671309Y937710D1*
X1670932Y943697D1*
X1671309Y949684D1*
X1672432Y955577D1*
X1674285Y961281D1*
X1676839Y966710D1*
X1680054Y971775D1*
X1683877Y976397D1*
X1688250Y980504D1*
X1693103Y984031D1*
X1698359Y986920D1*
X1703936Y989129D1*
X1709747Y990621D1*
X1715697Y991373D1*
X1721696D1*
X1727648Y990623D1*
X1733459Y989130D1*
X1739036Y986923D1*
X1744293Y984033D1*
X1749146Y980507D1*
X1753519Y976401D1*
X1757343Y971779D1*
X1760558Y966714D1*
X1763112Y961287D1*
X1764966Y955582D1*
X1766091Y949690D1*
X1766468Y943700D1*
X1766091Y937716D1*
X1760687Y1020960D2*
X1760561Y1020690D1*
X1757346Y1015625D1*
X1753523Y1011003D1*
X1749150Y1006896D1*
X1744297Y1003369D1*
X1739041Y1000480D1*
X1733464Y998271D1*
X1727653Y996779D1*
X1721703Y996027D1*
X1715704D1*
X1709752Y996777D1*
X1703941Y998270D1*
X1698364Y1000477D1*
X1693107Y1003367D1*
X1688254Y1006893D1*
X1683881Y1010999D1*
X1680057Y1015621D1*
X1676842Y1020686D1*
X1674288Y1026113D1*
X1672434Y1031818D1*
X1671309Y1037710D1*
X1670932Y1043697D1*
X1671309Y1049684D1*
X1672432Y1055577D1*
X1674285Y1061281D1*
X1676839Y1066710D1*
X1680054Y1071775D1*
X1683877Y1076397D1*
X1688250Y1080504D1*
X1693103Y1084031D1*
X1698359Y1086920D1*
X1703936Y1089129D1*
X1709747Y1090621D1*
X1715697Y1091373D1*
X1721696D1*
X1727648Y1090623D1*
X1733459Y1089130D1*
X1739036Y1086923D1*
X1744293Y1084033D1*
X1749146Y1080507D1*
X1753519Y1076401D1*
X1757343Y1071779D1*
X1760558Y1066714D1*
X1760686Y1066444D1*
X1786553Y1066440D1*
X1787734Y1067407D1*
X1792884Y1070640D1*
X1798579Y1072768D1*
X1804587Y1073708D1*
X1810661Y1073418D1*
X1816552Y1071911D1*
X1822019Y1069251D1*
X1826838Y1065544D1*
X1830813Y1060941D1*
X1833780Y1055634D1*
X1835617Y1049838D1*
X1836251Y1043700D1*
X1835654Y1037739D1*
X1833851Y1031932D1*
X1830917Y1026607D1*
X1826970Y1021982D1*
X1822172Y1018246D1*
X1816722Y1015552D1*
X1810840Y1014010D1*
X1804768Y1013683D1*
X1798755Y1014586D1*
X1793048Y1016680D1*
X1787877Y1019881D1*
X1786734Y1020961D1*
X1760705Y1020960D1*
X1766091Y2137716D2*
X1764968Y2131823D1*
X1763115Y2126119D1*
X1760561Y2120690D1*
X1757346Y2115625D1*
X1753523Y2111003D1*
X1749150Y2106896D1*
X1744297Y2103369D1*
X1739041Y2100480D1*
X1733464Y2098271D1*
X1727653Y2096779D1*
X1721703Y2096027D1*
X1715704D1*
X1709752Y2096777D1*
X1703941Y2098270D1*
X1698364Y2100477D1*
X1693107Y2103367D1*
X1688254Y2106893D1*
X1683881Y2110999D1*
X1680057Y2115621D1*
X1676842Y2120686D1*
X1674288Y2126113D1*
X1672434Y2131818D1*
X1671309Y2137710D1*
X1670932Y2143697D1*
X1671309Y2149684D1*
X1672432Y2155577D1*
X1674285Y2161281D1*
X1676839Y2166710D1*
X1680054Y2171775D1*
X1683877Y2176397D1*
X1688250Y2180504D1*
X1693103Y2184031D1*
X1698359Y2186920D1*
X1703936Y2189129D1*
X1709747Y2190621D1*
X1715697Y2191373D1*
X1721696D1*
X1727648Y2190623D1*
X1733459Y2189130D1*
X1739036Y2186923D1*
X1744293Y2184033D1*
X1749146Y2180507D1*
X1753519Y2176401D1*
X1757343Y2171779D1*
X1760558Y2166714D1*
X1763112Y2161287D1*
X1764966Y2155582D1*
X1766091Y2149690D1*
X1766468Y2143700D1*
X1766091Y2137716D1*
X2391091Y2612716D2*
X2389968Y2606823D1*
X2388115Y2601119D1*
X2385561Y2595690D1*
X2382346Y2590625D1*
X2378523Y2586003D1*
X2374150Y2581896D1*
X2369297Y2578369D1*
X2364041Y2575480D1*
X2358464Y2573271D1*
X2352653Y2571779D1*
X2346703Y2571027D1*
X2340704D1*
X2334752Y2571777D1*
X2328941Y2573270D1*
X2323364Y2575477D1*
X2318107Y2578367D1*
X2313254Y2581893D1*
X2308881Y2585999D1*
X2305057Y2590621D1*
X2301842Y2595686D1*
X2299288Y2601113D1*
X2297434Y2606818D1*
X2296309Y2612710D1*
X2295932Y2618697D1*
X2296309Y2624684D1*
X2297432Y2630577D1*
X2299285Y2636281D1*
X2301839Y2641710D1*
X2305054Y2646775D1*
X2308877Y2651397D1*
X2313250Y2655504D1*
X2318103Y2659031D1*
X2323359Y2661920D1*
X2328936Y2664129D1*
X2334747Y2665621D1*
X2340697Y2666373D1*
X2346696D1*
X2352648Y2665623D1*
X2358459Y2664130D1*
X2364036Y2661923D1*
X2369293Y2659033D1*
X2374146Y2655507D1*
X2378519Y2651401D1*
X2382343Y2646779D1*
X2385558Y2641714D1*
X2388112Y2636287D1*
X2389966Y2630582D1*
X2391091Y2624690D1*
X2391468Y2618700D1*
X2391091Y2612716D1*
X2291091D2*
X2289968Y2606823D1*
X2288115Y2601119D1*
X2285561Y2595690D1*
X2282346Y2590625D1*
X2278523Y2586003D1*
X2274150Y2581896D1*
X2269297Y2578369D1*
X2264041Y2575480D1*
X2258464Y2573271D1*
X2252653Y2571779D1*
X2246703Y2571027D1*
X2240704D1*
X2234752Y2571777D1*
X2228941Y2573270D1*
X2223364Y2575477D1*
X2218107Y2578367D1*
X2213254Y2581893D1*
X2208881Y2585999D1*
X2205057Y2590621D1*
X2201842Y2595686D1*
X2199288Y2601113D1*
X2197434Y2606818D1*
X2196309Y2612710D1*
X2195932Y2618697D1*
X2196309Y2624684D1*
X2197432Y2630577D1*
X2199285Y2636281D1*
X2201839Y2641710D1*
X2205054Y2646775D1*
X2208877Y2651397D1*
X2213250Y2655504D1*
X2218103Y2659031D1*
X2223359Y2661920D1*
X2228936Y2664129D1*
X2234747Y2665621D1*
X2240697Y2666373D1*
X2246696D1*
X2252648Y2665623D1*
X2258459Y2664130D1*
X2264036Y2661923D1*
X2269293Y2659033D1*
X2274146Y2655507D1*
X2278519Y2651401D1*
X2282343Y2646779D1*
X2285558Y2641714D1*
X2288112Y2636287D1*
X2289966Y2630582D1*
X2291091Y2624690D1*
X2291468Y2618700D1*
X2291091Y2612716D1*
X2021259Y1019420D2*
X2055708D1*
X2061697Y1019108D1*
X2067621Y1018175D1*
X2073417Y1016632D1*
X2079020Y1014493D1*
X2084371Y1011784D1*
X2089410Y1008533D1*
X2094085Y1004776D1*
X2098344Y1000554D1*
X2102141Y995911D1*
X2105435Y990899D1*
X2108190Y985573D1*
X2110375Y979987D1*
X2111969Y974207D1*
X2112952Y968291D1*
X2113315Y962304D1*
X2113056Y956313D1*
X2112172Y950380D1*
X2110679Y944573D1*
X2108588Y938951D1*
X2105926Y933577D1*
X2102718Y928510D1*
X2099002Y923802D1*
X2094815Y919508D1*
X2090207Y915671D1*
X2085222Y912335D1*
X2079919Y909535D1*
X2074354Y907301D1*
X2068586Y905658D1*
X2062678Y904624D1*
X2056695Y904209D1*
X2044787Y904200D1*
X2016338D1*
X2010348Y904512D1*
X2004424Y905445D1*
X1998629Y906989D1*
X1993025Y909128D1*
X1987675Y911836D1*
X1982636Y915087D1*
X1977961Y918844D1*
X1973701Y923066D1*
X1969905Y927709D1*
X1966611Y932721D1*
X1963856Y938048D1*
X1961671Y943633D1*
X1960077Y949414D1*
X1959094Y955330D1*
X1958730Y961317D1*
X1958990Y967308D1*
X1959873Y973241D1*
X1961367Y979048D1*
X1963457Y984670D1*
X1966120Y990044D1*
X1969327Y995111D1*
X1973044Y999818D1*
X1977230Y1004112D1*
X1981839Y1007949D1*
X1986823Y1011285D1*
X1992127Y1014086D1*
X1997692Y1016319D1*
X2003460Y1017962D1*
X2009368Y1018997D1*
X2015351Y1019411D1*
X2021259Y1019420D1*
X2163452Y828936D2*
Y863385D1*
X2163764Y869375D1*
X2164697Y875298D1*
X2166241Y881094D1*
X2168380Y886697D1*
X2171088Y892048D1*
X2174339Y897087D1*
X2178096Y901762D1*
X2182318Y906022D1*
X2186961Y909818D1*
X2191973Y913112D1*
X2197300Y915867D1*
X2202885Y918052D1*
X2208666Y919646D1*
X2214582Y920629D1*
X2220569Y920993D1*
X2226560Y920733D1*
X2232493Y919850D1*
X2238300Y918356D1*
X2243922Y916266D1*
X2249296Y913603D1*
X2254363Y910396D1*
X2259070Y906679D1*
X2263364Y902493D1*
X2267201Y897884D1*
X2270537Y892899D1*
X2273338Y887596D1*
X2275571Y882031D1*
X2277214Y876263D1*
X2278249Y870355D1*
X2278663Y864372D1*
X2278672Y852464D1*
Y824015D1*
X2278360Y818025D1*
X2277427Y812102D1*
X2275884Y806306D1*
X2273745Y800703D1*
X2271036Y795352D1*
X2267785Y790313D1*
X2264028Y785638D1*
X2259806Y781378D1*
X2255163Y777582D1*
X2250151Y774288D1*
X2244825Y771533D1*
X2239239Y769348D1*
X2233459Y767754D1*
X2227543Y766771D1*
X2221556Y766407D1*
X2215565Y766667D1*
X2209632Y767550D1*
X2203825Y769044D1*
X2198203Y771134D1*
X2192829Y773797D1*
X2187762Y777004D1*
X2183054Y780721D1*
X2178760Y784907D1*
X2174923Y789516D1*
X2171587Y794501D1*
X2168787Y799804D1*
X2166553Y805369D1*
X2164910Y811137D1*
X2163876Y817045D1*
X2163461Y823028D1*
X2163452Y828936D1*
X2201934Y1116468D2*
X2291468D1*
Y1020932D1*
X2195934D1*
Y1116468D1*
X2201934D1*
X1141209Y513495D2*
X1140040Y507624D1*
X1138115Y501956D1*
X1135466Y496587D1*
X1132140Y491611D1*
X1128192Y487111D1*
X1123691Y483165D1*
X1118712Y479840D1*
X1113343Y477193D1*
X1107674Y475271D1*
X1101802Y474104D1*
X1095829Y473713D1*
X1089856Y474107D1*
X1083985Y475276D1*
X1078317Y477201D1*
X1072948Y479850D1*
X1067972Y483176D1*
X1063472Y487124D1*
X1059525Y491625D1*
X1056201Y496604D1*
X1053554Y501973D1*
X1051632Y507642D1*
X1050465Y513514D1*
X1050075Y519487D1*
X1050468Y525460D1*
X1051637Y531331D1*
X1053562Y536999D1*
X1056210Y542368D1*
X1059537Y547344D1*
X1063485Y551844D1*
X1067987Y555791D1*
X1072965Y559115D1*
X1078334Y561762D1*
X1084003Y563684D1*
X1089875Y564851D1*
X1095848Y565241D1*
X1101821Y564848D1*
X1107692Y563679D1*
X1113360Y561754D1*
X1118729Y559106D1*
X1123705Y555779D1*
X1128205Y551831D1*
X1132151Y547329D1*
X1135476Y542351D1*
X1138123Y536982D1*
X1140045Y531313D1*
X1141212Y525441D1*
X1141603Y519477D1*
X1141209Y513495D1*
X1456170Y513501D2*
X1455001Y507629D1*
X1453075Y501961D1*
X1450427Y496594D1*
X1447100Y491616D1*
X1443153Y487117D1*
X1438651Y483171D1*
X1433672Y479846D1*
X1428304Y477200D1*
X1422634Y475276D1*
X1416763Y474109D1*
X1410789Y473720D1*
X1404817Y474112D1*
X1398945Y475281D1*
X1393277Y477207D1*
X1387909Y479855D1*
X1382932Y483182D1*
X1378432Y487130D1*
X1374486Y491632D1*
X1371162Y496609D1*
X1368515Y501980D1*
X1366592Y507648D1*
X1365426Y513519D1*
X1365036Y519493D1*
X1365428Y525466D1*
X1366598Y531336D1*
X1368523Y537006D1*
X1371171Y542373D1*
X1374498Y547350D1*
X1378445Y551850D1*
X1382948Y555796D1*
X1387926Y559121D1*
X1393294Y561767D1*
X1398964Y563691D1*
X1404835Y564856D1*
X1410809Y565247D1*
X1416781Y564855D1*
X1422653Y563686D1*
X1428321Y561760D1*
X1433690Y559111D1*
X1438666Y555784D1*
X1443166Y551836D1*
X1447112Y547335D1*
X1450436Y542357D1*
X1453083Y536987D1*
X1455006Y531318D1*
X1456172Y525447D1*
X1456564Y519483D1*
X1456170Y513501D1*
X2589788Y1074064D2*
X2584817Y1073671D1*
X2578835Y1074141D1*
X2572999Y1075541D1*
X2567456Y1077836D1*
X2562339Y1080970D1*
X2557775Y1084867D1*
X2553877Y1089428D1*
X2550741Y1094545D1*
X2548444Y1100088D1*
X2547043Y1105923D1*
X2546570Y1111905D1*
X2547040Y1117886D1*
X2548440Y1123722D1*
X2550735Y1129266D1*
X2553869Y1134382D1*
X2557766Y1138947D1*
X2562327Y1142844D1*
X2567444Y1145981D1*
X2572987Y1148277D1*
X2578822Y1149679D1*
X2584804Y1150151D1*
X2590785Y1149682D1*
X2596621Y1148281D1*
X2602165Y1145986D1*
X2607281Y1142852D1*
X2611846Y1138956D1*
X2615743Y1134394D1*
X2618880Y1129277D1*
X2621176Y1123734D1*
X2622578Y1117899D1*
X2623050Y1111911D1*
X2622659Y1106934D1*
X2659133Y1070455D1*
X2662784Y1065714D1*
X2665104Y1060199D1*
X2665938Y1054268D1*
X2665940Y523700D1*
X2665170Y517767D1*
X2662910Y512226D1*
X2659306Y507443D1*
X2646608Y494742D1*
X2646154Y491739D1*
X2644351Y485932D1*
X2641417Y480607D1*
X2637470Y475982D1*
X2632672Y472246D1*
X2627222Y469552D1*
X2621340Y468010D1*
X2615268Y467683D1*
X2609255Y468586D1*
X2603548Y470680D1*
X2598377Y473881D1*
X2593957Y478057D1*
X2590469Y483037D1*
X2588054Y488617D1*
X2586813Y494570D1*
X2586794Y500650D1*
X2588001Y506609D1*
X2590381Y512204D1*
X2593839Y517205D1*
X2598234Y521407D1*
X2603384Y524640D1*
X2609079Y526768D1*
X2613615Y527478D1*
X2619462Y533329D1*
X2619460Y1044397D1*
X2589852Y1074003D1*
X978641Y2512710D2*
X977747Y2506771D1*
X976266Y2500952D1*
X974213Y2495308D1*
X971608Y2489897D1*
X968477Y2484772D1*
X964852Y2479985D1*
X960767Y2475582D1*
X956266Y2471607D1*
X951390Y2468102D1*
X946190Y2465098D1*
X940716Y2462627D1*
X935023Y2460713D1*
X929169Y2459377D1*
X923209Y2458629D1*
X917207Y2458478D1*
X911217Y2458927D1*
X905304Y2459969D1*
X899522Y2461594D1*
X893931Y2463788D1*
X888587Y2466527D1*
X883541Y2469784D1*
X878846Y2473528D1*
X874546Y2477721D1*
X870686Y2482321D1*
X867302Y2487281D1*
X864430Y2492556D1*
X862095Y2498090D1*
X860325Y2503827D1*
X859134Y2509714D1*
X858535Y2515690D1*
Y2521695D1*
X859132Y2527671D1*
X860321Y2533557D1*
X862090Y2539296D1*
X864422Y2544830D1*
X867293Y2550104D1*
X870676Y2555067D1*
X874536Y2559667D1*
X878834Y2563861D1*
X883529Y2567607D1*
X888573Y2570865D1*
X893917Y2573606D1*
X899507Y2575801D1*
X905288Y2577428D1*
X911201Y2578472D1*
X917191Y2578920D1*
X923193Y2578772D1*
X929153Y2578027D1*
X935008Y2576691D1*
X940701Y2574779D1*
X946175Y2572309D1*
X951376Y2569308D1*
X956252Y2565802D1*
X960756Y2561830D1*
X964842Y2557427D1*
X968468Y2552641D1*
X971600Y2547518D1*
X974207Y2542107D1*
X976262Y2536464D1*
X977745Y2530644D1*
X978640Y2524705D1*
X978940Y2518700D1*
X978641Y2512710D1*
X778641D2*
X777747Y2506771D1*
X776266Y2500952D1*
X774213Y2495308D1*
X771608Y2489897D1*
X768477Y2484772D1*
X764852Y2479985D1*
X760767Y2475582D1*
X756266Y2471607D1*
X751390Y2468102D1*
X746190Y2465098D1*
X740716Y2462627D1*
X735023Y2460713D1*
X729169Y2459377D1*
X723209Y2458629D1*
X717207Y2458478D1*
X711217Y2458927D1*
X705304Y2459969D1*
X699522Y2461594D1*
X693931Y2463788D1*
X688587Y2466527D1*
X683541Y2469784D1*
X678846Y2473528D1*
X674546Y2477721D1*
X670686Y2482321D1*
X667302Y2487281D1*
X664430Y2492556D1*
X662095Y2498090D1*
X660325Y2503827D1*
X659134Y2509714D1*
X658535Y2515690D1*
Y2521695D1*
X659132Y2527671D1*
X660321Y2533557D1*
X662090Y2539296D1*
X664422Y2544830D1*
X667293Y2550104D1*
X670676Y2555067D1*
X674536Y2559667D1*
X678834Y2563861D1*
X683529Y2567607D1*
X688573Y2570865D1*
X693917Y2573606D1*
X699507Y2575801D1*
X705288Y2577428D1*
X711201Y2578472D1*
X717191Y2578920D1*
X723193Y2578772D1*
X729153Y2578027D1*
X735008Y2576691D1*
X740701Y2574779D1*
X746175Y2572309D1*
X751376Y2569308D1*
X756252Y2565802D1*
X760756Y2561830D1*
X764842Y2557427D1*
X768468Y2552641D1*
X771600Y2547518D1*
X774207Y2542107D1*
X776262Y2536464D1*
X777745Y2530644D1*
X778640Y2524705D1*
X778940Y2518700D1*
X778641Y2512710D1*
X1478641D2*
X1477747Y2506771D1*
X1476266Y2500952D1*
X1474213Y2495308D1*
X1471608Y2489897D1*
X1468477Y2484772D1*
X1464852Y2479985D1*
X1460767Y2475582D1*
X1456266Y2471607D1*
X1451390Y2468102D1*
X1446190Y2465098D1*
X1440716Y2462627D1*
X1435023Y2460713D1*
X1429169Y2459377D1*
X1423209Y2458629D1*
X1417207Y2458478D1*
X1411217Y2458927D1*
X1405304Y2459969D1*
X1399522Y2461594D1*
X1393931Y2463788D1*
X1388587Y2466527D1*
X1383541Y2469784D1*
X1378846Y2473528D1*
X1374546Y2477721D1*
X1370686Y2482321D1*
X1367302Y2487281D1*
X1364430Y2492556D1*
X1362095Y2498090D1*
X1360325Y2503827D1*
X1359134Y2509714D1*
X1358535Y2515690D1*
Y2521695D1*
X1359132Y2527671D1*
X1360321Y2533557D1*
X1362090Y2539296D1*
X1364422Y2544830D1*
X1367293Y2550104D1*
X1370676Y2555067D1*
X1374536Y2559667D1*
X1378834Y2563861D1*
X1383529Y2567607D1*
X1388573Y2570865D1*
X1393917Y2573606D1*
X1399507Y2575801D1*
X1405288Y2577428D1*
X1411201Y2578472D1*
X1417191Y2578920D1*
X1423193Y2578772D1*
X1429153Y2578027D1*
X1435008Y2576691D1*
X1440701Y2574779D1*
X1446175Y2572309D1*
X1451376Y2569308D1*
X1456252Y2565802D1*
X1460756Y2561830D1*
X1464842Y2557427D1*
X1468468Y2552641D1*
X1471600Y2547518D1*
X1474207Y2542107D1*
X1476262Y2536464D1*
X1477745Y2530644D1*
X1478640Y2524705D1*
X1478940Y2518700D1*
X1478641Y2512710D1*
X1278641D2*
X1277747Y2506771D1*
X1276266Y2500952D1*
X1274213Y2495308D1*
X1271608Y2489897D1*
X1268477Y2484772D1*
X1264852Y2479985D1*
X1260767Y2475582D1*
X1256266Y2471607D1*
X1251390Y2468102D1*
X1246190Y2465098D1*
X1240716Y2462627D1*
X1235023Y2460713D1*
X1229169Y2459377D1*
X1223209Y2458629D1*
X1217207Y2458478D1*
X1211217Y2458927D1*
X1205304Y2459969D1*
X1199522Y2461594D1*
X1193931Y2463788D1*
X1188587Y2466527D1*
X1183541Y2469784D1*
X1178846Y2473528D1*
X1174546Y2477721D1*
X1170686Y2482321D1*
X1167302Y2487281D1*
X1164430Y2492556D1*
X1162095Y2498090D1*
X1160325Y2503827D1*
X1159134Y2509714D1*
X1158535Y2515690D1*
Y2521695D1*
X1159132Y2527671D1*
X1160321Y2533557D1*
X1162090Y2539296D1*
X1164422Y2544830D1*
X1167293Y2550104D1*
X1170676Y2555067D1*
X1174536Y2559667D1*
X1178834Y2563861D1*
X1183529Y2567607D1*
X1188573Y2570865D1*
X1193917Y2573606D1*
X1199507Y2575801D1*
X1205288Y2577428D1*
X1211201Y2578472D1*
X1217191Y2578920D1*
X1223193Y2578772D1*
X1229153Y2578027D1*
X1235008Y2576691D1*
X1240701Y2574779D1*
X1246175Y2572309D1*
X1251376Y2569308D1*
X1256252Y2565802D1*
X1260756Y2561830D1*
X1264842Y2557427D1*
X1268468Y2552641D1*
X1271600Y2547518D1*
X1274207Y2542107D1*
X1276262Y2536464D1*
X1277745Y2530644D1*
X1278640Y2524705D1*
X1278940Y2518700D1*
X1278641Y2512710D1*
X1964460Y2578940D2*
X2078940D1*
Y2458460D1*
X1958460D1*
Y2578940D1*
X1964460D1*
X1878641Y2512710D2*
X1877747Y2506771D1*
X1876266Y2500952D1*
X1874213Y2495308D1*
X1871608Y2489897D1*
X1868477Y2484772D1*
X1864852Y2479985D1*
X1860767Y2475582D1*
X1856266Y2471607D1*
X1851390Y2468102D1*
X1846190Y2465098D1*
X1840716Y2462627D1*
X1835023Y2460713D1*
X1829169Y2459377D1*
X1823209Y2458629D1*
X1817207Y2458478D1*
X1811217Y2458927D1*
X1805304Y2459969D1*
X1799522Y2461594D1*
X1793931Y2463788D1*
X1788587Y2466527D1*
X1783541Y2469784D1*
X1778846Y2473528D1*
X1774546Y2477721D1*
X1770686Y2482321D1*
X1768746Y2485165D1*
X1768477Y2484772D1*
X1764852Y2479985D1*
X1760767Y2475582D1*
X1756266Y2471607D1*
X1751390Y2468102D1*
X1746190Y2465098D1*
X1740716Y2462627D1*
X1735023Y2460713D1*
X1729169Y2459377D1*
X1723209Y2458629D1*
X1717207Y2458478D1*
X1711217Y2458927D1*
X1705304Y2459969D1*
X1699522Y2461594D1*
X1693931Y2463788D1*
X1688587Y2466527D1*
X1683541Y2469784D1*
X1678846Y2473528D1*
X1674546Y2477721D1*
X1670686Y2482321D1*
X1667302Y2487281D1*
X1664430Y2492556D1*
X1662095Y2498090D1*
X1660325Y2503827D1*
X1659134Y2509714D1*
X1658535Y2515690D1*
Y2521695D1*
X1659132Y2527671D1*
X1660321Y2533557D1*
X1662090Y2539296D1*
X1664422Y2544830D1*
X1667293Y2550104D1*
X1670676Y2555067D1*
X1674536Y2559667D1*
X1678834Y2563861D1*
X1683529Y2567607D1*
X1688573Y2570865D1*
X1693917Y2573606D1*
X1699507Y2575801D1*
X1705288Y2577428D1*
X1711201Y2578472D1*
X1717191Y2578920D1*
X1723193Y2578772D1*
X1729153Y2578027D1*
X1735008Y2576691D1*
X1740701Y2574779D1*
X1746175Y2572309D1*
X1751376Y2569308D1*
X1756252Y2565802D1*
X1760756Y2561830D1*
X1764842Y2557427D1*
X1768468Y2552641D1*
X1768686Y2552285D1*
X1770676Y2555067D1*
X1774536Y2559667D1*
X1778834Y2563861D1*
X1783529Y2567607D1*
X1788573Y2570865D1*
X1793917Y2573606D1*
X1799507Y2575801D1*
X1805288Y2577428D1*
X1811201Y2578472D1*
X1817191Y2578920D1*
X1823193Y2578772D1*
X1829153Y2578027D1*
X1835008Y2576691D1*
X1840701Y2574779D1*
X1846175Y2572309D1*
X1851376Y2569308D1*
X1856252Y2565802D1*
X1860756Y2561830D1*
X1864842Y2557427D1*
X1868468Y2552641D1*
X1871600Y2547518D1*
X1874207Y2542107D1*
X1876262Y2536464D1*
X1877745Y2530644D1*
X1878640Y2524705D1*
X1878940Y2518700D1*
X1878641Y2512710D1*
X2115145Y2077779D2*
X2126078Y2088709D1*
X2243002Y2088708D1*
X2248755Y2086586D1*
X2254768Y2085683D1*
X2260840Y2086010D1*
X2266722Y2087552D1*
X2272172Y2090246D1*
X2276970Y2093982D1*
X2280917Y2098607D1*
X2283851Y2103932D1*
X2285654Y2109739D1*
X2286251Y2115791D1*
X2286046Y2117746D1*
X2286176Y2117833D1*
X2286585Y2117940D1*
X2292035Y2120634D1*
X2296833Y2124371D1*
X2300779Y2128995D1*
X2303713Y2134321D1*
X2305516Y2140128D1*
X2306113Y2146179D1*
X2305480Y2152226D1*
X2303642Y2158023D1*
X2300675Y2163330D1*
X2296700Y2167932D1*
X2291881Y2171640D1*
X2286414Y2174300D1*
X2280523Y2175806D1*
X2274449Y2176096D1*
X2268441Y2175157D1*
X2262746Y2173028D1*
X2257596Y2169796D1*
X2256414Y2168829D1*
X2114088D1*
X2108700Y2168180D1*
X2103125Y2166011D1*
X2098305Y2162457D1*
X2080284Y2144440D1*
X1920175Y2144438D1*
X1916519Y2147251D1*
X1911052Y2149911D1*
X1905161Y2151418D1*
X1899087Y2151708D1*
X1893079Y2150768D1*
X1887384Y2148640D1*
X1882234Y2145407D1*
X1877839Y2141205D1*
X1874381Y2136204D1*
X1872001Y2130609D1*
X1870794Y2124650D1*
X1870665Y2120897D1*
X1867552Y2122411D1*
X1861661Y2123918D1*
X1855587Y2124208D1*
X1849579Y2123268D1*
X1843884Y2121140D1*
X1838734Y2117907D1*
X1834339Y2113705D1*
X1830881Y2108704D1*
X1828501Y2103109D1*
X1827294Y2097150D1*
X1827313Y2091070D1*
X1828554Y2085117D1*
X1830969Y2079537D1*
X1834457Y2074557D1*
X1838877Y2070381D1*
X1844048Y2067180D1*
X1849755Y2065086D1*
X1855768Y2064183D1*
X1861840Y2064510D1*
X1867722Y2066052D1*
X1873172Y2068746D1*
X1876246Y2070960D1*
X2098700D1*
X2099710Y2070982D1*
X2105606Y2072010D1*
X2111046Y2074511D1*
X2115145Y2077779D1*
X1874016Y1436460D2*
X1871172Y1434246D1*
X1865722Y1431552D1*
X1859840Y1430010D1*
X1853768Y1429683D1*
X1847755Y1430586D1*
X1842048Y1432680D1*
X1836877Y1435881D1*
X1832457Y1440057D1*
X1828969Y1445037D1*
X1826554Y1450617D1*
X1825313Y1456570D1*
X1825312Y1456718D1*
X2251827Y1592960D2*
X1825850D1*
X1822172Y1590246D1*
X1816722Y1587552D1*
X1810840Y1586010D1*
X1804768Y1585683D1*
X1798755Y1586586D1*
X1793048Y1588680D1*
X1787877Y1591881D1*
X1783457Y1596057D1*
X1779969Y1601037D1*
X1777554Y1606617D1*
X1776313Y1612570D1*
X1776294Y1618650D1*
X1777501Y1624609D1*
X1779881Y1630204D1*
X1783339Y1635205D1*
X1787734Y1639407D1*
X1792884Y1642640D1*
X1798579Y1644768D1*
X1804587Y1645708D1*
X1810661Y1645418D1*
X1816552Y1643911D1*
X1822019Y1641251D1*
X1825675Y1638438D1*
X2249046Y1638440D1*
X2251529Y1640602D1*
X2256680Y1643834D1*
X2262376Y1645962D1*
X2268384Y1646901D1*
X2274457Y1646612D1*
X2280347Y1645106D1*
X2285814Y1642444D1*
X2290634Y1638737D1*
X2294608Y1634136D1*
X2297575Y1628827D1*
X2299414Y1623032D1*
X2300046Y1616894D1*
X2299449Y1610934D1*
X2297648Y1605127D1*
X2294713Y1599801D1*
X2290766Y1595175D1*
X2285969Y1591439D1*
X2280518Y1588745D1*
X2274636Y1587203D1*
X2268565Y1586877D1*
X2262552Y1587779D1*
X2256843Y1589873D1*
X2251860Y1592959D1*
X1817350Y1748940D2*
X1881053D1*
X1882234Y1749907D1*
X1887384Y1753140D1*
X1893079Y1755268D1*
X1899087Y1756208D1*
X1905161Y1755918D1*
X1911052Y1754411D1*
X1916519Y1751751D1*
X1921338Y1748044D1*
X1925313Y1743441D1*
X1928280Y1738134D1*
X1930117Y1732338D1*
X1930751Y1726200D1*
X1930154Y1720239D1*
X1928351Y1714432D1*
X1925417Y1709107D1*
X1921470Y1704482D1*
X1916672Y1700746D1*
X1911222Y1698052D1*
X1905340Y1696510D1*
X1899268Y1696183D1*
X1893255Y1697086D1*
X1887548Y1699180D1*
X1882377Y1702381D1*
X1881234Y1703461D1*
X1817347Y1703460D1*
X1813672Y1700746D1*
X1808222Y1698052D1*
X1802340Y1696510D1*
X1796268Y1696183D1*
X1790255Y1697086D1*
X1784548Y1699180D1*
X1779377Y1702381D1*
X1774957Y1706557D1*
X1771469Y1711537D1*
X1769054Y1717117D1*
X1767813Y1723070D1*
X1767794Y1729150D1*
X1769001Y1735109D1*
X1771381Y1740704D1*
X1774839Y1745705D1*
X1779234Y1749907D1*
X1784384Y1753140D1*
X1790079Y1755268D1*
X1796087Y1756208D1*
X1802161Y1755918D1*
X1808052Y1754411D1*
X1813519Y1751751D1*
X1817175Y1748938D1*
X1881234Y1703461D2*
X1882377Y1702381D1*
X1887548Y1699180D1*
X1893255Y1697086D1*
X1899268Y1696183D1*
X1905340Y1696510D1*
X1911222Y1698052D1*
X1916672Y1700746D1*
X1921470Y1704482D1*
X1925417Y1709107D1*
X1928351Y1714432D1*
X1930154Y1720239D1*
X1930751Y1726291D1*
X1930117Y1732338D1*
X1928280Y1738134D1*
X1925313Y1743441D1*
X1921338Y1748044D1*
X1916519Y1751751D1*
X1911052Y1754411D1*
X1905161Y1755918D1*
X1899087Y1756208D1*
X1893079Y1755268D1*
X1887384Y1753140D1*
X1882234Y1749907D1*
X1881225Y1748944D1*
X2244770Y2183460D2*
X1822344D1*
X1818672Y2180746D1*
X1813222Y2178052D1*
X1807340Y2176510D1*
X1801268Y2176183D1*
X1795255Y2177086D1*
X1789548Y2179180D1*
X1784377Y2182381D1*
X1779957Y2186557D1*
X1776469Y2191537D1*
X1774054Y2197117D1*
X1772813Y2203070D1*
X1772794Y2209150D1*
X1774001Y2215109D1*
X1776381Y2220704D1*
X1779839Y2225705D1*
X1784234Y2229907D1*
X1789384Y2233140D1*
X1795079Y2235268D1*
X1801087Y2236208D1*
X1807161Y2235918D1*
X1813052Y2234411D1*
X1818519Y2231751D1*
X1822175Y2228938D1*
X2241869Y2228940D1*
X2244409Y2231153D1*
X2249560Y2234385D1*
X2255255Y2236514D1*
X2261263Y2237452D1*
X2267336Y2237163D1*
X2273226Y2235657D1*
X2278693Y2232995D1*
X2283514Y2229288D1*
X2287487Y2224687D1*
X2290455Y2219378D1*
X2292293Y2213583D1*
X2292926Y2207445D1*
X2292329Y2201485D1*
X2290527Y2195678D1*
X2287592Y2190352D1*
X2283645Y2185726D1*
X2278848Y2181990D1*
X2273397Y2179296D1*
X2267515Y2177754D1*
X2261444Y2177428D1*
X2255431Y2178330D1*
X2249722Y2180424D1*
X2244821Y2183460D1*
X1831263Y1820787D2*
X1827095Y1817690D1*
X1758655Y1817688D1*
X1760561Y1820690D1*
X1763115Y1826119D1*
X1764968Y1831823D1*
X1766091Y1837716D1*
X1766468Y1843703D1*
X1766091Y1849690D1*
X1764966Y1855582D1*
X1763112Y1861287D1*
X1760558Y1866714D1*
X1758973Y1869212D1*
X1919961Y1869209D1*
X2309949D1*
X2315338Y1869857D1*
X2320913Y1872027D1*
X2325733Y1875581D1*
X2348797Y1898637D1*
X2453775Y2003616D1*
X2456070Y2003739D1*
X2461952Y2005281D1*
X2467402Y2007976D1*
X2468100Y2008519D1*
X2471948Y2008104D1*
X2828460Y2008099D1*
Y1998460D1*
X2948940D1*
X2948936Y2008104D1*
X2985728D1*
X2993246Y2008175D1*
X2998483Y2009440D1*
X3003123Y2012178D1*
X3006760Y2016153D1*
X3009078Y2021016D1*
X3009873Y2026344D1*
Y2097210D1*
X3009587Y2100424D1*
X3007865Y2105529D1*
X3004728Y2109909D1*
X3000447Y2113180D1*
X2995392Y2115058D1*
X2991556Y2115451D1*
X2948940Y2115453D1*
Y2118940D1*
X2933882D1*
X2934852Y2119985D1*
X2938477Y2124772D1*
X2941608Y2129897D1*
X2944213Y2135308D1*
X2946266Y2140952D1*
X2947747Y2146771D1*
X2948641Y2152710D1*
X2948940Y2158708D1*
X2948640Y2164705D1*
X2947745Y2170644D1*
X2946262Y2176464D1*
X2944207Y2182107D1*
X2941600Y2187518D1*
X2938468Y2192641D1*
X2934842Y2197427D1*
X2930756Y2201830D1*
X2926252Y2205802D1*
X2922258Y2208674D1*
X2922260Y2208728D1*
X2926266Y2211607D1*
X2930767Y2215582D1*
X2934852Y2219985D1*
X2938477Y2224772D1*
X2941608Y2229897D1*
X2944213Y2235308D1*
X2946266Y2240952D1*
X2947747Y2246771D1*
X2948641Y2252710D1*
X2948940Y2258708D1*
X2948640Y2264705D1*
X2947745Y2270644D1*
X2946262Y2276464D1*
X2944207Y2282107D1*
X2941600Y2287518D1*
X2938468Y2292641D1*
X2934842Y2297427D1*
X2932970Y2299444D1*
X2991633Y2299443D1*
X2994847Y2299729D1*
X2999952Y2301451D1*
X3004331Y2304588D1*
X3007603Y2308869D1*
X3009481Y2313924D1*
X3009873Y2317710D1*
Y2386252D1*
X3009801Y2394099D1*
X3008537Y2399336D1*
X3005800Y2403976D1*
X3001825Y2407613D1*
X2996961Y2409931D1*
X2991633Y2410726D1*
X2918923Y2410724D1*
X2916175Y2412309D1*
X2910701Y2414779D1*
X2905008Y2416691D1*
X2899153Y2418027D1*
X2893193Y2418772D1*
X2887191Y2418920D1*
X2881201Y2418472D1*
X2875288Y2417428D1*
X2869507Y2415801D1*
X2863917Y2413606D1*
X2858573Y2410865D1*
X2858330Y2410726D1*
X2481882D1*
X2474272Y2410654D1*
X2473722Y2410599D1*
X2473338Y2411044D1*
X2468519Y2414751D1*
X2463052Y2417411D1*
X2457161Y2418918D1*
X2451087Y2419208D1*
X2445079Y2418268D1*
X2439384Y2416140D1*
X2434234Y2412907D1*
X2433060Y2411940D1*
X1851175Y2411938D1*
X1847519Y2414751D1*
X1842052Y2417411D1*
X1836161Y2418918D1*
X1830087Y2419208D1*
X1824079Y2418268D1*
X1818384Y2416140D1*
X1813234Y2412907D1*
X1808839Y2408705D1*
X1805381Y2403704D1*
X1803001Y2398109D1*
X1801794Y2392150D1*
X1801813Y2386070D1*
X1803054Y2380117D1*
X1805469Y2374537D1*
X1808957Y2369557D1*
X1813377Y2365381D1*
X1818548Y2362180D1*
X1824255Y2360086D1*
X1830268Y2359183D1*
X1836340Y2359510D1*
X1842222Y2361052D1*
X1847672Y2363746D1*
X1851340Y2366460D1*
X2433234Y2366461D1*
X2434377Y2365381D1*
X2439548Y2362180D1*
X2445255Y2360086D1*
X2451268Y2359183D1*
X2457340Y2359510D1*
X2457645Y2359560D1*
X2457644Y2347675D1*
X2457285Y2345901D1*
X2457304Y2339821D1*
X2457645Y2337469D1*
Y2323917D1*
X2457717Y2316070D1*
X2458981Y2310833D1*
X2461718Y2306193D1*
X2465693Y2302556D1*
X2470557Y2300238D1*
X2475885Y2299443D1*
X2844343Y2299439D1*
X2840676Y2295067D1*
X2837293Y2290104D1*
X2834422Y2284830D1*
X2832090Y2279296D1*
X2830321Y2273557D1*
X2829132Y2267671D1*
X2828535Y2261695D1*
Y2255690D1*
X2829134Y2249714D1*
X2830325Y2243827D1*
X2832095Y2238090D1*
X2834430Y2232556D1*
X2837302Y2227281D1*
X2840686Y2222321D1*
X2844546Y2217721D1*
X2848846Y2213528D1*
X2853541Y2209784D1*
X2855159Y2208659D1*
X2853529Y2207607D1*
X2848834Y2203861D1*
X2844536Y2199667D1*
X2840676Y2195067D1*
X2837293Y2190104D1*
X2834422Y2184830D1*
X2832090Y2179296D1*
X2830321Y2173557D1*
X2829132Y2167671D1*
X2828535Y2161695D1*
Y2155690D1*
X2829134Y2149714D1*
X2830325Y2143827D1*
X2832095Y2138090D1*
X2834430Y2132556D1*
X2837302Y2127281D1*
X2840686Y2122321D1*
X2843443Y2118940D1*
X2828460D1*
X2828461Y2115451D1*
X2477854D1*
X2470335Y2115378D1*
X2465098Y2114115D1*
X2460459Y2111377D1*
X2456821Y2107402D1*
X2454503Y2102539D1*
X2453708Y2097210D1*
X2453713Y2063251D1*
X2449817Y2063438D1*
X2443809Y2062498D1*
X2438113Y2060369D1*
X2432964Y2057137D1*
X2428569Y2052935D1*
X2425111Y2047934D1*
X2422730Y2042339D1*
X2421524Y2036380D1*
X2421461Y2035620D1*
X2300527Y1914690D1*
X1756574Y1914691D1*
X1757346Y1915625D1*
X1760561Y1920690D1*
X1763115Y1926119D1*
X1764968Y1931823D1*
X1766091Y1937716D1*
X1766468Y1943703D1*
X1766091Y1949690D1*
X1764966Y1955582D1*
X1763112Y1961287D1*
X1760558Y1966714D1*
X1757343Y1971779D1*
X1756159Y1973210D1*
X2310449Y1973209D1*
X2315838Y1973857D1*
X2321413Y1976027D1*
X2326233Y1979581D1*
X2349284Y2002625D1*
X2390794Y2044136D1*
X2393090Y2044259D1*
X2398972Y2045801D1*
X2404422Y2048495D1*
X2409220Y2052231D1*
X2413166Y2056856D1*
X2416100Y2062182D1*
X2417903Y2067989D1*
X2418501Y2074040D1*
X2417867Y2080087D1*
X2416029Y2085884D1*
X2413062Y2091191D1*
X2409087Y2095793D1*
X2404268Y2099501D1*
X2398801Y2102161D1*
X2392910Y2103667D1*
X2386836Y2103957D1*
X2380829Y2103018D1*
X2375133Y2100889D1*
X2369983Y2097657D1*
X2365588Y2093455D1*
X2362130Y2088453D1*
X2359750Y2082859D1*
X2358544Y2076899D1*
X2358477Y2076136D1*
X2301027Y2018690D1*
X1759289Y2018687D1*
X1760561Y2020690D1*
X1763115Y2026119D1*
X1764968Y2031823D1*
X1766091Y2037716D1*
X1766468Y2043703D1*
X1766091Y2049690D1*
X1764966Y2055582D1*
X1763112Y2061287D1*
X1760558Y2066714D1*
X1757343Y2071779D1*
X1753519Y2076401D1*
X1749146Y2080507D1*
X1744293Y2084033D1*
X1739036Y2086923D1*
X1733459Y2089130D1*
X1727648Y2090623D1*
X1721696Y2091373D1*
X1715697D1*
X1709747Y2090621D1*
X1703936Y2089129D1*
X1698359Y2086920D1*
X1693103Y2084031D1*
X1688250Y2080504D1*
X1683877Y2076397D1*
X1680054Y2071775D1*
X1676839Y2066710D1*
X1674285Y2061281D1*
X1672432Y2055577D1*
X1671309Y2049684D1*
X1670932Y2043697D1*
X1671309Y2037710D1*
X1672434Y2031818D1*
X1674288Y2026113D1*
X1676842Y2020686D1*
X1677999Y2018690D1*
X1544424Y2018687D1*
X1540768Y2021501D1*
X1535301Y2024161D1*
X1529410Y2025667D1*
X1523336Y2025957D1*
X1517329Y2025018D1*
X1511633Y2022889D1*
X1506483Y2019657D1*
X1502088Y2015455D1*
X1498630Y2010453D1*
X1496250Y2004859D1*
X1495044Y1998899D1*
X1495062Y1992819D1*
X1496304Y1986867D1*
X1497856Y1982940D1*
X1387302Y1982943D1*
X1384909Y1985745D1*
X1380344Y1989641D1*
X1375228Y1992775D1*
X1369684Y1995070D1*
X1363848Y1996470D1*
X1357867Y1996940D1*
X1351885Y1996468D1*
X1346050Y1995066D1*
X1340507Y1992770D1*
X1335390Y1989633D1*
X1330829Y1985735D1*
X1326932Y1981171D1*
X1323798Y1976054D1*
X1321503Y1970511D1*
X1320103Y1964675D1*
X1319633Y1958693D1*
X1320106Y1952712D1*
X1321507Y1946877D1*
X1323804Y1941334D1*
X1326940Y1936217D1*
X1330838Y1931655D1*
X1335402Y1927759D1*
X1340519Y1924625D1*
X1346062Y1922330D1*
X1351898Y1920930D1*
X1357880Y1920460D1*
X1363861Y1920932D1*
X1369696Y1922334D1*
X1375239Y1924630D1*
X1380356Y1927767D1*
X1384918Y1931665D1*
X1387443Y1934460D1*
X1569271Y1934457D1*
X1571665Y1931655D1*
X1576229Y1927759D1*
X1581346Y1924625D1*
X1586889Y1922330D1*
X1592725Y1920930D1*
X1598707Y1920460D1*
X1604688Y1920932D1*
X1610523Y1922334D1*
X1616066Y1924630D1*
X1621183Y1927767D1*
X1625745Y1931665D1*
X1629641Y1936229D1*
X1632775Y1941346D1*
X1635070Y1946889D1*
X1636470Y1952725D1*
X1636940Y1958707D1*
X1636468Y1964688D1*
X1635066Y1970523D1*
X1634075Y1973209D1*
X1681237Y1973205D1*
X1680054Y1971775D1*
X1676839Y1966710D1*
X1674285Y1961281D1*
X1672432Y1955577D1*
X1671309Y1949684D1*
X1670932Y1943697D1*
X1671309Y1937710D1*
X1672434Y1931818D1*
X1674288Y1926113D1*
X1676842Y1920686D1*
X1680057Y1915621D1*
X1680756Y1914690D1*
X856574Y1914691D1*
X857346Y1915625D1*
X860561Y1920690D1*
X863115Y1926119D1*
X864968Y1931823D1*
X866091Y1937716D1*
X866468Y1943703D1*
X866091Y1949690D1*
X864966Y1955582D1*
X863112Y1961287D1*
X860558Y1966714D1*
X857343Y1971779D1*
X853519Y1976401D1*
X849146Y1980507D1*
X844293Y1984033D1*
X839036Y1986923D1*
X833459Y1989130D1*
X827648Y1990623D1*
X821696Y1991373D1*
X815697D1*
X809747Y1990621D1*
X803936Y1989129D1*
X798359Y1986920D1*
X793103Y1984031D1*
X788250Y1980504D1*
X783877Y1976397D1*
X780054Y1971775D1*
X776839Y1966710D1*
X774285Y1961281D1*
X772432Y1955577D1*
X771309Y1949684D1*
X770932Y1943697D1*
X771309Y1937710D1*
X772434Y1931818D1*
X774288Y1926113D1*
X776842Y1920686D1*
X780057Y1915621D1*
X780756Y1914690D1*
X756574Y1914691D1*
X757346Y1915625D1*
X760561Y1920690D1*
X763115Y1926119D1*
X764968Y1931823D1*
X766091Y1937716D1*
X766468Y1943703D1*
X766091Y1949690D1*
X764966Y1955582D1*
X763112Y1961287D1*
X760558Y1966714D1*
X757343Y1971779D1*
X753519Y1976401D1*
X749146Y1980507D1*
X744293Y1984033D1*
X739036Y1986923D1*
X733459Y1989130D1*
X727648Y1990623D1*
X721696Y1991373D1*
X715697D1*
X709747Y1990621D1*
X703936Y1989129D1*
X698359Y1986920D1*
X693103Y1984031D1*
X688250Y1980504D1*
X683877Y1976397D1*
X680054Y1971775D1*
X676839Y1966710D1*
X674285Y1961281D1*
X672432Y1955577D1*
X671309Y1949684D1*
X670932Y1943697D1*
X671309Y1937710D1*
X672434Y1931818D1*
X674288Y1926113D1*
X676842Y1920686D1*
X680057Y1915621D1*
X680749Y1914690D1*
X640675Y1914687D1*
X637019Y1917501D1*
X631552Y1920161D1*
X625661Y1921667D1*
X619587Y1921957D1*
X613579Y1921018D1*
X607884Y1918889D1*
X602734Y1915657D1*
X598339Y1911455D1*
X594881Y1906453D1*
X592501Y1900859D1*
X591294Y1894899D1*
X591313Y1888819D1*
X592554Y1882867D1*
X594969Y1877287D1*
X598457Y1872306D1*
X602877Y1868130D1*
X608048Y1864930D1*
X613755Y1862835D1*
X619768Y1861932D1*
X625840Y1862259D1*
X631722Y1863801D1*
X637172Y1866495D1*
X640842Y1869209D1*
X678424Y1869208D1*
X676839Y1866710D1*
X674285Y1861281D1*
X672432Y1855577D1*
X671309Y1849684D1*
X670932Y1843697D1*
X671309Y1837710D1*
X672434Y1831818D1*
X674288Y1826113D1*
X676842Y1820686D1*
X680057Y1815621D1*
X683881Y1810999D1*
X688254Y1806893D1*
X693107Y1803367D1*
X698364Y1800477D1*
X703941Y1798270D1*
X709752Y1796777D1*
X715704Y1796027D1*
X721703D1*
X727653Y1796779D1*
X733464Y1798271D1*
X739041Y1800480D1*
X744297Y1803369D1*
X749150Y1806896D1*
X753523Y1811003D1*
X757346Y1815625D1*
X760561Y1820690D1*
X763115Y1826119D1*
X764968Y1831823D1*
X766091Y1837716D1*
X766468Y1843703D1*
X766091Y1849690D1*
X764966Y1855582D1*
X763112Y1861287D1*
X760558Y1866714D1*
X759085Y1869209D1*
X778424Y1869208D1*
X776839Y1866710D1*
X774285Y1861281D1*
X772432Y1855577D1*
X771309Y1849684D1*
X770932Y1843697D1*
X771309Y1837710D1*
X772434Y1831818D1*
X774288Y1826113D1*
X776842Y1820686D1*
X780057Y1815621D1*
X783881Y1810999D1*
X788254Y1806893D1*
X793107Y1803367D1*
X798364Y1800477D1*
X803941Y1798270D1*
X809752Y1796777D1*
X815704Y1796027D1*
X821703D1*
X827653Y1796779D1*
X833464Y1798271D1*
X839041Y1800480D1*
X844297Y1803369D1*
X849150Y1806896D1*
X853523Y1811003D1*
X857346Y1815625D1*
X860561Y1820690D1*
X863115Y1826119D1*
X864968Y1831823D1*
X866091Y1837716D1*
X866468Y1843703D1*
X866091Y1849690D1*
X864966Y1855582D1*
X863112Y1861287D1*
X860558Y1866714D1*
X858973Y1869212D1*
X902151Y1869209D1*
X898485Y1866907D1*
X894090Y1862705D1*
X890632Y1857704D1*
X888251Y1852109D1*
X887045Y1846150D1*
X887064Y1840070D1*
X888305Y1834117D1*
X890720Y1828537D1*
X894208Y1823557D1*
X898628Y1819381D1*
X903798Y1816180D1*
X909506Y1814086D1*
X915519Y1813183D1*
X921591Y1813510D1*
X927473Y1815052D1*
X932923Y1817746D1*
X936002Y1819960D1*
X1046855D1*
X1043983Y1818157D1*
X1039588Y1813955D1*
X1036130Y1808953D1*
X1033750Y1803359D1*
X1032544Y1797399D1*
X1032562Y1791319D1*
X1033804Y1785367D1*
X1036218Y1779787D1*
X1039707Y1774806D1*
X1044127Y1770630D1*
X1049297Y1767430D1*
X1055004Y1765335D1*
X1061018Y1764432D1*
X1067090Y1764759D1*
X1072972Y1766301D1*
X1078422Y1768995D1*
X1081501Y1771209D1*
X1679692Y1771207D1*
X1676839Y1766710D1*
X1674285Y1761281D1*
X1672432Y1755577D1*
X1671309Y1749684D1*
X1670932Y1743697D1*
X1671309Y1737710D1*
X1672434Y1731818D1*
X1674288Y1726113D1*
X1676842Y1720686D1*
X1680057Y1715621D1*
X1683881Y1710999D1*
X1688254Y1706893D1*
X1693107Y1703367D1*
X1698364Y1700477D1*
X1703941Y1698270D1*
X1709752Y1696777D1*
X1715704Y1696027D1*
X1721703D1*
X1727653Y1696779D1*
X1733464Y1698271D1*
X1739041Y1700480D1*
X1744297Y1703369D1*
X1749150Y1706896D1*
X1753523Y1711003D1*
X1757346Y1715625D1*
X1760561Y1720690D1*
X1763115Y1726119D1*
X1764968Y1731823D1*
X1766091Y1737716D1*
X1766468Y1743703D1*
X1766091Y1749690D1*
X1764966Y1755582D1*
X1763112Y1761287D1*
X1760558Y1766714D1*
X1757704Y1771210D1*
X1836700Y1771209D1*
X1837710Y1771231D1*
X1843606Y1772259D1*
X1845294Y1772856D1*
X1848755Y1771586D1*
X1854768Y1770683D1*
X1860840Y1771010D1*
X1866722Y1772552D1*
X1872172Y1775246D1*
X1875850Y1777960D1*
X2437234Y1777961D1*
X2438377Y1776881D1*
X2443548Y1773680D1*
X2449255Y1771586D1*
X2455268Y1770683D1*
X2457645Y1770661D1*
Y1763609D1*
X2456666Y1761309D1*
X2455460Y1755350D1*
X2455478Y1749270D1*
X2456720Y1743317D1*
X2457646Y1741175D1*
X2457645Y1733365D1*
X2457709Y1725607D1*
X2458947Y1720364D1*
X2461663Y1715710D1*
X2465620Y1712054D1*
X2470472Y1709713D1*
X2475796Y1708892D1*
X2847016Y1707088D1*
X2844536Y1704667D1*
X2840676Y1700067D1*
X2837293Y1695104D1*
X2834422Y1689830D1*
X2832090Y1684296D1*
X2830321Y1678557D1*
X2829132Y1672671D1*
X2828535Y1666695D1*
Y1660690D1*
X2829134Y1654714D1*
X2830325Y1648827D1*
X2832095Y1643090D1*
X2834430Y1637556D1*
X2837302Y1632281D1*
X2840686Y1627321D1*
X2844546Y1622721D1*
X2848846Y1618528D1*
X2853541Y1614784D1*
X2855159Y1613659D1*
X2853529Y1612607D1*
X2848834Y1608861D1*
X2844536Y1604667D1*
X2840676Y1600067D1*
X2837293Y1595104D1*
X2834422Y1589830D1*
X2832090Y1584296D1*
X2830321Y1578557D1*
X2829132Y1572671D1*
X2828535Y1566695D1*
Y1560690D1*
X2829134Y1554714D1*
X2830325Y1548827D1*
X2832095Y1543090D1*
X2834430Y1537556D1*
X2837302Y1532281D1*
X2840686Y1527321D1*
X2843027Y1524531D1*
X2537854Y1524834D1*
X2471983Y1524899D1*
X2470335Y1524827D1*
X2465098Y1523564D1*
X2460459Y1520826D1*
X2456821Y1516851D1*
X2454503Y1511987D1*
X2453708Y1506659D1*
X2453704Y1476533D1*
X2450008Y1476709D1*
X2444001Y1475770D1*
X2438305Y1473641D1*
X2433155Y1470409D1*
X2428760Y1466207D1*
X2425302Y1461205D1*
X2422922Y1455611D1*
X2421716Y1449651D1*
X2421650Y1448889D1*
X2393447Y1420691D1*
X1760562Y1420696D1*
X1763115Y1426119D1*
X1764968Y1431823D1*
X1766091Y1437716D1*
X1766468Y1443703D1*
X1766091Y1449690D1*
X1764966Y1455582D1*
X1763112Y1461287D1*
X1760558Y1466714D1*
X1757343Y1471779D1*
X1754385Y1475460D1*
X1806573Y1475461D1*
X1825312Y1456718D1*
X1825313Y1456570D1*
X1826554Y1450617D1*
X1828969Y1445037D1*
X1832457Y1440057D1*
X1836877Y1435881D1*
X1842048Y1432680D1*
X1847755Y1430586D1*
X1853768Y1429683D1*
X1859840Y1430010D1*
X1865722Y1431552D1*
X1871172Y1434246D1*
X1874255Y1436460D1*
X2298020Y1436456D1*
X2298628Y1435881D1*
X2303798Y1432680D1*
X2309506Y1430586D1*
X2315519Y1429683D1*
X2321591Y1430010D1*
X2327473Y1431552D1*
X2332923Y1434246D1*
X2337721Y1437982D1*
X2341667Y1442607D1*
X2344602Y1447932D1*
X2346405Y1453739D1*
X2347002Y1459791D1*
X2346951Y1461460D1*
X2375760Y1461464D1*
X2376377Y1460881D1*
X2381548Y1457680D1*
X2387255Y1455586D1*
X2393268Y1454683D1*
X2399340Y1455010D1*
X2405222Y1456552D1*
X2410672Y1459246D1*
X2415470Y1462982D1*
X2419417Y1467607D1*
X2422351Y1472932D1*
X2424154Y1478739D1*
X2424751Y1484791D1*
X2424117Y1490838D1*
X2422280Y1496634D1*
X2419313Y1501941D1*
X2415338Y1506544D1*
X2410519Y1510251D1*
X2405052Y1512911D1*
X2399161Y1514418D1*
X2393087Y1514708D1*
X2387079Y1513768D1*
X2381384Y1511640D1*
X2376234Y1508407D1*
X2375649Y1507940D1*
X2301838Y1507941D1*
X2302935Y1509932D1*
X2304738Y1515739D1*
X2305335Y1521791D1*
X2304701Y1527838D1*
X2302864Y1533634D1*
X2299897Y1538941D1*
X2295922Y1543544D1*
X2291103Y1547251D1*
X2285636Y1549911D1*
X2279745Y1551418D1*
X2273671Y1551708D1*
X2267663Y1550768D1*
X2261968Y1548640D1*
X2256818Y1545407D1*
X2255638Y1544440D1*
X1920175Y1544438D1*
X1916519Y1547251D1*
X1911052Y1549911D1*
X1905161Y1551418D1*
X1899087Y1551708D1*
X1893079Y1550768D1*
X1887384Y1548640D1*
X1882234Y1545407D1*
X1877839Y1541205D1*
X1875678Y1538338D1*
X1860703Y1553310D1*
X1855923Y1556910D1*
X1850382Y1559170D1*
X1844449Y1559940D1*
X1805326D1*
X1758953Y1606312D1*
X1754174Y1609910D1*
X1748633Y1612170D1*
X1742700Y1612940D1*
X1654636Y1612941D1*
X1658220Y1615733D1*
X1662166Y1620357D1*
X1665100Y1625683D1*
X1666903Y1631490D1*
X1667501Y1637541D1*
X1666867Y1643588D1*
X1665029Y1649385D1*
X1662062Y1654692D1*
X1658087Y1659294D1*
X1653268Y1663002D1*
X1647801Y1665662D1*
X1641910Y1667169D1*
X1635836Y1667459D1*
X1629829Y1666519D1*
X1624133Y1664390D1*
X1619692Y1661691D1*
X1371218Y1661695D1*
X1369519Y1663002D1*
X1364052Y1665662D1*
X1358161Y1667169D1*
X1352087Y1667459D1*
X1346079Y1666519D1*
X1340384Y1664390D1*
X1335234Y1661158D1*
X1330839Y1656956D1*
X1327381Y1651955D1*
X1325001Y1646360D1*
X1323794Y1640401D1*
X1323813Y1634321D1*
X1325054Y1628368D1*
X1327469Y1622788D1*
X1330957Y1617808D1*
X1335377Y1613632D1*
X1336318Y1612940D1*
X1106276Y1612938D1*
X1103268Y1615251D1*
X1097801Y1617911D1*
X1091910Y1619418D1*
X1085836Y1619708D1*
X1079829Y1618768D1*
X1074133Y1616640D1*
X1068983Y1613407D1*
X1064588Y1609205D1*
X1061130Y1604204D1*
X1058750Y1598609D1*
X1057544Y1592650D1*
X1057562Y1586570D1*
X1058804Y1580617D1*
X1061218Y1575037D1*
X1064707Y1570057D1*
X1069127Y1565881D1*
X1074297Y1562680D1*
X1080004Y1560586D1*
X1086018Y1559683D1*
X1088172Y1559657D1*
X1086422Y1555541D1*
X1085216Y1549582D1*
X1085234Y1543502D1*
X1086477Y1537549D1*
X1088892Y1531969D1*
X1092380Y1526989D1*
X1096800Y1522813D1*
X1101969Y1519612D1*
X1107678Y1517518D1*
X1113691Y1516616D1*
X1119762Y1516941D1*
X1125644Y1518483D1*
X1127957Y1519460D1*
X1209649Y1519457D1*
X1208339Y1518205D1*
X1204881Y1513204D1*
X1202501Y1507609D1*
X1201294Y1501650D1*
X1201313Y1495570D1*
X1202554Y1489617D1*
X1204969Y1484037D1*
X1208457Y1479057D1*
X1212877Y1474881D1*
X1218048Y1471680D1*
X1223755Y1469586D1*
X1229768Y1468683D1*
X1235840Y1469010D1*
X1241722Y1470552D1*
X1247172Y1473246D1*
X1250256Y1475460D1*
X1683104Y1475462D1*
X1680054Y1471775D1*
X1677621Y1467941D1*
X1217469Y1467944D1*
X1215770Y1469251D1*
X1210302Y1471911D1*
X1204411Y1473418D1*
X1198338Y1473708D1*
X1192330Y1472768D1*
X1186634Y1470640D1*
X1181485Y1467407D1*
X1177090Y1463205D1*
X1173632Y1458204D1*
X1171251Y1452609D1*
X1170045Y1446650D1*
X1170064Y1440570D1*
X1171305Y1434617D1*
X1173720Y1429037D1*
X1177208Y1424057D1*
X1180627Y1420691D1*
X975468D1*
X969655Y1419940D1*
X964121Y1417667D1*
X959371Y1414031D1*
X911775Y1366440D1*
X860686Y1366444D1*
X860558Y1366714D1*
X857343Y1371779D1*
X853519Y1376401D1*
X849146Y1380507D1*
X844293Y1384033D1*
X839036Y1386923D1*
X833459Y1389130D1*
X827648Y1390623D1*
X821696Y1391373D1*
X815697D1*
X809747Y1390621D1*
X803936Y1389129D1*
X798359Y1386920D1*
X793103Y1384031D1*
X788250Y1380504D1*
X783877Y1376397D1*
X780054Y1371775D1*
X776839Y1366710D1*
X774285Y1361281D1*
X772432Y1355577D1*
X771309Y1349684D1*
X770932Y1343697D1*
X771287Y1338067D1*
X766115Y1338085D1*
X766468Y1343703D1*
X766091Y1349690D1*
X764966Y1355582D1*
X763112Y1361287D1*
X760558Y1366714D1*
X757343Y1371779D1*
X753519Y1376401D1*
X749146Y1380507D1*
X744293Y1384033D1*
X739036Y1386923D1*
X733459Y1389130D1*
X727648Y1390623D1*
X721696Y1391373D1*
X715697D1*
X709747Y1390621D1*
X703936Y1389129D1*
X698359Y1386920D1*
X693103Y1384031D1*
X688250Y1380504D1*
X683877Y1376397D1*
X680054Y1371775D1*
X676839Y1366710D1*
X674285Y1361281D1*
X672432Y1355577D1*
X671309Y1349684D1*
X670932Y1343697D1*
X671256Y1338558D1*
X623293Y1338791D1*
X491289Y1339440D1*
X488074Y1339170D1*
X482961Y1337473D1*
X478566Y1334356D1*
X475275Y1330092D1*
X473371Y1325046D1*
X472960Y1321182D1*
Y1179373D1*
X473032Y1172087D1*
X474296Y1166850D1*
X477033Y1162210D1*
X481008Y1158573D1*
X485872Y1156255D1*
X491200Y1155460D1*
X672410Y1155456D1*
X671309Y1149684D1*
X670932Y1143697D1*
X671309Y1137710D1*
X672434Y1131818D1*
X674288Y1126113D1*
X676842Y1120686D1*
X680057Y1115621D1*
X683881Y1110999D1*
X688254Y1106893D1*
X693107Y1103367D1*
X698364Y1100477D1*
X703941Y1098270D1*
X709752Y1096777D1*
X715704Y1096027D1*
X721703D1*
X727653Y1096779D1*
X733464Y1098271D1*
X739041Y1100480D1*
X744297Y1103369D1*
X749150Y1106896D1*
X753523Y1111003D1*
X757346Y1115625D1*
X760561Y1120690D1*
X763115Y1126119D1*
X764968Y1131823D1*
X766091Y1137716D1*
X766468Y1143703D1*
X766091Y1149690D1*
X764995Y1155460D1*
X772410Y1155456D1*
X771309Y1149684D1*
X770932Y1143697D1*
X771309Y1137710D1*
X772434Y1131818D1*
X774288Y1126113D1*
X776842Y1120686D1*
X780057Y1115621D1*
X783881Y1110999D1*
X788254Y1106893D1*
X793107Y1103367D1*
X798364Y1100477D1*
X803941Y1098270D1*
X809752Y1096777D1*
X815704Y1096027D1*
X821703D1*
X827653Y1096779D1*
X833464Y1098271D1*
X839041Y1100480D1*
X844297Y1103369D1*
X849150Y1106896D1*
X853523Y1111003D1*
X857346Y1115625D1*
X860561Y1120690D1*
X860687Y1120960D1*
X1505483Y1120961D1*
X1506627Y1119881D1*
X1511797Y1116680D1*
X1517504Y1114586D1*
X1523518Y1113683D1*
X1529590Y1114010D1*
X1535472Y1115552D1*
X1540922Y1118246D1*
X1545720Y1121982D1*
X1549666Y1126607D1*
X1552600Y1131932D1*
X1554403Y1137739D1*
X1555001Y1143791D1*
X1554367Y1149838D1*
X1552600Y1155460D1*
X1672410Y1155456D1*
X1671309Y1149684D1*
X1670932Y1143697D1*
X1671309Y1137710D1*
X1672434Y1131818D1*
X1674288Y1126113D1*
X1676842Y1120686D1*
X1680057Y1115621D1*
X1683881Y1110999D1*
X1688254Y1106893D1*
X1693107Y1103367D1*
X1698364Y1100477D1*
X1703941Y1098270D1*
X1709752Y1096777D1*
X1715704Y1096027D1*
X1721703D1*
X1727653Y1096779D1*
X1733464Y1098271D1*
X1739041Y1100480D1*
X1744297Y1103369D1*
X1749150Y1106896D1*
X1753523Y1111003D1*
X1757346Y1115625D1*
X1760561Y1120690D1*
X1763115Y1126119D1*
X1764968Y1131823D1*
X1766091Y1137716D1*
X1766468Y1143703D1*
X1766091Y1149690D1*
X1764989Y1155461D1*
X1813700Y1155460D1*
X1816914Y1155746D1*
X1822019Y1157468D1*
X1826401Y1160609D1*
X1827888Y1162237D1*
X1864885Y1207934D1*
X2268645Y1206709D1*
X2271860Y1206985D1*
X2276970Y1208692D1*
X2281359Y1211817D1*
X2284642Y1216087D1*
X2286536Y1221136D1*
X2286940Y1224961D1*
X2286939Y1248632D1*
X2288108Y1251119D1*
X2289961Y1256823D1*
X2291086Y1262716D1*
X2291461Y1268703D1*
X2291085Y1274690D1*
X2289960Y1280582D1*
X2288107Y1286287D1*
X2286941Y1288762D1*
X2286940Y1312451D1*
X2286654Y1315665D1*
X2284932Y1320770D1*
X2281794Y1325149D1*
X2277514Y1328420D1*
X2272459Y1330298D1*
X2268773Y1330691D1*
X1765224Y1333165D1*
X1766091Y1337716D1*
X1766468Y1343703D1*
X1766091Y1349690D1*
X1764966Y1355582D1*
X1763112Y1361287D1*
X1760558Y1366714D1*
X1757343Y1371779D1*
X1754502Y1375214D1*
X1808873Y1375210D1*
X2402871D1*
X2408259Y1375859D1*
X2413834Y1378028D1*
X2418654Y1381582D1*
X2442426Y1405346D1*
X2453966Y1416888D1*
X2456262Y1417011D1*
X2462144Y1418553D1*
X2466683Y1418330D1*
X2472014Y1417553D1*
X2479620Y1417581D1*
X2482268Y1417183D1*
X2488340Y1417510D1*
X2488737Y1417613D1*
X2503057Y1417665D1*
X2506268Y1417183D1*
X2512340Y1417510D1*
X2513070Y1417700D1*
X2828460Y1418840D1*
Y1403460D1*
X2948940D1*
Y1433208D1*
X2949061Y1433755D1*
X2949440Y1437477D1*
Y1500470D1*
X2949371Y1507796D1*
X2948940Y1510445D1*
Y1523940D1*
X2935447D1*
X2934129Y1524207D1*
X2934852Y1524985D1*
X2938477Y1529772D1*
X2941608Y1534897D1*
X2944213Y1540308D1*
X2946266Y1545952D1*
X2947747Y1551771D1*
X2948641Y1557710D1*
X2948940Y1563708D1*
X2948640Y1569705D1*
X2947745Y1575644D1*
X2946262Y1581464D1*
X2944207Y1587107D1*
X2941600Y1592518D1*
X2938468Y1597641D1*
X2934842Y1602427D1*
X2930756Y1606830D1*
X2926252Y1610802D1*
X2922258Y1613674D1*
X2922260Y1613728D1*
X2926266Y1616607D1*
X2930767Y1620582D1*
X2934852Y1624985D1*
X2938477Y1629772D1*
X2941608Y1634897D1*
X2944213Y1640308D1*
X2946266Y1645952D1*
X2947747Y1651771D1*
X2948641Y1657710D1*
X2948940Y1663708D1*
X2948640Y1669705D1*
X2947745Y1675644D1*
X2946262Y1681464D1*
X2944207Y1687107D1*
X2941600Y1692518D1*
X2938468Y1697641D1*
X2934842Y1702427D1*
X2930756Y1706830D1*
X2930066Y1707439D1*
X2933190Y1708678D1*
X2937585Y1711794D1*
X2940876Y1716058D1*
X2942779Y1721104D1*
X2943190Y1724982D1*
X2943188Y1738179D1*
X2944213Y1740308D1*
X2946266Y1745952D1*
X2947747Y1751771D1*
X2948641Y1757710D1*
X2948940Y1763708D1*
X2948640Y1769705D1*
X2947745Y1775644D1*
X2946262Y1781464D1*
X2944207Y1787107D1*
X2943190Y1789384D1*
Y1794592D1*
X2943125Y1801483D1*
X2941885Y1806726D1*
X2939167Y1811377D1*
X2935209Y1815032D1*
X2930355Y1817371D1*
X2925031Y1818190D1*
X2914117Y1818238D1*
X2910701Y1819779D1*
X2905008Y1821691D1*
X2899153Y1823027D1*
X2893193Y1823772D1*
X2887191Y1823920D1*
X2881201Y1823472D1*
X2875288Y1822428D1*
X2869507Y1820801D1*
X2863917Y1818606D1*
X2863630Y1818459D1*
X2643873Y1819432D1*
X2479399Y1820157D1*
X2477338Y1822544D1*
X2472519Y1826251D1*
X2467052Y1828911D1*
X2461161Y1830418D1*
X2455087Y1830708D1*
X2449079Y1829768D1*
X2443384Y1827640D1*
X2438234Y1824407D1*
X2437050Y1823440D1*
X1875675Y1823438D1*
X1872019Y1826251D1*
X1866552Y1828911D1*
X1860661Y1830418D1*
X1854587Y1830708D1*
X1848579Y1829768D1*
X1842884Y1827640D1*
X1837734Y1824407D1*
X1836193Y1822935D1*
X1837734Y1824407D1*
X1842884Y1827640D1*
X1848579Y1829768D1*
X1854587Y1830708D1*
X1860661Y1830418D1*
X1866552Y1828911D1*
X1872019Y1826251D1*
X1875675Y1823438D1*
X1481959Y2356180D2*
X1481960Y2172493D1*
X1459867Y2150402D1*
X1456192Y2150691D1*
X1450210Y2150218D1*
X1444376Y2148817D1*
X1438833Y2146520D1*
X1433717Y2143384D1*
X1429155Y2139486D1*
X1425259Y2134922D1*
X1422124Y2129805D1*
X1419829Y2124262D1*
X1418430Y2118426D1*
X1417960Y2112444D1*
X1418431Y2106462D1*
X1419833Y2100628D1*
X1420352Y2099148D1*
X1418956Y2099037D1*
X1413121Y2097636D1*
X1407578Y2095339D1*
X1402461Y2092203D1*
X1397899Y2088305D1*
X1394003Y2083741D1*
X1390869Y2078624D1*
X1388574Y2073081D1*
X1387174Y2067245D1*
X1386704Y2061263D1*
X1387176Y2055281D1*
X1388578Y2049447D1*
X1390875Y2043903D1*
X1394011Y2038787D1*
X1397909Y2034225D1*
X1402473Y2030329D1*
X1407590Y2027195D1*
X1413133Y2024899D1*
X1418969Y2023499D1*
X1424951Y2023029D1*
X1430932Y2023502D1*
X1436767Y2024903D1*
X1442310Y2027200D1*
X1447427Y2030336D1*
X1451989Y2034234D1*
X1454522Y2037029D1*
X1526771Y2037027D1*
X1529165Y2034225D1*
X1533729Y2030329D1*
X1538846Y2027195D1*
X1544389Y2024899D1*
X1550225Y2023499D1*
X1556207Y2023029D1*
X1562188Y2023502D1*
X1568023Y2024903D1*
X1573566Y2027200D1*
X1578683Y2030336D1*
X1583245Y2034234D1*
X1587141Y2038798D1*
X1590275Y2043915D1*
X1592570Y2049459D1*
X1593970Y2055294D1*
X1594440Y2061276D1*
X1593968Y2067258D1*
X1592566Y2073092D1*
X1590270Y2078636D1*
X1587133Y2083752D1*
X1583235Y2088314D1*
X1578671Y2092210D1*
X1573554Y2095344D1*
X1568011Y2097640D1*
X1562175Y2099040D1*
X1556193Y2099510D1*
X1550212Y2099037D1*
X1544377Y2097636D1*
X1538834Y2095339D1*
X1533717Y2092203D1*
X1529155Y2088305D1*
X1526623Y2085510D1*
X1483323D1*
X1487140Y2089980D1*
X1490275Y2095096D1*
X1492570Y2100640D1*
X1493969Y2106476D1*
X1494439Y2112457D1*
X1494251Y2116222D1*
X1523327Y2145297D1*
X1524057Y2146060D1*
X1527528Y2150934D1*
X1529700Y2156511D1*
X1530439Y2162451D1*
X1530443Y2346162D1*
X1635829Y2451548D1*
X1636558Y2452309D1*
X1640029Y2457184D1*
X1642201Y2462762D1*
X1642940Y2468700D1*
X1642936Y2577406D1*
X1659987Y2594460D1*
X1858020Y2594457D1*
X1860415Y2591655D1*
X1864978Y2587759D1*
X1870095Y2584625D1*
X1875640Y2582330D1*
X1881474Y2580930D1*
X1887457Y2580460D1*
X1893439Y2580932D1*
X1899273Y2582334D1*
X1904817Y2584630D1*
X1909932Y2587767D1*
X1914494Y2591665D1*
X1918390Y2596229D1*
X1921525Y2601346D1*
X1923821Y2606889D1*
X1925220Y2612725D1*
X1925690Y2618707D1*
X1925218Y2624688D1*
X1923817Y2630523D1*
X1921519Y2636066D1*
X1918382Y2641183D1*
X1914485Y2645745D1*
X1909922Y2649641D1*
X1904805Y2652775D1*
X1899260Y2655070D1*
X1893426Y2656470D1*
X1887443Y2656940D1*
X1881461Y2656468D1*
X1875627Y2655066D1*
X1870083Y2652770D1*
X1864968Y2649633D1*
X1860406Y2645735D1*
X1857877Y2642940D1*
X1655888D1*
X1648913Y2642918D1*
X1643010Y2641926D1*
X1637532Y2639518D1*
X1632810Y2635840D1*
X1601560Y2604590D1*
X1598889Y2601418D1*
X1596070Y2596138D1*
X1594632Y2590323D1*
X1594460Y2587436D1*
X1594456Y2478737D1*
X1489058Y2373339D1*
X1486388Y2370166D1*
X1483569Y2364886D1*
X1482130Y2359071D1*
X1481959Y2356180D1*
X1575578Y1706960D2*
X1111457D1*
X1109672Y1705746D1*
X1104222Y1703052D1*
X1098340Y1701510D1*
X1092268Y1701183D1*
X1086255Y1702086D1*
X1080548Y1704180D1*
X1075377Y1707381D1*
X1070957Y1711557D1*
X1067469Y1716537D1*
X1065054Y1722117D1*
X1063813Y1728070D1*
X1063794Y1734150D1*
X1065001Y1740109D1*
X1067381Y1745704D1*
X1070839Y1750705D1*
X1075234Y1754907D1*
X1080384Y1758140D1*
X1086079Y1760268D1*
X1092087Y1761208D1*
X1098161Y1760918D1*
X1104052Y1759411D1*
X1109519Y1756751D1*
X1111218Y1755444D1*
X1213653Y1755440D1*
X1590417D1*
X1590804Y1755544D1*
X1596812Y1756483D1*
X1602885Y1756193D1*
X1608776Y1754687D1*
X1614243Y1752027D1*
X1619062Y1748319D1*
X1623037Y1743717D1*
X1626004Y1738410D1*
X1627842Y1732613D1*
X1628476Y1726476D1*
X1627878Y1720515D1*
X1626075Y1714708D1*
X1623141Y1709382D1*
X1619195Y1704758D1*
X1614397Y1701022D1*
X1608947Y1698327D1*
X1603065Y1696785D1*
X1596993Y1696459D1*
X1590980Y1697361D1*
X1585272Y1699456D1*
X1580102Y1702657D1*
X1575682Y1706833D1*
X1575590Y1706964D1*
X1875654Y1777957D2*
X1872172Y1775246D1*
X1866722Y1772552D1*
X1860840Y1771010D1*
X1854768Y1770683D1*
X1848755Y1771586D1*
X1845294Y1772856D1*
D32*
X818700Y443700D3*
D33*
Y543700D3*
Y643700D3*
Y743700D3*
Y843700D3*
Y943700D3*
Y1043700D3*
Y1143700D3*
Y1243700D3*
Y1343700D3*
Y1443700D3*
Y1543700D3*
Y1643700D3*
Y1743700D3*
Y1843700D3*
Y1943700D3*
Y2043700D3*
Y2143700D3*
Y2243700D3*
D32*
X718700Y443700D3*
D33*
Y543700D3*
Y643700D3*
Y743700D3*
Y843700D3*
Y943700D3*
Y1043700D3*
Y1143700D3*
Y1243700D3*
Y1343700D3*
Y1443700D3*
Y1543700D3*
Y1643700D3*
Y1743700D3*
Y1843700D3*
Y1943700D3*
Y2043700D3*
Y2143700D3*
Y2243700D3*
D32*
X1718700Y443700D3*
D33*
Y543700D3*
Y643700D3*
Y743700D3*
Y843700D3*
Y943700D3*
Y1043700D3*
Y1143700D3*
Y1243700D3*
Y1343700D3*
Y1443700D3*
Y1543700D3*
Y1643700D3*
Y1743700D3*
Y1843700D3*
Y1943700D3*
Y2043700D3*
Y2143700D3*
Y2243700D3*
D32*
X2443700Y2618700D3*
D33*
X2343700D3*
X2243700D3*
D34*
X2036023Y961810D3*
Y725590D3*
D35*
X2221062Y843700D3*
D32*
X2243701Y1068700D3*
D33*
X2243697Y1168700D3*
X2243694Y1268700D3*
D38*
X531495Y531495D3*
Y2618109D3*
X3011810D3*
Y531495D3*
D44*
X2888700Y1463700D3*
D45*
Y1563700D3*
Y1663700D3*
Y1763700D3*
D44*
Y2058700D3*
D45*
Y2158700D3*
Y2258700D3*
Y2358700D3*
D44*
X1018700Y2518700D3*
D45*
X918700D3*
X818700D3*
X718700D3*
D44*
X1518700D3*
D45*
X1418700D3*
X1318700D3*
X1218700D3*
D44*
X2018700D3*
D45*
X1918700D3*
X1818700D3*
X1718700D3*
M02*
