G04 DipTrace Beta 4.1.9.0*
G04 BottomMask.gbr*
%MOIN*%
G04 #@! TF.FileFunction,Soldermask,Bot*
G04 #@! TF.Part,Single*
%ADD57C,0.03937*%
%ADD78C,0.08794*%
%ADD80R,0.08794X0.08794*%
%ADD92C,0.20394*%
%ADD98O,0.08268X0.12205*%
%ADD100O,0.12205X0.08268*%
%ADD102C,0.062995*%
%ADD104R,0.062995X0.062995*%
%FSLAX26Y26*%
G04*
G70*
G90*
G75*
G01*
G04 BotMask*
%LPD*%
D104*
X818700Y443700D3*
D102*
Y543700D3*
Y643700D3*
Y743700D3*
Y843700D3*
Y943700D3*
Y1043700D3*
Y1143700D3*
Y1243700D3*
Y1343700D3*
Y1443700D3*
Y1543700D3*
Y1643700D3*
Y1743700D3*
Y1843700D3*
Y1943700D3*
Y2043700D3*
Y2143700D3*
Y2243700D3*
D104*
X718700Y443700D3*
D102*
Y543700D3*
Y643700D3*
Y743700D3*
Y843700D3*
Y943700D3*
Y1043700D3*
Y1143700D3*
Y1243700D3*
Y1343700D3*
Y1443700D3*
Y1543700D3*
Y1643700D3*
Y1743700D3*
Y1843700D3*
Y1943700D3*
Y2043700D3*
Y2143700D3*
Y2243700D3*
D104*
X1718700Y443700D3*
D102*
Y543700D3*
Y643700D3*
Y743700D3*
Y843700D3*
Y943700D3*
Y1043700D3*
Y1143700D3*
Y1243700D3*
Y1343700D3*
Y1443700D3*
Y1543700D3*
Y1643700D3*
Y1743700D3*
Y1843700D3*
Y1943700D3*
Y2043700D3*
Y2143700D3*
Y2243700D3*
D104*
X2443700Y2618700D3*
D102*
X2343700D3*
X2243700D3*
D100*
X2036023Y961810D3*
Y725590D3*
D98*
X2221062Y843700D3*
D104*
X2243701Y1068700D3*
D102*
X2243697Y1168700D3*
X2243694Y1268700D3*
D92*
X531495Y531495D3*
Y2618109D3*
X3011810D3*
Y531495D3*
D57*
X1095839Y519478D3*
X1410799Y519483D3*
D80*
X2888700Y1463700D3*
D78*
Y1563700D3*
Y1663700D3*
Y1763700D3*
D80*
Y2058700D3*
D78*
Y2158700D3*
Y2258700D3*
Y2358700D3*
D80*
X1018700Y2518700D3*
D78*
X918700D3*
X818700D3*
X718700D3*
D80*
X1518700D3*
D78*
X1418700D3*
X1318700D3*
X1218700D3*
D80*
X2018700D3*
D78*
X1918700D3*
X1818700D3*
X1718700D3*
M02*
