M48
INCH
T01C0.0118
T02C0.0191
T03C0.0354
T04C0.0394
T05C0.055
T06C0.14
%
T01
X+024850Y+014819
X+025087Y+014817
X+025077Y+014472
X+024837Y+014472
X+024516Y+014467
X+024192Y+014570
X+023947Y+014847
X+023170Y+014597
X+022753Y+015217
X+022889Y+015893
X+022700Y+016169
X+022983Y+016466
X+023717Y+016620
X+023717Y+016180
X+024208Y+016180
X+024574Y+016169
X+024698Y+016659
X+024208Y+016659
X+024208Y+015679
X+023717Y+015679
X+024698Y+015679
X+024854Y+017524
X+025094Y+017524
X+025089Y+017854
X+024854Y+017854
X+024567Y+018007
X+024357Y+017712
X+022984Y+017464
X+024514Y+020334
X+024861Y+020405
X+025090Y+020405
X+025097Y+020720
X+024869Y+020728
X+024167Y+020594
X+023884Y+020739
X+023617Y+021484
X+023617Y+021760
X+023617Y+022035
X+023617Y+022350
X+023617Y+022626
X+024208Y+022665
X+024208Y+022350
X+024208Y+022035
X+024208Y+021760
X+024208Y+021484
X+024798Y+021484
X+024798Y+021799
X+024798Y+022389
X+024798Y+022665
X+024872Y+023430
X+025102Y+023430
X+025104Y+023760
X+024859Y+023760
X+024527Y+023892
X+024361Y+023602
X+023000Y+023375
X+022825Y+022323
X+022629Y+022074
X+022883Y+021793
X+022761Y+021461
X+022562Y+021157
X+019007Y+021217
X+018572Y+020942
X+018027Y+022062
X+018317Y+023892
X+014249Y+021875
X+012937Y+020750
X+011312Y+020125
X+010749Y+021125
X+011312Y+022125
X+010375Y+023125
X+008687Y+023125
X+009170Y+018432
X+010624Y+017944
X+010937Y+017312
X+010874Y+015897
X+011151Y+015466
X+012312Y+014987
X+012000Y+014437
X+013987Y+013432
X+015249Y+011437
X+016187Y+011499
X+016375Y+010312
X+018062Y+010437
X+018312Y+007437
X+013737Y+010587
X+011584Y+008959
X+010874Y+010499
X+009170Y+008455
X+013537Y+016375
X+012312Y+018432
X+015249Y+019959
X+015984Y+017265
X+016374Y+016375
X+018062Y+016157
X+017977Y+017262
X+018562Y+018007
X+019007Y+017262
X+019007Y+015217
X+018552Y+014597
X+026524Y+014114
X+027475Y+014082
X+027790Y+014082
X+027790Y+013728
X+027475Y+013728
X+027484Y+018274
X+027799Y+018274
X+027799Y+018628
X+027484Y+018628
X+027475Y+019634
X+027790Y+019634
X+027790Y+019988
X+027475Y+019988
X+026491Y+020008
X+026497Y+018265
X+026491Y+024240
X+027484Y+024180
X+027799Y+024180
X+027799Y+024534
X+027484Y+024534
X+026167Y+004977
X+006212Y+018919
T02
X+025848Y+011119
X+025398Y+009353
X+025399Y+008972
X+025392Y+008602
X+025396Y+008250
X+024200Y+008252
X+024196Y+008604
X+024203Y+008974
X+024201Y+009355
X+023490Y+010740
X+023461Y+011168
X+023458Y+011652
X+028312Y+012812
X+026006Y+006321
X+025990Y+005921
X+025988Y+005551
X+025559Y+005543
X+025557Y+005909
X+025566Y+006337
X+027562Y+004687
X+027954Y+005117
X+022751Y+005273
X+022734Y+005663
X+022717Y+006007
X+015937Y+005937
X+015687Y+008749
X+013037Y+012937
X+008937Y+010937
X+009812Y+008749
X+009812Y+005937
X+005187Y+006687
X+005749Y+012125
X+005187Y+012875
X+013579Y+019587
X+014249Y+020613
X+014562Y+021125
X+015562Y+020613
X+015987Y+019587
X+019454Y+021560
X+019834Y+021550
X+020214Y+021560
X+020194Y+022560
X+019814Y+022560
X+019454Y+022570
X+018875Y+026187
X+013375Y+022624
X+019474Y+016664
X+019834Y+016654
X+020214Y+016654
X+020234Y+015654
X+019854Y+015644
X+019474Y+015654
T03
X+008187Y+004437
X+008187Y+005437
X+007187Y+005437
X+007187Y+004437
X+007187Y+006437
X+008187Y+006437
X+008187Y+007437
X+007187Y+007437
X+007187Y+008437
X+008187Y+008437
X+008187Y+009437
X+007187Y+009437
X+007187Y+010437
X+008187Y+010437
X+008187Y+011437
X+007187Y+011437
X+007187Y+012437
X+008187Y+012437
X+008187Y+013437
X+008187Y+014437
X+007187Y+014437
X+007187Y+013437
X+007187Y+015437
X+008187Y+015437
X+008187Y+016437
X+008187Y+017437
X+007187Y+017437
X+007187Y+016437
X+007187Y+018437
X+008187Y+018437
X+008187Y+019437
X+007187Y+019437
X+007187Y+020437
X+008187Y+020437
X+008187Y+021437
X+008187Y+022437
X+007187Y+022437
X+007187Y+021437
X+017187Y+021437
X+017187Y+022437
X+017187Y+020437
X+017187Y+019437
X+017187Y+018437
X+017187Y+017437
X+017187Y+016437
X+017187Y+015437
X+017187Y+014437
X+017187Y+013437
X+017187Y+012437
X+017187Y+011437
X+017187Y+010437
X+017187Y+009437
X+017187Y+008437
X+017187Y+007437
X+017187Y+006437
X+017187Y+005437
X+017187Y+004437
X+022437Y+010687
X+022437Y+011687
X+022437Y+012687
X+022437Y+026187
X+023437Y+026187
X+024437Y+026187
T04
X+020557Y+009618G85X+020163Y+009618
X+022211Y+008634G85X+022211Y+008240
X+020557Y+007256G85X+020163Y+007256
X+014108Y+005195
X+010958Y+005195
T05
X+028887Y+014637
X+028887Y+015637
X+028887Y+016637
X+028887Y+017637
X+028887Y+020587
X+028887Y+021587
X+028887Y+022587
X+028887Y+023587
X+020187Y+025187
X+019187Y+025187
X+018187Y+025187
X+017187Y+025187
X+015187Y+025187
X+014187Y+025187
X+013187Y+025187
X+012187Y+025187
X+010187Y+025187
X+009187Y+025187
X+008187Y+025187
X+007187Y+025187
T06
X+005315Y+005315
X+005315Y+026181
X+030118Y+026181
X+030118Y+005315
T00
M30
